<?xml version="1.0" encoding="UTF-8"?>
<!DOCTYPE svg PUBLIC "-//W3C//DTD SVG 1.1//EN" "http://www.w3.org/Graphics/SVG/1.1/DTD/svg11.dtd">
<!-- Creator: CorelDRAW -->
<svg xmlns="http://www.w3.org/2000/svg" xml:space="preserve" width="0.290949in" height="0.332295in" style="shape-rendering:geometricPrecision; text-rendering:geometricPrecision; image-rendering:optimizeQuality; fill-rule:evenodd; clip-rule:evenodd"
viewBox="0 0 0.997494 1.13925"
 xmlns:xlink="http://www.w3.org/1999/xlink">
 <defs>
  <style type="text/css">
   <![CDATA[
    .str0 {stroke:#2C2C2C;stroke-width:0.0476064}
    .fil2 {fill:white}
    .fil3 {fill:#666666;fill-rule:nonzero}
    .fil1 {fill:#B2B2B2;fill-rule:nonzero}
    .fil0 {fill:url(#id0)}
   ]]>
  </style>
  <linearGradient id="id0" gradientUnits="userSpaceOnUse" x1="0.02381" y1="0.569617" x2="0.973684" y2="0.569617">
   <stop offset="0" style="stop-color:#DFDFDF"/>
   <stop offset="0.709804" style="stop-color:#CACACA"/>
   <stop offset="1" style="stop-color:#B4B4B4"/>
  </linearGradient>
 </defs>
 <g id="Layer_x0020_1">
  <metadata id="CorelCorpID_0Corel-Layer"/>
  <rect class="fil0 str0" x="0.02381" y="0.02381" width="0.949874" height="1.09163" rx="0.0712679" ry="0.0712679"/>
  <polygon class="fil1" points="0.808162,0.901242 0.189089,0.901242 0.189089,0.807609 0.808162,0.807609 "/>
  <polygon class="fil1" points="0.808162,0.328399 0.189089,0.328399 0.189089,0.234766 0.808162,0.234766 "/>
  <polygon class="fil2" points="0.0966301,0.567363 0.506785,0.567363 0.902335,0.567363 0.902335,0.758733 0.506785,0.758733 0.506785,0.943706 0.0966301,0.943706 "/>
  <polygon class="fil1" points="0.808162,0.520404 0.189089,0.520404 0.189089,0.426771 0.808162,0.426771 "/>
  <polygon class="fil1" points="0.808162,0.709251 0.189089,0.709251 0.189089,0.615617 0.808162,0.615617 "/>
  <polygon class="fil3" points="0.506785,0.901242 0.189089,0.901242 0.189089,0.807609 0.506785,0.807609 "/>
  <polygon class="fil3" points="0.808162,0.712396 0.189089,0.712396 0.189089,0.618762 0.808162,0.618762 "/>
 </g>
</svg>
