<?xml version="1.0" encoding="UTF-8"?>
<!DOCTYPE svg PUBLIC "-//W3C//DTD SVG 1.1//EN" "http://www.w3.org/Graphics/SVG/1.1/DTD/svg11.dtd">
<!-- Creator: CorelDRAW -->
<svg xmlns="http://www.w3.org/2000/svg" xml:space="preserve" width="0.338492in" height="0.38752in" style="shape-rendering:geometricPrecision; text-rendering:geometricPrecision; image-rendering:optimizeQuality; fill-rule:evenodd; clip-rule:evenodd"
viewBox="0 0 2.14854 2.45973"
 xmlns:xlink="http://www.w3.org/1999/xlink">
 <defs>
  <style type="text/css">
   <![CDATA[
    .str0 {stroke:#4C4C4C;stroke-width:0.132245;stroke-linejoin:round}
    .fil2 {fill:#666666}
    .fil0 {fill:#656565;fill-rule:nonzero}
    .fil1 {fill:url(#id0);fill-rule:nonzero}
   ]]>
  </style>
  <linearGradient id="id0" gradientUnits="userSpaceOnUse" x1="0.221633" y1="1.34577" x2="1.924" y2="1.34577">
   <stop offset="0" style="stop-color:white"/>
   <stop offset="0.780392" style="stop-color:#E3E3E3"/>
   <stop offset="1" style="stop-color:#C6C6C6"/>
  </linearGradient>
 </defs>
 <g id="Layer_x0020_1">
  <metadata id="CorelCorpID_0Corel-Layer"/>
  <polygon class="fil0 str0" points="2.08241,2.39361 0.0661227,2.39361 0.0661227,0.0661227 2.08241,0.0661227 "/>
  <polygon class="fil1" points="1.924,2.21441 0.221633,2.21441 0.221633,0.477153 1.924,0.477153 "/>
  <g id="_84004528">
   <polygon id="_83216944" class="fil2" points="1.924,0.610048 1.89084,0.61627 1.85034,0.656204 1.79456,0.673322 1.75902,0.673322 1.73873,0.718953 1.71849,0.764534 1.72356,0.79882 1.7033,0.838753 1.6881,0.838753 1.66271,0.815938 1.62723,0.79882 1.57657,0.724651 1.55123,0.684717 1.53599,0.639086 1.54619,0.576287 1.5664,0.564917 1.53089,0.542126 1.53089,0.502167 1.5124,0.477153 1.924,0.477153 "/>
   <polygon id="_82813336" class="fil2" points="1.2692,0.477153 1.28257,0.502167 1.31296,0.513588 1.32815,0.536403 1.31806,0.570689 1.35349,0.582034 1.37886,0.599152 1.41939,0.610573 1.41939,0.650506 1.38393,0.661901 1.3383,0.633388 1.32815,0.656204 1.36871,0.673322 1.37381,0.718953 1.3383,0.718953 1.34844,0.758911 1.31806,0.758911 1.2724,0.718953 1.24199,0.696137 1.19636,0.707583 1.17099,0.684717 1.17609,0.650506 1.21665,0.667624 1.24199,0.656204 1.2217,0.639086 1.23689,0.61627 1.25213,0.61627 1.23184,0.587732 1.19131,0.582034 1.18623,0.547799 1.16594,0.547799 1.1406,0.530706 1.12538,0.536403 1.09497,0.519285 1.0392,0.519285 0.988517,0.479352 0.988517,0.477153 "/>
   <polygon id="_83619720" class="fil2" points="1.23184,0.770307 1.27747,0.810265 1.30788,0.815938 1.30788,0.867317 1.33832,0.884435 1.35854,0.838753 1.37381,0.827358 1.41429,0.884435 1.41939,0.91862 1.44475,0.958554 1.47519,0.958554 1.48531,0.987142 1.51572,1.00986 1.51572,1.04984 1.48024,1.06126 1.42951,1.07835 1.37886,1.07266 1.35349,1.08408 1.37886,1.10692 1.38393,1.14115 1.41939,1.1468 1.43968,1.16394 1.38393,1.22097 1.35349,1.20955 1.34334,1.18104 1.28252,1.22097 1.28252,1.25518 1.23184,1.29516 1.19131,1.33507 1.19131,1.3922 1.13048,1.43778 1.13463,1.49476 1.18144,1.60379 1.13373,1.62148 1.09885,1.58812 1.07081,1.51198 1.04432,1.48339 0.983444,1.50623 0.937837,1.5005 0.887108,1.52904 0.856671,1.5747 0.861819,1.66594 0.892206,1.70022 0.927667,1.70022 0.958129,1.70022 0.973323,1.65457 0.998662,1.64887 1.024,1.66594 1.01386,1.70022 0.998662,1.74018 1.04432,1.75155 1.07973,1.75155 1.08992,1.79716 1.07973,1.84856 1.11524,1.87133 1.16594,1.87133 1.19636,1.89417 1.2217,1.85996 1.24703,1.84856 1.2724,1.83142 1.31296,1.84856 1.37381,1.84856 1.40422,1.85426 1.44475,1.89417 1.45995,1.89417 1.47519,1.92271 1.53089,1.93415 1.57148,1.94555 1.59174,1.97973 1.59684,2.02541 1.63735,2.04248 1.69315,2.08244 1.73873,2.07674 1.75902,2.08814 1.78439,2.11668 1.83002,2.13379 1.83507,2.17942 1.81433,2.21441 1.15775,2.21441 1.15582,2.20791 1.13553,2.16795 1.11017,2.13952 1.10512,2.10526 1.13048,2.08814 1.11524,2.07097 1.12538,2.03676 1.1456,2.01964 1.15582,1.9969 1.17099,1.97403 1.17099,1.93415 1.15072,1.89986 1.12034,1.91129 1.07973,1.89417 1.03415,1.87133 1.024,1.81428 0.988517,1.79716 0.947983,1.79151 0.927667,1.77439 0.876988,1.75725 0.795921,1.71727 0.740119,1.69447 0.7249,1.66594 0.735046,1.64307 0.684442,1.59182 0.638786,1.52904 0.618469,1.48339 0.593105,1.48339 0.618469,1.52904 0.638786,1.569 0.659053,1.59749 0.648907,1.60896 0.623542,1.5747 0.583009,1.54616 0.583009,1.50623 0.552597,1.46632 0.532255,1.42636 0.481601,1.38073 0.451164,1.27805 0.441168,1.19823 0.430897,1.15252 0.430897,1.11834 0.446091,1.10692 0.410655,1.08408 0.380193,1.06126 0.385266,1.03272 0.359951,1.00426 0.344708,0.958554 0.319368,0.952881 0.283908,0.912873 0.258518,0.901502 0.253445,0.878687 0.223058,0.855871 0.221633,0.854797 0.221633,0.578611 0.258518,0.593405 0.278835,0.570689 0.324416,0.559244 0.364974,0.536403 0.380193,0.542126 0.390314,0.519285 0.415653,0.542126 0.451164,0.553521 0.486649,0.553521 0.542451,0.570689 0.583009,0.582009 0.588082,0.593405 0.588082,0.61627 0.633663,0.627691 0.674221,0.61627 0.694563,0.60485 0.709732,0.587732 0.740119,0.599152 0.795921,0.621968 0.826309,0.599152 0.836454,0.576287 0.87194,0.553521 0.902352,0.582009 0.892206,0.621968 0.937837,0.60485 0.947983,0.564917 0.978371,0.582009 1.0189,0.593405 1.0189,0.633388 1.05439,0.593405 1.08483,0.593405 1.09497,0.633388 1.06456,0.656204 1.07468,0.690465 1.11017,0.690465 1.11017,0.718953 1.04432,0.736071 1.01386,0.71328 0.968275,0.741793 0.963177,0.764609 0.937837,0.781702 0.912523,0.82166 0.9074,0.855871 0.932765,0.861569 0.937837,0.89583 0.988517,0.89583 1.01386,0.924368 1.05951,0.947159 1.07973,0.947159 1.10512,0.969999 1.10005,1.00426 1.11524,1.03272 1.1456,1.05554 1.15582,1.02133 1.1456,0.987142 1.1456,0.969999 1.16594,0.952881 1.17609,0.91862 1.17609,0.890107 1.15072,0.861569 1.15072,0.844476 1.16594,0.827358 1.15582,0.793097 1.15582,0.764609 1.17609,0.764609 1.19636,0.764609 "/>
   <polygon id="_83570632" class="fil2" points="0.765584,0.477153 0.785725,0.490797 0.795896,0.502167 0.780702,0.530706 0.740119,0.530706 0.709732,0.513588 0.65393,0.530706 0.62859,0.530706 0.603251,0.519285 0.562692,0.502167 0.562692,0.48505 0.576737,0.477153 "/>
  </g>
 </g>
</svg>
