<?xml version="1.0" encoding="UTF-8"?>
<!DOCTYPE svg PUBLIC "-//W3C//DTD SVG 1.1//EN" "http://www.w3.org/Graphics/SVG/1.1/DTD/svg11.dtd">
<!-- Creator: CorelDRAW -->
<svg xmlns="http://www.w3.org/2000/svg" xml:space="preserve" width="0.311488in" height="0.42502in" style="shape-rendering:geometricPrecision; text-rendering:geometricPrecision; image-rendering:optimizeQuality; fill-rule:evenodd; clip-rule:evenodd"
viewBox="0 0 0.973336 1.3281"
 xmlns:xlink="http://www.w3.org/1999/xlink">
 <defs>
  <style type="text/css">
   <![CDATA[
    .str0 {stroke:#4C4C4C;stroke-width:0.0759546}
    .fil0 {fill:none;fill-rule:nonzero}
    .fil2 {fill:#4C4C4C;fill-rule:nonzero}
    .fil3 {fill:url(#id0);fill-rule:nonzero}
    .fil1 {fill:url(#id1);fill-rule:nonzero}
   ]]>
  </style>
  <linearGradient id="id0" gradientUnits="userSpaceOnUse" x1="0.205252" y1="0.335325" x2="0.782428" y2="0.335325">
   <stop offset="0" style="stop-color:white"/>
   <stop offset="0.811765" style="stop-color:#E3E3E3"/>
   <stop offset="1" style="stop-color:#C6C6C6"/>
  </linearGradient>
  <linearGradient id="id1" gradientUnits="userSpaceOnUse" x1="0.0469457" y1="0.991396" x2="0.92639" y2="0.991396">
   <stop offset="0" style="stop-color:white"/>
   <stop offset="0.811765" style="stop-color:#E3E3E3"/>
   <stop offset="1" style="stop-color:#C6C6C6"/>
  </linearGradient>
 </defs>
 <g id="Layer_x0020_1">
  <metadata id="CorelCorpID_0Corel-Layer"/>
  <g id="_126172784">
   <path id="_126173240" class="fil0" d="M0.154074 0.335325c0,0.185372 0.152155,0.335325 0.33968,0.335325 0.187697,0 0.339852,-0.149953 0.339852,-0.335325 0,-0.185175 -0.152155,-0.335325 -0.339852,-0.335325 -0.187524,0 -0.33968,0.15015 -0.33968,0.335325z"/>
   <path id="_126173168" class="fil1" d="M0.935359 1.23519c0,0.0303499 -0.0261794,0.0549299 -0.058473,0.0549299l-0.780522 0c-0.0323305,0 -0.0583869,-0.0245801 -0.0583869,-0.0549299l0.00982956 -0.260059c0,-0.191781 0.07951,-0.282474 0.18269,-0.282474l0.153668 0c0.0347049,0.0103955 0.0714766,0.0159684 0.109589,0.0159684 0.0381372,0 0.074995,-0.00557296 0.109725,-0.0159684l0.144909 0c0.0902868,0 0.174041,0.0821673 0.174041,0.253994l0.0129298 0.288539z"/>
   <path id="_126173096" class="fil2" d="M0.973336 1.23519c0,0.0260317 -0.0111459,0.0495415 -0.0291442,0.0664326 -0.0173955,0.0163498 -0.0412128,0.0264746 -0.0673061,0.0264746l0 -0.000147628 -0.780522 0 0 0.000147628c-0.0261056,0 -0.0498983,-0.0101248 -0.0672569,-0.02645 -0.017986,-0.0169157 -0.0291073,-0.0404378 -0.0291073,-0.0664572l0.000147628 -0.00134095 0.00978035 -0.258718 -9.84187e-005 0c0,-0.0991322 0.0204588,-0.174632 0.0544747,-0.227236 0.0405731,-0.0627419 0.0992921,-0.0932148 0.166192,-0.0932148l0.0676751 0c0.0570705,0.0342497 0.124032,0.0539457 0.195582,0.0539457 0.0715996,0 0.138647,-0.0197083 0.195742,-0.0539457l0.0588913 0c0.060306,0 0.117967,0.0287629 0.158331,0.0876664 0.0324905,0.0474132 0.0532814,0.114855 0.0535398,0.202669l0.0129298 0.288539 0.000147628 0.00163621zm-0.0810601 0.0112443c0.00313709,-0.00295256 0.00510547,-0.00695082 0.00510547,-0.0112443l7.3814e-005 0 -0.0128559 -0.286903 0 -0.00163621c0,-0.0720056 -0.0157593,-0.125521 -0.0404747,-0.161591 -0.0250599,-0.0365625 -0.0598755,-0.0544255 -0.0957368,-0.0544255l-0.517891 0c-0.0409668,0 -0.077234,0.0191178 -0.102688,0.0584976 -0.0262409,0.0405854 -0.0420248,0.102109 -0.0420248,0.185999l-0.000147628 0.00134095 -0.00978035 0.258718 9.84187e-005 0c0,0.00433042 0.00194377,0.00832868 0.00506856,0.0112689 0.00372761,0.00350616 0.00916524,0.00568368 0.015341,0.00568368l0 0.000147628 0.780522 0 0 -0.000147628c0.00621268,0 0.0116503,-0.00218982 0.0153902,-0.00570828z"/>
   <path id="_126173024" class="fil3 str0" d="M0.205252 0.335325c0,0.157445 0.129236,0.284811 0.288514,0.284811 0.159426,0 0.288662,-0.127366 0.288662,-0.284811 0,-0.157285 -0.129236,-0.284811 -0.288662,-0.284811 -0.159278,0 -0.288514,0.127526 -0.288514,0.284811z"/>
   <path id="_126172952" class="fil0" d="M0.284614 0.691219c0.0526663,0.0410406 0.127735,0.0666909 0.210985,0.0666909 0.0833237,0 0.158368,-0.0256504 0.211059,-0.0666909"/>
   <path id="_126172880" class="fil2" d="M0.935359 1.23519c0,0.0303499 -0.0261794,0.0549299 -0.058473,0.0549299l-0.780522 0c-0.0323305,0 -0.0583869,-0.0245801 -0.0583869,-0.0549299l0.00982956 -0.260059c0,-0.191781 0.07951,-0.282474 0.18269,-0.282474l0.0529985 0 0.0244078 -0.0312602c0.0231284,0.0180106 0.0517559,0.0327488 0.0842218,0.043009 0.0315801,0.00997719 0.0665802,0.0155255 0.103475,0.0155255 0.0369193,0 0.0719317,-0.00554835 0.103512,-0.0155132 0.0322567,-0.0101863 0.0609089,-0.0249983 0.0842587,-0.0431689l0.0244078 0.0314079 0.04061 0c0.0902868,0 0.174041,0.0821673 0.174041,0.253994l0.0129298 0.288539zm-0.285599 -0.414576l-0.329715 0c0.0104078,0.150175 0.0460476,0.371149 0.164593,0.4232l0.000405977 0 0 0c0.118521,-0.0520512 0.154284,-0.273026 0.164716,-0.4232z"/>
   <path id="_126172808" class="fil2" d="M0.280493 0.0960935l-0.131696 0 -0.0644519 0c-0.0133972,0 -0.0242602,-0.010863 -0.0242602,-0.0242602l0 -0.0360827c0,-0.0133972 0.010863,-0.0242602 0.0242602,-0.0242602l0.818819 0c0.0133972,0 0.0242602,0.010863 0.0242602,0.0242602l0 0.000639721 0 0.035443c0,0.0133972 -0.010863,0.0242602 -0.0242602,0.0242602l-0.000602814 0 -0.0573904 0 -0.136962 0c0.029747,0.0266099 0.0553482,0.0586698 0.075524,0.0948879l-0.0271389 0.0530108 -0.000455186 0 -0.524141 0 -0.0270897 -0.0530108c0.0201512,-0.0362181 0.0458016,-0.0682779 0.0755855,-0.0948879z"/>
  </g>
 </g>
</svg>
