<?xml version="1.0" encoding="UTF-8"?>
<!DOCTYPE svg PUBLIC "-//W3C//DTD SVG 1.1//EN" "http://www.w3.org/Graphics/SVG/1.1/DTD/svg11.dtd">
<!-- Creator: CorelDRAW -->
<svg xmlns="http://www.w3.org/2000/svg" xml:space="preserve" width="0.311488in" height="0.42502in" style="shape-rendering:geometricPrecision; text-rendering:geometricPrecision; image-rendering:optimizeQuality; fill-rule:evenodd; clip-rule:evenodd"
viewBox="0 0 1.08842 1.48512"
 xmlns:xlink="http://www.w3.org/1999/xlink">
 <defs>
  <style type="text/css">
   <![CDATA[
    .str0 {stroke:#4C4C4C;stroke-width:0.084935}
    .fil0 {fill:none;fill-rule:nonzero}
    .fil2 {fill:#4C4C4C;fill-rule:nonzero}
    .fil5 {fill:#656565;fill-rule:nonzero}
    .fil4 {fill:#666666;fill-rule:nonzero}
    .fil3 {fill:url(#id0);fill-rule:nonzero}
    .fil1 {fill:url(#id1);fill-rule:nonzero}
   ]]>
  </style>
  <linearGradient id="id0" gradientUnits="userSpaceOnUse" x1="0.22952" y1="0.374971" x2="0.874937" y2="0.374971">
   <stop offset="0" style="stop-color:white"/>
   <stop offset="0.811765" style="stop-color:#E3E3E3"/>
   <stop offset="1" style="stop-color:#C6C6C6"/>
  </linearGradient>
  <linearGradient id="id1" gradientUnits="userSpaceOnUse" x1="0.0524962" y1="1.10861" x2="1.03592" y2="1.10861">
   <stop offset="0" style="stop-color:white"/>
   <stop offset="0.811765" style="stop-color:#E3E3E3"/>
   <stop offset="1" style="stop-color:#C6C6C6"/>
  </linearGradient>
 </defs>
 <g id="Layer_x0020_1">
  <metadata id="CorelCorpID_0Corel-Layer"/>
  <g id="_124882632">
   <path id="_124883184" class="fil0" d="M0.172291 0.374971c0,0.207289 0.170145,0.374971 0.379841,0.374971 0.209889,0 0.380034,-0.167683 0.380034,-0.374971 0,-0.207069 -0.170145,-0.374971 -0.380034,-0.374971 -0.209696,0 -0.379841,0.167903 -0.379841,0.374971z"/>
   <path id="_124883112" class="fil1" d="M1.04595 1.38123c0,0.0339382 -0.0292746,0.0614245 -0.0653864,0.0614245l-0.872805 0c-0.0361531,0 -0.0652901,-0.0274862 -0.0652901,-0.0614245l0.0109917 -0.290807c0,-0.214456 0.0889107,-0.315872 0.20429,-0.315872l0.171837 0c0.0388082,0.0116246 0.0799275,0.0178564 0.122546,0.0178564 0.0426463,0 0.0838619,-0.00623187 0.122698,-0.0178564l0.162042 0c0.100962,0 0.194619,0.0918822 0.194619,0.284025l0.0144585 0.322654z"/>
   <path id="_124883040" class="fil2" d="M1.08842 1.38123c0,0.0291096 -0.0124637,0.0553989 -0.03259,0.0742871 -0.0194522,0.0182829 -0.0460855,0.0296048 -0.0752639,0.0296048l0 -0.000165083 -0.872805 0 0 0.000165083c-0.0291921,0 -0.0557979,-0.0113219 -0.0752089,-0.0295773 -0.0201126,-0.0189157 -0.0325488,-0.0452189 -0.0325488,-0.0743147l0.000165083 -0.0014995 0.0109367 -0.289307 -0.000110055 0c0,-0.110853 0.0228777,-0.195279 0.0609155,-0.254103 0.0453702,-0.0701601 0.111032,-0.104236 0.185842,-0.104236l0.0756766 0c0.0638182,0.0382991 0.138697,0.0603239 0.218707,0.0603239 0.080065,0 0.15504,-0.0220385 0.218886,-0.0603239l0.0658542 0c0.0674362,0 0.131915,0.0321636 0.177051,0.0980315 0.0363319,0.053019 0.059581,0.128434 0.0598699,0.226631l0.0144585 0.322654 0.000165083 0.00182966zm-0.0906441 0.0125738c0.003508,-0.00330165 0.0057091,-0.00777264 0.0057091,-0.0125738l8.25413e-005 0 -0.0143759 -0.320824 0 -0.00182966c0,-0.080519 -0.0176226,-0.140361 -0.0452601,-0.180697 -0.0280228,-0.0408854 -0.0669547,-0.0608604 -0.107056,-0.0608604l-0.579123 0c-0.0458104,0 -0.0863657,0.0213782 -0.114829,0.065414 -0.0293434,0.0453839 -0.0469935,0.114182 -0.0469935,0.20799l-0.000165083 0.0014995 -0.0109367 0.289307 0.000110055 0c0,0.00484242 0.00217359,0.00931341 0.00566783,0.0126013 0.00416833,0.00392071 0.0102489,0.00635568 0.0171548,0.00635568l0 0.000165083 0.872805 0 0 -0.000165083c0.00694722,0 0.0130278,-0.00244872 0.0172099,-0.00638319z"/>
   <path id="_124882968" class="fil3 str0" d="M0.22952 0.374971c0,0.176061 0.144516,0.318485 0.322626,0.318485 0.178275,0 0.322791,-0.142425 0.322791,-0.318485 0,-0.175882 -0.144516,-0.318485 -0.322791,-0.318485 -0.17811,0 -0.322626,0.142604 -0.322626,0.318485z"/>
   <path id="_124882896" class="fil2" d="M1.04595 1.38123c0,0.0339382 -0.0292746,0.0614245 -0.0653864,0.0614245l-0.228405 0 0 -0.668103 0.0847149 0c0.100962,0 0.194619,0.0918822 0.194619,0.284025l0.0144585 0.322654zm-0.693704 0.0614245l-0.244487 0c-0.0361531,0 -0.0652901,-0.0274862 -0.0652901,-0.0614245l0.0109917 -0.290807c0,-0.214456 0.0889107,-0.315872 0.20429,-0.315872l0.094496 0 0 0.668103z"/>
   <g>
    <polygon id="_124882824" class="fil4" points="0.614368,0.817021 0.547317,0.933157 0.480266,0.817021 "/>
    <path id="_124882752" class="fil4" d="M0.606706 0.936555c0,0.0327826 -0.0265783,0.0594022 -0.0593884,0.0594022 -0.0328102,0 -0.0594022,-0.0266196 -0.0594022,-0.0594022 0,-0.0328239 0.026592,-0.059416 0.0594022,-0.059416 0.0328102,0 0.0593884,0.026592 0.0593884,0.059416z"/>
    <polygon id="_124882680" class="fil5" points="0.547317,1.39334 0.459631,1.30564 0.547317,0.851592 0.635004,1.30564 "/>
   </g>
  </g>
 </g>
</svg>
