<?xml version="1.0" encoding="UTF-8"?>
<!DOCTYPE svg PUBLIC "-//W3C//DTD SVG 1.1//EN" "http://www.w3.org/Graphics/SVG/1.1/DTD/svg11.dtd">
<!-- Creator: CorelDRAW -->
<svg xmlns="http://www.w3.org/2000/svg" xml:space="preserve" width="0.311488in" height="0.42502in" style="shape-rendering:geometricPrecision; text-rendering:geometricPrecision; image-rendering:optimizeQuality; fill-rule:evenodd; clip-rule:evenodd"
viewBox="0 0 4.03711 5.50857"
 xmlns:xlink="http://www.w3.org/1999/xlink">
 <defs>
  <style type="text/css">
   <![CDATA[
    .fil0 {fill:none;fill-rule:nonzero}
    .fil2 {fill:#4C4C4C;fill-rule:nonzero}
    .fil3 {fill:#FFF9DB;fill-rule:nonzero}
    .fil4 {fill:#4C4C4C;fill-rule:nonzero;fill-opacity:0.219608}
    .fil1 {fill:url(#id0);fill-rule:nonzero}
   ]]>
  </style>
  <linearGradient id="id0" gradientUnits="userSpaceOnUse" x1="0.194717" y1="4.11202" x2="3.8424" y2="4.11202">
   <stop offset="0" style="stop-color:white"/>
   <stop offset="0.811765" style="stop-color:#E3E3E3"/>
   <stop offset="1" style="stop-color:#C6C6C6"/>
  </linearGradient>
 </defs>
 <g id="Layer_x0020_1">
  <metadata id="CorelCorpID_0Corel-Layer"/>
  <g id="_125655816">
   <path id="_125656296" class="fil0" d="M0.639056 1.39083c0,0.768867 0.631096,1.39083 1.40889,1.39083 0.778511,0 1.40961,-0.621962 1.40961,-1.39083 0,-0.768051 -0.631096,-1.39083 -1.40961,-1.39083 -0.777797,0 -1.40889,0.622778 -1.40889,1.39083z"/>
   <path id="_125656224" class="fil1" d="M3.8796 5.12321c0,0.125882 -0.108584,0.227833 -0.242529,0.227833l-3.23738 0c-0.134098,0 -0.242172,-0.101951 -0.242172,-0.227833l0.0407702 -1.07865c0,-0.795452 0.329784,-1.17162 0.757743,-1.17162l0.637372 0c0.143946,0.0431174 0.296464,0.0662324 0.454544,0.0662324 0.158182,0 0.311058,-0.023115 0.455105,-0.0662324l0.601041 0c0.374483,0 0.721872,0.340806 0.721872,1.05349l0.0536288 1.19678z"/>
   <path id="_125656152" class="fil2" d="M4.03711 5.12321c0,0.107972 -0.04623,0.205484 -0.120882,0.275543 -0.0721515,0.0678142 -0.170939,0.109809 -0.279166,0.109809l0 -0.000612318 -3.23738 0 0 0.000612318c-0.108278,0 -0.206963,-0.0419948 -0.278962,-0.109707 -0.0746007,-0.0701614 -0.120729,-0.167724 -0.120729,-0.275645l0.000612318 -0.00556189 0.0405661 -1.07309 -0.000408212 0c0,-0.411172 0.0848571,-0.724321 0.225945,-0.94251 0.168285,-0.260235 0.411835,-0.386628 0.689317,-0.386628l0.280697 0c0.236712,0.142058 0.514449,0.223751 0.811219,0.223751 0.296974,0 0.575069,-0.0817444 0.811883,-0.223751l0.244264 0c0.250132,0 0.489293,0.1193 0.656711,0.363615 0.134761,0.196656 0.220996,0.476383 0.222067,0.840611l0.0536288 1.19678 0.000612318 0.00678652zm-0.336214 0.0466382c0.0130118,-0.0122464 0.021176,-0.02883 0.021176,-0.0466382l0.000306159 0 -0.0533227 -1.18999 0 -0.00678652c0,-0.298658 -0.0653649,-0.520623 -0.167877,-0.670233 -0.103941,-0.151651 -0.248346,-0.225741 -0.397088,-0.225741l-2.14806 0c-0.169918,0 -0.320344,0.0792952 -0.425918,0.242631 -0.10884,0.168336 -0.174307,0.42352 -0.174307,0.77147l-0.000612318 0.00556189 -0.0405661 1.07309 0.000408212 0c0,0.0179613 0.00806219,0.0345449 0.0210229,0.0467403 0.015461,0.0145426 0.0380147,0.0235742 0.06363,0.0235742l0 0.000612318 3.23738 0 0 -0.000612318c0.0257684,0 0.0483221,-0.00908272 0.0638341,-0.0236763z"/>
   <path id="_125656080" class="fil2" d="M1.09161 2.33819c-0.245744,-0.24258 -0.397803,-0.577467 -0.397803,-0.947358 0,-0.369636 0.152161,-0.704574 0.397956,-0.947256 0.245029,-0.241866 0.583233,-0.391577 0.956237,-0.391577 0.373208,0 0.711564,0.14961 0.956696,0.391526 0.245948,0.24258 0.398109,0.57762 0.398109,0.947307l-0.000612318 0c0,0.37035 -0.151855,0.705237 -0.397292,0.947409 -0.244774,0.241508 -0.583182,0.390812 -0.9569,0.390812l0 0.000612318c-0.373055,0 -0.711309,-0.149559 -0.95639,-0.391475z"/>
   <g>
    <path id="_125656008" class="fil3" d="M1.28184 1.02196l0.706003 0.286361c0,0 -0.396731,0.344939 -0.577467,0.287483 -0.180736,-0.0573538 -0.128536,-0.573844 -0.128536,-0.573844z"/>
    <path id="_125655936" class="fil3" d="M2.81462 1.02196l-0.706003 0.286361c0,0 0.396731,0.344939 0.57762,0.287483 0.180736,-0.0573538 0.128383,-0.573844 0.128383,-0.573844z"/>
   </g>
   <path id="_125655840" class="fil4" d="M1.5931 2.87294l0.000306159 0 0.0067355 0.00204106 -0.00704166 -0.00204106zm2.08545 1.27153l-3.32693 0 0.00357185 -0.094348 0.000612318 -0.00556189c0,-0.34795 0.065467,-0.603133 0.174307,-0.77147 0.105574,-0.163336 0.256,-0.242631 0.425918,-0.242631l2.14806 0c0.148742,0 0.293147,0.0740905 0.397088,0.225741 0.102512,0.14961 0.167877,0.371575 0.167877,0.670233l0 0.00678652 0.00949093 0.21125z"/>
  </g>
 </g>
</svg>
