<?xml version="1.0" encoding="UTF-8"?>
<!DOCTYPE svg PUBLIC "-//W3C//DTD SVG 1.1//EN" "http://www.w3.org/Graphics/SVG/1.1/DTD/svg11.dtd">
<!-- Creator: CorelDRAW X5 -->
<svg xmlns="http://www.w3.org/2000/svg" xml:space="preserve" width="93px" height="128px" style="shape-rendering:geometricPrecision; text-rendering:geometricPrecision; image-rendering:optimizeQuality; fill-rule:evenodd; clip-rule:evenodd"
viewBox="0 0 601486 820708"
 xmlns:xlink="http://www.w3.org/1999/xlink">
 <defs>
  <style type="text/css">
   <![CDATA[
    .str0 {stroke:#4C4C4C;stroke-width:46937.1}
    .fil0 {fill:none}
    .fil7 {fill:#333333}
    .fil6 {fill:#333333;fill-rule:nonzero}
    .fil2 {fill:#4C4C4C;fill-rule:nonzero}
    .fil4 {fill:gray;fill-rule:nonzero}
    .fil3 {fill:white;fill-rule:nonzero}
    .fil1 {fill:url(#id0);fill-rule:nonzero}
    .fil5 {fill:url(#id1);fill-rule:nonzero}
   ]]>
  </style>
  <linearGradient id="id0" gradientUnits="userSpaceOnUse" x1="23468.6" y1="612631" x2="578017" y2="612631">
   <stop offset="0" style="stop-color:#D9D9D9"/>
   <stop offset="0.811765" style="stop-color:#BDBDBD"/>
   <stop offset="1" style="stop-color:#A0A0A0"/>
  </linearGradient>
  <linearGradient id="id1" gradientUnits="userSpaceOnUse" x1="126838" y1="207218" x2="483512" y2="207218">
   <stop offset="0" style="stop-color:white"/>
   <stop offset="0.811765" style="stop-color:#E3E3E3"/>
   <stop offset="1" style="stop-color:#C6C6C6"/>
  </linearGradient>
 </defs>
 <g id="Layer_x0020_1">
  <metadata id="CorelCorpID_0Corel-Layer"/>
  <path id="_124883184" class="fil0" d="M95212 207218c0,114553 94026,207218 209910,207218 115990,0 210016,-92665 210016,-207218 0,-114431 -94026,-207218 -210016,-207218 -115883,0 -209910,92787 -209910,207218z"/>
  <path id="_124883112" class="fil1" d="M578017 763295c0,18755 -16178,33945 -36134,33945l-482333 0c-19979,0 -36081,-15190 -36081,-33945l6074 -160707c0,-118514 49134,-174558 112895,-174558l94961 0c21446,6424 44170,9868 67722,9868 23567,0 46344,-3444 67806,-9868l89549 0c55794,0 107551,50776 107551,156959l7990 178306z"/>
  <path id="_124883040" class="fil2" d="M601486 763295c0,16087 -6888,30615 -18010,41053 -10750,10104 -25468,16360 -41593,16360l0 -91 -482333 0 0 91c-16132,0 -30835,-6257 -41562,-16345 -11115,-10453 -17987,-24989 -17987,-41068l91 -829 6044 -159878 -61 0c0,-61260 12643,-107916 33663,-140424 25073,-38772 61359,-57603 102701,-57603l41821 0c35267,21165 76647,33336 120863,33336 44246,0 85679,-12179 120962,-33336l36393 0c37267,0 72899,17774 97843,54175 20078,29300 32926,70976 33086,125242l7990 178306 91 1011zm-50092 6949c1939,-1825 3155,-4295 3155,-6949l46 0 -7944 -177295 0 -1011c0,-44497 -9739,-77567 -25012,-99857 -15486,-22594 -37001,-33633 -59162,-33633l-320038 0c-25316,0 -47728,11814 -63457,36149 -16216,25080 -25970,63100 -25970,114940l-91 829 -6044 159878 61 0c0,2676 1201,5147 3132,6964 2304,2167 5664,3512 9480,3512l0 91 482333 0 0 -91c3839,0 7199,-1353 9511,-3528z"/>
  <path id="_124882896" class="fil3" d="M415661 773862l0 -130503 0 -191861 46815 0c22161,0 43676,11039 59162,33633 15273,22290 25012,55361 25012,99857l0 1011 7944 177295 -46 0c0,2653 -1216,5124 -3155,6949 -2311,2174 -5671,3528 -9511,3528l0 91 -126222 0zm-221001 -322364l0 322364 -135110 0 0 -91c-3816,0 -7177,-1346 -9480,-3512 -1931,-1817 -3132,-4288 -3132,-6964l-61 0 6044 -159878 91 -829c0,-51841 9754,-89860 25970,-114940 15729,-24335 38141,-36149 63457,-36149l52221 0z"/>
  <g id="_217493152">
   <polygon id="_124882824" class="fil4" points="339515,451506 302461,515685 265407,451506 "/>
   <path id="_124882752" class="fil4" d="M335280 517563c0,18116 -14688,32827 -32820,32827 -18132,0 -32827,-14711 -32827,-32827 0,-18139 14695,-32835 32827,-32835 18132,0 32820,14695 32820,32835z"/>
   <polygon id="_124882680" class="fil4" points="302461,769993 254003,721527 302461,470611 350919,721527 "/>
  </g>
  <path id="_124882968" class="fil5 str0" d="M126838 207218c0,97295 79863,176003 178291,176003 98519,0 178382,-78708 178382,-176003 0,-97197 -79863,-176003 -178382,-176003 -98428,0 -178291,78806 -178291,176003z"/>
  <path id="_124882968_0" class="fil5" d="M126838 207218c0,97295 79863,176003 178291,176003 98519,0 178382,-78708 178382,-176003 0,-97197 -79863,-176003 -178382,-176003 -98428,0 -178291,78806 -178291,176003z"/>
  <path class="fil2" d="M150307 207218c0,42148 17257,80243 45143,107771 28022,27657 66810,44763 109680,44763 42915,0 81718,-17098 109756,-44755 27893,-27521 45158,-65624 45158,-107779 0,-42125 -17273,-80228 -45189,-107764 -28030,-27657 -66825,-44770 -109725,-44770 -42862,0 -81642,17121 -109657,44778 -27893,27543 -45166,65647 -45166,107756zm12331 141146c-36613,-36142 -59268,-86036 -59268,-141146 0,-55072 22670,-104974 59291,-141131 36507,-36035 86895,-58341 142469,-58341 55604,0 106023,22298 142537,58333 36644,36142 59314,86059 59314,141138 0,55117 -22663,105019 -59283,141154 -36529,36035 -86948,58318 -142568,58318 -55581,0 -105977,-22283 -142492,-58326z"/>
  <path id="_124882752_1" class="fil6" d="M235545 608259c0,32683 -26502,59223 -59215,59223 -32713,0 -59230,-26540 -59230,-59223 0,-32728 26517,-59245 59230,-59245 32713,0 59215,26517 59215,59245z"/>
  <line class="fil0" x1="425004" y1="404561" x2="425004" y2= "569472" />
  <path id="_124883040_2" class="fil2" d="M601486 763295c0,16087 -6888,30615 -18010,41053 -10750,10104 -25468,16360 -41593,16360l0 -91 -482333 0 0 91c-16132,0 -30835,-6257 -41562,-16345 -11115,-10453 -17987,-24989 -17987,-41068l91 -829 6044 -159878 -61 0c0,-61260 12643,-107916 33663,-140424 25073,-38772 61359,-57603 102701,-57603l41821 0c35267,21165 76647,33336 120863,33336 44246,0 85679,-12179 120962,-33336l36393 0c37267,0 72899,17774 97843,54175 20078,29300 32926,70976 33086,125242l7990 178306 91 1011zm-50092 6949c1939,-1825 3155,-4295 3155,-6949l46 0 -7944 -177295 0 -1011c0,-44497 -9739,-77567 -25012,-99857 -15486,-22594 -37001,-33633 -59162,-33633l-320038 0c-25316,0 -47728,11814 -63457,36149 -16216,25080 -25970,63100 -25970,114940l-91 829 -6044 159878 61 0c0,2676 1201,5147 3132,6964 2304,2167 5664,3512 9480,3512l0 91 482333 0 0 -91c3839,0 7199,-1353 9511,-3528z"/>
  <path class="fil7" d="M197115 623449l-41486 0 0 -218888 28296 0c4303,2585 8712,5010 13190,7321l0 211567z"/>
  <path class="fil6" d="M453513 404561l0 164911c0,11540 -9366,20907 -20907,20907 -11540,0 -20907,-9366 -20907,-20907l0 -156807c5002,-2532 9906,-5230 14688,-8104l27125 0z"/>
 </g>
</svg>
