<?xml version="1.0" encoding="UTF-8"?>
<!DOCTYPE svg PUBLIC "-//W3C//DTD SVG 1.1//EN" "http://www.w3.org/Graphics/SVG/1.1/DTD/svg11.dtd">
<!-- Creator: CorelDRAW -->
<svg xmlns="http://www.w3.org/2000/svg" xml:space="preserve" width="0.401059in" height="0.42502in" style="shape-rendering:geometricPrecision; text-rendering:geometricPrecision; image-rendering:optimizeQuality; fill-rule:evenodd; clip-rule:evenodd"
viewBox="0 0 3.33574 3.53502"
 xmlns:xlink="http://www.w3.org/1999/xlink">
 <defs>
  <style type="text/css">
   <![CDATA[
    .str1 {stroke:#FFF9DB;stroke-width:0.173288;stroke-linejoin:round}
    .str0 {stroke:#4C4C4C;stroke-width:0.20217}
    .fil0 {fill:none;fill-rule:nonzero}
    .fil8 {fill:#4C4C4C}
    .fil6 {fill:#4C4C4C;fill-rule:nonzero}
    .fil3 {fill:#656565;fill-rule:nonzero}
    .fil4 {fill:#666666;fill-rule:nonzero}
    .fil5 {fill:#DAD3BA;fill-rule:nonzero}
    .fil7 {fill:#454545;fill-rule:nonzero}
    .fil2 {fill:url(#id0);fill-rule:nonzero}
    .fil1 {fill:url(#id1);fill-rule:nonzero}
   ]]>
  </style>
  <linearGradient id="id0" gradientUnits="userSpaceOnUse" x1="0.546323" y1="0.89254" x2="2.0826" y2="0.89254">
   <stop offset="0" style="stop-color:white"/>
   <stop offset="0.811765" style="stop-color:#E3E3E3"/>
   <stop offset="1" style="stop-color:#C6C6C6"/>
  </linearGradient>
  <linearGradient id="id1" gradientUnits="userSpaceOnUse" x1="0.124956" y1="2.63882" x2="2.46579" y2="2.63882">
   <stop offset="0" style="stop-color:white"/>
   <stop offset="0.811765" style="stop-color:#E3E3E3"/>
   <stop offset="1" style="stop-color:#C6C6C6"/>
  </linearGradient>
 </defs>
 <g id="Layer_x0020_1">
  <metadata id="CorelCorpID_0Corel-Layer"/>
  <g id="_125657520">
   <path id="_125662584" class="fil0" d="M0.410103 0.89254c0,0.493407 0.404994,0.89254 0.904132,0.89254 0.499596,0 0.90459,-0.399133 0.90459,-0.89254 0,-0.492883 -0.404994,-0.89254 -0.90459,-0.89254 -0.499137,0 -0.904132,0.399657 -0.904132,0.89254z"/>
   <path id="_125662512" class="fil1" d="M2.48966 3.28773c0,0.0807828 -0.0696821,0.146208 -0.155639,0.146208l-2.07753 0c-0.0860548,0 -0.155409,-0.0654252 -0.155409,-0.146208l0.0261635 -0.692204c0,-0.510467 0.211633,-0.751866 0.486268,-0.751866l0.409022 0c0.0923746,0.0276698 0.19025,0.0425035 0.291696,0.0425035 0.101511,0 0.199616,-0.0148336 0.292056,-0.0425035l0.385707 0c0.240318,0 0.463248,0.218706 0.463248,0.67606l0.0344154 0.768009z"/>
   <path id="_125662440" class="fil2 str0" d="M0.546323 0.89254c0,0.419075 0.34399,0.758087 0.767944,0.758087 0.424347,0 0.768337,-0.339013 0.768337,-0.758087 0,-0.418649 -0.34399,-0.758087 -0.768337,-0.758087 -0.423954,0 -0.767944,0.339438 -0.767944,0.758087z"/>
   <path id="_125662368" class="fil3" d="M0.487152 2.42037c0,0 -0.186583,0.359315 -0.0435186,0.443143 0.142966,0.0838281 0.31095,0.0838281 0.416652,0.041914 0.105669,-0.041914 0.105669,-0.431092 0.0248537,-0.44311 -0.0808482,-0.0119848 -0.298539,-0.131735 -0.298539,-0.131735 0,0 -0.0870699,-0.0179772 -0.0994476,0.0897877z"/>
   <path id="_125662296" class="fil4" d="M1.62515 3.09699c-0.0683068,0.0855963 -0.186517,0.059924 -0.273587,0.0299947 -0.0870699,-0.0299947 -0.211469,-0.0299947 -0.130621,0.0478409 0.0808482,0.0778357 0.0808482,0.0359216 0.149286,0.0778357 0.068405,0.041914 0.105702,0.0658509 0.18655,0.0239368 0.0808155,-0.0418485 0.0870699,0.0659164 0.22388,-0.0179444 0.136777,-0.0838281 0.192772,-0.0718433 0.111924,-0.11975 -0.0808482,-0.0479064 -0.192739,-0.143654 -0.198993,-0.179641 -0.00622161,-0.0359216 -0.0745939,-0.041914 -0.0995131,0.041914 -0.024821,0.0838936 0.0932915,0.0179772 0.0310753,0.0958129z"/>
   <path id="_125662224" class="fil5" d="M0.488069 2.87144c-0.0888054,-0.0657854 -0.0622161,-0.179608 -0.0310753,-0.263436 0.0310753,-0.0838281 0.0310753,-0.203578 -0.0497729,-0.125742 -0.0808482,0.0778357 -0.0372969,0.0778357 -0.0808482,0.143719 -0.0435513,0.0658509 -0.0683723,0.101773 -0.0248537,0.179608 0.0435513,0.0778357 -0.0684378,0.0838281 0.0186321,0.215595 0.0870699,0.131669 0.0746594,0.185568 0.124367,0.107732 0.0497729,-0.0778357 0.149286,-0.185568 0.186616,-0.191593 0.0372642,-0.0059924 0.0435841,-0.0718105 -0.0435513,-0.0958129 -0.0870699,-0.0239368 -0.0186976,0.0898205 -0.0995131,0.0299292z"/>
   <path id="_125662152" class="fil4" d="M1.99213 2.38448c-0.0471533,0.0113299 -0.254988,0.0180099 -0.26121,0.161696 -0.00625436,0.143654 0.161664,0.161664 0.230134,0.233507 0.0683723,0.0718105 0.149221,0.251484 0.198993,0.221489 0.0497402,-0.0299292 0.0435186,-0.10174 0.0622161,-0.167591 0.0185994,-0.0659164 0.08075,-0.0958129 0,-0.191658 -0.0809137,-0.0957474 -0.0186976,-0.125742 -0.0746921,-0.197585 -0.0559945,-0.0718433 -0.105702,-0.0718433 -0.155442,-0.0598585z"/>
   <path id="_125662080" class="fil5" d="M1.81481 3.07642c0.0470551,-0.0113299 0.25489,-0.0180099 0.26121,-0.161664 0.00615612,-0.143687 -0.161762,-0.161729 -0.230134,-0.23354 -0.0684705,-0.0718105 -0.149286,-0.251451 -0.198993,-0.221555 -0.0497729,0.0299947 -0.0435513,0.101838 -0.0622161,0.167656 -0.0186321,0.0659164 -0.0808482,0.0958456 0,0.191593 0.0808482,0.0958456 0.0186648,0.125742 0.0745939,0.197651 0.0559945,0.0718433 0.105767,0.0717778 0.15554,0.0598585z"/>
   <path id="_125662008" class="fil3" d="M1.83466 2.41923c0,0 -0.130687,-0.268479 -0.246605,-0.227122 -0.115853,0.0413901 -0.192739,0.135107 -0.215923,0.213172 -0.023151,0.0781304 0.21088,0.256265 0.255119,0.216643 0.0442062,-0.0395564 0.215857,-0.106128 0.215857,-0.106128 0,0 0.0506898,-0.0403423 -0.0084483,-0.096566z"/>
   <path id="_125661936" class="fil5" d="M1.56366 2.20507c0.0919162,-0.0222341 0.15649,0.054521 0.19788,0.118374 0.0414229,0.0637879 0.124105,0.126626 0.112742,0.0342189 -0.0111989,-0.0925711 -0.0340224,-0.0647703 -0.0565512,-0.12715 -0.0225943,-0.0623144 -0.0342844,-0.0970899 -0.11081,-0.11009 -0.0764604,-0.0129672 -0.0219066,-0.0876593 -0.158422,-0.10115 -0.136352,-0.0134583 -0.167034,-0.0496747 -0.139462,0.022889 0.0275388,0.0727274 0.0496092,0.192837 0.0341206,0.219787 -0.0153903,0.0269822 0.0266547,0.0655562 0.0889363,0.0224633 0.0621834,-0.0431584 -0.0521306,-0.0591053 0.0315665,-0.079342z"/>
   <path id="_125661864" class="fil3" d="M1.16737 3.2748c0.0147027,-0.0315338 0.105833,-0.150399 0.0222996,-0.219623 -0.0835989,-0.0692564 -0.171258,0.0160452 -0.245787,0.0213827 -0.0745284,0.005272 -0.219558,-0.0319267 -0.224338,0.00949615 -0.00474807,0.0414556 0.0412919,0.0709264 0.0723672,0.111367 0.0311408,0.0406697 0.0206951,0.0890346 0.115296,0.0878558 0.0945358,-0.00127707 0.08409,0.0471533 0.152953,0.0487578 0.0688635,0.00167001 0.0916542,-0.0260653 0.107208,-0.0592363z"/>
   <path id="_125661792" class="fil5" d="M0.832387 2.85916c-0.0147354,0.0314683 -0.105898,0.150399 -0.0222668,0.219656 0.0835334,0.0692237 0.171225,-0.0161435 0.245688,-0.0213827 0.0745284,-0.005272 0.219623,0.0318612 0.224306,-0.00959439 0.00478082,-0.0414556 -0.0412919,-0.0709264 -0.0723345,-0.111432 -0.0310753,-0.040506 -0.0205968,-0.0889036 -0.115231,-0.087692 -0.0946668,0.00117883 -0.0841555,-0.0471205 -0.153019,-0.0488561 -0.0688635,-0.00167001 -0.0916215,0.0261308 -0.107143,0.0593018z"/>
   <path id="_125661720" class="fil3" d="M1.55504 2.59752c0,0 0.00297983,-0.312914 -0.126954,-0.324506 -0.129966,-0.0115919 -0.247424,0.0437805 -0.306529,0.107961 -0.0591053,0.0640826 0.0791127,0.336524 0.140019,0.318317 0.0608408,-0.0182392 0.255741,-0.00612338 0.255741,-0.00612338 0,0 0.0673572,-0.0160452 0.0377226,-0.0956491z"/>
   <path id="_125661648" class="fil4" d="M0.518031 2.4987c0.0174533,-0.0823545 0.109271,-0.103344 0.180918,-0.111007 0.0715486,-0.0077279 0.158618,-0.0487251 0.0743974,-0.0765586 -0.0843193,-0.0278663 -0.0694201,0.00153903 -0.132127,-0.00533749 -0.0627728,-0.00684378 -0.0974501,-0.0113299 -0.139102,0.0446646 -0.0417503,0.0560273 -0.0843847,-0.0173878 -0.150367,0.086284 -0.0660146,0.103737 -0.109402,0.113823 -0.0358234,0.120667 0.0736443,0.00687652 0.186026,0.0371332 0.203119,0.0602514 0.0170931,0.0231182 0.0672262,0.00487906 0.0547502,-0.0620852 -0.0123122,-0.0669315 -0.0716468,0.0181737 -0.0557653,-0.0568787z"/>
   <path id="_125661576" class="fil4" d="M0.514364 3.11834c0.0289796,-0.0234784 0.172044,-0.096566 0.125382,-0.19919 -0.0466949,-0.102624 -0.170603,-0.059924 -0.244018,-0.087692 -0.0733823,-0.0277353 -0.193885,-0.126823 -0.218018,-0.089493 -0.0242316,0.0373624 0.00566494,0.0855308 0.0160452,0.137858 0.0103148,0.0521633 -0.022627,0.0936844 0.0680448,0.134092 0.0906719,0.0404405 0.05773,0.0818306 0.122435,0.113757 0.064803,0.0317957 0.0995786,0.0154231 0.13013,-0.00933242z"/>
   <path id="_125661504" class="fil5" d="M0.392682 2.57562c-0.0289469,0.0233802 -0.172077,0.096566 -0.125415,0.19919 0.0466621,0.102624 0.170603,0.059924 0.244051,0.0876265 0.0733496,0.0278008 0.193852,0.126954 0.218018,0.0895585 0.0241661,-0.0373297 -0.00576318,-0.0855636 -0.016078,-0.137825 -0.010282,-0.0521961 0.0225615,-0.0937499 -0.0680121,-0.134125 -0.0907046,-0.0404405 -0.0577955,-0.0818961 -0.122468,-0.113692 -0.0647703,-0.031894 -0.0995786,-0.0154558 -0.130097,0.00926693z"/>
   <path id="_125661432" class="fil5" d="M0.875643 3.09689c-0.0492817,0.0399493 -0.112513,0.0116246 -0.157603,-0.0154231 -0.0451231,-0.0270477 -0.115034,-0.0417503 -0.0794402,0.0114609 0.0355614,0.0533094 0.0408989,0.0297328 0.0740045,0.0613975 0.0330401,0.0315665 0.0509845,0.0494127 0.101707,0.035365 0.0507553,-0.0139823 0.040637,0.0472515 0.128133,0.0163399 0.0874628,-0.0309771 0.11749,-0.017748 0.0781304,-0.0541281 -0.0393926,-0.0365111 -0.0901152,-0.103541 -0.0890018,-0.1244 0.00104785,-0.0208588 -0.0366093,-0.0323197 -0.0612665,0.0117883 -0.024559,0.044239 0.0501331,0.0211207 0.00533749,0.0575991z"/>
   <path id="_125661360" class="fil3" d="M0.775344 2.22357c0.00091687,0.0268512 -0.0205968,0.140117 0.0624454,0.161042 0.0831077,0.020957 0.11415,-0.0676846 0.164447,-0.0958784 0.0502641,-0.0282592 0.164938,-0.0500349 0.153576,-0.0805535 -0.0113299,-0.0306496 -0.0541281,-0.0360526 -0.0901807,-0.0541935 -0.0362491,-0.0181082 -0.0461054,-0.0555034 -0.111924,-0.0235112 -0.0656872,0.0320577 -0.0756417,-0.005272 -0.124367,0.0162417 -0.0487906,0.0215464 -0.0548812,0.0484631 -0.0539971,0.0768533z"/>
   <path id="_125661288" class="fil5" d="M1.15755 2.4041c-0.00091687,-0.0268512 0.0205641,-0.140085 -0.0625109,-0.161074 -0.0831077,-0.0209243 -0.114183,0.0677174 -0.164414,0.0959111 -0.0502641,0.028161 -0.165037,0.0500349 -0.153543,0.080619 0.0113626,0.0305841 0.0540626,0.0359871 0.0901807,0.0541608 0.0362163,0.0181409 0.0459745,0.0554706 0.111858,0.0234129 0.0658181,-0.0320577 0.0756417,0.00533749 0.124432,-0.0162089 0.0488233,-0.0215137 0.0548157,-0.0484304 0.0539971,-0.0768206z"/>
   <path id="_125661216" class="fil4" d="M1.46797 2.86738c0,0 0.00291434,-0.312947 -0.126986,-0.324539 -0.129934,-0.0116246 -0.247457,0.0437805 -0.306562,0.107961 -0.0591053,0.0640826 0.0791782,0.336524 0.140019,0.318317 0.0608408,-0.0182719 0.255741,-0.00612338 0.255741,-0.00612338 0,0 0.0673244,-0.016078 0.0377881,-0.0956164z"/>
   <path id="_125661144" class="fil3" d="M0.430896 2.76852c0.0174205,-0.0823545 0.109337,-0.103344 0.180885,-0.111007 0.0716468,-0.0077279 0.158651,-0.0487251 0.0744302,-0.0765586 -0.0842865,-0.0278663 -0.0693546,0.00153903 -0.132193,-0.00533749 -0.0627073,-0.00687652 -0.0973846,-0.0113299 -0.139037,0.0446646 -0.0416848,0.0560273 -0.0843847,-0.0174205 -0.150334,0.086284 -0.0659819,0.103737 -0.109369,0.113823 -0.0358889,0.120699 0.073677,0.00684378 0.186059,0.0371005 0.203152,0.0602187 0.0171586,0.0231182 0.067128,0.00484631 0.0548157,-0.0621179 -0.0123777,-0.0668987 -0.0716796,0.0182064 -0.0558308,-0.0568459z"/>
   <path id="_125661072" class="fil5" d="M1.30706 2.55198c0.0855308,0.0167001 0.107339,0.105211 0.115296,0.174107 0.00802261,0.0688962 0.0505916,0.152757 0.0795057,0.0716468 0.0290124,-0.0811757 -0.00150629,-0.0667678 0.00546847,-0.127216 0.00713848,-0.0604479 0.0117883,-0.0937827 -0.0463674,-0.133896 -0.0580575,-0.0402113 0.0181409,-0.0812084 -0.089624,-0.1448 -0.107667,-0.0634932 -0.118211,-0.105276 -0.125349,-0.0344481 -0.00717123,0.0708282 -0.0385413,0.179052 -0.0625763,0.195522 -0.0239368,0.0165364 -0.00487906,0.0646393 0.0646066,0.05272 0.0694856,-0.0118538 -0.0189268,-0.0688962 0.0590399,-0.0536369z"/>
   <path id="_125661000" class="fil3" d="M0.3824 3.40037c0.0289469,-0.0234784 0.172077,-0.096566 0.125447,-0.19919 -0.0466621,-0.102624 -0.170636,-0.059924 -0.244051,-0.087692 -0.0733823,-0.0277353 -0.193885,-0.126823 -0.218051,-0.089493 -0.0241333,0.0373624 0.00576318,0.0855636 0.016078,0.137858 0.0103803,0.0521633 -0.0225615,0.0937172 0.0681103,0.134059 0.0905736,0.0404732 0.05773,0.0818634 0.122369,0.113757 0.0647703,0.0318612 0.0995786,0.0154885 0.130097,-0.00929968z"/>
   <path id="_125660928" class="fil5" d="M0.305547 2.84544c-0.0289469,0.0233802 -0.172077,0.096566 -0.125447,0.199124 0.0466621,0.102689 0.170636,0.0599895 0.244084,0.087692 0.0734151,0.0277681 0.193852,0.126954 0.218018,0.0895585 0.0242316,-0.0372969 -0.00569769,-0.0855636 -0.016078,-0.137792 -0.0103148,-0.0522616 0.0225615,-0.0937827 -0.0680776,-0.134158 -0.0906064,-0.0404405 -0.05773,-0.0818961 -0.122369,-0.113692 -0.064803,-0.0319267 -0.0996113,-0.0154558 -0.13013,0.00926693z"/>
   <path id="_125660856" class="fil5" d="M0.788508 3.36671c-0.0492162,0.0399821 -0.112448,0.0116573 -0.157603,-0.0154231 -0.0450576,-0.0270477 -0.114969,-0.0417831 -0.0794729,0.0114609 0.0355942,0.0533094 0.0409317,0.0297983 0.0740045,0.0613648 0.0331055,0.0315993 0.0510172,0.0494782 0.101805,0.0353977 0.0507553,-0.0139823 0.0405715,0.0472515 0.128133,0.0163399 0.0873973,-0.0309771 0.117458,-0.017748 0.0780649,-0.0541281 -0.0393272,-0.0365111 -0.0901152,-0.103574 -0.0889363,-0.1244 0.000949615,-0.0208588 -0.0366093,-0.0323197 -0.061332,0.0117883 -0.024559,0.0442717 0.0501659,0.0211207 0.00533749,0.0575991z"/>
   <path id="_125660784" class="fil3" d="M0.688209 2.49339c0.00091687,0.0268512 -0.0206296,0.14015 0.0624454,0.161074 0.0831077,0.0208915 0.114118,-0.0677174 0.164447,-0.0959766 0.0503296,-0.0281937 0.165004,-0.0499694 0.153576,-0.0804881 -0.0113626,-0.0306496 -0.0540626,-0.0360526 -0.0901152,-0.0541935 -0.0362491,-0.0181082 -0.0461709,-0.0555034 -0.111924,-0.0235112 -0.0657199,0.0320577 -0.0756417,-0.005272 -0.124432,0.0162417 -0.0487906,0.0215464 -0.0548812,0.0484631 -0.0539971,0.0768533z"/>
   <path id="_125660712" class="fil5" d="M1.07041 2.67392c-0.000884124,-0.0268512 0.0206296,-0.140085 -0.0625109,-0.161074 -0.0830422,-0.0209243 -0.114118,0.0677174 -0.164349,0.0958784 -0.0503296,0.0282592 -0.165004,0.0500676 -0.153608,0.0806518 0.0113626,0.0305841 0.0540298,0.0359871 0.0901807,0.0541608 0.0362163,0.0181409 0.04604,0.0554706 0.111793,0.0234129 0.0658836,-0.0320577 0.0757072,0.00530475 0.124531,-0.0162089 0.0487578,-0.0215137 0.0548484,-0.0484304 0.0539643,-0.0768206z"/>
   <path id="_125660640" class="fil4" d="M1.98299 2.89289c0,0 0.00291434,-0.312947 -0.126954,-0.324539 -0.129901,-0.0115919 -0.247489,0.0437805 -0.306595,0.107961 -0.0591053,0.0640826 0.0791782,0.336524 0.140019,0.31835 0.0609063,-0.0182719 0.255807,-0.00612338 0.255807,-0.00612338 0,0 0.0673572,-0.016078 0.0377226,-0.0956491z"/>
   <path id="_125660568" class="fil3" d="M0.945947 2.79406c0.0174533,-0.0823545 0.109304,-0.103344 0.180853,-0.111039 0.0716468,-0.00769516 0.158651,-0.0486923 0.0744957,-0.0765586 -0.0843193,-0.0278335 -0.0693546,0.00153903 -0.132193,-0.00533749 -0.0627728,-0.00684378 -0.0973846,-0.0112317 -0.139102,0.0446646 -0.0416848,0.05606 -0.0843193,-0.0173878 -0.150301,0.086284 -0.0659491,0.10377 -0.109402,0.113823 -0.0358234,0.120699 0.0736115,0.00690927 0.186026,0.0371005 0.203119,0.0602187 0.0170931,0.023151 0.0671607,0.00487906 0.0547502,-0.0620852 -0.0123777,-0.0668987 -0.0717123,0.0181737 -0.0557981,-0.0568459z"/>
   <path id="_125660496" class="fil5" d="M1.82208 2.57748c0.0855963,0.0167329 0.107339,0.105211 0.115362,0.174107 0.00802261,0.0689289 0.0505261,0.152757 0.0794402,0.0716468 0.0290124,-0.081143 -0.00150629,-0.0667678 0.00556671,-0.127216 0.00704025,-0.0604479 0.0116901,-0.0937499 -0.0463674,-0.133863 -0.0581557,-0.040244 0.0181082,-0.0812412 -0.0896567,-0.1448 -0.107765,-0.0634932 -0.118211,-0.105276 -0.125349,-0.0344481 -0.00720398,0.0708282 -0.0386068,0.179052 -0.0625436,0.195522 -0.0239696,0.0165037 -0.00501004,0.0647048 0.0645083,0.0527527 0.0694856,-0.0119193 -0.0188286,-0.0689617 0.0590399,-0.0537024z"/>
   <path id="_125660424" class="fil3" d="M0.942313 3.41367c0.0289141,-0.0233802 0.172044,-0.096566 0.125382,-0.19919 -0.0466949,-0.102624 -0.170669,-0.0598912 -0.244018,-0.087692 -0.0734478,-0.0277353 -0.193885,-0.126823 -0.218018,-0.089493 -0.0242316,0.0373952 0.00566494,0.0855636 0.0159797,0.137858 0.0103803,0.0521961 -0.022496,0.0937172 0.0681103,0.134092 0.0906719,0.0404405 0.05773,0.0818306 0.122435,0.113757 0.0647048,0.0318612 0.0995131,0.0154558 0.13013,-0.00933242z"/>
   <path id="_125660352" class="fil5" d="M1.23342 3.05327c-0.0289469,0.0234129 -0.172077,0.096566 -0.125447,0.19919 0.0466621,0.102624 0.170636,0.059924 0.244084,0.0876265 0.0734151,0.0278008 0.193852,0.126954 0.218018,0.0895585 0.0242316,-0.0372969 -0.00569769,-0.0855308 -0.016078,-0.137792 -0.0103148,-0.0522288 0.0225615,-0.0937499 -0.0680776,-0.134158 -0.0906064,-0.0404405 -0.05773,-0.0818961 -0.122369,-0.113692 -0.064803,-0.031894 -0.0996113,-0.0154558 -0.13013,0.00926693z"/>
   <path id="_125660280" class="fil5" d="M1.30359 3.39222c-0.0492817,0.0399821 -0.11248,0.0116573 -0.157669,-0.0154231 -0.0450576,-0.0270477 -0.114969,-0.0416848 -0.0793747,0.0114936 0.035496,0.0533094 0.0408007,0.0297655 0.0739717,0.0613648 0.0330728,0.0316647 0.0510172,0.0494455 0.10174,0.0353977 0.0508208,-0.014015 0.040637,0.0472515 0.128133,0.0163072 0.0874628,-0.0309771 0.117425,-0.0177152 0.0781304,-0.0540953 -0.0393926,-0.0365111 -0.0901152,-0.103574 -0.0890018,-0.124432 0.00104785,-0.0208588 -0.036642,-0.0323197 -0.0612665,0.0117883 -0.024559,0.0442717 0.0501004,0.0211535 0.00533749,0.0575991z"/>
   <path id="_125660208" class="fil4" d="M2.4093 3.30908c0,0 0.00291434,-0.312947 -0.127019,-0.324474 -0.129901,-0.0116246 -0.247424,0.043715 -0.306529,0.107863 -0.0591053,0.0641809 0.0791782,0.336622 0.140019,0.31835 0.0609063,-0.0182064 0.255741,-0.00605789 0.255741,-0.00605789 0,0 0.0674227,-0.0161435 0.0377881,-0.0956819z"/>
   <path id="_125660136" class="fil3" d="M1.29439 2.816c0.0174205,-0.0824528 0.109271,-0.103377 0.180918,-0.111105 0.0715813,-0.0077279 0.158651,-0.0486596 0.0743974,-0.0764931 -0.0842865,-0.0278663 -0.0694201,0.00147354 -0.132193,-0.00540298 -0.0627728,-0.00681103 -0.0973846,-0.0112644 -0.139135,0.0447301 -0.0416521,0.0559618 -0.0842865,-0.0174205 -0.150236,0.086284 -0.0660474,0.103704 -0.109435,0.113823 -0.0358561,0.120667 0.0736443,0.00687652 0.186059,0.0371332 0.203152,0.0602514 0.0170931,0.0230527 0.067128,0.00481357 0.0547502,-0.0621507 -0.0124105,-0.066866 -0.0717123,0.0181737 -0.0557981,-0.0567804z"/>
   <path id="_125660064" class="fil5" d="M2.17049 2.59933c0.0855308,0.0167984 0.107339,0.105244 0.115362,0.174205 0.00805535,0.0688635 0.0505261,0.152692 0.0795384,0.0716468 0.0288486,-0.0811757 -0.00160452,-0.0668332 0.00543573,-0.127281 0.00707299,-0.0603824 0.0117228,-0.0937499 -0.0464001,-0.133863 -0.0580902,-0.0401785 0.0181082,-0.0812412 -0.0896567,-0.144833 -0.107699,-0.0634932 -0.118145,-0.105276 -0.125251,-0.0344481 -0.00720398,0.0708937 -0.038574,0.179117 -0.0626418,0.195522 -0.0239041,0.0166019 -0.00494455,0.0647048 0.0645738,0.0527855 0.0694856,-0.0119193 -0.0188286,-0.0689944 0.0590399,-0.0537351z"/>
   <path id="_125659992" class="fil5" d="M1.65194 3.41406c-0.0492162,0.0399821 -0.11248,0.0116573 -0.157603,-0.0153903 -0.0450576,-0.0270477 -0.115034,-0.0417176 -0.0793747,0.0114609 0.035496,0.0533094 0.0408989,0.0297983 0.0739717,0.0613975 0.0331055,0.031632 0.0510172,0.049511 0.10174,0.0354305 0.0508208,-0.0140478 0.0405715,0.047186 0.128133,0.0162744 0.0874956,-0.0310098 0.117458,-0.0176825 0.0780649,-0.0540626 -0.0392944,-0.0365111 -0.0900497,-0.103574 -0.0889363,-0.124465 0.00104785,-0.0208588 -0.0366093,-0.0323197 -0.0612338,0.0118538 -0.0245918,0.0441735 0.0501004,0.0210553 0.00523925,0.0575008z"/>
   <path id="_125659920" class="fil3" d="M1.55174 2.54078c0.000818634,0.0269167 -0.0206951,0.140117 0.0624126,0.161074 0.0830749,0.0209243 0.114118,-0.0676519 0.164382,-0.0959111 0.0503296,-0.0282592 0.165004,-0.0500349 0.153674,-0.0805863 -0.0113954,-0.0305514 -0.0541608,-0.0360526 -0.0902134,-0.0540953 -0.0362818,-0.0182064 -0.0461054,-0.0555034 -0.111924,-0.0235112 -0.0656544,0.0319595 -0.0756417,-0.005272 -0.124432,0.0162417 -0.0487251,0.0214809 -0.0548157,0.0483976 -0.0538988,0.0767878z"/>
   <path id="_125659848" class="fil5" d="M1.93391 2.72137c-0.00098236,-0.0268512 0.0205641,-0.140085 -0.0625763,-0.161074 -0.0829767,-0.0209898 -0.114118,0.0676191 -0.164382,0.0958784 -0.0502314,0.0281937 -0.165004,0.0500021 -0.153576,0.0806518 0.0114281,0.0305841 0.0541281,0.0359216 0.0901807,0.0540953 0.0362163,0.0182064 0.04604,0.0554379 0.111858,0.0234784 0.0658836,-0.0320577 0.0756417,0.005272 0.124531,-0.0162089 0.0487578,-0.0215792 0.054783,-0.0484304 0.0539643,-0.0768206z"/>
   <path id="_125659776" class="fil3" d="M1.99878 2.76492c0.0174205,-0.08242 0.109337,-0.103344 0.180918,-0.111039 0.0715486,-0.00776065 0.158651,-0.0486596 0.0743974,-0.0765259 -0.084221,-0.0279318 -0.0693546,0.00147354 -0.132193,-0.00540298 -0.0627728,-0.00677829 -0.0973846,-0.0112644 -0.139069,0.0447301 -0.0416521,0.0559618 -0.084352,-0.0173878 -0.150301,0.086284 -0.0659491,0.103704 -0.109435,0.113823 -0.0358561,0.120699 0.0736443,0.00684378 0.186059,0.0371005 0.203119,0.0601532 0.0170931,0.0231182 0.0671607,0.00487906 0.0548157,-0.0621179 -0.0124432,-0.0668332 -0.0716796,0.0182064 -0.0558308,-0.0567804z"/>
   <path id="_125659704" class="fil3" d="M1.99511 3.38446c0.0289141,-0.0233802 0.172044,-0.0964678 0.125415,-0.199092 -0.0467276,-0.102624 -0.170603,-0.0599895 -0.244051,-0.087692 -0.0734478,-0.0277353 -0.193852,-0.126888 -0.218018,-0.089493 -0.0241661,0.0372969 0.00566494,0.0855636 0.0160452,0.137792 0.0103148,0.0521961 -0.0225615,0.0936844 0.0680448,0.134092 0.0906719,0.0404405 0.05773,0.0818961 0.122435,0.11379 0.0647048,0.0317957 0.0996113,0.0154231 0.13013,-0.00939791z"/>
   <path id="_125659632" class="fil5" d="M1.87336 2.84177c-0.0288486,0.0234457 -0.172011,0.096566 -0.125284,0.19919 0.0466621,0.102624 0.170538,0.0598912 0.243986,0.087692 0.0734151,0.0277681 0.193852,0.126888 0.218018,0.089493 0.0241988,-0.0372315 -0.00569769,-0.0855636 -0.016078,-0.137792 -0.0103148,-0.0522616 0.0225943,-0.0937172 -0.0680121,-0.134092 -0.0906719,-0.040506 -0.05773,-0.0818961 -0.122533,-0.113757 -0.0646393,-0.0318285 -0.0994476,-0.0154558 -0.130097,0.00926693z"/>
   <path id="_125659560" class="fil5" d="M2.29548 3.16585c-0.0492817,0.0399821 -0.11248,0.0116573 -0.157603,-0.0153903 -0.0451231,-0.0270477 -0.115034,-0.0416848 -0.0794402,0.0114609 0.035496,0.0533094 0.0408989,0.0297983 0.0739717,0.0613975 0.0331055,0.031632 0.0510172,0.0494455 0.101838,0.0354305 0.0507225,-0.0140478 0.0405387,0.047186 0.128034,0.0162744 0.0874956,-0.0310098 0.117523,-0.0176825 0.0781304,-0.0540626 -0.0393926,-0.0365111 -0.0901152,-0.103541 -0.0890018,-0.124465 0.00104785,-0.0208588 -0.0365438,-0.0323197 -0.0612665,0.0118538 -0.024559,0.0441735 0.0501986,0.0210553 0.00533749,0.0575008z"/>
   <path id="_125659488" class="fil3" d="M0.77184 2.27603c0.0289796,-0.0234129 0.17211,-0.0965005 0.125447,-0.199124 -0.0466949,-0.102624 -0.170669,-0.0599895 -0.244018,-0.087692 -0.0734478,-0.0277353 -0.193885,-0.126888 -0.218018,-0.0895258 -0.0242316,0.0373297 0.00566494,0.0855963 0.0159797,0.137825 0.0103803,0.0522616 -0.022496,0.0937499 0.0681103,0.134158 0.0905736,0.040375 0.05773,0.0817979 0.122435,0.113757 0.0647048,0.031763 0.0995131,0.0153576 0.130064,-0.00939791z"/>
   <path id="_125659416" class="fil5" d="M0.291826 2.04652c-0.0289141,0.0233802 -0.172044,0.096566 -0.125316,0.199157 0.0466621,0.102657 0.170603,0.059924 0.244051,0.0876593 0.0734151,0.0278663 0.193787,0.126921 0.218018,0.0895585 0.0241333,-0.0373297 -0.00576318,-0.0855636 -0.016078,-0.137825 -0.0103803,-0.0522288 0.022496,-0.0937499 -0.0680776,-0.134125 -0.0906064,-0.0404732 -0.05773,-0.0819288 -0.122468,-0.113692 -0.0647048,-0.0319267 -0.0995131,-0.0154558 -0.13013,0.00926693z"/>
   <path id="_125659344" class="fil5" d="M1.03842 2.28373c-0.0491835,0.0399821 -0.112448,0.0116901 -0.157571,-0.0153576 -0.0450576,-0.0270804 -0.115034,-0.0417176 -0.0794729,0.0114281 0.0355942,0.0533094 0.0409644,0.0297983 0.07407,0.0613975 0.0330728,0.031632 0.0510172,0.0494455 0.10174,0.0354632 0.0507225,-0.0140805 0.0405387,0.0471533 0.1281,0.0162417 0.0874956,-0.0309771 0.117458,-0.0176497 0.0780649,-0.0540298 -0.0393599,-0.0365111 -0.0900169,-0.103574 -0.0889363,-0.124498 0.00104785,-0.0208588 -0.0366093,-0.0323197 -0.0612338,0.0118538 -0.0245918,0.0441735 0.0501004,0.0210553 0.00523925,0.0575008z"/>
   <path id="_125659272" class="fil4" d="M1.30097 2.09921c0.0174533,-0.0823873 0.109271,-0.103377 0.180918,-0.111039 0.0715486,-0.0077279 0.158618,-0.0486923 0.0743974,-0.0765586 -0.084221,-0.0278335 -0.0693546,0.00153903 -0.132127,-0.00533749 -0.0627728,-0.00684378 -0.0973519,-0.0113299 -0.139102,0.0446646 -0.0417503,0.05606 -0.0843847,-0.0173878 -0.150334,0.086284 -0.0659819,0.10377 -0.109435,0.113823 -0.0357907,0.120699 0.0736443,0.00687652 0.185961,0.0371005 0.203119,0.0602187 0.0170603,0.023151 0.0671607,0.00487906 0.054783,-0.0620852 -0.0124105,-0.0669315 -0.0717123,0.0181737 -0.0558636,-0.0568459z"/>
   <path id="_125659200" class="fil3" d="M2.05768 2.36965c0.0289469,-0.0233802 0.172077,-0.0964678 0.125415,-0.199092 -0.0466949,-0.102624 -0.170669,-0.059924 -0.244018,-0.0877248 -0.0733823,-0.0277026 -0.193885,-0.12679 -0.218051,-0.0894603 -0.0241988,0.0372969 0.00569769,0.0855308 0.016078,0.137858 0.0103148,0.0521633 -0.0225615,0.0936844 0.0680448,0.134059 0.0905736,0.0404078 0.05773,0.0818634 0.122435,0.113757 0.0647048,0.0317957 0.0995131,0.0154231 0.130097,-0.00939791z"/>
   <path id="_125659128" class="fil5" d="M1.97186 1.87192c-0.0289469,0.0233802 -0.172011,0.0965005 -0.125349,0.199124 0.0466294,0.102657 0.170603,0.0599567 0.243986,0.087692 0.0734151,0.0277681 0.193852,0.126921 0.218051,0.0895585 0.0241988,-0.0373297 -0.00573043,-0.0855636 -0.0160452,-0.137858 -0.0103803,-0.0522616 0.022496,-0.0937172 -0.0681103,-0.134092 -0.0906064,-0.0404405 -0.0576973,-0.0818961 -0.122435,-0.113757 -0.0647048,-0.0318612 -0.0995458,-0.0154558 -0.130097,0.00933242z"/>
   <path id="_125659056" class="fil3" d="M1.20739 2.18117c0.0289141,-0.0233802 0.172044,-0.0964678 0.125415,-0.199092 -0.0466621,-0.102624 -0.170603,-0.059924 -0.244051,-0.087692 -0.0733496,-0.0277353 -0.193852,-0.126823 -0.218018,-0.089493 -0.0242316,0.0372969 0.00566494,0.0855308 0.0160452,0.137792 0.0103148,0.0522288 -0.0225615,0.0937827 0.0680448,0.134125 0.0906064,0.0404078 0.0577955,0.0818634 0.122435,0.113757 0.0647703,0.0317957 0.0995458,0.0154231 0.13013,-0.00939791z"/>
   <path id="_125658984" class="fil5" d="M0.23354 2.24384c-0.0289141,0.0233802 -0.172044,0.0964678 -0.125382,0.199092 0.0466949,0.102689 0.170669,0.0599895 0.244018,0.087692 0.0734478,0.0278008 0.193951,0.126954 0.218117,0.0895913 0.0241333,-0.0373297 -0.00576318,-0.0855963 -0.016078,-0.137825 -0.0103803,-0.0522616 0.022496,-0.0937499 -0.0681103,-0.134158 -0.0906064,-0.0404405 -0.0576973,-0.0818961 -0.122369,-0.113659 -0.0647703,-0.0319267 -0.0995786,-0.0154558 -0.130195,0.00926693z"/>
   <path id="_125658912" class="fil5" d="M1.42802 1.97824c-0.0492817,0.0400148 -0.112448,0.0115919 -0.157603,-0.0154558 -0.0450248,-0.0270477 -0.115002,-0.0417176 -0.0794402,0.0115264 0.035496,0.0533094 0.0408334,0.0297328 0.0739717,0.0613648 0.0331055,0.0315993 0.0510172,0.0494455 0.10174,0.0353977 0.0508208,-0.0140805 0.040637,0.0472515 0.128198,0.0162744 0.0874301,-0.0310098 0.117458,-0.0176825 0.0780649,-0.0540626 -0.0393599,-0.0365111 -0.0901152,-0.103541 -0.0890018,-0.1244 0.00104785,-0.0209243 -0.0366093,-0.0323197 -0.0612338,0.0117883 -0.0245918,0.044239 0.0501004,0.0211207 0.00530475,0.0575663z"/>
   <path id="_125658840" class="fil5" d="M0.734674 1.89036c-0.0596948,0.0451886 -0.136483,0.0131636 -0.191233,-0.0173878 -0.0546847,-0.0305514 -0.139626,-0.0471205 -0.096435,0.0129344 0.0431584,0.0602514 0.0497074,0.0336622 0.0898532,0.0693546 0.0401785,0.0357907 0.0619214,0.0558963 0.123483,0.0400803 0.0615612,-0.0158815 0.0492162,0.0533094 0.155475,0.0183701 0.106193,-0.0350048 0.14254,-0.0199419 0.0947323,-0.0610701 -0.0477755,-0.0412591 -0.109271,-0.116999 -0.107929,-0.140674 0.00127707,-0.0235439 -0.0444027,-0.0365111 -0.0743319,0.0134256 -0.029831,0.0499039 0.0608081,0.0237731 0.00638534,0.0649668z"/>
   <path id="_125658768" class="fil3" d="M1.79225 2.11253c0.0289469,-0.0233802 0.172077,-0.0964678 0.125415,-0.199092 -0.00268512,-0.00589416 -0.00573043,-0.0112317 -0.00887399,-0.0162089l-0.43476 0c0.000884124,0.0416848 -0.0111662,0.0766896 0.0656872,0.110941 0.0905736,0.0404078 0.05773,0.0818634 0.122435,0.113757 0.0647048,0.0317957 0.0995131,0.0154231 0.130097,-0.00939791z"/>
   <path id="_125658696" class="fil6" d="M2.59075 3.28773c0,0.0692891 -0.0296673,0.131865 -0.0775737,0.176825 -0.0463019,0.0435186 -0.109697,0.070468 -0.17915,0.070468l0 -0.000392944 -2.07753 0 0 0.000392944c-0.0694856,0 -0.132815,-0.0269494 -0.179019,-0.0704025 -0.0478737,-0.0450248 -0.0774755,-0.107634 -0.0774755,-0.17689l0.000392944 -0.00356924 0.0260325 -0.688635 -0.000261963 0c0,-0.263862 0.0544555,-0.46482 0.144996,-0.604839 0.107994,-0.167001 0.264288,-0.248111 0.442357,-0.248111l0.180132 0c0.151906,0.091163 0.330139,0.143588 0.520585,0.143588 0.190578,0 0.36904,-0.052458 0.521011,-0.143588l0.156752 0c0.160518,0 0.313995,0.0765586 0.421433,0.233343 0.0864804,0.126201 0.14182,0.305711 0.142508,0.539447l0.0344154 0.768009 0.000392944 0.00435513zm-0.215759 0.0299292c0.00835006,-0.00785888 0.0135893,-0.0185011 0.0135893,-0.0299292l0.000196472 0 -0.0342189 -0.763654 0 -0.00435513c0,-0.191658 -0.0419468,-0.334101 -0.107732,-0.43011 -0.0667023,-0.0973192 -0.159372,-0.144865 -0.254824,-0.144865l-1.37848 0c-0.109042,0 -0.205575,0.0508863 -0.273325,0.155704 -0.0698458,0.108027 -0.111858,0.271786 -0.111858,0.495077l-0.000392944 0.00356924 -0.0260325 0.688635 0.000261963 0c0,0.0115264 0.00517376,0.0221686 0.0134911,0.0299947 0.00992184,0.00933242 0.0243953,0.0151283 0.0408334,0.0151283l0 0.000392944 2.07753 0 0 -0.000392944c0.0165364,0 0.0310098,-0.00582867 0.0409644,-0.0151938z"/>
   <path id="_125658624" class="fil4" d="M1.49063 0.265892c0,0 -0.191953,0.413541 -0.0447956,0.510041 0.147059,0.0965005 0.319824,0.0965005 0.428538,0.0482666 0.108682,-0.0482666 0.108682,-0.496256 0.0256069,-0.510074 -0.0832059,-0.0138185 -0.307086,-0.151644 -0.307086,-0.151644 0,0 -0.089493,-0.0207278 -0.102264,0.10341z"/>
   <path id="_125658552" class="fil4" d="M0.854424 0.236258c0,0 -0.191888,0.413639 -0.0447629,0.51014 0.147125,0.0965005 0.319824,0.0965005 0.428538,0.0482666 0.108747,-0.0482666 0.108747,-0.496288 0.0256069,-0.510074 -0.0832059,-0.0138185 -0.30702,-0.151676 -0.30702,-0.151676 0,0 -0.0895258,-0.0206951 -0.102362,0.103344z"/>
   <path id="_125658480" class="fil5" d="M0.709068 0.34841c-0.029831,0.0269494 -0.176956,0.111072 -0.128984,0.229217 0.0479719,0.118211 0.17545,0.0690599 0.250993,0.100954 0.0755435,0.0319922 0.199386,0.146142 0.22424,0.103115 0.0248537,-0.0429619 -0.00589416,-0.098498 -0.0165364,-0.158717 -0.0106422,-0.0601532 0.023151,-0.107863 -0.0700423,-0.154362 -0.0931605,-0.0465639 -0.0593673,-0.0942738 -0.12584,-0.130949 -0.0666368,-0.0366748 -0.102427,-0.0177807 -0.13383,0.0107405z"/>
   <path id="_125658408" class="fil5" d="M0.561583 0.502903c-0.0148009,0.0387705 -0.109075,0.186878 -0.0157505,0.267497 0.093357,0.0807828 0.185175,-0.0264582 0.265892,-0.0358234 0.0805535,-0.00933242 0.239467,0.0299292 0.24297,-0.0206296 0.00360199,-0.0504606 -0.047579,-0.0843847 -0.082813,-0.132422 -0.0352995,-0.0479392 -0.0259016,-0.107143 -0.128427,-0.101805 -0.102624,0.00530475 -0.093226,-0.0538988 -0.167918,-0.0531457 -0.0747249,0.000687652 -0.098367,0.035365 -0.113954,0.0763294z"/>
   <path id="_125658336" class="fil5" d="M1.70695 0.429029c-0.0297655,0.0269494 -0.176956,0.111105 -0.128918,0.229217 0.0479719,0.118211 0.17545,0.0690599 0.250928,0.100954 0.0755108,0.0319922 0.199386,0.146142 0.224207,0.103115 0.0249192,-0.0429619 -0.00582867,-0.098498 -0.0164382,-0.158717 -0.0106422,-0.0601532 0.023151,-0.107863 -0.0700423,-0.154362 -0.0931605,-0.0465311 -0.0593673,-0.0942738 -0.125906,-0.130949 -0.0665713,-0.0366748 -0.102362,-0.0177807 -0.13383,0.0107405z"/>
   <path id="_125658264" class="fil0 str0" d="M2.0807 0.840868c-0.0269494,-0.394516 -0.359708,-0.706415 -0.766437,-0.706415 -0.406337,0 -0.739226,0.311899 -0.766176,0.706415l1.53261 0z"/>
   <path id="_125658192" class="fil3" d="M1.63648 2.19865c-0.0131309,0.0155868 -0.0111662,0.0387377 0.00435513,0.0519014l0.0938482 0.0791455c0.0155213,0.0130654 0.0387377,0.0111662 0.0517376,-0.00448611 0.0131636,-0.0154885 0.0112644,-0.0386722 -0.00432239,-0.0518031l-0.0938154 -0.0791455c-0.0154885,-0.0130654 -0.038705,-0.0111989 -0.0518031,0.00438788z"/>
   <path id="_125658120" class="fil0" d="M1.72912 2.51707c-0.0582212,0.0689617 -0.211338,0.0355614 -0.280366,-0.0227253"/>
   <path id="_125658048" class="fil0" d="M1.44875 2.49434c-0.0690599,-0.0581885 -0.0578938,-0.124432 0.000327453,-0.193427"/>
   <line id="_125657976" class="fil0" x1="1.44908" y1="2.30092" x2="1.64558" y2= "2.08663" />
   <path id="_125657904" class="fil0" d="M1.64558 2.08663c0.0582212,-0.0689944 0.131898,-0.12178 0.200925,-0.0634605"/>
   <path id="_125657832" class="fil0" d="M1.84651 2.02317c0.0689944,0.058254 0.127707,0.203578 0.0694201,0.272507"/>
   <line id="_125657760" class="fil0" x1="1.91593" y1="2.29568" x2="1.72912" y2= "2.51707" />
   <path id="_125657688" class="fil6 str1" d="M1.89121 1.97032c0.0438788,0.0370677 0.0841555,0.100528 0.103835,0.164742 0.0222996,0.0727929 0.0201056,0.150432 -0.0262618,0.205346l-0.186845 0.221359 -9.8236e-005 0.000130981c-0.023151,0.0273751 -0.0537679,0.0448611 -0.0879867,0.054259l-0.557227 0.807271 -0.576875 -0.33433 0.775737 -0.717385c0.00792437,-0.0394909 0.0291434,-0.0780976 0.0607426,-0.115526l0.00189923 -0.00216119 0.196538 -0.214122 9.8236e-005 9.8236e-005c0.0347428,-0.0408334 0.0752815,-0.0773118 0.12011,-0.0963695l-6.54907e-005 -0.000130981c0.00609063,-0.00258688 0.012345,-0.00478082 0.0184684,-0.00674554l1.28146 -1.51824c-0.0157178,-0.000589416 -0.0314355,-0.00576318 -0.0449921,-0.0159797l-0.00360199 -0.00275061 -0.0937827 -0.0792437c-0.0168966,-0.0143097 -0.0264255,-0.0341206 -0.0281282,-0.0544555 -0.00170276,-0.0203021 0.00448611,-0.0413901 0.0187303,-0.0582867 0.014277,-0.0168311 0.0340879,-0.0264582 0.0544555,-0.028161 0.0202694,-0.00170276 0.0413246,0.00438788 0.0582867,0.0186976l0.0937827 0.0791455c0.014146,0.0120175 0.0230855,0.0278335 0.0266547,0.0445992l0.0501004 -0.0593673 0.10305 0.0869389 -1.36394 1.61588 0.00586142 0.00478082zm-0.0954527 0.10138l-0.0773118 0.0915887 0.0914577 0.0770825 0.000163727 0.000163727c0.0134911,0.0114936 0.0223978,0.0263273 0.026229,0.0422087l0.0267857 -0.0317302c0.0118211,-0.014015 0.00939791,-0.043715 -0.000261963,-0.0752815 -0.0123122,-0.0401458 -0.0359871,-0.0785888 -0.0610046,-0.0997096 -0.00203021,-0.00170276 -0.00402768,-0.00320904 -0.00605789,-0.00432239zm-0.180492 0.213827l-0.0740045 0.0876593 0.128264 0.104949c0.00255414,-0.00160452 0.00481357,-0.0035365 0.00661456,-0.0056322l0.0769188 -0.091163c-0.0160125,-0.00111334 -0.0320904,-0.00704025 -0.0454833,-0.0180754l-0.000720398 -0.000622161 -6.54907e-005 6.54907e-005 -0.0915232 -0.0771808zm0.14313 0.0157505l6.54907e-005 0m-0.00628711 0.000687652l-6.54907e-005 0"/>
   <path id="_125657616" class="fil7" d="M1.89121 1.97032c0.0438788,0.0370677 0.0841555,0.100528 0.103835,0.164742 0.0222996,0.0727929 0.0201056,0.150432 -0.0262618,0.205346l-0.186845 0.221359 -9.8236e-005 0.000130981c-0.023151,0.0273751 -0.0537679,0.0448611 -0.0879867,0.054259l-0.557227 0.807271 -0.576875 -0.33433 0.775737 -0.717385c0.00792437,-0.0394909 0.0291434,-0.0780976 0.0607426,-0.115526l0.00189923 -0.00216119 0.196538 -0.214122 9.8236e-005 9.8236e-005c0.0347428,-0.0408334 0.0752815,-0.0773118 0.12011,-0.0963695l-6.54907e-005 -0.000130981c0.00609063,-0.00258688 0.012345,-0.00478082 0.0184684,-0.00674554l1.28146 -1.51824c-0.0157178,-0.000589416 -0.0314355,-0.00576318 -0.0449921,-0.0159797l-0.00360199 -0.00275061 -0.0937827 -0.0792437c-0.0168966,-0.0143097 -0.0264255,-0.0341206 -0.0281282,-0.0544555 -0.00170276,-0.0203021 0.00448611,-0.0413901 0.0187303,-0.0582867 0.014277,-0.0168311 0.0340879,-0.0264582 0.0544555,-0.028161 0.0202694,-0.00170276 0.0413246,0.00438788 0.0582867,0.0186976l0.0937827 0.0791455c0.014146,0.0120175 0.0230855,0.0278335 0.0266547,0.0445992l0.0501004 -0.0593673 0.10305 0.0869389 -1.36394 1.61588 0.00586142 0.00478082zm-0.0954527 0.10138l-0.0773118 0.0915887 0.0914577 0.0770825 0.000163727 0.000163727c0.0134911,0.0114936 0.0223978,0.0263273 0.026229,0.0422087l0.0267857 -0.0317302c0.0118211,-0.014015 0.00939791,-0.043715 -0.000261963,-0.0752815 -0.0123122,-0.0401458 -0.0359871,-0.0785888 -0.0610046,-0.0997096 -0.00203021,-0.00170276 -0.00402768,-0.00320904 -0.00605789,-0.00432239zm-0.180492 0.213827l-0.0740045 0.0876593 0.128264 0.104949c0.00255414,-0.00160452 0.00481357,-0.0035365 0.00661456,-0.0056322l0.0769188 -0.091163c-0.0160125,-0.00111334 -0.0320904,-0.00704025 -0.0454833,-0.0180754l-0.000720398 -0.000622161 -6.54907e-005 6.54907e-005 -0.0915232 -0.0771808zm0.14313 0.0157505l6.54907e-005 0m-0.00628711 0.000687652l-6.54907e-005 0"/>
   <rect id="_125657544" class="fil8" x="0.630839" y="3.33325" width="0.987632" height="0.201384"/>
  </g>
 </g>
</svg>
