<?xml version="1.0" encoding="UTF-8"?>
<!DOCTYPE svg PUBLIC "-//W3C//DTD SVG 1.1//EN" "http://www.w3.org/Graphics/SVG/1.1/DTD/svg11.dtd">
<!-- Creator: CorelDRAW -->
<svg xmlns="http://www.w3.org/2000/svg" xml:space="preserve" width="0.311488in" height="0.42502in" style="shape-rendering:geometricPrecision; text-rendering:geometricPrecision; image-rendering:optimizeQuality; fill-rule:evenodd; clip-rule:evenodd"
viewBox="0 0 2.69518 3.67752"
 xmlns:xlink="http://www.w3.org/1999/xlink">
 <defs>
  <style type="text/css">
   <![CDATA[
    .str0 {stroke:#4C4C4C;stroke-width:0.210319}
    .fil0 {fill:none;fill-rule:nonzero}
    .fil1 {fill:#4C4C4C;fill-rule:nonzero}
    .fil3 {fill:white;fill-rule:nonzero}
    .fil2 {fill:url(#id0);fill-rule:nonzero}
   ]]>
  </style>
  <linearGradient id="id0" gradientUnits="userSpaceOnUse" x1="0.568345" y1="0.928517" x2="2.16655" y2="0.928517">
   <stop offset="0" style="stop-color:white"/>
   <stop offset="0.811765" style="stop-color:#E3E3E3"/>
   <stop offset="1" style="stop-color:#C6C6C6"/>
  </linearGradient>
 </defs>
 <g id="Layer_x0020_1">
  <metadata id="CorelCorpID_0Corel-Layer"/>
  <g id="_126171872">
   <path id="_126172184" class="fil0" d="M0.426634 0.928517c0,0.513296 0.421319,0.928517 0.940577,0.928517 0.519734,0 0.941053,-0.415222 0.941053,-0.928517 0,-0.512751 -0.421319,-0.928517 -0.941053,-0.928517 -0.519257,0 -0.940577,0.415767 -0.940577,0.928517z"/>
   <path id="_126172112" class="fil1" d="M2.69518 3.42026c0,0.0720821 -0.0308631,0.137181 -0.0807007,0.183953 -0.0481683,0.0452728 -0.114119,0.0733085 -0.186371,0.0733085l0 -0.000408783 -2.16127 0 0 0.000408783c-0.0722865,0 -0.138169,-0.0280357 -0.186235,-0.0732404 -0.0498034,-0.0468398 -0.0805985,-0.111973 -0.0805985,-0.184021l0.000408783 -0.00371312 0.0270819 -0.716393 -0.000272522 0c0,-0.274498 0.0566506,-0.483557 0.150841,-0.62922 0.112347,-0.173733 0.274941,-0.258113 0.460188,-0.258113l0.187393 0c0.0738535,0.0443189 0.153771,0.0799172 0.238082,0.10516l3.40653e-005 0 0.000749436 0.000238457 0.00384938 0.00112415 0.00449662 0.00132855 0.000136261 3.40653e-005c0.0169986,0.0049054 0.0341334,0.00943608 0.0514726,0.0135239l0.00327027 0.000783502 0.00459881 0.00105602 0.000783502 0.000170326 0.00381531 0.000851632 0.00470101 0.00105602 0.000204392 3.40653e-005c0.020337,0.00442849 0.0408783,0.00820973 0.0616241,0.0114459l0.00381531 0.000613175 0.00470101 0.000681306 0.000408783 6.81306e-005 0.00064724 0.000102196 0.017237 0.00238457 0.000783502 0.000102196 0.00480321 0.000613175 0.00337246 0.000408783 0.00143074 0.000170326 0.00480321 0.00057911 0.00279335 0.000306588 0.00194172 0.000204392 0.00487134 0.000545045 0.00218018 0.000204392 0.00742623 0.000783502 0.0016692 0.000136261 0.00313401 0.000272522 0.0049054 0.000442849 0.00102196 6.81306e-005 0.00378125 0.000340653 0.00531418 0.000408783 0.00432629 0.000306588 0.0139327 0.000953828 0.000749436 6.81306e-005 0.00480321 0.000272522 0.00357685 0.000170326 0.00623395 0.000306588 0.00296368 0.000136261 0.00194172 6.81306e-005 0.00483727 0.000170326 0.00238457 6.81306e-005 0.0074603 0.000272522 0.00180546 3.40653e-005 0.00309994 6.81306e-005 0.0049054 0.000102196 0.00119228 0 0.00868665 0.000136261 0.000613175 0 0.00429223 0 0.0049054 0 0.0050076 0 0.00429223 0 0.000613175 0 0.00868665 -0.000136261 0.00119228 0 0.00497353 -0.000102196 0.00309994 -6.81306e-005 0.00180546 -3.40653e-005 0.00739217 -0.000272522 0.00241864 -6.81306e-005 0.0049054 -0.000170326 0.00190766 -6.81306e-005 0.00299775 -0.000136261 0.00619988 -0.000306588 0.00357685 -0.000170326 0.0049054 -0.000272522 0.000681306 -6.81306e-005 0.0138646 -0.000953828 0.00439442 -0.000306588 0.00534825 -0.000408783 0.00374718 -0.000340653 0.00115822 -6.81306e-005 0.00480321 -0.000442849 0.00313401 -0.000272522 0.0161469 -0.0016692 0.00194172 -0.000204392 0.00286148 -0.000306588 0.00480321 -0.00057911 0.00132855 -0.000170326 0.00347466 -0.000408783 0.00476914 -0.000613175 0.000749436 -0.000102196 0.017203 -0.00238457 0.000715371 -0.000102196 0.000374718 -6.81306e-005 0.00102196 -0.000136261c0.0250039,-0.00371312 0.0497694,-0.0082438 0.0741942,-0.0136942l0.00378125 -0.000851632c0.0202688,-0.00459881 0.0403333,-0.0098108 0.0601593,-0.0155338l0.000204392 -3.40653e-005 0.00449662 -0.00132855 0.00378125 -0.00112415 0.000715371 -0.000238457 6.81306e-005 0c0.0843116,-0.0253105 0.164195,-0.0608406 0.238116,-0.10516l0.163071 0c0.166988,0 0.326652,0.0796446 0.43842,0.242749 0.0899664,0.131288 0.147537,0.318033 0.148252,0.561191l0.0358026 0.798967 0.000408783 0.00453068z"/>
   <path id="_126172040" class="fil2 str0" d="M0.568345 0.928517c0,0.435968 0.357856,0.788645 0.798899,0.788645 0.441452,0 0.799308,-0.352678 0.799308,-0.788645 0,-0.435525 -0.357856,-0.788645 -0.799308,-0.788645 -0.441043,0 -0.798899,0.353121 -0.798899,0.788645z"/>
   <polygon id="_126171968" class="fil3" points="0.737002,3.09909 2.02651,3.52668 2.33698,2.58985 1.04751,2.1625 "/>
   <polygon id="_126171896" class="fil3" points="0.28407,3.43272 0.755875,2.00965 0.90399,2.0588 0.43222,3.48198 "/>
  </g>
 </g>
</svg>
