<?xml version="1.0" encoding="UTF-8"?>
<!DOCTYPE svg PUBLIC "-//W3C//DTD SVG 1.1//EN" "http://www.w3.org/Graphics/SVG/1.1/DTD/svg11.dtd">
<!-- Creator: CorelDRAW -->
<svg xmlns="http://www.w3.org/2000/svg" xml:space="preserve" width="0.311488in" height="0.42502in" style="shape-rendering:geometricPrecision; text-rendering:geometricPrecision; image-rendering:optimizeQuality; fill-rule:evenodd; clip-rule:evenodd"
viewBox="0 0 1.23214 1.68124"
 xmlns:xlink="http://www.w3.org/1999/xlink">
 <defs>
  <style type="text/css">
   <![CDATA[
    .str0 {stroke:#4C4C4C;stroke-width:0.0961508}
    .fil0 {fill:none;fill-rule:nonzero}
    .fil1 {fill:#4C4C4C;fill-rule:nonzero}
    .fil3 {fill:#878787;fill-rule:nonzero}
    .fil2 {fill:url(#id0);fill-rule:nonzero}
   ]]>
  </style>
  <linearGradient id="id0" gradientUnits="userSpaceOnUse" x1="0.322076" y1="0.486516" x2="0.928228" y2="0.486516">
   <stop offset="0" style="stop-color:white"/>
   <stop offset="0.811765" style="stop-color:#E3E3E3"/>
   <stop offset="1" style="stop-color:#C6C6C6"/>
  </linearGradient>
 </defs>
 <g id="Layer_x0020_1">
  <metadata id="CorelCorpID_0Corel-Layer"/>
  <g id="_125959704">
   <path id="_125960160" class="fil0" d="M0.195043 0.424487c0,0.234662 0.192613,0.424487 0.43,0.424487 0.237605,0 0.430218,-0.189825 0.430218,-0.424487 0,-0.234412 -0.192613,-0.424487 -0.430218,-0.424487 -0.237387,0 -0.43,0.190075 -0.43,0.424487z"/>
   <path id="_125960088" class="fil1" d="M1.23214 1.56363c0,0.0329535 -0.0141096,0.0627145 -0.0368936,0.0840969 -0.0220209,0.0206972 -0.0521712,0.0335142 -0.0852027,0.0335142l0 -0.000186882 -0.988061 0 0 0.000186882c-0.033047,0 -0.0631661,-0.012817 -0.0851404,-0.033483 -0.0227685,-0.0214136 -0.0368469,-0.0511901 -0.0368469,-0.0841281l0.000186882 -0.00169751 0.0123809 -0.327511 -0.000124588 0c0,-0.125491 0.0258987,-0.221066 0.0689595,-0.287658 0.0513614,-0.0794249 0.125694,-0.118 0.210382,-0.118l0.0856699 0c0.0722455,0.0433566 0.157012,0.0682898 0.247588,0.0682898 0.0906378,0 0.175513,-0.0249488 0.24779,-0.0682898l0.0745504 0c0.0763413,0 0.149334,0.0364109 0.200431,0.110977 0.0411296,0.0600203 0.0674489,0.145394 0.0677759,0.256558l0.0163678 0.365261 0.000186882 0.00207128zm-0.102614 0.0142342c0.00397124,-0.00373764 0.00646301,-0.00879903 0.00646301,-0.0142342l9.3441e-005 0 -0.0162743 -0.36319 0 -0.00207128c0,-0.0911517 -0.0199497,-0.158896 -0.0512368,-0.204558 -0.0317232,-0.0462845 -0.0757963,-0.0688972 -0.121193,-0.0688972l-0.655598 0c-0.0518598,0 -0.0977705,0.0242012 -0.129992,0.074052 -0.0332183,0.051377 -0.0531991,0.12926 -0.0531991,0.235456l-0.000186882 0.00169751 -0.0123809 0.327511 0.000124588 0c0,0.00548187 0.00246061,0.0105433 0.00641628,0.0142653 0.00471877,0.00443845 0.0116023,0.00719496 0.0194202,0.00719496l0 0.000186882 0.988061 0 0 -0.000186882c0.00786462,0 0.0147481,-0.00277208 0.0194825,-0.00722611z"/>
   <path id="_125960016" class="fil2 str0" d="M0.322076 0.486516c0,0.165344 0.135723,0.299105 0.302998,0.299105 0.167431,0 0.303154,-0.133761 0.303154,-0.299105 0,-0.165188 -0.135723,-0.299105 -0.303154,-0.299105 -0.167275,0 -0.302998,0.133917 -0.302998,0.299105z"/>
   <path id="_125959944" class="fil1" d="M1.18407 1.56363c0,0.0384198 -0.0331404,0.0695357 -0.0740209,0.0695357l-0.299447 0 0 -0.756327 0.136782 0c0.114294,0 0.220318,0.104015 0.220318,0.321531l0.0163678 0.365261zm-0.755502 0.0695357l-0.30658 0c-0.0409272,0 -0.0739119,-0.0311159 -0.0739119,-0.0695357l0.0124432 -0.329208c0,-0.242775 0.100652,-0.357583 0.231267,-0.357583l0.136782 0 0 0.756327z"/>
   <path id="_125959872" class="fil0" d="M0.994213 0.47373c0,-0.166512 -0.165235,-0.301519 -0.369077,-0.301519 -0.203655,0 -0.36889,0.135007 -0.36889,0.301519"/>
   <path id="_125959800" class="fil1" d="M0.130288 0.397965c0,0.170359 0.143572,0.3146 0.34215,0.364373 -0.0980041,-0.0610014 -0.165406,-0.178955 -0.168801,-0.315566l0.0390428 0c0,-0.0699718 0.0304462,-0.134026 0.0795962,-0.180949 0.0515327,-0.0491656 0.123249,-0.0796118 0.20286,-0.0796118 0.0797986,0 0.151593,0.0304151 0.203141,0.0795962 0.0491811,0.0469385 0.0796273,0.110977 0.0796273,0.180964l0.0387157 0c-0.00337945,0.13658 -0.070766,0.254518 -0.168801,0.315535 0.198515,-0.0498041 0.342088,-0.19403 0.342088,-0.364342 0,-0.211519 -0.221549,-0.382984 -0.494848,-0.382984 -0.273253,0 -0.49477,0.171464 -0.49477,0.382984z"/>
   <path id="_125959728" class="fil3" d="M0.875247 0.897096c0,0.169237 -0.11202,0.306455 -0.250204,0.306455 -0.138199,0 -0.250204,-0.137218 -0.250204,-0.306455 0,-0.169315 0.112005,-0.306533 0.250204,-0.306533 0.138184,0 0.250204,0.137218 0.250204,0.306533z"/>
  </g>
 </g>
</svg>
