<?xml version="1.0" encoding="UTF-8"?>
<!DOCTYPE svg PUBLIC "-//W3C//DTD SVG 1.1//EN" "http://www.w3.org/Graphics/SVG/1.1/DTD/svg11.dtd">
<!-- Creator: CorelDRAW -->
<svg xmlns="http://www.w3.org/2000/svg" xml:space="preserve" width="0.364626in" height="0.42502in" style="shape-rendering:geometricPrecision; text-rendering:geometricPrecision; image-rendering:optimizeQuality; fill-rule:evenodd; clip-rule:evenodd"
viewBox="0 0 10.1836 11.8703"
 xmlns:xlink="http://www.w3.org/1999/xlink">
 <defs>
  <style type="text/css">
   <![CDATA[
    .fil0 {fill:none;fill-rule:nonzero}
    .fil2 {fill:#4C4C4C;fill-rule:nonzero}
    .fil4 {fill:#656565;fill-rule:nonzero}
    .fil3 {fill:#FFF9DB;fill-rule:nonzero}
    .fil1 {fill:url(#id0);fill-rule:nonzero}
   ]]>
  </style>
  <linearGradient id="id0" gradientUnits="userSpaceOnUse" x1="0.419593" y1="8.86094" x2="8.27993" y2="8.86094">
   <stop offset="0" style="stop-color:white"/>
   <stop offset="0.811765" style="stop-color:#E3E3E3"/>
   <stop offset="1" style="stop-color:#C6C6C6"/>
  </linearGradient>
 </defs>
 <g id="Layer_x0020_1">
  <metadata id="CorelCorpID_0Corel-Layer"/>
  <g id="_125656368">
   <path id="_125657448" class="fil0" d="M1.37709 2.99708c0,1.65682 1.35994,2.99708 3.036,2.99708 1.6776,0 3.03754,-1.34026 3.03754,-2.99708 0,-1.65506 -1.35994,-2.99708 -3.03754,-2.99708 -1.67606,0 -3.036,1.34202 -3.036,2.99708z"/>
   <path id="_125657376" class="fil1" d="M8.36009 11.0399c0,0.271262 -0.233987,0.490955 -0.522622,0.490955l-6.97618 0c-0.288965,0 -0.521852,-0.219693 -0.521852,-0.490955l0.0878551 -2.32437c0,-1.71411 0.710647,-2.52471 1.63285,-2.52471l1.37346 0c0.310187,0.092913 0.638846,0.142723 0.97949,0.142723 0.340864,0 0.670293,-0.0498102 0.9807,-0.142723l1.29517 0c0.806969,0 1.55555,0.734398 1.55555,2.27016l0.115564 2.57891z"/>
   <path id="_125657304" class="fil2" d="M8.69952 11.0399c0,0.232667 -0.0996204,0.442794 -0.260486,0.593764 -0.155478,0.146132 -0.368354,0.236626 -0.601571,0.236626l0 -0.00131948 -6.97618 0 0 0.00131948c-0.233327,0 -0.445983,-0.090494 -0.601131,-0.236406 -0.160756,-0.15119 -0.260157,-0.361426 -0.260157,-0.593984l0.00131948 -0.0119852 0.0874152 -2.31238 -0.00087965 0c0,-0.886028 0.182857,-1.56083 0.486886,-2.031 0.362636,-0.560777 0.887457,-0.833139 1.4854,-0.833139l0.604869 0c0.510087,0.306118 1.10858,0.482158 1.74808,0.482158 0.639945,0 1.23921,-0.17615 1.74951,-0.482158l0.526361 0c0.539006,0 1.05437,0.257078 1.41514,0.783548 0.290395,0.423771 0.476221,1.02655 0.47853,1.81142l0.115564 2.57891 0.00131948 0.0146242zm-0.724502 0.1005c0.0280388,-0.0263895 0.0456319,-0.0621253 0.0456319,-0.1005l0.000659738 0 -0.114904 -2.56429 0 -0.0146242c0,-0.643574 -0.140854,-1.12188 -0.361756,-1.44428 -0.223981,-0.32679 -0.535157,-0.486447 -0.85568,-0.486447l-4.62883 0c-0.366154,0 -0.690305,0.170872 -0.917805,0.522842 -0.234537,0.362746 -0.375611,0.912637 -0.375611,1.66243l-0.00131948 0.0119852 -0.0874152 2.31238 0.00087965 0c0,0.0387046 0.0173731,0.0744404 0.045302,0.10072 0.0333167,0.0313375 0.0819174,0.0507998 0.137115,0.0507998l0 0.00131948 6.97618 0 0 -0.00131948c0.0555279,0 0.104129,-0.0195722 0.137555,-0.0510197z"/>
   <path id="_125657232" class="fil2" d="M2.35229 5.03853c-0.529549,-0.522732 -0.857219,-1.24438 -0.857219,-2.04145 0,-0.796523 0.32789,-1.51828 0.857549,-2.04123 0.52801,-0.521193 1.2568,-0.843804 2.06058,-0.843804 0.80422,0 1.53334,0.322392 2.06157,0.843694 0.529989,0.522732 0.857879,1.2447 0.857879,2.04134l-0.00131948 0c0,0.798063 -0.32723,1.51971 -0.85612,2.04156 -0.52746,0.520423 -1.25669,0.842155 -2.06201,0.842155l0 0.00131948c-0.80389,0 -1.53279,-0.322282 -2.06091,-0.843584z"/>
   <g>
    <path id="_125657160" class="fil3" d="M2.76221 2.2022l1.52135 0.617075c0,0 -0.85491,0.743304 -1.24438,0.619494 -0.389465,-0.123591 -0.27698,-1.23657 -0.27698,-1.23657z"/>
    <path id="_125657088" class="fil3" d="M6.06519 2.2022l-1.52135 0.617075c0,0 0.85491,0.743304 1.2447,0.619494 0.389465,-0.123591 0.27665,-1.23657 0.27665,-1.23657z"/>
   </g>
   <g>
    <path id="_125656992" class="fil3" d="M1.75226 10.9027l-0.567594 -0.479189 -0.110726 -0.0934628 0.0936827 -0.111166 8.13237 -9.63503 0.0935728 -0.110726 0.111056 0.0936827 0.568034 0.479079 0.110946 0.0935728 -0.0939027 0.111056 -8.13281 9.63514 -0.0934628 0.110836 -0.111166 -0.0937927zm-0.269173 -0.607288l0.345703 0.291824 7.94544 -9.41314 -0.346032 -0.291934 -7.94511 9.41325z"/>
    <path id="_125656920" class="fil4" d="M4.35856 7.3829c-0.0440925,0.0523392 -0.0374951,0.130078 0.0146242,0.174281l0.315135 0.265764c0.0521193,0.0438726 0.130078,0.0374951 0.173731,-0.015064 0.0442024,-0.0520093 0.037825,-0.129858 -0.0145142,-0.173951l-0.315025 -0.265764c-0.0520093,-0.0438726 -0.129968,-0.037605 -0.173951,0.0147341z"/>
    <path id="_125656848" class="fil0" d="M4.66962 8.45212c-0.195502,0.231568 -0.709658,0.119413 -0.941446,-0.0763097"/>
    <path id="_125656776" class="fil0" d="M3.72818 8.37581c-0.231898,-0.195392 -0.194403,-0.417834 0.00109956,-0.649512"/>
    <line id="_125656704" class="fil0" x1="3.72928" y1="7.7263" x2="4.38912" y2= "7.00674" />
    <path id="_125656632" class="fil0" d="M4.38912 7.00674c0.195502,-0.231678 0.442904,-0.408927 0.674692,-0.213095"/>
    <path id="_125656560" class="fil0" d="M5.06382 6.79365c0.231678,0.195612 0.428829,0.683598 0.233107,0.915056"/>
    <line id="_125656488" class="fil0" x1="5.29692" y1="7.7087" x2="4.66962" y2= "8.45212" />
    <path id="_125656416" class="fil4" d="M5.21391 6.61618c0.147341,0.12447 0.282588,0.337566 0.348671,0.55319 0.0748802,0.244433 0.0675131,0.505139 -0.0881849,0.689536l-0.62741 0.743304 -0.000329869 0.000439825c-0.0777391,0.0919234 -0.180548,0.15064 -0.295452,0.182198l-1.87113 2.71075 -1.9371 -1.12265 2.60486 -2.40892c0.0266094,-0.132607 0.0978611,-0.262246 0.203969,-0.387926l0.00637746 -0.00725711 0.659958 -0.719004 0.000329869 0.000329869c0.116664,-0.137115 0.252789,-0.259607 0.40332,-0.323601l-0.000219913 -0.000439825c0.0204519,-0.00868655 0.0414535,-0.0160536 0.0620153,-0.022651l4.30303 -5.09812c-0.052779,-0.00197921 -0.105558,-0.0193523 -0.15108,-0.0536587l-0.0120952 -0.00923633 -0.314915 -0.266094c-0.0567374,-0.0480509 -0.0887347,-0.114574 -0.0944524,-0.182857 -0.00571773,-0.0681729 0.015064,-0.138985 0.062895,-0.195722 0.0479409,-0.0565175 0.114464,-0.0888447 0.182857,-0.0945624 0.0680629,-0.00571773 0.138765,0.0147341 0.195722,0.062785l0.314915 0.265764c0.0475011,0.040354 0.0775192,0.0934628 0.0895044,0.14976l0.168233 -0.199351 0.346032 0.291934 -4.58001 5.42601 0.0196822 0.0160536zm-0.320523 0.340425l-0.259607 0.307548 0.307108 0.258837 0.000549781 0.000549781c0.045302,0.0385947 0.0752101,0.0884048 0.088075,0.141734l0.0899442 -0.106548c0.0396942,-0.0470613 0.0315574,-0.146792 -0.00087965,-0.252789 -0.0413436,-0.134806 -0.120842,-0.263895 -0.204849,-0.334817 -0.00681729,-0.00571773 -0.0135246,-0.0107757 -0.0203419,-0.0145142zm-0.606079 0.718014l-0.248501 0.294353 0.430699 0.35241c0.00857659,-0.00538786 0.0161636,-0.0118753 0.0222112,-0.0189125l0.258287 -0.306118c-0.0537686,-0.00373851 -0.107757,-0.0236406 -0.152729,-0.0606959l-0.00241904 -0.00208917 -0.000219913 0.000219913 -0.307328 -0.259167zm0.480619 0.052889l0.000219913 0m-0.0211116 0.00230908l-0.000219913 0"/>
   </g>
  </g>
 </g>
</svg>
