<?xml version="1.0" encoding="UTF-8"?>
<!DOCTYPE svg PUBLIC "-//W3C//DTD SVG 1.1//EN" "http://www.w3.org/Graphics/SVG/1.1/DTD/svg11.dtd">
<!-- Creator: CorelDRAW X5 -->
<svg xmlns="http://www.w3.org/2000/svg" xml:space="preserve" width="194px" height="233px" style="shape-rendering:geometricPrecision; text-rendering:geometricPrecision; image-rendering:optimizeQuality; fill-rule:evenodd; clip-rule:evenodd"
viewBox="0 0 192664 232151"
 xmlns:xlink="http://www.w3.org/1999/xlink">
 <defs>
  <style type="text/css">
   <![CDATA[
    .fil0 {fill:whitesmoke}
    .fil2 {fill:#4D4D4D;fill-rule:nonzero}
    .fil3 {fill:gray;fill-rule:nonzero}
    .fil1 {fill:#999999;fill-rule:nonzero}
    .fil4 {fill:#CCCCCC;fill-rule:nonzero}
   ]]>
  </style>
 </defs>
 <g id="Layer_x0020_1">
  <metadata id="CorelCorpID_0Corel-Layer"/>
  <g>
   <path class="fil0" d="M15770 4969l161125 0c5840,0 10619,4780 10619,10619l0 200976c0,5840 -4778,10619 -10619,10619l-161125 0c-5840,0 -10619,-4778 -10619,-10619l0 -200976c0,-5839 4778,-10619 10619,-10619z"/>
   <path id="1" class="fil1" d="M176894 9938l-161125 0 0 -9938 161125 0 0 0 0 9938zm15770 5650l-10302 0 0 0 -7 -300 -22 -293 -38 -292 -51 -282 -63 -273 -80 -276 -88 -263 -105 -260 -115 -256 -125 -243 -138 -238 -151 -234 -159 -223 -170 -216 -176 -203 -185 -194 -199 -189 -203 -176 -207 -162 -222 -159 -222 -143 -222 -128 -233 -119 -241 -109 -240 -96 -241 -81 -256 -73 -250 -59 -254 -46 -266 -34 -267 -20 -272 -7 0 -9938 817 21 808 62 795 102 788 140 775 181 750 214 744 253 724 287 697 316 684 352 667 384 638 412 613 436 595 468 568 494 540 514 521 544 491 568 462 588 434 609 404 629 375 651 346 671 310 684 279 704 246 722 207 728 176 753 135 762 99 767 60 782 21 789 0 0zm-10302 200976l0 -200976 10302 0 0 200976 0 0 -10302 0zm-5467 15588l0 -9938 0 0 272 -7 267 -20 266 -34 254 -46 250 -59 256 -73 241 -81 240 -96 241 -109 233 -119 222 -128 226 -146 219 -155 207 -163 203 -175 195 -188 188 -196 179 -207 168 -212 159 -225 152 -235 135 -233 126 -247 116 -258 103 -258 88 -262 79 -277 65 -275 51 -280 38 -292 22 -294 7 -300 10302 0 -21 789 -60 781 -99 769 -135 762 -175 750 -208 729 -246 723 -280 707 -309 681 -345 670 -377 656 -403 626 -434 610 -464 590 -489 564 -517 542 -543 517 -568 493 -595 469 -616 437 -635 409 -667 384 -684 352 -697 316 -724 287 -744 253 -750 214 -775 181 -788 140 -795 102 -808 62 -817 21 0 0zm-161125 -9938l161125 0 0 9938 -161125 0 0 0 0 -9938zm-15770 -5650l10302 0 0 0 7 300 22 294 38 292 51 280 65 275 79 277 88 262 103 258 116 258 126 247 135 233 152 235 159 225 168 212 179 207 188 196 195 188 203 175 207 163 219 155 226 146 222 128 233 119 241 109 240 96 241 81 256 73 250 59 254 46 266 34 267 20 272 7 0 9938 -817 -21 -808 -62 -795 -102 -788 -140 -775 -181 -750 -214 -744 -253 -724 -287 -697 -316 -684 -352 -667 -384 -635 -409 -616 -437 -595 -469 -568 -493 -543 -517 -517 -542 -489 -564 -464 -590 -434 -610 -403 -626 -377 -656 -345 -670 -309 -681 -280 -707 -246 -723 -208 -729 -175 -750 -135 -762 -99 -769 -60 -781 -21 -789 0 0zm10302 -200976l0 200976 -10302 0 0 -200976 0 0 10302 0zm5467 -15588l0 9938 0 0 -272 7 -267 20 -266 34 -254 46 -250 59 -256 73 -241 81 -240 96 -241 109 -233 119 -222 128 -222 143 -222 159 -207 162 -203 176 -199 189 -185 194 -176 203 -170 216 -159 223 -151 234 -138 238 -125 243 -115 256 -105 260 -88 263 -80 276 -63 273 -51 282 -38 292 -22 293 -7 300 -10302 0 21 -789 60 -782 99 -767 135 -762 176 -753 207 -728 246 -722 279 -704 310 -684 346 -671 375 -651 404 -629 434 -609 462 -588 491 -568 521 -544 540 -514 568 -494 595 -468 613 -436 638 -412 667 -384 684 -352 697 -316 724 -287 744 -253 750 -214 775 -181 788 -140 795 -102 808 -62 817 -21 0 0z"/>
  </g>
  <path class="fil2" d="M55504 68261l0 -7920 -16934 0 0 -40004 -9563 0 0 47924 26497 0zm3257 -23960c-8,2918 88,5649 297,8175 223,2540 631,4833 1252,6880 618,2047 1518,3805 2710,5270 1198,1465 2757,2595 4694,3377 1938,794 4328,1189 7185,1197 2854,-8 5244,-403 7182,-1197 1937,-782 3509,-1912 4694,-3377 1197,-1465 2092,-3223 2714,-5270 617,-2047 1030,-4340 1248,-6880 210,-2527 312,-5257 299,-8175 13,-2922 -88,-5652 -299,-8192 -218,-2527 -630,-4820 -1248,-6867 -622,-2047 -1517,-3805 -2714,-5278 -1185,-1466 -2757,-2587 -4694,-3380 -1938,-782 -4328,-1172 -7182,-1185 -2857,13 -5248,403 -7185,1185 -1937,794 -3496,1914 -4694,3380 -1192,1473 -2092,3231 -2710,5278 -621,2047 -1029,4340 -1252,6867 -209,2540 -306,5270 -297,8192zm9563 0c-12,-3202 68,-5928 232,-8192 168,-2259 479,-4094 942,-5512 453,-1410 1117,-2450 1991,-3112 878,-658 2005,-982 3412,-972 1404,-9 2534,314 3409,972 874,662 1538,1703 1991,3112 467,1418 778,3253 942,5512 168,2263 243,4990 232,8192 12,3211 -63,5950 -232,8209 -163,2272 -475,4106 -942,5516 -453,1411 -1117,2439 -1991,3096 -875,650 -2005,977 -3409,964 -1407,13 -2534,-314 -3412,-964 -874,-657 -1538,-1685 -1991,-3096 -463,-1410 -774,-3244 -942,-5516 -163,-2260 -243,-4998 -232,-8209zm41843 -15640l135 0 4580 21544 -9299 0 4584 -21544zm-18395 39601l9963 0 2189 -10137 12618 0 2194 10137 9963 0 -12555 -47924 -11820 0 -12550 47924zm40245 -47924l0 47924 8770 0 0 -33562 129 0 11690 33562 10891 0 0 -47924 -8764 0 0 32822 -135 0 -11555 -32822 -11027 0z"/>
  <g>
   <path class="fil3" d="M39435 184217l0 9910 -10432 0 0 -9910 10432 0zm20863 0l0 9910 -10432 0 0 -9910 10432 0zm20863 0l0 9910 -10432 0 0 -9910 10432 0zm20863 0l0 9910 -10432 0 0 -9910 10432 0zm20863 0l0 9910 -10432 0 0 -9910 10432 0z"/>
  </g>
  <g>
   <polygon class="fil4" points="163501,145169 29339,145169 29339,134777 163501,134777 "/>
  </g>
  <g>
   <polygon class="fil4" points="163501,126046 29339,126046 29339,115654 163501,115654 "/>
  </g>
  <g>
   <polygon class="fil4" points="163501,107050 29339,107050 29339,96658 163501,96658 "/>
  </g>
 </g>
</svg>
