<?xml version="1.0" encoding="UTF-8"?>
<!DOCTYPE svg PUBLIC "-//W3C//DTD SVG 1.1//EN" "http://www.w3.org/Graphics/SVG/1.1/DTD/svg11.dtd">
<!-- Creator: CorelDRAW -->
<svg xmlns="http://www.w3.org/2000/svg" xml:space="preserve" width="0.290949in" height="0.332295in" style="shape-rendering:geometricPrecision; text-rendering:geometricPrecision; image-rendering:optimizeQuality; fill-rule:evenodd; clip-rule:evenodd"
viewBox="0 0 3.82185 4.36497"
 xmlns:xlink="http://www.w3.org/1999/xlink">
 <defs>
  <style type="text/css">
   <![CDATA[
    .str1 {stroke:#7F7F7F;stroke-width:0.0394074}
    .str2 {stroke:#7F7F7F;stroke-width:0.163112}
    .str0 {stroke:#4B4B4B;stroke-width:0.182402}
    .fil2 {fill:none}
    .fil3 {fill:none;fill-rule:nonzero}
    .fil1 {fill:#7F7F7F;fill-rule:nonzero}
    .fil0 {fill:url(#id0)}
   ]]>
  </style>
  <linearGradient id="id0" gradientUnits="userSpaceOnUse" x1="0.0912266" y1="2.18246" x2="3.73062" y2="2.18246">
   <stop offset="0" style="stop-color:white"/>
   <stop offset="0.709804" style="stop-color:#E9E9E9"/>
   <stop offset="1" style="stop-color:lightgrey"/>
  </linearGradient>
 </defs>
 <g id="Layer_x0020_1">
  <metadata id="CorelCorpID_0Corel-Layer"/>
  <rect class="fil0 str0" x="0.0912266" y="0.0912266" width="3.63939" height="4.18251" rx="0.273059" ry="0.273059"/>
  <polygon class="fil1" points="2.72428,1.14794 0.188245,1.14892 0.187883,0.369975 2.72408,0.369354 "/>
  <g id="_250450768">
   <path id="_250449736" class="fil2 str1" d="M1.1168 3.34839c-0.25801,0.192641 -0.435447,0.465959 -0.365269,0.508625l-0.0612832 -0.0308226c-0.0352702,-0.0430792 0.0448893,-0.27518 0.426552,-0.477802z"/>
   <path id="_250450168" class="fil3 str2" d="M1.1168 3.34839c-0.25801,0.192641 -0.435447,0.465959 -0.365269,0.508625"/>
   <line id="_250450600" class="fil3 str2" x1="0.751534" y1="3.85701" x2="0.69025" y2= "3.82619" />
   <path id="_250451032" class="fil3 str2" d="M0.69025 3.82619c-0.0352702,-0.0430792 0.0448893,-0.27518 0.426552,-0.477802"/>
   <path id="_250451464" class="fil2 str1" d="M3.05273 3.13206c0.132186,-0.280403 -0.953897,-0.238099 -1.74711,0.129703 0.617538,-0.237841 1.7603,-0.340031 1.74711,-0.129703z"/>
   <path id="_250451896" class="fil3 str2" d="M3.05273 3.13206c0.132186,-0.280403 -0.953897,-0.238099 -1.74711,0.129703 0.617538,-0.237841 1.7603,-0.340031 1.74711,-0.129703"/>
   <path id="_250452328" class="fil2 str1" d="M1.82448 1.63655c0.0295297,-0.156337 -0.0466993,-0.150907 -0.0681097,-0.150907l-0.0480957 0c-0.0266853,0 -0.050578,0.0212035 -0.0620072,0.064231 -0.0753499,0.280972 0.0612832,0.994339 0.444704,1.32341 0.338169,0.291212 0.927212,0.42438 0.951053,0.284282 -0.122566,0.0579734 -0.582423,-0.08952 -0.891528,-0.335687 -0.365217,-0.299745 -0.521657,-1.03923 -0.442946,-1.27045 0.0078608,-0.023479 0.0270991,-0.0501126 0.0353219,-0.0560599 0.0329429,0.0160319 0.0726607,0.0567322 0.0816075,0.141184z"/>
   <path id="_250452760" class="fil3 str2" d="M1.82448 1.63655c0.0295297,-0.156337 -0.0466993,-0.150907 -0.0681097,-0.150907"/>
   <line id="_250453072" class="fil3 str2" x1="1.75637" y1="1.48564" x2="1.70828" y2= "1.48564" />
   <path id="_250452640" class="fil3 str2" d="M1.70828 1.48564c-0.0266853,0 -0.050578,0.0212035 -0.0620072,0.064231 -0.0753499,0.280972 0.0612832,0.994339 0.444704,1.32341 0.338169,0.291212 0.927212,0.42438 0.951053,0.284282 -0.122566,0.0579734 -0.582423,-0.08952 -0.891528,-0.335687 -0.365217,-0.299745 -0.521657,-1.03923 -0.442946,-1.27045 0.0078608,-0.023479 0.0270991,-0.0501126 0.0353219,-0.0560599 0.0329429,0.0160319 0.0726607,0.0567322 0.0816075,0.141184"/>
   <path id="_250452208" class="fil2 str1" d="M1.81802 1.68144c-0.033667,0.165697 -0.0482508,0.556772 -0.367544,1.19981 -0.343134,0.690664 -0.593439,1.01265 -0.760222,0.944951l0.0595249 0.0303054c0.130582,0.0666616 0.371112,-0.152148 0.769996,-0.920748 0.307192,-0.591887 0.290436,-0.896545 0.298245,-1.25431z"/>
   <path id="_250451776" class="fil3 str2" d="M1.81802 1.68144c-0.033667,0.165697 -0.0482508,0.556772 -0.367544,1.19981 -0.343134,0.690664 -0.593439,1.01265 -0.760222,0.944951"/>
   <line id="_250451344" class="fil3 str2" x1="0.69025" y1="3.82619" x2="0.749775" y2= "3.8565" />
   <path id="_250450912" class="fil3 str2" d="M0.749775 3.8565c0.130582,0.0666616 0.371112,-0.152148 0.769996,-0.920748 0.307192,-0.591887 0.290436,-0.896545 0.298245,-1.25431"/>
  </g>
 </g>
</svg>
