<?xml version="1.0" encoding="UTF-8"?>
<!DOCTYPE svg PUBLIC "-//W3C//DTD SVG 1.1//EN" "http://www.w3.org/Graphics/SVG/1.1/DTD/svg11.dtd">
<!-- Creator: CorelDRAW -->
<svg xmlns="http://www.w3.org/2000/svg" xml:space="preserve" width="0.290949in" height="0.332295in" style="shape-rendering:geometricPrecision; text-rendering:geometricPrecision; image-rendering:optimizeQuality; fill-rule:evenodd; clip-rule:evenodd"
viewBox="0 0 2.87598 3.28468"
 xmlns:xlink="http://www.w3.org/1999/xlink">
 <defs>
  <style type="text/css">
   <![CDATA[
    .str0 {stroke:#4B4B4B;stroke-width:0.137259}
    .fil1 {fill:#7F7F7F;fill-rule:nonzero}
    .fil2 {fill:#989898;fill-rule:nonzero}
    .fil0 {fill:url(#id0)}
   ]]>
  </style>
  <linearGradient id="id0" gradientUnits="userSpaceOnUse" x1="0.068649" y1="1.64232" x2="2.80733" y2="1.64232">
   <stop offset="0" style="stop-color:white"/>
   <stop offset="0.709804" style="stop-color:#E9E9E9"/>
   <stop offset="1" style="stop-color:lightgrey"/>
  </linearGradient>
 </defs>
 <g id="Layer_x0020_1">
  <metadata id="CorelCorpID_0Corel-Layer"/>
  <rect class="fil0 str0" x="0.068649" y="0.068649" width="2.73868" height="3.14739" rx="0.20548" ry="0.20548"/>
  <polygon class="fil1" points="2.05309,0.84348 0.144731,0.844375 0.144459,0.258173 2.05309,0.257667 "/>
  <path class="fil2" d="M1.82126 2.02238c0.0575188,-0.0553784 0.0865118,-0.116789 0.0865118,-0.184232 0,-0.0505138 -0.0146327,-0.0914153 -0.0438591,-0.122121 -0.0294988,-0.0313668 -0.0670145,-0.0467778 -0.112352,-0.0467778 -0.0493463,0 -0.0871344,0.0156445 -0.113948,0.0473227 -0.027086,0.0320284 -0.0405123,0.0739806 -0.0405123,0.126012 0,0.041563 0.00739417,0.0855388 0.0222603,0.132862 0.0150218,0.0474394 0.0345969,0.096669 0.0586085,0.147066 0.0633953,-0.0353753 0.111418,-0.0688825 0.143291,-0.100133zm-0.12574 0.817017l0 0c0.0520316,-0.0208983 0.102156,-0.053238 0.149907,-0.0982646 -0.0614105,-0.0776388 -0.109278,-0.142902 -0.143603,-0.195751 -0.0341688,-0.053238 -0.0878349,-0.146015 -0.161037,-0.277943 -0.0674426,0.0393058 -0.118929,0.0787284 -0.154577,0.118385 -0.055106,0.0610213 -0.0824255,0.131422 -0.0824255,0.21159 0,0.0740195 0.0241283,0.137804 0.072385,0.192132 0.0482567,0.0537439 0.110484,0.0811023 0.1861,0.0811023 0.0365817,0 0.0811023,-0.0104686 0.133251,-0.0312501zm-0.185282 -0.641113l0 0c-0.00844492,-0.0173179 -0.0182519,-0.0414463 -0.0292264,-0.0717234 -0.0112469,-0.0304718 -0.0190303,-0.0552617 -0.0236224,-0.0737471 -0.00505917,-0.0208983 -0.00934,-0.0414463 -0.0127258,-0.0625002 -0.00334683,-0.0214431 -0.00494242,-0.0416798 -0.00494242,-0.0619164 0,-0.0933222 0.0286816,-0.170533 0.0852664,-0.232099 0.056974,-0.0615273 0.12897,-0.0922325 0.216377,-0.0922325 0.0795068,0 0.144809,0.0215988 0.195751,0.0651854 0.0510976,0.0435478 0.0767048,0.101611 0.0767048,0.174541 0,0.0856556 -0.0324565,0.155511 -0.0970971,0.209839 -0.0648741,0.0545612 -0.13434,0.0981089 -0.208593,0.13111 0.0576356,0.103752 0.100016,0.177227 0.127102,0.21949 0.0268136,0.0428862 0.0726574,0.105892 0.137298,0.189563 0.0691549,-0.0844881 0.117178,-0.156212 0.143719,-0.215754 0.0263855,-0.0596203 0.0399674,-0.106982 0.0399674,-0.142902 0,-0.0363093 -0.0135819,-0.0611381 -0.0399674,-0.0746811 -0.0168898,-0.00844492 -0.0461163,-0.0143213 -0.0874458,-0.0174347l0 -0.0416798 0.431469 0 0 0.0416798c-0.0437034,0.00509808 -0.0761599,0.0132706 -0.0978754,0.0236224 -0.0351418,0.017279 -0.0653022,0.0483734 -0.0899753,0.0939838l-0.0509419 0.0921158c-0.0366206,0.0663529 -0.0671702,0.116361 -0.0915709,0.151464 -0.0246732,0.0352585 -0.0614105,0.0833984 -0.110212,0.144926 0.0260353,0.0301993 0.05604,0.0610213 0.0890413,0.091999 0.0727742,0.0619164 0.145042,0.0926606 0.217739,0.0926606 0.0432753,0 0.0798959,-0.0106243 0.10994,-0.0312501 0.018213,-0.0129982 0.0428862,-0.0379438 0.0737082,-0.0749535l0.028954 0.0234668c-0.00385275,0.015411 -0.0176682,0.0399285 -0.0410182,0.0732023 -0.0237392,0.0333905 -0.0461163,0.0595036 -0.0675593,0.0783003 -0.0340521,0.0297323 -0.0737471,0.0506695 -0.118774,0.0628893 -0.0268136,0.00801683 -0.0528488,0.0119085 -0.0785728,0.0119085 -0.0632785,0 -0.125895,-0.0198475 -0.188123,-0.059776 -0.0371265,-0.0228052 -0.0867063,-0.0638233 -0.148817,-0.122977 -0.0584528,0.0540553 -0.11784,0.094801 -0.177771,0.122977 -0.0781836,0.0393837 -0.164228,0.0587253 -0.258095,0.0587253 -0.104297,0 -0.187423,-0.0277865 -0.24965,-0.0830093 -0.0621888,-0.0556508 -0.0932833,-0.130994 -0.0932833,-0.227001 0,-0.0898197 0.0278643,-0.168782 0.083126,-0.237275 0.0557676,-0.0681431 0.133679,-0.130332 0.233811,-0.186917l0.0758875 -0.0438202z"/>
  <path class="fil1" d="M1.14703 1.45393c0.0709451,-0.0678318 0.10632,-0.143486 0.10632,-0.225911 0,-0.0622278 -0.018213,-0.112236 -0.0542888,-0.150296 -0.0360758,-0.0379438 -0.0819196,-0.0567405 -0.13757,-0.0567405 -0.0604765,0 -0.106865,0.0193027 -0.139828,0.0582193 -0.0331181,0.0387221 -0.0496188,0.0906369 -0.0496188,0.154694 0,0.0501636 0.0091065,0.104297 0.0273584,0.162633 0.0186411,0.0583361 0.0422246,0.118385 0.0718791,0.18034 0.0775998,-0.0435867 0.136325,-0.0844881 0.175748,-0.122938zm-0.154305 1.00218l0 0c0.0640568,-0.0254904 0.125351,-0.0654578 0.183803,-0.120408 -0.0752259,-0.0951902 -0.133796,-0.175359 -0.175787,-0.240661 -0.0423413,-0.0653022 -0.108305,-0.178589 -0.197891,-0.340677 -0.0825812,0.0486848 -0.145587,0.0970582 -0.189836,0.145198 -0.0670145,0.0747978 -0.100677,0.161426 -0.100677,0.259963 0,0.0904813 0.0296156,0.168937 0.0888857,0.235446 0.0592701,0.0660805 0.13543,0.0995878 0.228207,0.0995878 0.0447542,0 0.0993153,-0.0132706 0.163294,-0.0384497zm-0.227118 -0.786078l0 0c-0.0101962,-0.0217155 -0.0222603,-0.0509419 -0.0361925,-0.0883408 -0.0134263,-0.0373989 -0.0230776,-0.0675593 -0.0287205,-0.0906369 -0.0063045,-0.0253348 -0.0115193,-0.0509419 -0.0155278,-0.0768215 -0.00404733,-0.0258796 -0.00618775,-0.0509419 -0.00618775,-0.0754983 0,-0.114376 0.0351418,-0.209138 0.104842,-0.284909 0.0694663,-0.0753427 0.157963,-0.113014 0.265061,-0.113014 0.097603,0 0.177655,0.0266968 0.240388,0.0801683 0.0626169,0.0528488 0.093867,0.124572 0.093867,0.214003 0,0.104842 -0.039695,0.190497 -0.119046,0.257395 -0.07939,0.066781 -0.164656,0.120136 -0.255683,0.161037 0.0702446,0.126946 0.122276,0.216532 0.155511,0.268953 0.0332738,0.0525375 0.0894305,0.129904 0.168821,0.232333 0.084994,-0.103246 0.143719,-0.191587 0.176137,-0.264127 0.0326122,-0.0734747 0.0489572,-0.131655 0.0489572,-0.175631 0,-0.044365 -0.016345,-0.0750703 -0.0489572,-0.0916877 -0.0206258,-0.0101962 -0.0562735,-0.0174347 -0.107254,-0.0210539l0 -0.0514868 0.529461 0 0 0.0514868c-0.0537439,0.00587642 -0.0937113,0.0159558 -0.120253,0.0284092 -0.0431586,0.0213263 -0.0800516,0.0602041 -0.110212,0.115583l-0.0626169 0.113014c-0.0447542,0.0808299 -0.0824644,0.142941 -0.112469,0.1861 -0.0299269,0.0427694 -0.0751092,0.101767 -0.135158,0.177227 0.0320284,0.0375546 0.068649,0.0751092 0.109395,0.11317 0.0893138,0.0756151 0.178199,0.113014 0.267085,0.113014 0.0528099,0 0.0978754,-0.0124533 0.134846,-0.0380605 0.022416,-0.0156834 0.0524597,-0.0461163 0.090131,-0.0917266l0.0359201 0.0287205c-0.00494242,0.0188746 -0.0218712,0.0490739 -0.0506695,0.0898197 -0.0288373,0.0409014 -0.0565848,0.0730466 -0.0828536,0.0961242 -0.0418354,0.0363482 -0.0902478,0.0622278 -0.145471,0.0770939 -0.0328457,0.00992375 -0.064913,0.0143603 -0.0961242,0.0143603 -0.0776388,0 -0.154733,-0.0238948 -0.230893,-0.0724239 -0.0457271,-0.0284092 -0.106437,-0.0789619 -0.182753,-0.150958 -0.0719569,0.0655746 -0.144498,0.116244 -0.218245,0.150958 -0.0958518,0.0477508 -0.201238,0.0713343 -0.316548,0.0713343 -0.127647,0 -0.229803,-0.0337797 -0.306235,-0.101767 -0.0761599,-0.067715 -0.114337,-0.160492 -0.114337,-0.278332 0,-0.110212 0.0340521,-0.20727 0.102273,-0.291213 0.0681042,-0.0837876 0.163567,-0.160064 0.286388,-0.229258l0.0933222 -0.0533548z"/>
 </g>
</svg>
