<?xml version="1.0" encoding="UTF-8"?>
<!DOCTYPE svg PUBLIC "-//W3C//DTD SVG 1.1//EN" "http://www.w3.org/Graphics/SVG/1.1/DTD/svg11.dtd">
<!-- Creator: CorelDRAW X5 -->
<svg xmlns="http://www.w3.org/2000/svg" xml:space="preserve" width="84px" height="131px" style="shape-rendering:geometricPrecision; text-rendering:geometricPrecision; image-rendering:optimizeQuality; fill-rule:evenodd; clip-rule:evenodd"
viewBox="0 0 840000 1310739"
 xmlns:xlink="http://www.w3.org/1999/xlink">
 <defs>
  <style type="text/css">
   <![CDATA[
    .str1 {stroke:#4C4C4C;stroke-width:72733.1}
    .str0 {stroke:#4C4C4C;stroke-width:72733.1;stroke-linejoin:round}
    .fil1 {fill:#656565;fill-rule:nonzero}
    .fil2 {fill:#CF0000;fill-rule:nonzero}
    .fil3 {fill:red;fill-rule:nonzero}
    .fil0 {fill:black;fill-rule:nonzero;fill-opacity:0.200000}
   ]]>
  </style>
 </defs>
 <g id="Layer_x0020_1">
  <metadata id="CorelCorpID_0Corel-Layer"/>
  <path class="fil0" d="M223877 935364c64805,-28026 153795,-45367 251538,-45367 97755,0 186757,17341 251574,45367 69812,30182 113011,73829 113011,123755 0,49926 -43199,93561 -113011,123743 -64817,28026 -153819,45367 -251574,45367 -32408,0 -63909,-1920 -93867,-5490 -28379,-3369 -55616,-8329 -81168,-14631l-188795 75384c-8411,3923 -18755,1555 -24539,-6173 -6632,-8859 -4842,-21441 4017,-28073l105671 -79542c-21417,-11592 -39429,-24621 -53201,-38734 -21075,-21558 -32738,-45838 -32738,-71850l82 0c0,-49914 43199,-93561 112999,-123755z"/>
  <polygon class="fil1 str0" points="291286,318310 70660,1274372 428953,355042 "/>
  <path class="fil2 str1" d="M662184 349317c0,172726 -140141,312832 -312950,312832 -172809,0 -312868,-140106 -312868,-312832 0,-172844 140059,-312950 312868,-312950 172809,0 312950,140106 312950,312950z"/>
  <path class="fil3" d="M547112 349293c0,109206 -88601,197784 -197866,197784 -109253,0 -197807,-88578 -197807,-197784 0,-109276 88554,-197854 197807,-197854 109265,0 197866,88578 197866,197854z"/>
 </g>
</svg>
