<?xml version="1.0" encoding="UTF-8"?>
<!DOCTYPE svg PUBLIC "-//W3C//DTD SVG 1.1//EN" "http://www.w3.org/Graphics/SVG/1.1/DTD/svg11.dtd">
<!-- Creator: CorelDRAW X5 -->
<svg xmlns="http://www.w3.org/2000/svg" xml:space="preserve" width="951px" height="951px" style="shape-rendering:geometricPrecision; text-rendering:geometricPrecision; image-rendering:optimizeQuality; fill-rule:evenodd; clip-rule:evenodd"
viewBox="0 0 14680335 14679169"
 xmlns:xlink="http://www.w3.org/1999/xlink">
 <defs>
  <style type="text/css">
   <![CDATA[
    .str0 {stroke:black;stroke-width:514489;stroke-linecap:round;stroke-linejoin:round}
    .fil0 {fill:none}
    .fil4 {fill:#939393}
    .fil2 {fill:#999999}
    .fil3 {fill:#C9C9C9}
    .fil5 {fill:#F8F8F3}
    .fil6 {fill:white}
    .fil1 {fill:black;fill-opacity:0.101961}
   ]]>
  </style>
 </defs>
 <g id="Layer_x0020_3">
  <metadata id="CorelCorpID_0Corel-Layer"/>
  <rect class="fil0" x="29347" y="3" width="14650984" height="14650708"/>
 </g>
 <g id="Layer_x0020_1">
  <metadata id="CorelCorpID_1Corel-Layer"/>
  <polygon class="fil1" points="12339578,11764967 12397550,9747720 9971731,11137525 9971731,12472019 11005120,11868185 "/>
  <polygon class="fil2" points="7596829,14460062 7596829,10456650 257226,6219129 257226,10222540 "/>
  <polygon class="fil3" points="7662767,10418568 13331603,7145689 6890742,3421016 1207048,6702517 "/>
  <polygon class="fil4" points="14285254,6595069 6937648,2346080 6890742,2373170 6890742,3421016 6175923,3833726 12575730,7534682 "/>
  <polygon class="fil5" points="6890742,2373170 295327,6181028 1207048,6702517 6890742,3421016 "/>
  <polygon class="fil3" points="6890742,2373170 6175923,3833726 6890742,3421016 "/>
  <polygon class="fil0 str0" points="7596829,10380595 14247135,6596527 6899529,2347539 257208,6182486 "/>
  <polygon class="fil6" points="7634929,10380595 7634929,14382547 9563669,13314284 9563669,11283000 12566251,9579037 12566251,11580752 14335149,10569695 14335149,6545191 "/>
  <polygon class="fil0 str0" points="7634929,14421961 9971731,13122759 9971731,11091476 12268991,9747720 12268991,11749435 14335149,10569695 14335149,6545191 7596829,10456650 295327,6181028 295327,10184439 "/>
 </g>
</svg>
