<?xml version="1.0" encoding="UTF-8"?>
<!DOCTYPE svg PUBLIC "-//W3C//DTD SVG 1.1//EN" "http://www.w3.org/Graphics/SVG/1.1/DTD/svg11.dtd">
<!-- Creator: CorelDRAW X5 -->
<svg xmlns="http://www.w3.org/2000/svg" xml:space="preserve" width="953px" height="965px" style="shape-rendering:geometricPrecision; text-rendering:geometricPrecision; image-rendering:optimizeQuality; fill-rule:evenodd; clip-rule:evenodd"
viewBox="0 0 14655167 14837402"
 xmlns:xlink="http://www.w3.org/1999/xlink">
 <defs>
  <style type="text/css">
   <![CDATA[
    .str1 {stroke:black;stroke-width:512666;stroke-linecap:round;stroke-linejoin:round}
    .str0 {stroke:#0F0000;stroke-width:512666;stroke-linecap:round;stroke-linejoin:round}
    .fil0 {fill:none}
    .fil2 {fill:gray}
    .fil11 {fill:#999999}
    .fil3 {fill:#CCCCCC}
    .fil10 {fill:white}
    .fil1 {fill:black;fill-opacity:0.101961}
    .fil7 {fill:url(#id0)}
    .fil15 {fill:url(#id1)}
    .fil5 {fill:url(#id2)}
    .fil9 {fill:url(#id3)}
    .fil13 {fill:url(#id4)}
    .fil4 {fill:url(#id5)}
    .fil12 {fill:url(#id6)}
    .fil8 {fill:url(#id7)}
    .fil6 {fill:url(#id8)}
    .fil16 {fill:url(#id9)}
    .fil14 {fill:url(#id10)}
   ]]>
  </style>
  <linearGradient id="id0" gradientUnits="userSpaceOnUse" x1="1.01367e+007" y1="5.57711e+006" x2="1.01367e+007" y2="6.92237e+006">
   <stop offset="0" style="stop-color:#77634F"/>
   <stop offset="1" style="stop-color:#44301C"/>
  </linearGradient>
  <linearGradient id="id1" gradientUnits="userSpaceOnUse" x1="5.13603e+006" y1="8.38113e+006" x2="5.13603e+006" y2="9.72639e+006">
   <stop offset="0" style="stop-color:white"/>
   <stop offset="1" style="stop-color:#D5D5D5"/>
  </linearGradient>
  <linearGradient id="id2" gradientUnits="userSpaceOnUse" x1="7.98043e+006" y1="4.95118e+006" x2="7.98043e+006" y2="6.29644e+006">
   <stop offset="0" style="stop-color:#77634F"/>
   <stop offset="1" style="stop-color:#44301C"/>
  </linearGradient>
  <linearGradient id="id3" gradientUnits="userSpaceOnUse" x1="6.90876e+006" y1="5.25757e+006" x2="6.90876e+006" y2="6.60284e+006">
   <stop offset="0" style="stop-color:#917D69"/>
   <stop offset="1" style="stop-color:#44301C"/>
  </linearGradient>
  <linearGradient id="id4" gradientUnits="userSpaceOnUse" x1="2.97975e+006" y1="7.7552e+006" x2="2.97975e+006" y2="9.10046e+006">
   <stop offset="0" style="stop-color:white"/>
   <stop offset="1" style="stop-color:#D5D5D5"/>
  </linearGradient>
  <linearGradient id="id5" gradientUnits="userSpaceOnUse" x1="9.03781e+006" y1="4.71087e+006" x2="9.03781e+006" y2="6.05613e+006">
   <stop offset="0" style="stop-color:#5E4A36"/>
   <stop offset="1" style="stop-color:#2B1703"/>
  </linearGradient>
  <linearGradient id="id6" gradientUnits="userSpaceOnUse" x1="4.03713e+006" y1="7.51489e+006" x2="4.03713e+006" y2="8.86015e+006">
   <stop offset="0" style="stop-color:#F6F6F6"/>
   <stop offset="1" style="stop-color:#B6B6B6"/>
  </linearGradient>
  <linearGradient id="id7" gradientUnits="userSpaceOnUse" x1="1.27808e+007" y1="6.63722e+006" x2="1.27808e+007" y2="7.98248e+006">
   <stop offset="0" style="stop-color:#5E4A36"/>
   <stop offset="1" style="stop-color:#110000"/>
  </linearGradient>
  <linearGradient id="id8" gradientUnits="userSpaceOnUse" x1="9.12733e+006" y1="5.55545e+006" x2="9.12733e+006" y2="6.90071e+006">
   <stop offset="0" style="stop-color:#5E4A36"/>
   <stop offset="1" style="stop-color:#2B1703"/>
  </linearGradient>
  <linearGradient id="id9" gradientUnits="userSpaceOnUse" x1="7.78016e+006" y1="9.44124e+006" x2="7.78016e+006" y2="1.07865e+007">
   <stop offset="0" style="stop-color:#F6F6F6"/>
   <stop offset="1" style="stop-color:#959595"/>
  </linearGradient>
  <linearGradient id="id10" gradientUnits="userSpaceOnUse" x1="4.12665e+006" y1="8.35947e+006" x2="4.12665e+006" y2="9.70473e+006">
   <stop offset="0" style="stop-color:#F6F6F6"/>
   <stop offset="1" style="stop-color:#B6B6B6"/>
  </linearGradient>
 </defs>
 <g id="Layer_x0020_3">
  <metadata id="CorelCorpID_0Corel-Layer"/>
  <rect class="fil0" x="56092" y="3" width="14599070" height="14598796"/>
 </g>
 <g id="Layer_x0020_1">
  <metadata id="CorelCorpID_1Corel-Layer"/>
  <polygon class="fil1" points="10848867,11945098 6100997,9089760 6100997,11906333 "/>
  <polygon class="fil2" points="10963382,10933990 13624894,9329108 8737986,6503089 6065211,8114493 "/>
  <polygon class="fil3" points="8666941,3543518 5184168,5554307 5257066,8643635 8738004,6503108 "/>
  <polygon class="fil2" points="14315273,9762500 14277416,6746815 8702527,3522973 8666941,3543518 8666941,6574153 "/>
  <polygon class="fil0 str0" points="10825851,8739566 14248496,6747923 8673608,3524081 5257048,5554307 "/>
  <g id="_237117168">
   <path class="fil4" d="M9254612 4836372c-671831,-125505 -671831,125505 -1105441,609887 -433610,484382 494918,609887 1105441,609887 610523,0 1105441,-273045 1105441,-609887 0,-336842 -433610,-484382 -1105441,-609887z"/>
   <path class="fil5" d="M8197237 5076683c-671831,-125505 -671831,125505 -1105441,609887 -433610,484382 494918,609887 1105441,609887 610523,0 1105441,-273045 1105441,-609887 0,-336842 -433610,-484382 -1105441,-609887z"/>
   <path class="fil6" d="M8910521 5680957c671831,-125505 671831,125505 1105441,609887 433610,484382 -494918,609887 -1105441,609887 -610523,0 -1105441,-273045 -1105441,-609887 0,-336842 433610,-484382 1105441,-609887z"/>
   <path class="fil7" d="M10353513 5702610c-671831,-125505 -671831,125505 -1105441,609887 -433610,484382 494918,609887 1105441,609887 610523,0 1105441,-273045 1105441,-609887 0,-336842 -433610,-484382 -1105441,-609887z"/>
   <path class="fil6" d="M10181468 6459365c671831,-125505 671831,125505 1105441,609887 433610,484382 -494918,609887 -1105441,609887 -610523,0 -1105441,-273045 -1105441,-609887 0,-336842 433610,-484382 1105441,-609887z"/>
   <path class="fil7" d="M11624459 6481018c-671831,-125505 -671831,125505 -1105441,609887 -433610,484382 494918,609887 1105441,609887 610523,0 1105441,-273045 1105441,-609887 0,-336842 -433610,-484382 -1105441,-609887z"/>
   <path class="fil4" d="M10694370 7028053c-671831,-125505 -671831,125505 -1105441,609887 -433610,484382 494918,609887 1105441,609887 610523,0 1105441,-273045 1105441,-609887 0,-336842 -433610,-484382 -1105441,-609887z"/>
   <path class="fil4" d="M8841093 5965446c-671831,-125505 -671831,125505 -1105441,609887 -433610,484382 494918,609887 1105441,609887 610523,0 1105441,-273045 1105441,-609887 0,-336842 -433610,-484382 -1105441,-609887z"/>
   <path class="fil5" d="M7783718 6205757c-671831,-125505 -671831,125505 -1105441,609887 -433610,484382 494918,609887 1105441,609887 610523,0 1105441,-273045 1105441,-609887 0,-336842 -433610,-484382 -1105441,-609887z"/>
   <path class="fil6" d="M8497003 6810031c671831,-125505 671831,125505 1105441,609887 433610,484382 -494918,609887 -1105441,609887 -610523,0 -1105441,-273045 -1105441,-609887 0,-336842 433610,-484382 1105441,-609887z"/>
   <path class="fil8" d="M12564031 6762728c671831,-125505 671831,125505 1105441,609887 433610,484382 -494918,609887 -1105441,609887 -610523,0 -1105441,-273045 -1105441,-609887 0,-336842 433610,-484382 1105441,-609887z"/>
   <path class="fil9" d="M7125565 5383080c-671831,-125505 -671831,125505 -1105441,609887 -433610,484382 494918,609887 1105441,609887 610523,0 1105441,-273045 1105441,-609887 0,-336842 -433610,-484382 -1105441,-609887z"/>
   <path class="fil8" d="M11305310 7632472c671831,-125505 671831,125505 1105441,609887 433610,484382 -494918,609887 -1105441,609887 -610523,0 -1105441,-273045 -1105441,-609887 0,-336842 433610,-484382 1105441,-609887z"/>
  </g>
  <path class="fil10" d="M10825869 8739548l0 3037519c1708589,-946311 1798381,-1038265 3489403,-2014568l0 -3037537 -3489403 2014586z"/>
  <polygon class="fil11" points="10877659,11806986 10877659,8769467 5308856,5554307 5308856,8591827 "/>
  <path class="fil0 str1" d="M10825869 11777086c1698035,-968782 1796401,-1037121 3489403,-2014586l-37857 -3015666 -3451546 1992733 -5568803 -3215159 0 3037519 5568803 3215159z"/>
  <polygon class="fil2" points="5962703,13738011 8624216,12133129 3737307,9307110 1064532,10918513 "/>
  <polygon class="fil3" points="3666262,6347539 183489,8358328 256387,11447655 3737325,9307128 "/>
  <polygon class="fil2" points="9314594,12566520 9276737,9550836 3701848,6326993 3666262,6347539 3666262,9378173 "/>
  <polygon class="fil0 str0" points="5825173,11543587 9247818,9551944 3672929,6328102 256369,8358328 "/>
  <g id="_104578200">
   <path class="fil12" d="M4253933 7640393c-671831,-125505 -671831,125505 -1105441,609887 -433610,484382 494918,609887 1105441,609887 610523,0 1105441,-273045 1105441,-609887 0,-336842 -433610,-484382 -1105441,-609887z"/>
   <path class="fil13" d="M3196558 7880703c-671831,-125505 -671831,125505 -1105441,609887 -433610,484382 494918,609887 1105441,609887 610523,0 1105441,-273045 1105441,-609887 0,-336842 -433610,-484382 -1105441,-609887z"/>
   <path class="fil14" d="M3909843 8484977c671831,-125505 671831,125505 1105441,609887 433610,484382 -494918,609887 -1105441,609887 -610523,0 -1105441,-273045 -1105441,-609887 0,-336842 433610,-484382 1105441,-609887z"/>
   <path class="fil15" d="M5352834 8506631c-671831,-125505 -671831,125505 -1105441,609887 -433610,484382 494918,609887 1105441,609887 610523,0 1105441,-273045 1105441,-609887 0,-336842 -433610,-484382 -1105441,-609887z"/>
   <path class="fil14" d="M5180789 9263386c671831,-125505 671831,125505 1105441,609887 433610,484382 -494918,609887 -1105441,609887 -610523,0 -1105441,-273045 -1105441,-609887 0,-336842 433610,-484382 1105441,-609887z"/>
   <path class="fil15" d="M6623781 9285039c-671831,-125505 -671831,125505 -1105441,609887 -433610,484382 494918,609887 1105441,609887 610523,0 1105441,-273045 1105441,-609887 0,-336842 -433610,-484382 -1105441,-609887z"/>
   <path class="fil12" d="M5693691 9832073c-671831,-125505 -671831,125505 -1105441,609887 -433610,484382 494918,609887 1105441,609887 610523,0 1105441,-273045 1105441,-609887 0,-336842 -433610,-484382 -1105441,-609887z"/>
   <path class="fil12" d="M3840414 8769467c-671831,-125505 -671831,125505 -1105441,609887 -433610,484382 494918,609887 1105441,609887 610523,0 1105441,-273045 1105441,-609887 0,-336842 -433610,-484382 -1105441,-609887z"/>
   <path class="fil13" d="M2783039 9009778c-671831,-125505 -671831,125505 -1105441,609887 -433610,484382 494918,609887 1105441,609887 610523,0 1105441,-273045 1105441,-609887 0,-336842 -433610,-484382 -1105441,-609887z"/>
   <path class="fil14" d="M3496324 9614052c671831,-125505 671831,125505 1105441,609887 433610,484382 -494918,609887 -1105441,609887 -610523,0 -1105441,-273045 -1105441,-609887 0,-336842 433610,-484382 1105441,-609887z"/>
   <path class="fil16" d="M7563353 9566749c671831,-125505 671831,125505 1105441,609887 433610,484382 -494918,609887 -1105441,609887 -610523,0 -1105441,-273045 -1105441,-609887 0,-336842 433610,-484382 1105441,-609887z"/>
   <path class="fil13" d="M2124887 8187100c-671831,-125505 -671831,125505 -1105441,609887 -433610,484382 494918,609887 1105441,609887 610523,0 1105441,-273045 1105441,-609887 0,-336842 -433610,-484382 -1105441,-609887z"/>
   <path class="fil16" d="M6304632 10436493c671831,-125505 671831,125505 1105441,609887 433610,484382 -494918,609887 -1105441,609887 -610523,0 -1105441,-273045 -1105441,-609887 0,-336842 433610,-484382 1105441,-609887z"/>
  </g>
  <path class="fil10" d="M5825191 11543569l0 3037519c1708589,-946311 1798381,-1038265 3489403,-2014568l0 -3037537 -3489403 2014586z"/>
  <polygon class="fil11" points="5876980,14611006 5876980,11573487 308177,8358328 308177,11395847 "/>
  <path class="fil0 str1" d="M5825191 14581106c1698035,-968782 1796401,-1037121 3489403,-2014586l-37857 -3015666 -3451546 1992733 -5568803 -3215159 0 3037519 5568803 3215159z"/>
 </g>
</svg>
