<?xml version="1.0" encoding="UTF-8"?>
<!DOCTYPE svg PUBLIC "-//W3C//DTD SVG 1.1//EN" "http://www.w3.org/Graphics/SVG/1.1/DTD/svg11.dtd">
<!-- Creator: CorelDRAW X5 -->
<svg xmlns="http://www.w3.org/2000/svg" xml:space="preserve" width="673px" height="676px" style="shape-rendering:geometricPrecision; text-rendering:geometricPrecision; image-rendering:optimizeQuality; fill-rule:evenodd; clip-rule:evenodd"
viewBox="0 0 4480457 4499732"
 xmlns:xlink="http://www.w3.org/1999/xlink">
 <defs>
  <style type="text/css">
   <![CDATA[
    .str0 {stroke:#454545;stroke-width:259626}
    .fil4 {fill:none}
    .fil3 {fill:white}
    .fil2 {fill:#D4D4D4;fill-rule:nonzero}
    .fil1 {fill:#DBDBDB;fill-rule:nonzero}
    .fil0 {fill:#E6E6E6;fill-rule:nonzero}
   ]]>
  </style>
 </defs>
 <g id="Layer_x0020_1">
  <metadata id="CorelCorpID_0Corel-Layer"/>
  <path class="fil0" d="M4304721 2265467c0,1140452 -924222,2064556 -2064516,2064556 -1139751,0 -2064099,-924104 -2064099,-2064556 0,-1139759 924348,-2063981 2064099,-2063981 1140294,0 2064516,924222 2064516,2063981z"/>
  <path class="fil1" d="M3954265 2265514c0,946841 -767321,1714060 -1714021,1714060 -946259,0 -1713683,-767219 -1713683,-1714060 0,-946259 767424,-1713573 1713683,-1713573 946700,0 1714021,767314 1714021,1713573z"/>
  <path class="fil2" d="M3739767 2265546c0,828341 -671283,1499538 -1499507,1499538 -827830,0 -1499208,-671197 -1499208,-1499538 0,-827830 671378,-1499113 1499208,-1499113 828223,0 1499507,671283 1499507,1499113z"/>
  <path class="fil3" d="M2548452 1228536c-57330,-12667 -515492,-210392 -645635,-169355 -38315,12077 -345507,338254 -353084,353076 -70760,138420 227008,376065 -393349,419792 -110514,7789 -351770,-200974 -428808,-278013 -50643,-50635 -91703,-190676 -151929,-151929 -67542,43452 -83710,386017 142700,392358 119688,3359 40714,4060 36560,88273 -6963,140898 260374,52484 262081,88265 2887,60619 -110278,78313 -118224,138483 -5452,41241 88265,46662 88265,88265 0,8882 -189928,134589 -88273,337923 11943,23893 213098,-39046 213098,88265 0,98988 -197497,-20951 -8,176538 350078,350078 358945,226772 665469,194169 384137,-40864 245724,62940 337931,88265 22824,6262 34672,-68069 50210,-50218 272332,312747 -421255,438698 397928,490403 12533,787 427951,-96738 458854,-125140 107021,-98398 180881,-398267 252144,-464637 19928,-18551 66779,22776 81680,0 22784,-34814 -21022,-88926 0,-124833 118980,-203114 176538,15428 176538,-335689 0,0 -145784,191565 -124833,0 20628,-188528 60595,-231201 60595,-231201 -88446,-114645 -237039,-180487 -307161,-307169 -20149,-36395 86991,-46678 88265,-88265 19291,-629900 -166649,-435118 -230288,-450090 -63325,-14901 -116179,-60139 -178355,-79273 -25255,-7765 -55898,12320 -79265,0 -367670,-193681 194232,1699 -213106,-88265z"/>
  <ellipse class="fil4 str0" cx="2240228" cy="2249866" rx="2110415" ry="2120053"/>
 </g>
</svg>
