<?xml version="1.0" encoding="UTF-8"?>
<!DOCTYPE svg PUBLIC "-//W3C//DTD SVG 1.1//EN" "http://www.w3.org/Graphics/SVG/1.1/DTD/svg11.dtd">
<!-- Creator: CorelDRAW X5 -->
<svg xmlns="http://www.w3.org/2000/svg" xml:space="preserve" width="673px" height="676px" style="shape-rendering:geometricPrecision; text-rendering:geometricPrecision; image-rendering:optimizeQuality; fill-rule:evenodd; clip-rule:evenodd"
viewBox="0 0 5927346 5952846"
 xmlns:xlink="http://www.w3.org/1999/xlink">
 <defs>
  <style type="text/css">
   <![CDATA[
    .str0 {stroke:#454545;stroke-width:343468}
    .fil3 {fill:none}
    .fil1 {fill:#B3B3B3;fill-rule:nonzero}
    .fil2 {fill:#ED707B;fill-rule:nonzero}
    .fil0 {fill:url(#id0);fill-rule:nonzero}
   ]]>
  </style>
  <linearGradient id="id0" gradientUnits="userSpaceOnUse" x1="233028" y1="266500" x2="5.69481e+006" y2="5.72838e+006">
   <stop offset="0" style="stop-color:white"/>
   <stop offset="0.8" style="stop-color:#E3E3E3"/>
   <stop offset="1" style="stop-color:#C6C6C6"/>
  </linearGradient>
 </defs>
 <g id="Layer_x0020_1">
  <metadata id="CorelCorpID_0Corel-Layer"/>
  <g id="_205063560">
   <path class="fil0" d="M5694860 2997062c0,1508741 -1222684,2731270 -2731218,2731270 -1507815,0 -2730666,-1222528 -2730666,-2731270 0,-1507826 1222851,-2730510 2730666,-2730510 1508533,0 2731218,1222684 2731218,2730510z"/>
   <path class="fil1" d="M91810 3161584c270622,273630 403440,-112470 399277,225450 -1041,83837 -194351,254635 -289669,333341 -54611,-179290 -91768,-366220 -109608,-558792zm586030 1092937c-275899,-181497 172223,821659 136388,351420 -4954,-65155 -54913,-302533 -136388,-351420zm2579051 1421896c-42694,-147972 -184911,-590245 79934,-604785 263170,-14457 83765,-147036 361245,-345279 158724,-113386 -40966,201220 180612,-71264 44724,-55017 -4351,-137949 76188,-6765 8327,-106663 187305,-71327 189844,-65738 34878,76781 -154207,63656 42382,199055 306186,210890 -41404,-632564 223639,-195361 111690,184234 14394,218956 57744,262951 1551,1582 163075,47263 123721,257986 -378648,298068 -835908,499902 -1335311,569200z"/>
   <path class="fil2" d="M1791072 3482258c-23345,10450 -34399,215646 11053,236535 80569,37261 56162,-268228 -11053,-236535zm-577100 -2840826c71046,-41851 146016,-70151 234901,-46680 26915,7109 44203,-79071 79737,-155716 62803,-34690 127031,-67101 192665,-96952l375 167c122785,58348 -402784,607970 32557,187378 91352,-88261 217977,-50094 -21493,-3684 -17059,3299 43964,-187534 69370,-218904l7941 -3268c3986,4829 3882,26385 -2977,72878 0,0 270174,-184390 253115,-6755 -104,1010 118059,117955 -47919,-115509 0,0 32359,-20379 81777,-50302 246766,-71795 507604,-110305 777404,-110305 322048,0 631284,54965 919131,155747 1353,2623 2311,5277 2727,7941 7130,45130 106725,70671 201439,72774 380303,168102 716235,418823 985088,729672 -16539,7213 -35034,17715 -56089,32473 -67341,47211 -384653,-82360 -492721,-87241 -77083,-3466 -399308,225419 -76177,228552 50688,479 287087,281956 -344051,575049 -163834,76073 8274,536175 -184307,406084 -54872,-37063 -10419,-274743 -96452,-310870 -29236,-12271 -194757,132131 -105663,-48533 0,0 -327377,258788 -11074,186160 4621,-1072 -86419,88667 2467,270924 190521,390680 -514432,544616 -508697,628505 6391,93444 39457,54185 -23960,148659 -61856,92185 79966,-383633 -172640,-113657 35991,112252 335017,415930 81714,489047 -446582,128915 219393,283164 -258038,-113657 -63937,-53165 -197505,352086 -173868,-192915 7171,-165354 -183152,404137 -159734,-47919 27758,-535738 -624019,-71920 -619273,82942 25916,846545 -346768,2540 -356947,-345883 -134254,149638 -260557,-283309 -336058,-161576 -93829,151272 -765924,-276211 -746461,-165281 62959,358799 370873,44370 512382,275857 69006,112876 -627069,618482 -753809,235911 -6370,-19224 -12781,-35835 -19536,-50542 -812,-27758 -1332,-55579 -1332,-83536 0,-925522 446342,-1746213 1134486,-2257034zm4016601 756692c-23314,28268 -57213,57474 -107797,86231 -54060,31943 -86616,90925 -86616,90925 0,-303990 -75771,-311838 47877,-387234 51905,67653 100844,137731 146536,210078zm-4851302 398933c-180852,131340 110139,215053 91529,231622 -316646,281696 313763,131007 118580,-4299 0,0 5162,-106839 -58983,-141925 -86273,-47180 160785,-53321 127187,-154207 -14457,-43381 -246381,45442 -278313,68808zm4104570 -521593c-129779,27550 84857,568263 47919,278303 -1041,-8150 13603,-292885 -47919,-278303zm10429 424527c-262347,54934 3424,133255 122264,127177 158391,-8108 -80507,-135170 -122264,-127177zm-73096 158505c-20421,13135 -21274,237659 -77405,236525 -122275,-2467 -575174,269425 -322548,272797 23835,323 274608,-137013 274608,-137013 -1353,-58057 288586,-115884 198441,-278927 -33785,-61439 -36845,-116717 -73096,-93382zm-812802 836147c-56527,10450 -91550,152365 -46077,147462 45452,-5537 95224,-156674 46077,-147462zm-1150098 1022307c-23678,5183 192301,231425 194143,290595 5475,175533 256009,338389 255582,304115 -4142,-329958 -103936,-286380 -356343,-551704 -30704,-31328 -74959,-47295 -93382,-43006zm139469 -232226c-154717,19349 535779,951199 86616,103821 -19047,-36241 -86616,-103821 -86616,-103821zm317614 849668c-89926,138064 202407,91623 145610,51000 -33098,-23689 -140322,-59628 -145610,-51000zm202126 36866c-154134,88636 397705,124065 0,0zm335454 138834c-10439,39926 46680,55298 53446,10450 6141,-44849 -44849,-46066 -53446,-10450zm178770 19047c5173,203198 198931,-322163 63281,-105060 -23335,36866 -63885,74345 -63281,105060zm-125949 -488422c-172765,74106 43756,160597 72503,208891 22731,39322 68194,31953 68194,31953 1114,-38344 -71140,-182069 -49761,-178791 198670,30496 -90936,-62053 -90936,-62053zm25823 -90311c-169632,205144 494376,-180196 76167,5537 -11053,4913 -76167,-5537 -76167,-5537zm374141 -81100c-31953,-15352 -104435,151761 -62053,161597 43006,10429 86627,-149305 62053,-161597zm-492107 -214407c0,0 -249826,167894 -286900,277689 -6120,18110 -122400,-46410 -52228,152989 169351,481178 401795,-243259 406094,-347121 614,-22731 -63906,63885 -66966,-83556zm195350 -631565c-146276,0 -12885,293051 -12885,293051 -196256,230426 88074,30204 124721,-37480 11668,-22107 11668,-22107 11668,-22107 -255218,-49553 42090,-242072 -123503,-233465zm26426 385829c-130258,65061 116342,113896 90322,73721 -14134,-22128 -48544,-92768 -90322,-73721zm125345 -68808c-15362,-614 -66362,93996 593,88469 67590,-6765 51000,-85409 -593,-88469zm5527 163418c-323,468 -483926,304792 -11064,176928 107433,-29028 52603,-139271 11064,-176928zm219320 504388c-80486,95578 131142,4278 66955,88459 -72024,94506 385663,196131 223025,219341 -39853,5683 32827,178999 189230,1842 78217,-88604 196703,160056 227928,80476 108151,-275555 -643618,-467013 -707139,-390117z"/>
   <ellipse class="fil3 str0" cx="2963673" cy="2976423" rx="2791939" ry="2804689"/>
  </g>
 </g>
</svg>
