<?xml version="1.0" encoding="UTF-8"?>
<!DOCTYPE svg PUBLIC "-//W3C//DTD SVG 1.1//EN" "http://www.w3.org/Graphics/SVG/1.1/DTD/svg11.dtd">
<!-- Creator: CorelDRAW X5 -->
<svg xmlns="http://www.w3.org/2000/svg" xml:space="preserve" width="673px" height="676px" style="shape-rendering:geometricPrecision; text-rendering:geometricPrecision; image-rendering:optimizeQuality; fill-rule:evenodd; clip-rule:evenodd"
viewBox="0 0 2450877 2461421"
 xmlns:xlink="http://www.w3.org/1999/xlink">
 <defs>
  <style type="text/css">
   <![CDATA[
    .str0 {stroke:#454545;stroke-width:142019}
    .fil3 {fill:none}
    .fil1 {fill:#9966CC;fill-rule:nonzero}
    .fil2 {fill:#B3B3B3;fill-rule:nonzero}
    .fil0 {fill:url(#id0);fill-rule:nonzero}
   ]]>
  </style>
  <linearGradient id="id0" gradientUnits="userSpaceOnUse" x1="96353.7" y1="110194" x2="2.35473e+006" y2="2.36861e+006">
   <stop offset="0" style="stop-color:white"/>
   <stop offset="0.8" style="stop-color:#E3E3E3"/>
   <stop offset="1" style="stop-color:#C6C6C6"/>
  </linearGradient>
 </defs>
 <g id="Layer_x0020_1">
  <metadata id="CorelCorpID_0Corel-Layer"/>
  <g id="_404358960">
   <path class="fil0" d="M2354747 1239244c0,623844 -505563,1129343 -1129321,1129343 -623461,0 -1129093,-505499 -1129093,-1129343 0,-623465 505632,-1129029 1129093,-1129029 623758,0 1129321,505563 1129321,1129029z"/>
   <path class="fil1" d="M2181281 1695178c-3464,2772 -57879,110056 -46410,104819 9769,-4459 118350,-111683 90277,-96048 -73054,40695 -3232,-39709 -43867,-8771zm-76884 111515c-5083,6236 -397125,420674 -36942,59338 31399,-29321 48717,-54949 48717,-54949 0,0 -7157,-10161 -11775,-4390zm-501948 241739c-45253,58185 52414,66728 62803,-27707 1386,-11542 -37403,30939 -43406,31399 -6929,0 -19396,-3693 -19396,-3693zm-70881 -137608c0,0 -16392,-31860 -18704,-29553 -115212,99052 -13621,-73192 -126294,-32785 -37863,13621 -52642,27242 -52642,27242 -51256,-21703 -55874,19396 -64417,75503 -145690,-61877 -121168,124629 -162776,-127912 -4799,-29136 -124245,-259018 28864,-255592 156514,3499 60492,-70648 90273,-107130 9236,-10849 60264,14314 65802,5543 107362,-182633 1825,58654 118449,-78502 18441,-21690 -9700,-72499 41788,693 -1153,-52642 93535,-31976 99052,-22164 21492,38212 -80775,22095 36938,102745 103011,70575 51489,-334327 148230,-24247 6004,23089 2772,64649 16857,76424 162079,134376 -28361,-163340 79423,100205 87893,214910 -314582,496285 -281913,332937 4734,-23670 -23317,-16853 -18932,-43406z"/>
   <path class="fil2" d="M2150110 1504468c-16160,30934 -69034,-16857 -27707,-17550 30018,-693 31864,9236 27707,17550zm-502637 -206414c22396,23089 98428,-88973 105977,-40402 19229,123669 194868,40635 -106670,-141998 693,60956 1386,121909 693,182400zm-1269641 -391350c-12700,6925 -40174,87273 -19857,90277 39481,6692 53567,-109673 19857,-90277zm968336 -780164c18006,58878 -57595,115974 -38328,19625 1971,-9860 2539,-17085 2079,-22624 12007,693 24010,1846 36249,3000zm-103437 -5311c-7850,20550 -33017,56106 -33017,56106 126526,292995 -184389,302445 -187018,376575 -1523,42933 -53386,105086 -39481,41328 20490,-93931 11314,-79888 -45945,-15007 8310,52870 130210,180205 11775,224188 -231591,86008 107586,131708 -114752,-40635 -39486,-30607 -127172,228122 -64877,-75731 15058,-73454 -125240,201091 -66728,-6004 70816,-250634 -276490,54350 -291837,112673 -82591,313816 -172704,80349 -101824,-65109 -78963,74113 -56334,-10854 -91198,9928 55181,-93281 121676,-186558 204103,-280295 136455,-118677 270112,-215228 410286,-267599 133576,-49905 273831,-63263 410514,-70420zm229960 23549c-460,8315 -2005,13148 -5539,12239 -46806,-12020 -176612,107216 -86120,116133 21944,2160 34033,-60014 66956,-41095 39800,22869 55641,-26321 54488,-80349 -10157,-2539 -20085,-4618 -29785,-6929zm-238042 279374c-22396,5771 -38096,73885 -19392,71345 18699,-2311 38324,-75038 19392,-71345zm-553433 521108c-12928,3464 84411,93268 83581,120290 -2858,92575 125141,167622 125373,135301 1145,-157005 689,-81274 -165547,-242431 -13393,-12928 -34171,-16392 -43406,-13160zm81041 -112901c-88198,22624 144089,252016 108976,190478 -34842,-61060 -59566,-143147 -108976,-190478zm131605 378650c-45717,65574 98316,37226 76884,23321 -17352,-11258 -73885,-27474 -76884,-23321zm105744 17318c-76884,37175 206643,57953 0,0zm177550 71113c-4153,19396 27014,27707 29092,6236 1846,-21243 -25396,-23321 -29092,-6236zm95820 16392c1386,12468 68802,-17778 68802,-32324 1158,-62570 -69955,22857 -68802,32324zm-78730 -241739c-11547,4157 -28055,77508 -18936,84273 39133,29024 18936,-45945 60492,18936 12468,20545 36021,18006 36021,18006 -693,-18239 -47150,-92123 -30246,-88659 92304,18927 -45485,-31399 -47331,-32557zm11775 -43406c-77809,89356 242526,-61339 37863,5083 -5220,1691 -37863,-5083 -37863,-5083zm183782 -27242c-16392,-8315 -46866,69955 -24935,76884 21936,6232 37868,-70420 24935,-76884zm-244966 -115445c0,0 -88431,90970 -119369,100666 -14546,4850 -18239,21475 -22396,32557 -3000,8078 -62286,-23463 -27014,72034 53847,145781 214376,3426 188632,-79191 -20657,-66302 12911,-46875 13625,-85431 202,-11082 -30939,30246 -33478,-40635zm90273 -304537c-460,0 -45253,75731 -41095,86813 36477,94202 14081,21243 -2539,107362 0,0 94202,-65802 99973,-78270 -127912,-30711 28167,-114291 -56339,-115905zm13853 187939c-61877,24707 58878,61417 43178,37635 -6696,-10849 -24014,-45713 -43178,-37635zm56567 -30939c-6692,-693 -29088,44792 2311,43178 30939,-1386 21936,-40174 -2311,-43178zm6004 79656c-17313,27707 -93122,25086 -81270,49410 27857,57178 163697,29092 81270,-49410zm124448 254206c-37403,42713 66745,9946 38328,47099 -42924,56119 80090,45481 115212,86124 22138,25619 -6464,58413 -6464,58413 55413,10157 24935,-8543 64417,32092 693,-60492 0,-121444 -693,-182400 -32324,-19857 -204103,-49177 -210800,-41328z"/>
   <ellipse class="fil3 str0" cx="1225438" cy="1230710" rx="1154429" ry="1159701"/>
  </g>
 </g>
</svg>
