<?xml version="1.0" encoding="UTF-8"?>
<!DOCTYPE svg PUBLIC "-//W3C//DTD SVG 1.1//EN" "http://www.w3.org/Graphics/SVG/1.1/DTD/svg11.dtd">
<!-- Creator: CorelDRAW X5 -->
<svg xmlns="http://www.w3.org/2000/svg" xml:space="preserve" width="673px" height="676px" style="shape-rendering:geometricPrecision; text-rendering:geometricPrecision; image-rendering:optimizeQuality; fill-rule:evenodd; clip-rule:evenodd"
viewBox="0 0 2052611 2061442"
 xmlns:xlink="http://www.w3.org/1999/xlink">
 <defs>
  <style type="text/css">
   <![CDATA[
    .str0 {stroke:#454545;stroke-width:118941}
    .fil3 {fill:none}
    .fil1 {fill:#B3B3B3;fill-rule:nonzero}
    .fil2 {fill:#C7AD2A;fill-rule:nonzero}
    .fil0 {fill:url(#id0);fill-rule:nonzero}
   ]]>
  </style>
  <linearGradient id="id0" gradientUnits="userSpaceOnUse" x1="80696.3" y1="92287.7" x2="1.97208e+006" y2="1.98371e+006">
   <stop offset="0" style="stop-color:white"/>
   <stop offset="0.8" style="stop-color:#E3E3E3"/>
   <stop offset="1" style="stop-color:#C6C6C6"/>
  </linearGradient>
 </defs>
 <g id="Layer_x0020_1">
  <metadata id="CorelCorpID_0Corel-Layer"/>
  <g id="_212687128">
   <path class="fil0" d="M1972102 1037868c0,522470 -423410,945826 -945808,945826 -522149,0 -945617,-423356 -945617,-945826 0,-522153 423467,-945563 945617,-945563 522398,0 945808,423410 945808,945563z"/>
   <path class="fil1" d="M634592 597702c0,0 127429,25331 128395,21849 13923,-43893 -108284,-32096 -128395,-21849zm99197 -59752c-11408,3676 -11793,19917 2127,14889 14313,-5605 9090,-18367 -2127,-14889zm-13534 127429c-12377,4062 -13148,31134 1741,24751 14695,-6574 10056,-28229 -1741,-24751zm171903 -31905c-11988,3096 -11217,31134 3287,25717 14504,-5799 8510,-29198 -3287,-25717zm-117759 15664c139998,19723 65937,-69033 0,0zm965480 -107707c38094,4448 92623,39254 145992,79280 39449,101904 65746,204003 79669,305715 -966,191 -1471,422 -2321,580 -220777,41420 -113402,-9739 -280961,-101133 -28131,-15343 -56281,-220254 -40029,-239775 24156,-29011 41994,11772 32680,-43893 -8095,-48398 41766,-3287 64971,-775zm107127 29393c-21464,-16245 23590,31325 29004,29584 -771,-1741 -1741,-3673 -2901,-5799 -6960,-6963 -21074,-20112 -26102,-23785zm-77543 -48730c4642,15275 -3673,-10442 0,0zm-258917 -281927c16825,19723 29973,35192 36547,40220 9861,33066 115247,87981 3482,-19726 -13343,-6765 -26686,-13920 -40029,-20494zm131102 145992c-25331,-31519 -123364,-116988 -16821,-34612 5994,4635 -21464,-27072 10056,-389 -4257,-18948 74447,70968 -8510,-19917 75607,72320 152180,147732 223534,219472 2318,4062 4444,7735 6574,11602 -5028,-3867 -4062,-2707 966,1546 2707,4837 5219,9670 7540,14504 -58977,-51822 -116685,-101266 -125494,-84113 -9559,18616 5435,66333 -119309,-51631 -24733,-23388 -82196,-111052 5223,-50082 40397,28175 50276,35773 16241,-6380zm73866 31519c-13339,-12763 -26491,-25720 -39640,-38869 12763,12763 26300,25717 39640,38869zm-721257 -291987c-5608,6574 -15913,15844 -33451,29198 -20555,15650 -62311,-26495 -71934,33455 -3907,24354 11797,50269 -26491,37899 -18558,-5994 -78011,152454 -131297,189885 -33145,23284 -7367,124780 -38479,126849 -47396,3150 47083,-82726 -79860,-60523 -10164,1777 -182153,95524 -154692,96296 0,0 -48031,177115 26297,114086 220766,-187203 -21896,65403 118725,20112 25670,-8268 4170,194797 71934,101904 1074,-1471 2901,-1932 5414,-1546 -386,9281 -966,18371 -1352,27652 -6769,-2321 -15859,386 -15859,386 12957,86434 -127213,-82293 -162232,-72125 -35556,10326 -29793,-61132 -74255,-12568 -22631,24722 -139666,-34284 -122012,-52597 18504,-19196 -61493,-82567 -61493,-82567 -3478,2901 38598,150565 -24361,60329 -13808,-19791 -13354,34976 -11217,-48146 566,-22119 -117647,69440 104225,-164168 88892,-93596 176350,-186021 264526,-268202 44668,-16050 89336,-29584 134195,-41572 -2707,4448 -5219,8892 -7540,14309 -2707,5799 15664,-6383 34421,-20883 85468,-14889 171128,-23979 256791,-27461zm-294113 142899c21658,-5799 30366,-79464 60912,-97262 25529,-14875 -6852,48499 3673,44668 72817,-26524 16245,-141933 -56270,18562 -4448,9667 -16436,36547 -8315,34032zm55690 -21464c1741,28232 151355,-178354 28232,-33066 -4689,5536 -27652,20883 -28232,33066z"/>
   <path class="fil2" d="M675007 732481c29584,3673 18032,49862 59557,-8704 109296,-154137 19777,82599 71931,-13920 20357,-37676 78509,2898 87404,13534 104225,-98037 45634,26686 72125,18757 5414,7155 278164,134959 139998,165523 -75113,16616 75521,-17070 49501,21269 -50745,74774 -27576,-65847 95719,24365 660,483 250473,35019 72511,189885 -35127,30568 11631,153377 -98422,192981 -98974,35618 -124528,255245 -199749,226241 -16245,-6383 -14309,-60718 -16821,-52788 -2130,8120 37740,194603 -49696,128781 -16594,-12492 4192,42722 -11602,37319 -94425,-32302 37265,-3287 -36547,77348 -30802,33650 63684,15127 -9281,87015 -45198,44531 134389,118729 -11408,81601 0,0 -3759,-54673 -775,-27263 9191,84358 -97341,-122708 -75607,-175579 5529,-13455 -23752,-255800 10827,-292369 2350,-2487 16432,-208439 -67097,-230108 -70002,-18162 -196268,-326873 -74638,-330852 14305,-465 17982,-97842 -9861,-105771 577,-9086 1352,-17982 1932,-27263z"/>
   <ellipse class="fil3 str0" cx="1026306" cy="1030721" rx="966835" ry="971250"/>
  </g>
 </g>
</svg>
