<?xml version="1.0" encoding="UTF-8"?>
<!DOCTYPE svg PUBLIC "-//W3C//DTD SVG 1.1//EN" "http://www.w3.org/Graphics/SVG/1.1/DTD/svg11.dtd">
<!-- Creator: CorelDRAW -->
<svg xmlns="http://www.w3.org/2000/svg" xml:space="preserve" width="0.420016in" height="0.420008in" style="shape-rendering:geometricPrecision; text-rendering:geometricPrecision; image-rendering:optimizeQuality; fill-rule:evenodd; clip-rule:evenodd"
viewBox="0 0 1.76982 1.76979"
 xmlns:xlink="http://www.w3.org/1999/xlink">
 <defs>
  <style type="text/css">
   <![CDATA[
    .str0 {stroke:#4C4C4C;stroke-width:0.102423}
    .fil2 {fill:none;fill-rule:nonzero}
    .fil1 {fill:#656565;fill-rule:nonzero}
    .fil0 {fill:url(#id0);fill-rule:nonzero}
   ]]>
  </style>
  <linearGradient id="id0" gradientUnits="userSpaceOnUse" x1="0.46354" y1="0.155061" x2="1.30628" y2="1.61473">
   <stop offset="0" style="stop-color:white"/>
   <stop offset="0.8" style="stop-color:#E3E3E3"/>
   <stop offset="1" style="stop-color:#C6C6C6"/>
  </linearGradient>
 </defs>
 <g id="Layer_x0020_1">
  <metadata id="CorelCorpID_0Corel-Layer"/>
  <path class="fil0" d="M1.71861 0.884777c0,0.460587 -0.373261,0.833798 -0.833781,0.833798 -0.460305,0 -0.833615,-0.373211 -0.833615,-0.833798 0,-0.460305 0.37331,-0.833566 0.833615,-0.833566 0.460521,0 0.833781,0.373261 0.833781,0.833566z"/>
  <path class="fil1" d="M0.607121 1.64182c0,0 0.0408098,0.0580628 0.0549771,0.0178833 0.0142337,-0.0401794 0,-0.0291475 0.0223459,-0.066175 0.0222297,-0.0372099 0.050581,-0.0619613 0.0821837,-0.0631059 0.0315032,-0.00131056 0.0605843,-0.0123923 0.0803589,-0.04149 0.0198243,-0.0289816 0.0279531,-0.0617788 0.069891,-0.0728605 0.0420706,-0.0112144 0.0829302,-0.045206 0.0940119,-0.0718485 0.0111646,-0.0266259 0.0111646,-0.0166889 0.00504317,-0.031553 -0.00617124,-0.0147314 -0.00880895,-0.0314866 0.00428006,-0.0481755 0.0130392,-0.0166889 0.10088,-0.084755 0.0735572,-0.113786 -0.0271402,-0.0291475 -0.0625253,-0.034058 -0.111912,-0.0482419 -0.0495358,-0.0142834 -0.120704,-0.0223459 -0.137327,-0.036563 -0.0167553,-0.0142337 -0.00862647,-0.0495027 -0.0302922,-0.0790981 -0.0215993,-0.0297779 -0.115561,-0.0402458 -0.115561,-0.0402458 0,0 -0.034058,-0.0537827 -0.0668717,-0.0618285 -0.0328635,-0.0081122 -0.0655446,-0.0116623 -0.0655446,-0.0116623 -0.0282351,-0.0238389 -0.108246,-0.0369113 -0.141574,0.0135535 0,0 -0.00993703,0.00369943 -0.0174188,-0.00371602 -0.00731591,-0.00744862 -0.00864306,-0.0148641 -0.0191607,-0.00744862 -0.0105011,0.00744862 -0.02719,0.0154447 -0.0384044,0.000646985 -0.0110319,-0.0148641 -0.00535836,-0.050133 -0.00238887,-0.0581955 0.00313539,-0.00799607 0.00610488,-0.0469147 -0.0148641,-0.0475949 -0.020969,-0.000630396 -0.0358994,-0.00245523 -0.0358994,-0.00245523 0.00738227,-0.0286996 0.0205874,-0.040926 0.0216159,-0.0865467 0,0 -0.0760125,0.0600203 -0.0970478,0.0284176 -0.0209192,-0.031553 0.0117784,-0.132367 0.0117784,-0.132367 0,0 0.0303419,-0.00303585 0.0439452,-0.0136033 0.0136033,-0.0105177 0.0723462,-0.0407435 0.0951566,-0.00743203 0.0229763,0.0333778 0.0395988,0.0142337 0.0279531,0.0476778 -0.0118448,0.0333612 0.0178833,0.0284508 0.0178833,0.0284508 0,0 -0.00245523,-0.0773894 0.0203386,-0.10453 0.0229763,-0.0272563 0.0341243,-0.0260121 0.0422365,-0.0284673 0.00801266,-0.00250499 0.0406937,-0.0229099 0.0462345,-0.0346386 0.0056072,-0.0117121 0.0210353,-0.051427 0.0563043,-0.0593733 0.0352524,-0.0079463 0.0290811,-0.0074818 0.0290811,-0.0074818 0,0 -0.00691776,-0.0159424 0.0092071,-0.0265264 0.0161746,-0.0104513 0.0532684,0.00668551 0.0532684,0.00668551l0.0345722 0c0,0 0.0217155,-0.024685 0.0154281,-0.0270904 -0.00617124,-0.00250499 -0.0476115,-0.0147977 -0.0580628,-0.0408596 -0.0105177,-0.0259458 0.00428006,-0.0210353 0.0234408,-0.00925686 0.0191939,0.0117784 0.0272563,0.0105177 0.0378237,-0.000630396 0.0104679,-0.0111481 0.0382385,-0.00867624 0.0382385,-0.00867624 0,0 -0.0328138,0.030906 -0.00799607,0.0413739 0.024685,0.0106172 0.0501165,0.0113139 0.0469645,-0.0029695 -0.0029695,-0.0142337 -0.04149,-0.120538 -0.0853191,-0.121849 0.000165894,9.95362e-005 -0.00371602,0.00131056 -0.0124586,0.00446254 -0.0168548,0.00605512 -0.00605512,-0.00413075 -0.0291475,-0.0248177 -0.023026,-0.020521 -0.0398974,0.00366625 -0.0437296,0.0162908 -0.00381555,0.0126909 -0.0417057,0.048922 -0.0564038,0.0604185 -0.0145655,0.011596 -0.0254315,-0.0129231 -0.0251992,-0.0249836 0.000282019,-0.0120605 -0.00200731,-0.00383214 -0.0225118,-0.0212012 -0.0206372,-0.0173193 0.0225118,-0.0279531 0.0367952,-0.0422863 0.0142834,-0.0143 0.0368616,-0.00824491 0.0500169,-0.00366625 0.0131388,0.00474456 0.0211348,-0.00617124 0.0461682,-0.0100034 0.0250997,-0.00393168 0.0230924,0.014582 0.0464668,0.0211514 0.0233246,0.00656939 0.0624092,-0.0244693 0.0753821,-0.0417886 0.012807,-0.0174188 -0.0123923,-0.0305742 -0.051427,-0.0294793 -0.0391011,0.00114467 -0.0283015,0.00217321 -0.00806243,-0.00675187 0.0204547,-0.00909097 0.0916065,-0.00862647 0.106703,0.00126079 0.0151461,0.00988726 -0.00542472,0.0440116 -0.000564038,0.0571503 0.00491045,0.0132051 0.0230758,0.0377242 0.0497183,0.0393168 0.0267421,0.00172529 0.03434,-0.0425683 0.0434309,-0.0489054 0.00914074,-0.00630396 0.0476115,-0.00938958 0.0528703,-0.0156769 0.0051427,-0.0063869 -0.0772732,-0.0708698 -0.0772732,-0.0708698 0,0 -0.185403,0.00618783 -0.203469,0.00892508 -0.0180492,0.00273724 -0.104297,0.0111978 -0.210137,0.0654948 -0.10579,0.0541145 -0.154314,0.109208 -0.229763,0.192719 -0.0754318,0.0834445 -0.0809727,0.157682 -0.0890351,0.188654 -0.00799607,0.0309226 -0.0204547,0.162659 -0.0204547,0.174437 0,0.0117121 0.00245523,0.0130226 0.0104513,0.00856011 0.00806243,-0.00416393 0.0199404,-0.0389186 0.0113139,-0.0165728 -0.00874259,0.02218 0.0203386,0.0562379 0.030176,0.0617788 0.00988726,0.00549108 0.00320175,-0.00799607 0.0284673,0.0229265 0.0253651,0.0308562 0.0601198,0.028401 0.0601198,0.028401 0,0 0.0332617,0.084191 0.0438291,0.0946423 0.0104679,0.0105177 0.0309226,0.0272066 0.0445258,0.0215993 0.0135535,-0.00554085 0.0197745,-0.000564038 0.028401,0.0112144 0.00864306,0.0117121 0.00200731,0.0611982 -0.0129065,0.0722964 -0.0149138,0.0111978 -0.0321834,0.0563541 -0.0384707,0.0902461 -0.00610488,0.034058 0.0818519,0.140014 0.0929336,0.158014 0.0112642,0.0181156 0.0460023,0.0516095 0.0822335,0.0890517 0.0360653,0.0376578 0.0207533,0.0849209 0.0207533,0.146136 0,0.0612645 0.0577807,0.155509 0.0577807,0.155509zm-0.114931 -0.888775l0 0c0,0 0.0142337,-0.0197745 0.0142337,-0.0229763 0,-0.0154281 -0.0669878,-0.0634377 -0.0766926,-0.0574987l-0.0296784 0.018016c0,0 0.0637363,0.0247347 0.0921373,0.0624589zm0.0927013 -0.0098209l0 0c-0.00668551,0.0144493 0.00376578,0.0256472 0.0130226,0.0370275l-0.0438789 -0.00119443c-0.0145157,-0.0056072 -0.0507634,-0.0234905 -0.0172032,-0.035269l0.0480594 -0.000564038zm0.0649805 0.0178336l0 0c0,0 -0.0284673,0.0259458 -0.0284673,0.0308562 0,0.00502658 -0.0253154,-0.0197248 -0.0135369,-0.031553 0.0117121,-0.0117121 0.0420043,0.000696753 0.0420043,0.000696753zm0.0266259 0.028401l0 0c0,0 0.0178999,0.0111315 0.0123425,0.0402292 -0.00554085,0.0290977 -0.0093564,0.039549 0,0.0334939 0.00932322,-0.0062376 0.029612,-0.013653 0.0253817,-0.0360155 -0.00439618,-0.0222795 -0.00799607,-0.0389684 -0.0377242,-0.0377076z"/>
  <path class="fil1" d="M1.20054 0.242055c0.00587263,0.000796289 0.0119941,0.0018746 0.0171368,0.00535836 0.0057731,0.00441277 0.0114301,0.00960524 0.0157765,0.0157267 0.00262112,0.00371602 0.00336764,0.00851034 0.00491045,0.012807 0.000978772,0.00245523 0.00177506,0.0051427 0.00376578,0.00691776 0.00228933,0.00107831 0.00355012,-0.00189119 0.00492704,-0.00310221 0.00411416,-0.00502658 0.00633714,-0.0119443 0.00394827,-0.0181156 -0.00359989,-0.00783018 -0.00812879,-0.0150797 -0.0130392,-0.0219975 -0.00355012,-0.00481091 -0.00731591,-0.00953888 -0.0123425,-0.0128568 -0.00651962,-0.00462843 -0.013371,-0.00948911 -0.0212012,-0.0116126 -0.00492704,-0.000729932 -0.00988726,-0.000729932 -0.0147977,-0.000912415 -0.00691776,-0.000282019 -0.0139517,-0.000447913 -0.0208031,0.000862647 -0.003434,0.00051427 -0.00567356,0.00336764 -0.00789654,0.00565697 -0.0028036,0.00303585 -0.00565697,0.00600535 -0.00719978,0.00977113 -0.000182483,0.00268748 0.00149304,0.00525883 0.0028036,0.00766428 0.000912415,0.0023391 0.00325151,0.00353353 0.00570674,0.00285337 0.00719978,-4.97681e-005 0.0138355,0.00418052 0.0181819,0.00965501 0.00656939,0.0081122 0.00970478,0.0183478 0.0147977,0.0276047 0.00154281,0.00257135 0.00348377,0.00583946 0.00696753,0.00600535 0.00275383,-0.000116126 0.00532518,-0.00165894 0.00783018,-0.00303585 0.00355012,-0.00205708 0.00754816,-0.00491045 0.00834445,-0.00914074 0.000746521,-0.003434 -0.0018746,-0.00605512 -0.00376578,-0.00862647 -0.00446254,-0.0057731 -0.00948911,-0.0112642 -0.0129729,-0.0176677 -0.00051427,-0.00112808 -0.00119443,-0.00245523 -0.00107831,-0.00381555zm0.0776548 -0.0437793l0 0c0,0 0.0228767,0.0327972 0.00738227,0.0438789 -0.0154447,0.0111481 -0.0253154,0.0130392 -0.0142337,0.0376744 0.0111978,0.0248011 0.0248011,0.0321668 0.0334276,0.04149 0.00874259,0.00925686 0.0266425,0.0309723 -0.00250499,0.0327972 -0.0289318,0.00189119 -0.0512611,-0.0111315 -0.0456705,0.00743203 0.00549108,0.0185303 0.00806243,0.0210353 0.0178833,0.0290977 0.00988726,0.00799607 0.0482916,0.053086 0.0482916,0.0562877 0,0.00303585 0.0488225,0.00486068 0.0463507,-0.00874259 -0.00250499,-0.0135369 -0.0223459,-0.0636036 -0.0185635,-0.0705214 0.00371602,-0.00668551 0.00126079,-0.0204049 0.0100034,-0.0265762 0.00856011,-0.00617124 0.0146816,-0.0105177 0.0146816,-0.0153783 0,-0.00497681 -0.00240546,-0.0161083 0.00565697,-0.00622101 0.00806243,0.00988726 0.0377242,0.0290314 0.0482419,0.0365132 0.0104513,0.00736568 0.0606341,0.0272066 0.0606341,0.0272066l0.0475617 0.0655446c0,0 -0.0142337,0.0544131 -0.0260785,0.0444761 -0.011596,-0.00988726 -0.0574821,-0.0561882 -0.0938958,-0.0550435 -0.0364634,0.00126079 -0.0846887,0.0587595 -0.0846887,0.0587595l0 0.0321668c0,0 0.0197745,0.0217321 0.00799607,0.0277872 -0.0117121,0.00622101 -0.0296618,0.0693104 -0.0291475,0.0817192 0.000746521,0.0122927 -0.00114467,0.0420706 -0.00491045,0.0431987 -0.00366625,0.00126079 0.00690117,0.010584 0.0149138,0.0149304 0.00799607,0.00428006 0.0122761,0.0202888 0.0122761,0.0543965 0,0.0340082 0.000696753,0.0741876 0.000696753,0.0741876 0,0 0.0488557,0.0668717 0.0630396,0.0822501 0.0142337,0.0154779 0.0396652,0.0433148 0.0550933,0.0378237 0.0154281,-0.00565697 0.0290811,-0.0266259 0.0494363,-0.0266259 0.020521,0 0.0234905,0.000564038 0.0216491,-0.00680164 -0.0018746,-0.0074818 0.00434641,-0.0260121 0.0316193,-0.0222961 0.0271402,0.00359989 0.0420043,0.0278369 0.0432485,0.0816197 0.00116126,0.0538325 0,0.0909263 -0.00376578,0.131155 -0.00364966,0.0402458 -0.0259458,0.102091 -0.0345722,0.124254 -0.00874259,0.0222961 -0.052638,0.131106 -0.0704716,0.152141 -0.0179995,0.0210353 0.0320672,-0.0234408 0.0457203,-0.0438291 0.0136033,-0.0204713 0.106985,-0.20249 0.106985,-0.20249l0.035833 -0.250217 -0.0392504 -0.216558 -0.0844233 -0.189782 -0.0594397 -0.0996191 -0.147098 -0.134772 -0.0699076 -0.0433148z"/>
  <path class="fil2 str0" d="M1.71861 0.884777c0,0.460587 -0.373261,0.833798 -0.833781,0.833798 -0.460305,0 -0.833615,-0.373211 -0.833615,-0.833798 0,-0.460305 0.37331,-0.833566 0.833615,-0.833566 0.460521,0 0.833781,0.373261 0.833781,0.833566z"/>
 </g>
</svg>
