<?xml version="1.0" encoding="UTF-8"?>
<!DOCTYPE svg PUBLIC "-//W3C//DTD SVG 1.1//EN" "http://www.w3.org/Graphics/SVG/1.1/DTD/svg11.dtd">
<!-- Creator: CorelDRAW X5 -->
<svg xmlns="http://www.w3.org/2000/svg" xml:space="preserve" width="247px" height="255px" style="shape-rendering:geometricPrecision; text-rendering:geometricPrecision; image-rendering:optimizeQuality; fill-rule:evenodd; clip-rule:evenodd"
viewBox="0 0 422225 434818"
 xmlns:xlink="http://www.w3.org/1999/xlink">
 <defs>
  <style type="text/css">
   <![CDATA[
    .str1 {stroke:#4D4D4D;stroke-width:20177}
    .str0 {stroke:gray;stroke-width:20177}
    .fil3 {fill:#666666}
    .fil1 {fill:#999999}
    .fil0 {fill:white}
    .fil2 {fill:white;fill-rule:nonzero}
   ]]>
  </style>
 </defs>
 <g id="Layer_x0020_1">
  <metadata id="CorelCorpID_0Corel-Layer"/>
  <g id="_253324192">
   <circle class="fil0 str0" cx="170485" cy="170485" r="160397"/>
   <circle class="fil1" cx="170485" cy="170485" r="122670"/>
   <path class="fil2" d="M161371 224667l0 -49593c-15480,-4447 -26837,-11115 -34073,-20088 -7195,-8973 -10833,-19846 -10833,-32618 0,-12935 4084,-23807 12247,-32618 8206,-8813 19077,-13866 32658,-15240l0 -11721 17138 0 0 11721c12570,1537 22554,5781 29991,12855 7397,7072 12126,16531 14186,28373l-29951 3920c-1818,-9336 -6547,-15641 -14227,-18956l0 46280c18956,5133 31892,11804 38722,19967 6872,8166 10306,18633 10306,31446 0,14269 -4324,26313 -12933,36095 -8650,9822 -20696,15805 -36095,18028l0 22148 -17138 0 0 -21583c-13662,-1657 -24775,-6749 -33304,-15278 -8529,-8488 -13944,-20532 -16329,-36095l30919 -3315c1253,6305 3638,11763 7114,16329 3436,4568 7316,7883 11600,9943zm0 -124328c-4687,1576 -8365,4284 -11156,8043 -2748,3799 -4122,8004 -4122,12570 0,4165 1253,8085 3759,11642 2546,3598 6386,6507 11519,8731l0 -40985zm17138 125987c5942,-1092 10752,-3840 14471,-8206 3719,-4405 5577,-9538 5577,-15480 0,-5294 -1576,-9822 -4689,-13662 -3111,-3840 -8244,-6792 -15359,-8811l0 46159z"/>
  </g>
  <g id="_253325776">
   <circle class="fil0 str1" cx="251740" cy="264332" r="160397"/>
   <circle class="fil3" cx="251740" cy="264332" r="122670"/>
   <path class="fil2" d="M242626 318514l0 -49593c-15480,-4447 -26837,-11115 -34073,-20088 -7195,-8973 -10833,-19846 -10833,-32618 0,-12935 4084,-23807 12247,-32618 8206,-8813 19077,-13866 32658,-15240l0 -11721 17138 0 0 11721c12570,1537 22554,5781 29991,12855 7397,7072 12126,16531 14186,28373l-29951 3920c-1818,-9336 -6547,-15641 -14227,-18956l0 46280c18956,5133 31892,11804 38722,19967 6872,8166 10306,18633 10306,31446 0,14269 -4324,26313 -12933,36095 -8650,9822 -20696,15805 -36095,18028l0 22148 -17138 0 0 -21583c-13662,-1657 -24775,-6749 -33304,-15278 -8529,-8488 -13944,-20532 -16329,-36095l30919 -3315c1253,6305 3638,11763 7114,16329 3436,4568 7316,7883 11600,9943zm0 -124328c-4687,1576 -8365,4284 -11156,8043 -2748,3799 -4122,8004 -4122,12570 0,4165 1253,8085 3759,11642 2546,3598 6386,6507 11519,8731l0 -40985zm17138 125987c5942,-1092 10752,-3840 14471,-8206 3719,-4405 5577,-9538 5577,-15480 0,-5294 -1576,-9822 -4689,-13662 -3111,-3840 -8244,-6792 -15359,-8811l0 46159z"/>
  </g>
 </g>
</svg>
