<?xml version="1.0" encoding="UTF-8"?>
<!DOCTYPE svg PUBLIC "-//W3C//DTD SVG 1.1//EN" "http://www.w3.org/Graphics/SVG/1.1/DTD/svg11.dtd">
<!-- Creator: CorelDRAW X5 -->
<svg xmlns="http://www.w3.org/2000/svg" xml:space="preserve" width="673px" height="676px" style="shape-rendering:geometricPrecision; text-rendering:geometricPrecision; image-rendering:optimizeQuality; fill-rule:evenodd; clip-rule:evenodd"
viewBox="0 0 7774043 7807488"
 xmlns:xlink="http://www.w3.org/1999/xlink">
 <defs>
  <style type="text/css">
   <![CDATA[
    .str0 {stroke:#454545;stroke-width:450478}
    .fil3 {fill:none}
    .fil2 {fill:#B3B3B3;fill-rule:nonzero}
    .fil1 {fill:#E08645;fill-rule:nonzero}
    .fil0 {fill:url(#id0);fill-rule:nonzero}
   ]]>
  </style>
  <linearGradient id="id0" gradientUnits="userSpaceOnUse" x1="305629" y1="349530" x2="7.46906e+006" y2="7.51309e+006">
   <stop offset="0" style="stop-color:white"/>
   <stop offset="0.8" style="stop-color:#E3E3E3"/>
   <stop offset="1" style="stop-color:#C6C6C6"/>
  </linearGradient>
 </defs>
 <g id="Layer_x0020_1">
  <metadata id="CorelCorpID_0Corel-Layer"/>
  <g id="_414666672">
   <path class="fil0" d="M7469125 3930814c0,1978798 -1603619,3582212 -3582144,3582212 -1977583,0 -3581420,-1603414 -3581420,-3582212 0,-1977597 1603837,-3581216 3581420,-3581216 1978525,0 3582144,1603619 3582144,3581216z"/>
   <path class="fil1" d="M3485632 2216309c338473,-197350 1040358,-203875 672304,24176 -75871,47013 472565,333217 509722,287814 207725,-253783 -8300,-98504 250466,-84963 983802,51491 -602029,245988 301001,46140 138078,-30564 366293,987706 596869,1058254 188900,57798 -36653,348069 307594,210196 795858,-318747 -557691,887932 -465043,1038474 294490,478517 -309041,727576 -280497,861982 84690,398755 -153981,50044 -135485,391083 10716,197650 -755123,758345 -752871,409389 1188,-183713 -158978,-686637 -235818,-861245 -60214,-136836 184109,-867156 -82014,-1039948 -173721,-112797 116360,-649534 -127431,-427694 -177379,161408 -134065,-250793 -383029,-136222 -342063,157408 -549938,308536 -714048,-159660 -21391,-61019 -411709,-132126 -189678,-454054 103760,-150446 -181693,-470940 328835,-761649 95747,-54521 -77987,-160411 252663,-391083 40270,-27834 128891,737 146460,-10989zm1935621 2172900c-57634,-101671 -197801,142897 -95938,166254 40284,9515 117179,-126707 95938,-166254zm757267 676699c-1693,-355 -346895,321409 -336889,355195 67203,226836 -246602,906211 310516,-57129 56173,-97139 92716,-286449 26373,-298066z"/>
   <path class="fil2" d="M1394761 1281090l0 0zm-342745 385950c0,183085 372217,-216816 19043,209458 -23712,28626 315553,-95460 -146473,178689 -21705,12886 287842,-378770 -35888,-79816 -108633,100320 -21377,41676 -124496,120837 87147,-142815 183085,-285616 287814,-429169zm-329559 503129l93740 -32953c55982,55614 -125970,141532 -164042,165516 22701,-43942 46140,-88621 70302,-132563zm-451870 1619972c0,78915 231900,-99010 76172,74711 -30755,35874 28558,23425 28558,23425 4873,4327 942208,387424 482625,440158 -16012,1843 232378,-20708 166977,70302 -88048,122530 25036,-105357 314911,94477 177283,122216 791353,200463 305397,606384 -145259,121342 156739,510842 -176492,513381 -297411,2266 -136454,559138 -403532,365447 -370607,-268771 92676,-34960 49798,93740 -124564,373910 -813399,-1118140 -844414,-2282024zm2506130 -3351991c-238658,340984 693927,-196163 188955,-47600 -58112,17091 -70643,50221 -91556,19043 -32953,9515 -65906,19043 -97399,28558zm-1145401 631297c-99774,181447 249469,73114 366907,-177242 53989,-115090 241811,-163796 284879,-250466 -217499,120851 -434288,261455 -651787,427708zm2448264 764570c-84990,-3194 -24544,206005 38809,90819 20517,-36625 -18306,-90819 -38809,-90819zm-316385 83489c-23097,46235 50836,-102941 0,0zm500945 94477c-34973,27015 203002,198224 156712,59327 -19248,-57757 -114981,-90642 -156712,-59327zm-923507 -1058991c-330105,112428 52856,444826 74697,126707 4546,-66166 -123,-150746 -74697,-126707zm54931 -162581c-119772,67189 137682,255598 137682,255598 -74534,55259 -217949,211247 -38086,177229 -19466,30673 482107,40789 101794,-319307 -21241,-20504 84226,-96675 60787,-133287 -53934,-83884 -214905,-4614 -262178,19766zm204326 724300c-4177,-90341 -337189,-146351 114244,-226290 41103,-7276 53730,-114995 133287,-125233 362675,-476919 39751,180519 191876,-292210 58221,-180915 126994,127499 137682,136945 157285,-13187 365501,47423 383752,-73974 26619,-177092 89413,-24599 150869,-79816 200285,-179959 -287186,15849 179427,-76172 108333,-21364 -560012,-149750 -327361,-301001 235422,-153053 4164,-195398 -161844,46877 -58180,84908 214905,334937 -183822,410112 -205,41 -112920,-364000 -126707,-163305 -8532,124127 -416009,-305656 -49061,-418917 44666,-13910 94477,-44666 132550,-81291 902047,93235 1031007,391697 1053135,240951 6184,-42086 163278,79748 148671,46863 1262116,622751 2066382,1731896 2210248,3133755 -87379,-138911 -120359,-249592 -145013,-405717 -124960,106913 -354267,-317150 -414508,-220447 -118885,190825 -951382,-513108 -898607,-331756 48283,165926 230030,336138 361051,281958 341339,-141163 338677,493328 -140604,509722 -474844,16244 -279023,302571 -522909,-216052 -79912,-169939 -304359,-593607 -473097,-582945 -257782,16285 256841,-566510 14647,-512657 -381514,84826 -462804,-357147 -525830,-292933 -36011,36680 -39847,661288 -264389,-61524 -64500,-207643 -637385,-492945 -26360,42481 -283583,119704 188150,236528 -306120,-82028 -54726,-35274 -242343,-338268 -542675,34427 -174471,216502 -286736,443775 -534621,191139 -14565,-14852 45225,-338827 67367,-351536 154937,-88935 377732,102327 364723,-179427zm1554052 -1044330c-21964,-2935 -43205,-10989 -62985,-22715 20517,7331 41744,15384 62985,22715zm-214578 206524c0,47600 101071,108388 110585,76158 8054,-31492 -110585,-144276 -110585,-76158zm71776 1239878c10457,21678 291773,-56747 342745,-41021 696234,214878 -19029,-207738 51259,-220434 22538,-4068 62221,-49088 -91543,39546 -92443,53293 -175441,-240883 -229962,-88621 -52842,147552 -49675,180846 -72500,310529zm872971 -197009c-136467,94450 376859,483294 158186,415245 -136440,-42454 358171,344206 306120,191876 -278627,-815378 -373269,-245442 -100334,-446000 44406,-32626 -285002,-218004 -363972,-161121z"/>
   <ellipse class="fil3 str0" cx="3887022" cy="3903744" rx="3661783" ry="3678505"/>
  </g>
 </g>
</svg>
