<?xml version="1.0" encoding="UTF-8"?>
<!DOCTYPE svg PUBLIC "-//W3C//DTD SVG 1.1//EN" "http://www.w3.org/Graphics/SVG/1.1/DTD/svg11.dtd">
<!-- Creator: CorelDRAW X5 -->
<svg xmlns="http://www.w3.org/2000/svg" xml:space="preserve" width="673px" height="676px" style="shape-rendering:geometricPrecision; text-rendering:geometricPrecision; image-rendering:optimizeQuality; fill-rule:evenodd; clip-rule:evenodd"
viewBox="0 0 4194618 4212664"
 xmlns:xlink="http://www.w3.org/1999/xlink">
 <defs>
  <style type="text/css">
   <![CDATA[
    .str0 {stroke:#454545;stroke-width:243063}
    .fil3 {fill:none}
    .fil2 {fill:#139100;fill-rule:nonzero}
    .fil1 {fill:#B3B3B3;fill-rule:nonzero}
    .fil0 {fill:url(#id0);fill-rule:nonzero}
   ]]>
  </style>
  <linearGradient id="id0" gradientUnits="userSpaceOnUse" x1="164907" y1="188595" x2="4.03006e+006" y2="4.05382e+006">
   <stop offset="0" style="stop-color:white"/>
   <stop offset="0.8" style="stop-color:#E3E3E3"/>
   <stop offset="1" style="stop-color:#C6C6C6"/>
  </linearGradient>
 </defs>
 <g id="Layer_x0020_1">
  <metadata id="CorelCorpID_0Corel-Layer"/>
  <g id="_404357760">
   <path class="fil0" d="M4030094 2120938c0,1067694 -865260,1932844 -1932807,1932844 -1067039,0 -1932417,-865149 -1932417,-1932844 0,-1067046 865378,-1932306 1932417,-1932306 1067547,0 1932807,865260 1932807,1932306z"/>
   <path class="fil1" d="M486118 3180699c140675,125656 372630,339434 501056,489993 -98787,-73501 -197581,-157276 -296367,-249743 -75475,-79820 -143834,-160039 -204688,-240249zm-275029 -1751725c59668,-54534 113297,-104141 147790,-122106 41372,-21544 575632,-401356 440202,-337460 -81507,38456 115661,-155752 52163,-39914 -21846,39848 64102,295 71917,-77449 6408,-63741 164649,-104709 202714,-273844 10142,-45062 289650,-365913 281349,-366701 -86538,-5539 -195445,263046 -180191,92460 2129,-23879 9487,-43862 15409,-59668 -11453,5539 -22524,10673 -33977,16204 -47419,49003 -134355,131585 -289650,260409 0,0 229982,-219707 229982,-228796 -1981,1186 -4353,2372 -6327,3558 -10275,7505 -33837,27827 -77051,66386 -180434,160989 -418871,398314 -648057,628693 -82980,146206 -150949,292022 -206272,438228zm1269636 844047c154109,-88909 757517,-133140 489595,24505 -11446,6732 301037,269034 359195,197971 114519,-139945 38787,-68544 182960,-74687 458041,-19533 -276377,185162 212592,11859 116398,-41254 128013,669550 260807,670183 115786,552 -73759,233480 143834,80218 379900,-267583 -218919,377374 -455610,736171 -220502,54137 -441395,81006 -661492,83776 -4346,-5141 -9015,-11144 -13832,-16204 -34692,-36423 -23349,-383067 -76661,-313750 -74333,96658 -105968,-171499 -212592,-116574 -324563,167190 -221578,-42632 -552430,-305059 -85639,-67925 -122356,-583079 -61244,-655563 81139,-96238 105077,-37498 147392,-182960 42639,-146560 142648,-86538 237487,-139886zm1112757 1501201c-5532,-58482 -127240,132374 -79032,134348 15806,795 81404,-109062 79032,-134348zm787944 -2729737c-1186,3160 -355756,-181310 -124080,-167942 117886,6798 652823,358289 145020,77449 -158860,-87856 -10673,73501 -20940,90493zm-792687 167544c33985,795 24107,-24896 -5532,-55713 50189,-125664 60854,-290048 9089,-420050 689150,380924 149764,212592 151347,214175 231956,216937 133788,-32976 297553,99973 16816,13648 -45865,-114217 -42286,-121708 40673,-84969 87392,173517 119734,81404 35229,-100333 867543,445947 619206,251710 -92695,-72506 -3160,-66783 77846,-9479 63226,211008 113370,421736 123292,633429 9855,210382 -16602,421633 -50579,632649 -174659,98787 -545654,-143540 -539784,-35170 6379,117672 106903,171499 201919,113805 286321,-173864 84247,244661 -218521,371842 -327568,137596 -223618,313301 -294784,-35959 -22922,-112516 -118887,-372387 -239461,-345761 -171043,37778 230991,-414724 63616,-366311 -310760,89882 -273844,-179410 -322839,-201138 0,0 0,0 0,0 24100,-23710 48996,-47419 73103,-71519 17390,130400 81514,32232 375790,77051 320593,48826 -41490,-206662 -41490,-206662 40702,-10673 33587,-34773 6717,-34382 102742,-105106 -123682,-137117 -233930,-243019 -398,-124080 -84962,-224052 -130009,-329166zm64809 -73891c-3558,33189 75475,73891 85750,50181 9479,-22914 -81006,-100761 -85750,-50181zm669786 687964c-134745,84166 255953,288170 61252,264754 -120633,-14510 228818,204423 205477,83776 -96422,-498367 -244300,-119941 3955,-277799 42595,-27083 -215361,-105902 -270684,-70731z"/>
   <path class="fil2" d="M924346 1045671c-216945,274241 518733,-112958 229982,-74687 -18289,2423 -141072,80616 -153321,62040 -8301,-12647 -66386,-390 -76661,12647zm1053486 954302c-65598,-2372 -21338,151340 28843,65598 16992,-27267 -12647,-65598 -28843,-65598zm-245788 61244c-7903,14230 25684,20159 32003,4353 6327,-15806 -9089,-46631 -32003,-4353zm384489 68367c-24896,15806 154168,142626 120125,39118 -14952,-45460 -87724,-62040 -120125,-39118zm-726692 -755543c-107883,32011 -162189,253787 390,158853 58703,-34272 98396,-190458 -390,-158853zm47419 -116169c-95236,47810 109850,176633 109850,176633 -72315,47022 -170704,152526 -31215,126842 -50189,64809 385188,-16808 154109,-134355 -132462,-67380 707,-171440 -14223,-192042 -42359,-58423 -175455,1186 -218521,22922zm162403 513702c-3550,-52163 -308219,-90095 91679,-165570 28453,-5141 31053,-35966 31613,-58880 221,-9082 201926,-134753 251320,-116965 0,0 -30707,-215972 73103,-160436 3285,1753 13832,113017 28843,125664 305456,-32011 296699,45909 321661,-62040 28770,-124397 75674,-19894 130002,-60854 49983,-37682 -180191,-64809 140284,-58092 47022,105511 135533,204298 136329,327583 155693,144232 411277,176022 242621,243416 -234814,93830 -18127,131225 -198759,-12249 -40253,-31974 -157667,147392 -153321,173083 -24896,23702 -50579,47412 -75475,71519 -17390,-7115 -102344,60066 -98787,62828 122894,109062 -83378,175057 -83378,175057 -71527,-147790 7086,-143827 -139098,-319679 -179020,-215346 -301111,-184934 45048,105106 -258427,108671 186135,195180 -235904,-52155 -411336,-241067 203900,-19762 -308616,-90891 -26479,-2762 -30427,50977 -40312,82590 -8294,26081 -153461,51043 -126842,111831 38971,88968 -149764,98787 -199555,159243 -52163,-38721 -103928,-75865 -156083,-113805 -10673,-10665 12249,-231956 35959,-243416 118939,-57687 294784,82199 287669,-122887zm1062178 -613285c-79025,-81006 -143017,76786 -244595,-71519 -76233,-111308 257639,-175455 9479,-197183 -50579,-1981 11063,24100 -30825,87326 -34375,50977 -204843,71814 -80211,128823 74908,34265 -221342,481662 -250532,78635 -59,-876 -203075,182555 -197573,-118548 1996,-109459 214485,-171374 271472,-237885 231492,-270175 201919,-255665 527528,-85750 54925,129611 46234,292810 -4743,416102z"/>
   <ellipse class="fil3 str0" cx="2097309" cy="2106332" rx="1975778" ry="1984800"/>
  </g>
 </g>
</svg>
