<?xml version="1.0" encoding="UTF-8"?>
<!DOCTYPE svg PUBLIC "-//W3C//DTD SVG 1.1//EN" "http://www.w3.org/Graphics/SVG/1.1/DTD/svg11.dtd">
<!-- Creator: CorelDRAW X5 -->
<svg xmlns="http://www.w3.org/2000/svg" xml:space="preserve" width="673px" height="676px" style="shape-rendering:geometricPrecision; text-rendering:geometricPrecision; image-rendering:optimizeQuality; fill-rule:evenodd; clip-rule:evenodd"
viewBox="0 0 5024332 5045947"
 xmlns:xlink="http://www.w3.org/1999/xlink">
 <defs>
  <style type="text/css">
   <![CDATA[
    .str0 {stroke:#454545;stroke-width:291142}
    .fil3 {fill:none}
    .fil1 {fill:#4CA6E6;fill-rule:nonzero}
    .fil2 {fill:#B3B3B3;fill-rule:nonzero}
    .fil0 {fill:url(#id0);fill-rule:nonzero}
   ]]>
  </style>
  <linearGradient id="id0" gradientUnits="userSpaceOnUse" x1="197527" y1="225900" x2="4.82722e+006" y2="4.85568e+006">
   <stop offset="0" style="stop-color:white"/>
   <stop offset="0.8" style="stop-color:#E3E3E3"/>
   <stop offset="1" style="stop-color:#C6C6C6"/>
  </linearGradient>
 </defs>
 <g id="Layer_x0020_1">
  <metadata id="CorelCorpID_0Corel-Layer"/>
  <g id="_414665808">
   <path class="fil0" d="M4827264 2540469c0,1278889 -1036412,2315169 -2315125,2315169 -1278104,0 -2314657,-1036280 -2314657,-2315169 0,-1278113 1036553,-2314525 2314657,-2314525 1278713,0 2315125,1036412 2315125,2314525z"/>
   <path class="fil1" d="M504311 1488388c74126,-48488 297768,-59340 316454,-137939 57805,-32290 278455,-141204 291486,-92636 219124,-207099 371815,81723 284181,-180614 -11769,-35228 -302408,256302 -151976,-18739 42101,-76985 494191,-107546 501752,-92645 53782,106073 -20618,-28797 87960,-48409 131331,-23732 -35678,117886 90563,97338 169603,-27606 -284419,173600 -30702,133766 13384,-2109 270347,-51903 154058,-84325 -12510,-3494 86152,-104229 71833,31752 -17574,166939 97938,-180429 117110,-158231 63328,73341 249447,270303 256602,65066 -353799,-96086 -4473,-209666 -21342,-123356 -13331,68162 135822,-169647 450749,48400 76456,52935 243359,113863 294071,194139 12501,20309 100462,42692 100462,42692 -76509,137225 -298879,-55582 -131164,106699 109019,105482 -59931,48691 -60902,83796 -113237,-15086 -251467,-161301 -388807,-89010 -135240,71206 86046,-124926 161875,-152497 1323,-476 -18580,-63566 -77558,13534 -84069,-1923 -13366,-87201 -102535,-145747 0,0 -139422,47112 -121794,70792 86090,115636 -141680,130246 -113986,128561 99491,-6008 319974,100312 -17177,117639 -5761,300 -44280,-201832 -57258,-12501 0,0 -139589,43724 -179564,77038 -303979,253302 381784,182140 363310,368506 -3123,33834 34346,-30711 34346,-30711 69089,257316 71586,-78264 78079,-65577 4905,9608 151279,-68930 13004,-144698 -39975,-21906 38748,-172727 153026,-161354 173450,17274 201214,287789 289395,136369 57443,-98635 212878,234599 374753,289916 56120,19180 -106778,195374 33843,161354 142351,-34452 50844,212092 -6255,113986 -19471,-33455 -255402,-25665 -85878,-142095 119509,-82076 -195612,8867 -155108,23944 0,0 -58211,81917 -62975,-33314 -1050,-18739 -25506,10411 -25506,10411 -74665,-50809 -194686,22991 -207161,102014 52467,-32043 292104,-41316 198823,15616 44959,93615 348709,37822 24994,154588 -114295,41236 -57858,-30341 -184778,-10931 -136440,20865 70862,209949 -129611,140013 -61881,-21580 -146162,169171 -109302,227973 18765,29926 -275879,114295 -180093,380999 125006,348038 -157640,-91639 -157702,-91604 0,0 -202988,-59208 -202988,-7287 0,62251 -166939,-45224 -192065,10922 -28823,64422 -257713,221797 -20292,452320 128844,125103 362436,-384792 278455,107740 -31973,187522 137190,-176308 170724,248273 12104,153326 236178,50562 209234,99932 -3247,5955 2797,12069 11972,15078l0 114772 -3317 0c-11293,-37319 -41722,-116280 -91930,-103311 33693,185290 -508634,-441830 -595447,-319056 -35758,50570 -402261,-220862 -367986,-273779 35872,-55388 -338324,-434604 -338324,-434604 -35,26 406858,724740 44254,215480 -76447,-107370 24606,95450 -156149,-256602 -77020,-150017 -314663,-60734 -246191,-581904 10534,-80232 -162889,-35449 -111393,-127520 60902,-108896 -183031,-94303 -87440,-73394 42066,9193 -104432,116845 -59331,-49441 15157,-55935 -202811,-76676 -382049,-36966 46327,-107211 98900,-213910 156670,-320618zm1894592 776572c54082,6220 -141,-194642 104617,-207152 81731,-9758 33199,129858 71833,129082 95874,-1932 124238,-210549 -111393,-169683 -85490,14822 -125323,240095 -65057,247753zm178523 -2073c35528,83619 417868,-348479 67668,-60902 -12810,10525 -80143,29326 -67668,60902zm-322700 -286281c-2373,47650 282505,-35572 233178,-43195 -32458,-5029 -228732,-83769 -233178,43195zm-1275210 -11452c-43804,-9731 192604,167495 96818,62463 -24994,-27411 -66301,-57381 -96818,-62463zm352899 -1005066c-556,1015 117877,-62516 262328,-10931 53852,19233 440948,-117842 213398,-133766 -52785,-3697 -411313,21659 -475726,144698zm328955 -190504c-126920,82631 187928,-77408 91604,-62454 -19789,2594 -56217,39039 -91604,62454zm241498 -90042c-23971,64572 308778,-3882 134296,-46327 -42701,-10384 -118115,-794 -134296,46327zm11972 105138c-199653,218383 351479,-91833 151994,-35916 -34355,9378 -134816,16136 -151994,35916zm43733 117110c-90783,80990 291468,88031 146250,-27588 -13719,-10922 -128817,11778 -146250,27588zm203499 -5717c27950,111790 207346,-135346 73924,-63504 -17186,9369 -77558,46847 -73924,63504zm7287 -103576c-10922,26538 67148,32776 61943,3114 -5717,-29149 -49450,-34346 -61943,-3114zm30720 -129082c-181540,-45427 397894,306996 470000,105138 5541,-15528 -312448,-17310 -345612,-42163 -49979,-37460 -57205,-46186 -124388,-62975zm288345 2447868l341968 108772c21218,-102517 -285407,-127626 -341968,-108772zm233699 -105138c-29661,3635 -21853,45277 13013,37990 35396,-7287 16657,-42163 -13013,-37990zm15616 314892c-29670,6246 -21862,73915 13022,61422 34866,-10940 15086,-67148 -13022,-61422zm420038 -43204c-29149,6246 -23424,73915 11452,60893 35396,-12484 17177,-67660 -11452,-60893zm-289907 18218c353976,73968 148968,-156052 0,0z"/>
   <path class="fil2" d="M2535793 1324431c-8328,11452 34346,28108 42683,12493 8320,-15616 -22383,-40072 -42683,-12493zm113986 21342c-67898,26265 74868,-26864 0,0zm1908638 66098c-18607,68189 38598,105958 109566,129020 -16922,-37416 -34822,-74285 -53588,-110634 -33278,-11355 -55979,-18386 -55979,-18386zm-1656191 -755231c62243,65542 149021,132708 168633,11452 6811,109002 250082,57946 314371,173326 30182,54170 28250,240148 82764,113986 32458,-75132 128808,166965 92124,132725 -10199,-9528 -66177,-172453 -101494,-73915 -17574,49053 178346,462386 326352,436175 19489,-3450 111807,123982 100453,-31232 -953,-12951 60178,-144203 126479,-130643 114507,23433 195489,-90907 343521,-31232 113678,45824 -89778,-140066 -75997,-135840 44059,13472 246747,223923 111393,32264 -28497,-40345 6529,-32105 40980,-21218 -240413,-334381 -565221,-603467 -943079,-775681 -6908,6361 -11487,1800 -15307,-6802 -16613,-7429 -33323,-14689 -50129,-21739 -133449,152320 191968,72309 -145791,47827 -160763,-11654 -200826,260766 -322188,253999 -4685,0 -82755,-3644 -53085,26547zm-159281 3078693c21650,7102 232825,-257369 207152,-97832 -33367,207346 43107,-42295 98379,-43204 13463,-221 124256,70412 140013,91092 200182,-193795 141707,50165 166039,42674 31037,38351 585980,256911 285222,359666 -76120,26000 169947,-62490 102535,35907 -82843,120921 21650,-93210 196230,23944 49353,33111 182643,21836 238295,65101 -344756,342771 -793847,579805 -1295140,658783 -71083,-99323 -174606,-134005 -201708,-418362 -1103,-11628 -151676,-302073 -21333,-385163 70262,-44783 109716,-123144 80999,-217836l3317 0 0 -114772z"/>
   <ellipse class="fil3 str0" cx="2512166" cy="2522974" rx="2366595" ry="2377403"/>
  </g>
 </g>
</svg>
