<?xml version="1.0" encoding="UTF-8"?>
<!DOCTYPE svg PUBLIC "-//W3C//DTD SVG 1.1//EN" "http://www.w3.org/Graphics/SVG/1.1/DTD/svg11.dtd">
<!-- Creator: CorelDRAW -->
<svg xmlns="http://www.w3.org/2000/svg" xml:space="preserve" width="0.311488in" height="0.42502in" style="shape-rendering:geometricPrecision; text-rendering:geometricPrecision; image-rendering:optimizeQuality; fill-rule:evenodd; clip-rule:evenodd"
viewBox="0 0 0.889865 1.2142"
 xmlns:xlink="http://www.w3.org/1999/xlink">
 <defs>
  <style type="text/css">
   <![CDATA[
    .str0 {stroke:#4C4C4C;stroke-width:0.0694409}
    .fil0 {fill:none;fill-rule:nonzero}
    .fil2 {fill:#4C4C4C;fill-rule:nonzero}
    .fil3 {fill:url(#id0);fill-rule:nonzero}
    .fil1 {fill:url(#id1);fill-rule:nonzero}
   ]]>
  </style>
  <linearGradient id="id0" gradientUnits="userSpaceOnUse" x1="0.18765" y1="0.306568" x2="0.715329" y2="0.306568">
   <stop offset="0" style="stop-color:white"/>
   <stop offset="0.811765" style="stop-color:#E3E3E3"/>
   <stop offset="1" style="stop-color:#C6C6C6"/>
  </linearGradient>
  <linearGradient id="id1" gradientUnits="userSpaceOnUse" x1="0.0429198" y1="0.906376" x2="0.846946" y2="0.906376">
   <stop offset="0" style="stop-color:white"/>
   <stop offset="0.811765" style="stop-color:#E3E3E3"/>
   <stop offset="1" style="stop-color:#C6C6C6"/>
  </linearGradient>
 </defs>
 <g id="Layer_x0020_1">
  <metadata id="CorelCorpID_0Corel-Layer"/>
  <g id="_124878888">
   <path id="_124879128" class="fil0" d="M0.140861 0.306568c0,0.169475 0.139107,0.306568 0.31055,0.306568 0.1716,0 0.310707,-0.137094 0.310707,-0.306568 0,-0.169295 -0.139107,-0.306568 -0.310707,-0.306568 -0.171443,0 -0.31055,0.137274 -0.31055,0.306568z"/>
   <path id="_124879056" class="fil1" d="M0.855145 1.12926c0,0.0277471 -0.0239343,0.0502193 -0.0534585,0.0502193l-0.713586 0c-0.029558,0 -0.0533798,-0.0224721 -0.0533798,-0.0502193l0.00898661 -0.237757c0,-0.175334 0.0726914,-0.25825 0.167023,-0.25825l0.14049 0c0.0317287,0.00950398 0.0653469,0.014599 0.100191,0.014599 0.0348667,0 0.0685637,-0.00509504 0.100315,-0.014599l0.132482 0c0.0825441,0 0.159116,0.0751208 0.159116,0.232212l0.0118209 0.263795z"/>
   <path id="_124878984" class="fil2" d="M0.889865 1.12926c0,0.0237993 -0.0101901,0.045293 -0.0266449,0.0607355 -0.0159037,0.0149477 -0.0376785,0.0242042 -0.0615341,0.0242042l0 -0.000134968 -0.713586 0 0 0.000134968c-0.0238668,0 -0.0456191,-0.00925654 -0.0614891,-0.0241817 -0.0164436,-0.0154651 -0.0266112,-0.0369699 -0.0266112,-0.060758l0.000134968 -0.00122596 0.00894162 -0.236531 -8.99785e-005 0c0,-0.0906309 0.0187043,-0.159656 0.0498031,-0.207749 0.0370937,-0.0573613 0.0907771,-0.0852209 0.15194,-0.0852209l0.0618715 0c0.0521763,0.0313125 0.113395,0.0493195 0.17881,0.0493195 0.0654594,0 0.126757,-0.0180182 0.178956,-0.0493195l0.0538409 0c0.0551344,0 0.107851,0.0262962 0.144753,0.0801484 0.0297042,0.0433472 0.0487121,0.105005 0.0489483,0.185288l0.0118209 0.263795 0.000134968 0.00149589zm-0.0741086 0.01028c0.00286807,-0.00269936 0.00466764,-0.00635473 0.00466764,-0.01028l6.74839e-005 0 -0.0117534 -0.262299 0 -0.00149589c0,-0.0658306 -0.0144078,-0.114756 -0.0370037,-0.147734 -0.0229108,-0.033427 -0.0547407,-0.0497581 -0.0875266,-0.0497581l-0.473478 0c-0.0374536,0 -0.0706107,0.0174783 -0.0938814,0.053481 -0.0239905,0.0371049 -0.0384208,0.0933527 -0.0384208,0.170048l-0.000134968 0.00122596 -0.00894162 0.236531 8.99785e-005 0c0,0.00395906 0.00177708,0.00761443 0.0046339,0.0103025 0.00340794,0.00320549 0.00837925,0.00519626 0.0140254,0.00519626l0 0.000134968 0.713586 0 0 -0.000134968c0.0056799,0 0.0106512,-0.00200202 0.0140704,-0.00521876z"/>
   <path id="_124878912" class="fil3 str0" d="M0.18765 0.306568c0,0.143943 0.118153,0.260387 0.263772,0.260387 0.145754,0 0.263907,-0.116443 0.263907,-0.260387 0,-0.143797 -0.118153,-0.260387 -0.263907,-0.260387 -0.145619,0 -0.263772,0.11659 -0.263772,0.260387z"/>
  </g>
 </g>
</svg>
