<?xml version="1.0" encoding="UTF-8"?>
<!DOCTYPE svg PUBLIC "-//W3C//DTD SVG 1.1//EN" "http://www.w3.org/Graphics/SVG/1.1/DTD/svg11.dtd">
<!-- Creator: CorelDRAW -->
<svg xmlns="http://www.w3.org/2000/svg" xml:space="preserve" width="0.306657in" height="0.306657in" style="shape-rendering:geometricPrecision; text-rendering:geometricPrecision; image-rendering:optimizeQuality; fill-rule:evenodd; clip-rule:evenodd"
viewBox="0 0 124.302 124.302"
 xmlns:xlink="http://www.w3.org/1999/xlink">
 <defs>
  <style type="text/css">
   <![CDATA[
    .str0 {stroke:#4B4B4B;stroke-width:5.62854}
    .fil0 {fill:white}
    .fil4 {fill:#7D7D7D;fill-rule:nonzero}
    .fil3 {fill:#C5C5C5;fill-rule:nonzero}
    .fil1 {fill:url(#id0);fill-rule:nonzero}
    .fil2 {fill:url(#id1);fill-rule:nonzero}
    .fil5 {fill:url(#id2);fill-rule:nonzero}
   ]]>
  </style>
  <linearGradient id="id0" gradientUnits="userSpaceOnUse" x1="50.8787" y1="71.0677" x2="72.8567" y2="22.8062">
   <stop offset="0" style="stop-color:#ADADAD"/>
   <stop offset="0.768627" style="stop-color:#C6C6C6"/>
   <stop offset="1" style="stop-color:#E0E0E0"/>
  </linearGradient>
  <linearGradient id="id1" gradientUnits="userSpaceOnUse" x1="77.582" y1="52.7187" x2="73.8589" y2="64.9796">
   <stop offset="0" style="stop-color:#919191"/>
   <stop offset="0.109804" style="stop-color:#919191"/>
   <stop offset="0.631373" style="stop-color:#999999"/>
   <stop offset="1" style="stop-color:#A0A0A0"/>
   <stop offset="1" style="stop-color:#A0A0A0"/>
  </linearGradient>
  <linearGradient id="id2" gradientUnits="userSpaceOnUse" x1="49.5957" y1="82.8977" x2="61.9986" y2="69.282">
   <stop offset="0" style="stop-color:#060606"/>
   <stop offset="0.588235" style="stop-color:#242424"/>
   <stop offset="1" style="stop-color:#424242"/>
  </linearGradient>
 </defs>
 <g id="Layer_x0020_1">
  <metadata id="CorelCorpID_0Corel-Layer"/>
  <rect class="fil0 str0" x="2.81507" y="2.81507" width="118.672" height="118.672" rx="8.42287" ry="8.42287"/>
  <g id="_250441408">
   <polygon id="_250443280" class="fil1" points="107.057,76.5862 16.6782,76.5862 16.6782,17.2862 107.057,17.2862 "/>
   <path id="_250442848" class="fil2" d="M44.3868 69.6379c0,0 32.5919,-26.3793 62.6704,-29.1673l0 36.7555 -62.6704 -7.58824z"/>
   <polygon id="_250442416" class="fil3" points="16.6782,84.3531 107.057,83.4451 107.057,105.875 16.6782,105.875 "/>
   <path id="_250441984" class="fil4" d="M16.6782 39.3344c4.97744,-1.8799 12.8114,-3.24914 20.8066,1.72192 11.5667,7.19407 17.7458,22.977 28.0039,22.977 7.92496,0 31.0025,5.39395 41.5686,11.988l0 7.29141c-19.7103,2.9188 -73.2588,0.748451 -90.3791,-0.0462795l0 -43.932z"/>
   <path id="_250441552" class="fil5" d="M16.6782 73.6307c1.27189,-1.77777 2.9188,-2.90444 5.03649,-2.90444 10.2581,0 4.66306,-14.6419 13.9956,-14.6419 9.34527,0 11.1996,-0.976657 15.8771,8.78672 4.66785,9.76178 8.54096,17.9134 13.9972,16.5952 15.9728,-3.84279 29.33,9.31654 16.8473,15.4206l-65.7536 0.185118 0 -23.4414z"/>
  </g>
 </g>
</svg>
