<?xml version="1.0" encoding="UTF-8"?>
<!DOCTYPE svg PUBLIC "-//W3C//DTD SVG 1.1//EN" "http://www.w3.org/Graphics/SVG/1.1/DTD/svg11.dtd">
<!-- Creator: CorelDRAW X5 -->
<svg xmlns="http://www.w3.org/2000/svg" xml:space="preserve" width="1.01229in" height="1.06031in" style="shape-rendering:geometricPrecision; text-rendering:geometricPrecision; image-rendering:optimizeQuality; fill-rule:evenodd; clip-rule:evenodd"
viewBox="0 0 410 430"
 xmlns:xlink="http://www.w3.org/1999/xlink">
 <defs>
  <style type="text/css">
   <![CDATA[
    .str1 {stroke:white;stroke-width:2.81596}
    .str0 {stroke:#C31920;stroke-width:16.8941;stroke-linecap:round;stroke-linejoin:round}
    .fil1 {fill:none}
    .fil0 {fill:#C31920;fill-rule:nonzero}
   ]]>
  </style>
 </defs>
 <g id="Layer_x0020_1">
  <metadata id="CorelCorpID_0Corel-Layer"/>
  <path class="fil0" d="M60 327c-3,3 -4,5 -5,8 -1,3 -1,6 -1,9 1,3 2,7 4,10 2,3 5,7 8,10 3,3 7,6 10,8 3,2 7,3 10,4 3,1 6,0 9,-1 3,-1 6,-3 9,-6 3,-3 5,-6 7,-9 2,-3 4,-7 6,-11l11 11c-1,2 -2,4 -3,6 -1,2 -2,4 -3,5 -1,2 -2,3 -4,5 -1,2 -3,3 -5,5 -5,5 -10,8 -15,10 -5,2 -10,3 -16,2 -5,0 -10,-2 -16,-5 -5,-3 -10,-7 -15,-12 -5,-5 -9,-10 -11,-15 -3,-5 -4,-11 -5,-16 0,-5 0,-11 3,-16 2,-5 6,-10 10,-15 3,-3 7,-6 11,-8 4,-2 8,-4 12,-6l7 15c-4,1 -7,3 -10,4 -3,2 -6,4 -8,6zm84 24l-64 -64 14 -14 53 53 23 -23 11 11 -37 37zm70 -134c5,5 9,10 12,15 3,5 5,10 5,16 1,5 0,10 -2,16 -2,5 -5,10 -10,15 -5,5 -10,8 -15,10 -5,2 -10,3 -16,2 -5,-1 -10,-2 -16,-5 -5,-3 -10,-7 -15,-12 -5,-5 -9,-10 -12,-15 -3,-5 -5,-10 -5,-16 0,-5 0,-10 2,-16 2,-5 6,-10 10,-15 5,-5 10,-8 15,-10 5,-2 10,-3 16,-2 5,1 10,2 16,5 5,3 10,7 15,12zm-43 43c3,3 7,6 10,8 3,2 6,3 9,4 3,1 6,1 9,0 3,-1 6,-3 8,-5 3,-3 4,-5 5,-8 1,-3 1,-6 0,-9 -1,-3 -2,-6 -4,-9 -2,-3 -5,-7 -8,-10 -3,-3 -7,-6 -10,-8 -3,-2 -6,-3 -9,-4 -3,-1 -6,-1 -9,0 -3,1 -6,3 -8,5 -3,3 -4,5 -5,8 -1,3 -1,6 0,9 1,3 2,6 4,10 2,3 5,7 8,10zm106 -77c3,3 5,6 6,9 1,3 2,7 2,10 0,3 -1,7 -3,11 -2,4 -5,7 -8,11 -3,3 -6,6 -10,8 -4,2 -7,4 -11,5l-13 -13c2,-1 4,-2 6,-2 2,-1 4,-2 6,-3 2,-1 4,-2 6,-3 2,-1 3,-2 5,-4 1,-1 3,-3 3,-4 1,-1 1,-3 1,-4 0,-1 0,-2 -1,-4 -1,-1 -1,-2 -2,-3 -1,-1 -2,-2 -4,-2 -1,0 -3,-1 -5,0 -2,0 -4,0 -6,1 -2,1 -4,1 -7,2 -2,1 -4,1 -7,2 -3,1 -5,1 -8,1 -3,0 -6,-1 -9,-2 -3,-1 -6,-3 -9,-6 -3,-3 -5,-6 -6,-9 -1,-3 -2,-6 -2,-10 0,-3 1,-7 3,-10 2,-3 4,-7 7,-10 2,-2 3,-3 5,-4 2,-1 3,-2 5,-4 2,-1 4,-2 6,-3 2,-1 4,-2 6,-3l6 15c-2,1 -4,1 -5,2 -2,1 -3,1 -5,2 -1,1 -3,2 -4,2 -1,1 -2,2 -3,3 -2,2 -3,5 -3,7 0,2 1,5 3,7 1,1 2,2 3,2 1,0 3,1 4,1 2,0 3,0 5,-1 2,-1 4,-1 7,-2 3,-1 7,-2 10,-2 3,-1 6,-1 9,-1 3,0 5,1 8,2 3,1 5,3 8,5zm67 -31l-37 37 -64 -64 37 -37 11 11 -23 23 14 14 22 -22 11 11 -22 22 17 17 23 -23 11 11zm30 -95c5,5 9,11 12,16 3,6 4,11 4,17 0,6 -1,11 -4,16 -3,5 -7,11 -12,16l-17 17 -64 -64 19 -19c5,-5 10,-8 15,-11 5,-2 10,-4 16,-4 5,0 11,1 16,4 5,2 11,6 16,11zm-13 14c-4,-4 -7,-6 -10,-8 -3,-2 -6,-3 -10,-3 -3,0 -6,0 -9,1 -3,1 -5,3 -8,6l-6 6 42 42 5 -5c6,-6 8,-12 8,-18 -1,-6 -4,-13 -11,-20z"/>
  <path class="fil1 str0" d="M64 234c-1,-6 -1,-12 -1,-17 0,-86 70,-156 156,-156 6,0 12,0 17,1m137 128c2,9 2,18 2,28 0,43 -17,81 -45,110 -28,29 -68,47 -112,47 -9,0 -19,-1 -28,-2"/>
  <path class="fil1 str1" d="M409 46l-4 -4m-35 -35l-5 -5"/>
  <path class="fil1 str1" d="M65 429l-3 -3m-56 -56l-5 -5"/>
 </g>
</svg>
