<?xml version="1.0" encoding="UTF-8"?>
<!DOCTYPE svg PUBLIC "-//W3C//DTD SVG 1.1//EN" "http://www.w3.org/Graphics/SVG/1.1/DTD/svg11.dtd">
<!-- Creator: CorelDRAW X5 -->
<svg xmlns="http://www.w3.org/2000/svg" xml:space="preserve" width="1.01589in" height="1.0554in" style="shape-rendering:geometricPrecision; text-rendering:geometricPrecision; image-rendering:optimizeQuality; fill-rule:evenodd; clip-rule:evenodd"
viewBox="0 0 177 184"
 xmlns:xlink="http://www.w3.org/1999/xlink">
 <defs>
  <style type="text/css">
   <![CDATA[
    .str0 {stroke:#C31920;stroke-width:7.24902;stroke-linecap:round;stroke-linejoin:round}
    .fil1 {fill:none}
    .fil0 {fill:#C31920;fill-rule:nonzero}
   ]]>
  </style>
 </defs>
 <g id="Layer_x0020_1">
  <metadata id="CorelCorpID_0Corel-Layer"/>
  <path class="fil0" d="M35 148c2,2 4,5 5,7 1,2 2,5 2,7 0,2 -1,5 -2,7 -1,2 -3,5 -5,7l-7 7 -27 -27 8 -8c2,-2 4,-4 6,-5 2,-1 4,-2 7,-2 2,0 5,0 7,2 2,1 5,3 7,5zm-6 6c-2,-2 -3,-3 -4,-3 -1,-1 -3,-1 -4,-1 -1,0 -3,0 -4,1 -1,0 -2,1 -3,2l-3 3 18 18 2 -2c2,-2 4,-5 3,-8 0,-3 -2,-6 -5,-9zm41 -14l-16 16 -27 -27 16 -16 5 5 -10 10 6 6 9 -9 5 5 -9 9 7 7 10 -10 5 5zm11 -11l-6 6 -27 -27 16 -16 5 5 -10 10 7 7 9 -9 5 5 -9 9 11 11zm30 -30l-8 -5 -9 9 5 8 -6 6 -19 -37 7 -7 37 19 -6 6zm-15 -8l-8 -4c0,0 -1,0 -1,-1 -1,0 -1,-1 -2,-1 -1,0 -2,-1 -2,-1 -1,0 -1,-1 -2,-1 0,0 0,1 1,1 0,0 1,1 1,1 0,1 1,1 1,2 0,1 1,1 1,2 0,0 1,1 1,1 0,0 0,1 0,1l4 8 7 -7zm17 -49l18 18c1,1 3,3 3,5 1,2 1,3 1,5 0,2 0,4 -1,5 -1,2 -2,4 -4,5 -2,2 -3,3 -5,4 -2,1 -4,1 -5,1 -2,0 -3,0 -5,-1 -2,-1 -3,-2 -5,-3l-18 -18 6 -6 17 17c1,1 2,2 3,2 1,1 2,1 3,1 1,0 2,0 2,0 1,0 2,-1 2,-2 2,-2 2,-3 2,-5 0,-2 -1,-3 -3,-5l-17 -17 6 -6zm34 21l-27 -27 6 -6 23 23 10 -10 5 5 -16 16zm28 -28l-6 6 -23 -23 -7 7 -5 -5 20 -20 5 5 -7 7 23 23z"/>
  <path class="fil1 str0" d="M27 100c0,-2 0,-5 0,-7 0,-37 30,-67 67,-67 3,0 5,0 7,0m59 55c1,4 1,8 1,12 0,18 -7,35 -19,47 -12,12 -29,20 -48,20 -4,0 -8,0 -12,-1"/>
 </g>
</svg>
