<?xml version="1.0" encoding="UTF-8"?>
<!DOCTYPE svg PUBLIC "-//W3C//DTD SVG 1.1//EN" "http://www.w3.org/Graphics/SVG/1.1/DTD/svg11.dtd">
<!-- Creator: CorelDRAW -->
<svg xmlns="http://www.w3.org/2000/svg" xml:space="preserve" width="0.421469in" height="0.42502in" style="shape-rendering:geometricPrecision; text-rendering:geometricPrecision; image-rendering:optimizeQuality; fill-rule:evenodd; clip-rule:evenodd"
viewBox="0 0 1.73285 1.74745"
 xmlns:xlink="http://www.w3.org/1999/xlink">
 <defs>
  <style type="text/css">
   <![CDATA[
    .str0 {stroke:#4C4C4C;stroke-width:0.0999375}
    .fil0 {fill:none;fill-rule:nonzero}
    .fil6 {fill:#4C4C4C;fill-rule:nonzero}
    .fil2 {fill:#999999;fill-rule:nonzero}
    .fil7 {fill:url(#id0);fill-rule:nonzero}
    .fil4 {fill:url(#id1);fill-rule:nonzero}
    .fil3 {fill:url(#id2);fill-rule:nonzero}
    .fil1 {fill:url(#id3);fill-rule:nonzero}
    .fil5 {fill:url(#id4);fill-rule:nonzero}
   ]]>
  </style>
  <linearGradient id="id0" gradientUnits="userSpaceOnUse" x1="0.38298" y1="0.441204" x2="1.1424" y2="0.441204">
   <stop offset="0" style="stop-color:white"/>
   <stop offset="0.811765" style="stop-color:#E3E3E3"/>
   <stop offset="1" style="stop-color:#C6C6C6"/>
  </linearGradient>
  <linearGradient id="id1" gradientUnits="userSpaceOnUse" x1="0.178654" y1="0.698883" x2="0.657687" y2="0.698883">
   <stop offset="0" style="stop-color:#ECECEC"/>
   <stop offset="0.811765" style="stop-color:#ECECEC"/>
   <stop offset="1" style="stop-color:#ECECEC"/>
  </linearGradient>
  <linearGradient id="id2" gradientUnits="userSpaceOnUse" x1="1.08729" y1="0.575248" x2="1.56632" y2="0.575248">
   <stop offset="0" style="stop-color:#ECECEC"/>
   <stop offset="0.811765" style="stop-color:#ECECEC"/>
   <stop offset="1" style="stop-color:#ECECEC"/>
  </linearGradient>
  <linearGradient id="id3" gradientUnits="userSpaceOnUse" x1="0.948386" y1="1.13081" x2="1.69309" y2="1.13081">
   <stop offset="0" style="stop-color:#ECECEC"/>
   <stop offset="0.811765" style="stop-color:#ECECEC"/>
   <stop offset="1" style="stop-color:#ECECEC"/>
  </linearGradient>
  <linearGradient id="id4" gradientUnits="userSpaceOnUse" x1="0.174688" y1="1.30443" x2="1.33182" y2="1.30443">
   <stop offset="0" style="stop-color:white"/>
   <stop offset="0.811765" style="stop-color:#E3E3E3"/>
   <stop offset="1" style="stop-color:#C6C6C6"/>
  </linearGradient>
 </defs>
 <g id="Layer_x0020_1">
  <metadata id="CorelCorpID_0Corel-Layer"/>
  <path class="fil0" d="M1.0391 0.575248c0,0.15698 0.128847,0.283949 0.28764,0.283949 0.158938,0 0.287786,-0.12697 0.287786,-0.283949 0,-0.156802 -0.128847,-0.283933 -0.287786,-0.283933 -0.158793,0 -0.28764,0.127131 -0.28764,0.283933z"/>
  <path class="fil1" d="M1.70069 1.33726c0,0.0256885 -0.0221598,0.0465048 -0.0495155,0.0465048l-0.660941 0c-0.0273719,0 -0.0494346,-0.0208163 -0.0494346,-0.0465048l0.00832003 -0.220222c0,-0.162402 0.0673372,-0.239193 0.154698,-0.239193l0.130126 0c0.0293953,0.00880564 0.0605226,0.013516 0.0927991,0.013516 0.0322927,0 0.0635009,-0.00471037 0.0929124,-0.013516l0.122712 0c0.0764504,0 0.147381,0.069571 0.147381,0.215074l0.0109423 0.24434z"/>
  <path class="fil2" d="M1.73285 1.33726c0,0.0220465 -0.00943692,0.0419401 -0.0246849,0.0562492 -0.01473,0.0138397 -0.0348988,0.0224188 -0.0569938,0.0224188l0 -0.000129495 -0.660941 0 0 0.000129495c-0.022095,0 -0.0422476,-0.00857902 -0.0569453,-0.0224026 -0.0152318,-0.0143253 -0.0246525,-0.0342351 -0.0246525,-0.0562654l0.000129495 -0.00113308 0.00827147 -0.219089 -8.09342e-005 0c0,-0.0839449 0.0173361,-0.147883 0.0461325,-0.192413 0.0343646,-0.0531414 0.0840744,-0.0789432 0.140728,-0.0789432l0.0573176 0c0.0483177,0.0290068 0.10502,0.0456792 0.165607,0.0456792 0.0606359,0 0.117403,-0.0166886 0.165753,-0.0456792l0.0498716 0c0.0510695,0 0.0998889,0.0243612 0.134076,0.0742328 0.0275176,0.0401595 0.0451127,0.0972667 0.0453393,0.171629l0.0109423 0.244324 0.000129495 0.00139207zm-0.0686484 0.00951786c0.00265464,-0.00250896 0.00432188,-0.00589201 0.00432188,-0.00951786l6.47473e-005 0 -0.0108776 -0.242948 0 -0.00139207c0,-0.0609758 -0.0133541,-0.106283 -0.0342837,-0.136827 -0.0212209,-0.0309654 -0.0506972,-0.0460839 -0.0810637,-0.0460839l-0.43855 0c-0.0346884,0 -0.0653948,0.0161868 -0.0869557,0.0495317 -0.0222083,0.0343646 -0.0355787,0.0864539 -0.0355787,0.157498l-0.000129495 0.00113308 -0.00828766 0.219089 9.7121e-005 0c0,0.00365822 0.00163487,0.00704127 0.00428951,0.00953404 0.00315643,0.00297838 0.00775349,0.00482368 0.0129818,0.00482368l0 0.000113308 0.660941 0 0 -0.000113308c0.00526072,0 0.00987397,-0.00186149 0.0130304,-0.00483986z"/>
  <g>
   <path class="fil3" d="M1.08245 0.575248c0,0.133331 0.109423,0.241184 0.244308,0.241184 0.134998,0 0.244437,-0.107853 0.244437,-0.241184 0,-0.133185 -0.109439,-0.241168 -0.244437,-0.241168 -0.134885,0 -0.244308,0.107982 -0.244308,0.241168z"/>
   <path id="1" class="fil2" d="M1.32675 0.784171l0 0.0645207 0 -0.000129495 -0.0140825 -0.00030755 -0.0140502 -0.00106833 -0.0138721 -0.00165106 -0.0135322 -0.00249277 -0.0134674 -0.002946 -0.0131113 -0.00375534 -0.0128523 -0.00428951 -0.0124962 -0.00482368 -0.0123344 -0.00545496 -0.0119297 -0.00607006 -0.0114927 -0.00655567 -0.0112984 -0.00717077 -0.0108452 -0.00759162 -0.0103596 -0.00804486 -0.010133 -0.00857902 -0.00948548 -0.00898369 -0.00924268 -0.00950167 -0.00869233 -0.0100196 -0.00827147 -0.0102463 -0.00768874 -0.0107157 -0.00723551 -0.0111689 -0.00665279 -0.0113632 -0.006151 -0.0119135 -0.0055359 -0.0120754 -0.00500173 -0.0124639 -0.00433807 -0.0127067 -0.00367441 -0.0129818 -0.00310787 -0.0133056 -0.00252515 -0.0133865 -0.00168343 -0.0137264 -0.00106833 -0.0139045 -0.000453231 -0.0140502 0.064715 0 0.000194242 0.0107804 0.000809342 0.0106347 0.00142444 0.0104243 0.00178055 0.0103758 0.0023309 0.0100358 0.00292982 0.00993871 0.00333449 0.00969591 0.00373916 0.00945311 0.00427332 0.00929124 0.00462943 0.00890276 0.00513123 0.00883801 0.00545496 0.00838478 0.00594057 0.00819054 0.00623193 0.00798011 0.00668516 0.0074945 0.00694415 0.00723551 0.00747832 0.00697652 0.00760781 0.00657185 0.00809342 0.0062643 0.00832003 0.00584345 0.00851427 0.00539021 0.0089675 0.0050341 0.00914556 0.00458087 0.00929124 0.00419239 0.0097121 0.00382009 0.00984159 0.00328593 0.0100682 0.00271939 0.0101653 0.0024604 0.0105214 0.00174818 0.01057 0.00139207 0.0107804 0.000809342 0.0110394 0.00030755 0 -0.000129495zm0 0.000129495l0 -6.47473e-005 0 -6.47473e-005 0 0.000129495zm0.212209 -0.209053l0.064456 0 0.000129495 0 -0.000453231 0.0140502 -0.00106833 0.0139045 -0.00168343 0.0137264 -0.00252515 0.0133865 -0.00310787 0.0133056 -0.00367441 0.0129818 -0.00433807 0.0127067 -0.00501792 0.0124639 -0.00551971 0.0120754 -0.00616718 0.0119135 -0.0066366 0.0113632 -0.0072517 0.0111689 -0.00768874 0.0107157 -0.00827147 0.0102463 -0.00869233 0.0100196 -0.00924268 0.00950167 -0.00948548 0.00898369 -0.010133 0.00857902 -0.0103758 0.00804486 -0.0108452 0.00759162 -0.0113146 0.00717077 -0.0114927 0.00655567 -0.0119297 0.00607006 -0.0123506 0.00545496 -0.0124962 0.00482368 -0.0128523 0.00428951 -0.0131275 0.00375534 -0.0134836 0.002946 -0.0135322 0.00249277 -0.0138883 0.00165106 -0.0140502 0.00106833 -0.0140987 0.000437044 0 -0.0645207 0.0110556 -0.000178055 0.0107804 -0.000809342 0.0105862 -0.00139207 0.0105214 -0.00174818 0.0101815 -0.0024604 0.0100844 -0.00271939 0.00984159 -0.00328593 0.0097121 -0.00382009 0.00930743 -0.00419239 0.00914556 -0.00458087 0.0089675 -0.0050341 0.00853046 -0.00539021 0.00832003 -0.00584345 0.0081096 -0.0062643 0.00760781 -0.00657185 0.00747832 -0.00697652 0.00694415 -0.00723551 0.00668516 -0.0074945 0.00623193 -0.00798011 0.00594057 -0.00819054 0.00547115 -0.00838478 0.00511504 -0.00883801 0.00464562 -0.00890276 0.00425714 -0.00929124 0.00375534 -0.00945311 0.00333449 -0.00969591 0.00292982 -0.00993871 0.0023309 -0.0100358 0.00178055 -0.0103758 0.00142444 -0.0104243 0.000809342 -0.0106347 0.000194242 -0.0107804 0.000129495 0zm-0.000129495 0l6.47473e-005 0 6.47473e-005 0 -0.000129495 0zm-0.21208 -0.209037l0 -0.0642617 0 -0.000129495 0.0140987 0.000437044 0.0140502 0.00106833 0.0138883 0.00166724 0.0135322 0.00249277 0.0134836 0.00292982 0.0131275 0.00377153 0.0128523 0.00428951 0.0124962 0.00482368 0.0123506 0.00545496 0.0119297 0.00607006 0.0116221 0.00657185 0.0111851 0.00717077 0.0108452 0.00759162 0.0103758 0.00804486 0.010133 0.00859521 0.00948548 0.00898369 0.00924268 0.00950167 0.00869233 0.0100196 0.00827147 0.0102463 0.00768874 0.0107157 0.0072517 0.0111851 0.0066366 0.011347 0.00616718 0.0119135 0.00551971 0.0120754 0.00501792 0.0124477 0.00433807 0.0127228 0.00367441 0.0129657 0.00310787 0.0132894 0.00252515 0.0133865 0.00168343 0.0137264 0.00106833 0.0138721 0.000323737 0.0140502 -0.064456 0 -0.000323737 -0.0107804 -0.000809342 -0.0106024 -0.00142444 -0.0104243 -0.00178055 -0.0103758 -0.0023309 -0.0100196 -0.00292982 -0.00992253 -0.00333449 -0.0097121 -0.00375534 -0.00943692 -0.00425714 -0.00929124 -0.00464562 -0.00890276 -0.00511504 -0.00882182 -0.00547115 -0.00840097 -0.00594057 -0.00819054 -0.00623193 -0.00798011 -0.00668516 -0.0074945 -0.00694415 -0.00723551 -0.00747832 -0.00697652 -0.00760781 -0.00658804 -0.0081096 -0.0062643 -0.00832003 -0.00584345 -0.00865995 -0.00539021 -0.00883801 -0.00505029 -0.00914556 -0.00458087 -0.00930743 -0.00419239 -0.0097121 -0.00382009 -0.00984159 -0.00328593 -0.0100844 -0.00273557 -0.0101815 -0.00244421 -0.0105214 -0.00174818 -0.0105862 -0.00140825 -0.0107804 -0.000809342 -0.0110556 -0.000178055 0 -0.000129495zm0 0.000129495l0 -6.47473e-005 0 -6.47473e-005 0 0.000129495zm-0.21195 0.208907l-0.064715 0 0.000129495 0 0.000323737 -0.0140502 0.00106833 -0.0138721 0.00168343 -0.0137264 0.00252515 -0.0133865 0.00310787 -0.0132894 0.00367441 -0.0129657 0.00433807 -0.0127228 0.00500173 -0.0124477 0.0055359 -0.0120754 0.006151 -0.0119135 0.00665279 -0.011347 0.00723551 -0.0111851 0.00768874 -0.0107157 0.00827147 -0.0102463 0.00869233 -0.0100196 0.00924268 -0.00950167 0.00948548 -0.00898369 0.0100035 -0.00859521 0.0104891 -0.00804486 0.0108452 -0.00759162 0.0111689 -0.00717077 0.0116221 -0.00657185 0.0119297 -0.00607006 0.0123344 -0.00545496 0.0124962 -0.00482368 0.0128523 -0.00428951 0.0131113 -0.00377153 0.0134674 -0.00292982 0.0135322 -0.00249277 0.0138721 -0.00166724 0.0140502 -0.00106833 0.0140825 -0.00030755 0 0.0642617 -0.0110394 0.00030755 -0.0107804 0.000809342 -0.01057 0.00140825 -0.0105214 0.00174818 -0.0101653 0.00244421 -0.0100682 0.00273557 -0.00984159 0.00328593 -0.0097121 0.00382009 -0.00929124 0.00419239 -0.00914556 0.00458087 -0.00883801 0.00505029 -0.00864377 0.00539021 -0.00832003 0.00584345 -0.00796392 0.0062643 -0.00773731 0.00658804 -0.00747832 0.00697652 -0.00694415 0.00723551 -0.00668516 0.0074945 -0.00623193 0.00798011 -0.00594057 0.00819054 -0.00545496 0.00840097 -0.00513123 0.00882182 -0.00462943 0.00890276 -0.00427332 0.00929124 -0.00373916 0.00943692 -0.00333449 0.0097121 -0.00292982 0.00992253 -0.0023309 0.0100196 -0.00178055 0.0103758 -0.00142444 0.0104243 -0.000809342 0.0106024 -0.000323737 0.0107804 0.000129495 0zm-0.000129495 0l6.47473e-005 0 6.47473e-005 0 -0.000129495 0z"/>
  </g>
  <path class="fil0" d="M0.130466 0.698883c0,0.15698 0.128847,0.283949 0.28764,0.283949 0.158938,0 0.287786,-0.12697 0.287786,-0.283949 0,-0.156802 -0.128847,-0.283933 -0.287786,-0.283933 -0.158793,0 -0.28764,0.127131 -0.28764,0.283933z"/>
  <path class="fil1" d="M0.792054 1.46089c0,0.0256885 -0.0221598,0.0465048 -0.0495155,0.0465048l-0.660941 0c-0.0273719,0 -0.0494346,-0.0208163 -0.0494346,-0.0465048l0.00832003 -0.220222c0,-0.162402 0.0673372,-0.239193 0.154698,-0.239193l0.130126 0c0.0293953,0.00880564 0.0605226,0.013516 0.0927991,0.013516 0.0322927,0 0.0635009,-0.00471037 0.0929124,-0.013516l0.122712 0c0.0764504,0 0.147381,0.069571 0.147381,0.215074l0.0109423 0.24434z"/>
  <path class="fil2" d="M0.824217 1.46089c0,0.0220465 -0.00943692,0.0419401 -0.0246849,0.0562492 -0.01473,0.0138397 -0.0348988,0.0224188 -0.0569938,0.0224188l0 -0.000129495 -0.660941 0 0 0.000129495c-0.022095,0 -0.0422476,-0.00857902 -0.0569453,-0.0224026 -0.0152318,-0.0143253 -0.0246525,-0.0342351 -0.0246525,-0.0562654l0.000129495 -0.00113308 0.00827147 -0.219089 -8.09342e-005 0c0,-0.0839449 0.0173361,-0.147883 0.0461325,-0.192413 0.0343646,-0.0531414 0.0840744,-0.0789432 0.140728,-0.0789432l0.0573176 0c0.0483177,0.0290068 0.10502,0.0456792 0.165607,0.0456792 0.0606359,0 0.117403,-0.0166886 0.165753,-0.0456792l0.0498716 0c0.0510695,0 0.0998889,0.0243612 0.134076,0.0742328 0.0275176,0.0401595 0.0451127,0.0972667 0.0453393,0.171629l0.0109423 0.244324 0.000129495 0.00139207zm-0.0686484 0.00951786c0.00265464,-0.00250896 0.00432188,-0.00589201 0.00432188,-0.00951786l6.47473e-005 0 -0.0108776 -0.242948 0 -0.00139207c0,-0.0609758 -0.0133541,-0.106283 -0.0342837,-0.136827 -0.0212209,-0.0309654 -0.0506972,-0.0460839 -0.0810637,-0.0460839l-0.43855 0c-0.0346884,0 -0.0653948,0.0161868 -0.0869557,0.0495317 -0.0222083,0.0343646 -0.0355787,0.0864539 -0.0355787,0.157498l-0.000129495 0.00113308 -0.00828766 0.219089 9.7121e-005 0c0,0.00365822 0.00163487,0.00704127 0.00428951,0.00953404 0.00315643,0.00297838 0.00775349,0.00482368 0.0129818,0.00482368l0 0.000113308 0.660941 0 0 -0.000113308c0.00526072,0 0.00987397,-0.00186149 0.0130304,-0.00483986z"/>
  <g>
   <path class="fil4" d="M0.173814 0.698883c0,0.133331 0.109423,0.241184 0.244308,0.241184 0.134998,0 0.244437,-0.107853 0.244437,-0.241184 0,-0.133185 -0.109439,-0.241168 -0.244437,-0.241168 -0.134885,0 -0.244308,0.107982 -0.244308,0.241168z"/>
   <path id="1" class="fil2" d="M0.418122 0.907806l0 0.0645207 0 -0.000129495 -0.0140825 -0.00030755 -0.0140502 -0.00106833 -0.0138721 -0.00165106 -0.0135322 -0.00249277 -0.0134674 -0.002946 -0.0131113 -0.00375534 -0.0128523 -0.00428951 -0.0124962 -0.00482368 -0.0123344 -0.00545496 -0.0119297 -0.00607006 -0.0114927 -0.00655567 -0.0112984 -0.00717077 -0.0108452 -0.00759162 -0.0103596 -0.00804486 -0.010133 -0.00857902 -0.00948548 -0.00898369 -0.00924268 -0.00950167 -0.00869233 -0.0100196 -0.00827147 -0.0102463 -0.00768874 -0.0107157 -0.00723551 -0.0111689 -0.00665279 -0.0113632 -0.006151 -0.0119135 -0.0055359 -0.0120754 -0.00500173 -0.0124639 -0.00433807 -0.0127067 -0.00367441 -0.0129818 -0.00310787 -0.0133056 -0.00252515 -0.0133865 -0.00168343 -0.0137264 -0.00106833 -0.0139045 -0.000453231 -0.0140502 0.064715 0 0.000194242 0.0107804 0.000809342 0.0106347 0.00142444 0.0104243 0.00178055 0.0103758 0.0023309 0.0100358 0.00292982 0.00993871 0.00333449 0.00969591 0.00373916 0.00945311 0.00427332 0.00929124 0.00462943 0.00890276 0.00513123 0.00883801 0.00545496 0.00838478 0.00594057 0.00819054 0.00623193 0.00798011 0.00668516 0.0074945 0.00694415 0.00723551 0.00747832 0.00697652 0.00760781 0.00657185 0.00809342 0.0062643 0.00832003 0.00584345 0.00851427 0.00539021 0.0089675 0.0050341 0.00914556 0.00458087 0.00929124 0.00419239 0.0097121 0.00382009 0.00984159 0.00328593 0.0100682 0.00271939 0.0101653 0.0024604 0.0105214 0.00174818 0.01057 0.00139207 0.0107804 0.000809342 0.0110394 0.00030755 0 -0.000129495zm0 0.000129495l0 -6.47473e-005 0 -6.47473e-005 0 0.000129495zm0.212209 -0.209053l0.064456 0 0.000129495 0 -0.000453231 0.0140502 -0.00106833 0.0139045 -0.00168343 0.0137264 -0.00252515 0.0133865 -0.00310787 0.0133056 -0.00367441 0.0129818 -0.00433807 0.0127067 -0.00501792 0.0124639 -0.00551971 0.0120754 -0.00616718 0.0119135 -0.0066366 0.0113632 -0.0072517 0.0111689 -0.00768874 0.0107157 -0.00827147 0.0102463 -0.00869233 0.0100196 -0.00924268 0.00950167 -0.00948548 0.00898369 -0.010133 0.00857902 -0.0103758 0.00804486 -0.0108452 0.00759162 -0.0113146 0.00717077 -0.0114927 0.00655567 -0.0119297 0.00607006 -0.0123506 0.00545496 -0.0124962 0.00482368 -0.0128523 0.00428951 -0.0131275 0.00375534 -0.0134836 0.002946 -0.0135322 0.00249277 -0.0138883 0.00165106 -0.0140502 0.00106833 -0.0140987 0.000437044 0 -0.0645207 0.0110556 -0.000178055 0.0107804 -0.000809342 0.0105862 -0.00139207 0.0105214 -0.00174818 0.0101815 -0.0024604 0.0100844 -0.00271939 0.00984159 -0.00328593 0.0097121 -0.00382009 0.00930743 -0.00419239 0.00914556 -0.00458087 0.0089675 -0.0050341 0.00853046 -0.00539021 0.00832003 -0.00584345 0.0081096 -0.0062643 0.00760781 -0.00657185 0.00747832 -0.00697652 0.00694415 -0.00723551 0.00668516 -0.0074945 0.00623193 -0.00798011 0.00594057 -0.00819054 0.00547115 -0.00838478 0.00511504 -0.00883801 0.00464562 -0.00890276 0.00425714 -0.00929124 0.00375534 -0.00945311 0.00333449 -0.00969591 0.00292982 -0.00993871 0.0023309 -0.0100358 0.00178055 -0.0103758 0.00142444 -0.0104243 0.000809342 -0.0106347 0.000194242 -0.0107804 0.000129495 0zm-0.000129495 0l6.47473e-005 0 6.47473e-005 0 -0.000129495 0zm-0.21208 -0.209037l0 -0.0642617 0 -0.000129495 0.0140987 0.000437044 0.0140502 0.00106833 0.0138883 0.00166724 0.0135322 0.00249277 0.0134836 0.00292982 0.0131275 0.00377153 0.0128523 0.00428951 0.0124962 0.00482368 0.0123506 0.00545496 0.0119297 0.00607006 0.0116221 0.00657185 0.0111851 0.00717077 0.0108452 0.00759162 0.0103758 0.00804486 0.010133 0.00859521 0.00948548 0.00898369 0.00924268 0.00950167 0.00869233 0.0100196 0.00827147 0.0102463 0.00768874 0.0107157 0.0072517 0.0111851 0.0066366 0.011347 0.00616718 0.0119135 0.00551971 0.0120754 0.00501792 0.0124477 0.00433807 0.0127228 0.00367441 0.0129657 0.00310787 0.0132894 0.00252515 0.0133865 0.00168343 0.0137264 0.00106833 0.0138721 0.000323737 0.0140502 -0.064456 0 -0.000323737 -0.0107804 -0.000809342 -0.0106024 -0.00142444 -0.0104243 -0.00178055 -0.0103758 -0.0023309 -0.0100196 -0.00292982 -0.00992253 -0.00333449 -0.0097121 -0.00375534 -0.00943692 -0.00425714 -0.00929124 -0.00464562 -0.00890276 -0.00511504 -0.00882182 -0.00547115 -0.00840097 -0.00594057 -0.00819054 -0.00623193 -0.00798011 -0.00668516 -0.0074945 -0.00694415 -0.00723551 -0.00747832 -0.00697652 -0.00760781 -0.00658804 -0.0081096 -0.0062643 -0.00832003 -0.00584345 -0.00865995 -0.00539021 -0.00883801 -0.00505029 -0.00914556 -0.00458087 -0.00930743 -0.00419239 -0.0097121 -0.00382009 -0.00984159 -0.00328593 -0.0100844 -0.00273557 -0.0101815 -0.00244421 -0.0105214 -0.00174818 -0.0105862 -0.00140825 -0.0107804 -0.000809342 -0.0110556 -0.000178055 0 -0.000129495zm0 0.000129495l0 -6.47473e-005 0 -6.47473e-005 0 0.000129495zm-0.21195 0.208907l-0.064715 0 0.000129495 0 0.000323737 -0.0140502 0.00106833 -0.0138721 0.00168343 -0.0137264 0.00252515 -0.0133865 0.00310787 -0.0132894 0.00367441 -0.0129657 0.00433807 -0.0127228 0.00500173 -0.0124477 0.0055359 -0.0120754 0.006151 -0.0119135 0.00665279 -0.011347 0.00723551 -0.0111851 0.00768874 -0.0107157 0.00827147 -0.0102463 0.00869233 -0.0100196 0.00924268 -0.00950167 0.00948548 -0.00898369 0.0100035 -0.00859521 0.0104891 -0.00804486 0.0108452 -0.00759162 0.0111689 -0.00717077 0.0116221 -0.00657185 0.0119297 -0.00607006 0.0123344 -0.00545496 0.0124962 -0.00482368 0.0128523 -0.00428951 0.0131113 -0.00377153 0.0134674 -0.00292982 0.0135322 -0.00249277 0.0138721 -0.00166724 0.0140502 -0.00106833 0.0140825 -0.00030755 0 0.0642617 -0.0110394 0.00030755 -0.0107804 0.000809342 -0.01057 0.00140825 -0.0105214 0.00174818 -0.0101653 0.00244421 -0.0100682 0.00273557 -0.00984159 0.00328593 -0.0097121 0.00382009 -0.00929124 0.00419239 -0.00914556 0.00458087 -0.00883801 0.00505029 -0.00864377 0.00539021 -0.00832003 0.00584345 -0.00796392 0.0062643 -0.00773731 0.00658804 -0.00747832 0.00697652 -0.00694415 0.00723551 -0.00668516 0.0074945 -0.00623193 0.00798011 -0.00594057 0.00819054 -0.00545496 0.00840097 -0.00513123 0.00882182 -0.00462943 0.00890276 -0.00427332 0.00929124 -0.00373916 0.00943692 -0.00333449 0.0097121 -0.00292982 0.00992253 -0.0023309 0.0100196 -0.00178055 0.0103758 -0.00142444 0.0104243 -0.000809342 0.0106024 -0.000323737 0.0107804 0.000129495 0zm-0.000129495 0l6.47473e-005 0 6.47473e-005 0 -0.000129495 0z"/>
  </g>
  <g>
   <path class="fil0" d="M0.315643 0.441204c0,0.243903 0.200199,0.441204 0.446935,0.441204 0.246962,0 0.447161,-0.197301 0.447161,-0.441204 0,-0.243644 -0.200199,-0.441204 -0.447161,-0.441204 -0.246736,0 -0.446935,0.19756 -0.446935,0.441204z"/>
   <path class="fil5" d="M1.34362 1.62521c0,0.0399329 -0.0344456,0.0722742 -0.076936,0.0722742l-1.02697 0c-0.042539,0 -0.0768227,-0.0323413 -0.0768227,-0.0722742l0.0129333 -0.342173c0,-0.252337 0.104615,-0.371666 0.240374,-0.371666l0.20219 0c0.0456631,0.0136779 0.0940455,0.0210105 0.144192,0.0210105 0.0501792,0 0.0986749,-0.00733263 0.14437,-0.0210105l0.190665 0c0.118795,0 0.228995,0.108112 0.228995,0.334193l0.0170124 0.379646z"/>
   <path class="fil6" d="M1.39359 1.62521c0,0.0342513 -0.0146653,0.0651844 -0.0383466,0.0874089 -0.0228882,0.0215123 -0.0542259,0.0348341 -0.0885582,0.0348341l0 -0.000194242 -1.02697 0 0 0.000194242c-0.0343485,0 -0.0656538,-0.0133218 -0.0884934,-0.0348017 -0.0236651,-0.0222569 -0.038298,-0.0532061 -0.038298,-0.0874413l0.000194242 -0.00176436 0.0128685 -0.340409 -0.000129495 0c0,-0.130433 0.0269187,-0.229772 0.0716753,-0.298987 0.0533842,-0.0825528 0.130644,-0.122648 0.218668,-0.122648l0.0890438 0c0.0750907,0.0450641 0.163196,0.0709793 0.257338,0.0709793 0.0942074,0 0.182426,-0.0259313 0.257549,-0.0709793l0.0774864 0c0.0793478,0 0.155216,0.0378448 0.208325,0.115347 0.0427494,0.062384 0.0701052,0.15112 0.0704451,0.266662l0.0170124 0.379646 0.000194242 0.00215285zm-0.106655 0.0147948c0.00412764,-0.00388484 0.00671753,-0.00914556 0.00671753,-0.0147948l9.7121e-005 0 -0.0169152 -0.377493 0 -0.00215285c0,-0.0947415 -0.0207353,-0.165154 -0.0532547,-0.212614 -0.0329726,-0.0481073 -0.0787813,-0.0716105 -0.125966,-0.0716105l-0.681417 0c-0.0539021,0 -0.101621,0.0251543 -0.135111,0.0769684 -0.0345265,0.0534004 -0.0552942,0.134351 -0.0552942,0.244729l-0.000194242 0.00176436 -0.0128685 0.340409 0.000129495 0c0,0.00569776 0.00255752,0.0109585 0.00666897,0.0148271 0.00490461,0.00461325 0.0120592,0.00747832 0.020185,0.00747832l0 0.000194242 1.02697 0 0 -0.000194242c0.00817435,0 0.0153289,-0.00288126 0.0202497,-0.00751069z"/>
   <path class="fil7 str0" d="M0.38298 0.441204c0,0.207159 0.170043,0.374741 0.379614,0.374741 0.209765,0 0.379808,-0.167582 0.379808,-0.374741 0,-0.206949 -0.170043,-0.374741 -0.379808,-0.374741 -0.209571,0 -0.379614,0.167793 -0.379614,0.374741z"/>
   <path class="fil0" d="M0.487402 0.909473c0.0692958,0.0539993 0.168068,0.0877488 0.277604,0.0877488 0.109633,0 0.208373,-0.0337495 0.277701,-0.0877488"/>
   <path class="fil6" d="M1.34362 1.62521c0,0.0399329 -0.0344456,0.0722742 -0.076936,0.0722742l-1.02697 0c-0.042539,0 -0.0768227,-0.0323413 -0.0768227,-0.0722742l0.0129333 -0.342173c0,-0.252337 0.104615,-0.371666 0.240374,-0.371666l0.0697329 0 0.0321147 -0.0411307c0.0304312,0.0236975 0.068098,0.0430893 0.110815,0.0565892 0.0415516,0.0131275 0.0876031,0.0204278 0.136147,0.0204278 0.0485767,0 0.0946444,-0.00730026 0.136196,-0.0204116 0.0424419,-0.0134027 0.080141,-0.0328916 0.110864,-0.0567996l0.0321147 0.041325 0.0534327 0c0.118795,0 0.228995,0.108112 0.228995,0.334193l0.0170124 0.379646zm-0.375777 -0.54548l-0.433823 0c0.0136941,0.197593 0.0605873,0.488341 0.216564,0.556827l0.000534165 0 0 0c0.155944,-0.0684865 0.202999,-0.359234 0.216725,-0.556827z"/>
   <path class="fil6" d="M0.481979 0.126435l-0.17328 0 -0.0848028 0c-0.0176275,0 -0.0319204,-0.014293 -0.0319204,-0.0319204l0 -0.047476c0,-0.0176275 0.014293,-0.0319204 0.0319204,-0.0319204l1.07736 0c0.0176275,0 0.0319204,0.014293 0.0319204,0.0319204l0 0.000841715 0 0.0466343c0,0.0176275 -0.014293,0.0319204 -0.0319204,0.0319204l-0.000793155 0 -0.0755116 0 -0.180208 0c0.0391398,0.0350121 0.0728246,0.077195 0.099371,0.124849l-0.0357081 0.0697491 -0.000598913 0 -0.68964 0 -0.0356434 -0.0697491c0.026514,-0.047654 0.0602636,-0.0898369 0.0994519,-0.124849z"/>
  </g>
 </g>
</svg>
