<?xml version="1.0" encoding="UTF-8"?>
<!DOCTYPE svg PUBLIC "-//W3C//DTD SVG 1.1//EN" "http://www.w3.org/Graphics/SVG/1.1/DTD/svg11.dtd">
<!-- Creator: CorelDRAW -->
<svg xmlns="http://www.w3.org/2000/svg" xml:space="preserve" width="0.421469in" height="0.42502in" style="shape-rendering:geometricPrecision; text-rendering:geometricPrecision; image-rendering:optimizeQuality; fill-rule:evenodd; clip-rule:evenodd"
viewBox="0 0 1.93569 1.952"
 xmlns:xlink="http://www.w3.org/1999/xlink">
 <defs>
  <style type="text/css">
   <![CDATA[
    .str0 {stroke:#4C4C4C;stroke-width:0.111636}
    .fil0 {fill:none;fill-rule:nonzero}
    .fil6 {fill:#4C4C4C;fill-rule:nonzero}
    .fil9 {fill:#656565;fill-rule:nonzero}
    .fil8 {fill:#666666;fill-rule:nonzero}
    .fil2 {fill:#999999;fill-rule:nonzero}
    .fil7 {fill:url(#id0);fill-rule:nonzero}
    .fil4 {fill:url(#id1);fill-rule:nonzero}
    .fil3 {fill:url(#id2);fill-rule:nonzero}
    .fil1 {fill:url(#id3);fill-rule:nonzero}
    .fil5 {fill:url(#id4);fill-rule:nonzero}
   ]]>
  </style>
  <linearGradient id="id0" gradientUnits="userSpaceOnUse" x1="0.42781" y1="0.49285" x2="1.27613" y2="0.49285">
   <stop offset="0" style="stop-color:white"/>
   <stop offset="0.811765" style="stop-color:#E3E3E3"/>
   <stop offset="1" style="stop-color:#C6C6C6"/>
  </linearGradient>
  <linearGradient id="id1" gradientUnits="userSpaceOnUse" x1="0.199567" y1="0.780691" x2="0.734673" y2="0.780691">
   <stop offset="0" style="stop-color:#ECECEC"/>
   <stop offset="0.811765" style="stop-color:#ECECEC"/>
   <stop offset="1" style="stop-color:#ECECEC"/>
  </linearGradient>
  <linearGradient id="id2" gradientUnits="userSpaceOnUse" x1="1.21456" y1="0.642584" x2="1.74967" y2="0.642584">
   <stop offset="0" style="stop-color:#ECECEC"/>
   <stop offset="0.811765" style="stop-color:#ECECEC"/>
   <stop offset="1" style="stop-color:#ECECEC"/>
  </linearGradient>
  <linearGradient id="id3" gradientUnits="userSpaceOnUse" x1="1.0594" y1="1.26318" x2="1.89128" y2="1.26318">
   <stop offset="0" style="stop-color:#ECECEC"/>
   <stop offset="0.811765" style="stop-color:#ECECEC"/>
   <stop offset="1" style="stop-color:#ECECEC"/>
  </linearGradient>
  <linearGradient id="id4" gradientUnits="userSpaceOnUse" x1="0.195137" y1="1.45712" x2="1.48772" y2="1.45712">
   <stop offset="0" style="stop-color:white"/>
   <stop offset="0.811765" style="stop-color:#E3E3E3"/>
   <stop offset="1" style="stop-color:#C6C6C6"/>
  </linearGradient>
 </defs>
 <g id="Layer_x0020_1">
  <metadata id="CorelCorpID_0Corel-Layer"/>
  <path class="fil0" d="M1.16073 0.642584c0,0.175355 0.143929,0.317187 0.32131,0.317187 0.177543,0 0.321473,-0.141832 0.321473,-0.317187 0,-0.175156 -0.143929,-0.317169 -0.321473,-0.317169 -0.17738,0 -0.32131,0.142013 -0.32131,0.317169z"/>
  <path class="fil1" d="M1.89976 1.49379c0,0.0286955 -0.0247537,0.0519484 -0.0553116,0.0519484l-0.738308 0c-0.030576,0 -0.0552212,-0.0232529 -0.0552212,-0.0519484l0.00929394 -0.246c0,-0.181413 0.0752194,-0.267192 0.172806,-0.267192l0.145358 0c0.0328362,0.00983639 0.0676071,0.0150981 0.103662,0.0150981 0.0360728,0 0.0709341,-0.00526174 0.103788,-0.0150981l0.137077 0c0.0853994,0 0.164633,0.0777147 0.164633,0.24025l0.0122232 0.272942z"/>
  <path class="fil2" d="M1.93569 1.49379c0,0.0246271 -0.0105416,0.0468494 -0.0275744,0.0628335 -0.0164542,0.0154598 -0.0389839,0.025043 -0.0636653,0.025043l0 -0.000144653 -0.738308 0 0 0.000144653c-0.0246814,0 -0.047193,-0.00958324 -0.063611,-0.0250249 -0.0170148,-0.0160022 -0.0275383,-0.0382426 -0.0275383,-0.0628516l0.000144653 -0.00126571 0.00923969 -0.244734 -9.0408e-005 0c0,-0.0937711 0.0193654,-0.165193 0.0515325,-0.214936 0.0383872,-0.0593619 0.0939158,-0.0881839 0.157201,-0.0881839l0.0640269 0c0.0539735,0.0324022 0.117313,0.0510262 0.184993,0.0510262 0.0677336,0 0.131146,-0.0186421 0.185155,-0.0510262l0.0557094 0c0.0570474,0 0.111581,0.0272128 0.14977,0.0829222 0.0307387,0.0448604 0.0503934,0.108652 0.0506465,0.191719l0.0122232 0.272924 0.000144653 0.00155502zm-0.076684 0.010632c0.00296538,-0.00280265 0.00482778,-0.0065817 0.00482778,-0.010632l7.23264e-005 0 -0.0121508 -0.271387 0 -0.00155502c0,-0.0681134 -0.0149173,-0.118724 -0.0382968,-0.152844 -0.023705,-0.0345901 -0.0566315,-0.0514783 -0.0905526,-0.0514783l-0.489885 0c-0.0387488,0 -0.0730496,0.0180816 -0.0971343,0.0553297 -0.0248079,0.0383872 -0.0397433,0.0965738 -0.0397433,0.175934l-0.000144653 0.00126571 -0.00925777 0.244734 0.00010849 0c0,0.00408644 0.00182624,0.00786549 0.00479162,0.0106501 0.00352591,0.00332701 0.00866108,0.00538831 0.0145014,0.00538831l0 0.000126571 0.738308 0 0 -0.000126571c0.00587652,0 0.0110298,-0.00207938 0.0145557,-0.0054064z"/>
  <g>
   <path class="fil3" d="M1.20915 0.642584c0,0.148938 0.122232,0.269416 0.272905,0.269416 0.1508,0 0.27305,-0.120478 0.27305,-0.269416 0,-0.148775 -0.12225,-0.269398 -0.27305,-0.269398 -0.150674,0 -0.272905,0.120622 -0.272905,0.269398z"/>
   <path id="1" class="fil2" d="M1.48206 0.875963l0 0.0720732 0 -0.000144653 -0.015731 -0.00034355 -0.0156948 -0.00119339 -0.0154959 -0.00184432 -0.0151162 -0.00278457 -0.0150439 -0.00329085 -0.0146461 -0.00419493 -0.0143568 -0.00479162 -0.013959 -0.00538831 -0.0137782 -0.0060935 -0.0133261 -0.0067806 -0.0128379 -0.00732304 -0.012621 -0.00801014 -0.0121147 -0.00848027 -0.0115722 -0.00898655 -0.0113191 -0.00958324 -0.0105958 -0.0100353 -0.0103246 -0.0106139 -0.00970981 -0.0111925 -0.00923969 -0.0114456 -0.00858876 -0.01197 -0.00808247 -0.0124763 -0.00743153 -0.0126933 -0.006871 -0.0133081 -0.0061839 -0.0134889 -0.00558721 -0.0139228 -0.00484587 -0.014194 -0.00410452 -0.0145014 -0.00347167 -0.0148631 -0.00282073 -0.0149535 -0.00188049 -0.0153332 -0.00119339 -0.0155321 -0.000506285 -0.0156948 0.0722902 0 0.000216979 0.0120423 0.00090408 0.0118796 0.00159118 0.0116445 0.00198898 0.0115903 0.00260375 0.0112106 0.00327277 0.0111021 0.00372481 0.0108309 0.00417685 0.0105596 0.00477354 0.0103788 0.00517134 0.00994488 0.00573186 0.00987255 0.0060935 0.00936626 0.00663594 0.00914929 0.00696141 0.00891422 0.0074677 0.00837178 0.007757 0.00808247 0.0083537 0.00779317 0.00849835 0.00734113 0.0090408 0.00699758 0.00929394 0.00652745 0.00951092 0.00602117 0.0100172 0.00562337 0.0102161 0.00511709 0.0103788 0.00468313 0.010849 0.00426726 0.0109936 0.00367056 0.0112467 0.00303771 0.0113552 0.0027484 0.011753 0.00195281 0.0118073 0.00155502 0.0120423 0.00090408 0.0123316 0.00034355 0 -0.000144653zm0 0.000144653l0 -7.23264e-005 0 -7.23264e-005 0 0.000144653zm0.23705 -0.233524l0.0720009 0 0.000144653 0 -0.000506285 0.0156948 -0.00119339 0.0155321 -0.00188049 0.0153332 -0.00282073 0.0149535 -0.00347167 0.0148631 -0.00410452 0.0145014 -0.00484587 0.014194 -0.00560529 0.0139228 -0.00616582 0.0134889 -0.00688909 0.0133081 -0.00741345 0.0126933 -0.00810055 0.0124763 -0.00858876 0.01197 -0.00923969 0.0114456 -0.00970981 0.0111925 -0.0103246 0.0106139 -0.0105958 0.0100353 -0.0113191 0.00958324 -0.0115903 0.00898655 -0.0121147 0.00848027 -0.012639 0.00801014 -0.0128379 0.00732304 -0.0133261 0.0067806 -0.0137963 0.0060935 -0.013959 0.00538831 -0.0143568 0.00479162 -0.0146642 0.00419493 -0.015062 0.00329085 -0.0151162 0.00278457 -0.015514 0.00184432 -0.0156948 0.00119339 -0.0157491 0.000488203 0 -0.0720732 0.0123497 -0.000198898 0.0120423 -0.00090408 0.0118254 -0.00155502 0.011753 -0.00195281 0.0113733 -0.0027484 0.0112648 -0.00303771 0.0109936 -0.00367056 0.010849 -0.00426726 0.0103969 -0.00468313 0.0102161 -0.00511709 0.0100172 -0.00562337 0.009529 -0.00602117 0.00929394 -0.00652745 0.00905888 -0.00699758 0.00849835 -0.00734113 0.0083537 -0.00779317 0.007757 -0.00808247 0.0074677 -0.00837178 0.00696141 -0.00891422 0.00663594 -0.00914929 0.00611158 -0.00936626 0.00571378 -0.00987255 0.00518942 -0.00994488 0.00475546 -0.0103788 0.00419493 -0.0105596 0.00372481 -0.0108309 0.00327277 -0.0111021 0.00260375 -0.0112106 0.00198898 -0.0115903 0.00159118 -0.0116445 0.00090408 -0.0118796 0.000216979 -0.0120423 0.000144653 0zm-0.000144653 0l7.23264e-005 0 7.23264e-005 0 -0.000144653 0zm-0.236905 -0.233506l0 -0.0717839 0 -0.000144653 0.0157491 0.000488203 0.0156948 0.00119339 0.015514 0.0018624 0.0151162 0.00278457 0.015062 0.00327277 0.0146642 0.00421301 0.0143568 0.00479162 0.013959 0.00538831 0.0137963 0.0060935 0.0133261 0.0067806 0.0129826 0.00734113 0.0124944 0.00801014 0.0121147 0.00848027 0.0115903 0.00898655 0.0113191 0.00960132 0.0105958 0.0100353 0.0103246 0.0106139 0.00970981 0.0111925 0.00923969 0.0114456 0.00858876 0.01197 0.00810055 0.0124944 0.00741345 0.0126752 0.00688909 0.0133081 0.00616582 0.0134889 0.00560529 0.0139047 0.00484587 0.0142121 0.00410452 0.0144834 0.00347167 0.014845 0.00282073 0.0149535 0.00188049 0.0153332 0.00119339 0.0154959 0.000361632 0.0156948 -0.0720009 0 -0.000361632 -0.0120423 -0.00090408 -0.0118434 -0.00159118 -0.0116445 -0.00198898 -0.0115903 -0.00260375 -0.0111925 -0.00327277 -0.011084 -0.00372481 -0.010849 -0.00419493 -0.0105416 -0.00475546 -0.0103788 -0.00518942 -0.00994488 -0.00571378 -0.00985447 -0.00611158 -0.00938435 -0.00663594 -0.00914929 -0.00696141 -0.00891422 -0.0074677 -0.00837178 -0.007757 -0.00808247 -0.0083537 -0.00779317 -0.00849835 -0.00735921 -0.00905888 -0.00699758 -0.00929394 -0.00652745 -0.00967365 -0.00602117 -0.00987255 -0.00564146 -0.0102161 -0.00511709 -0.0103969 -0.00468313 -0.010849 -0.00426726 -0.0109936 -0.00367056 -0.0112648 -0.00305579 -0.0113733 -0.00273032 -0.011753 -0.00195281 -0.0118254 -0.0015731 -0.0120423 -0.00090408 -0.0123497 -0.000198898 0 -0.000144653zm0 0.000144653l0 -7.23264e-005 0 -7.23264e-005 0 0.000144653zm-0.23676 0.233361l-0.0722902 0 0.000144653 0 0.000361632 -0.0156948 0.00119339 -0.0154959 0.00188049 -0.0153332 0.00282073 -0.0149535 0.00347167 -0.014845 0.00410452 -0.0144834 0.00484587 -0.0142121 0.00558721 -0.0139047 0.0061839 -0.0134889 0.006871 -0.0133081 0.00743153 -0.0126752 0.00808247 -0.0124944 0.00858876 -0.01197 0.00923969 -0.0114456 0.00970981 -0.0111925 0.0103246 -0.0106139 0.0105958 -0.0100353 0.0111744 -0.00960132 0.0117169 -0.00898655 0.0121147 -0.00848027 0.0124763 -0.00801014 0.0129826 -0.00734113 0.0133261 -0.0067806 0.0137782 -0.0060935 0.013959 -0.00538831 0.0143568 -0.00479162 0.0146461 -0.00421301 0.0150439 -0.00327277 0.0151162 -0.00278457 0.0154959 -0.0018624 0.0156948 -0.00119339 0.015731 -0.00034355 0 0.0717839 -0.0123316 0.00034355 -0.0120423 0.00090408 -0.0118073 0.0015731 -0.011753 0.00195281 -0.0113552 0.00273032 -0.0112467 0.00305579 -0.0109936 0.00367056 -0.010849 0.00426726 -0.0103788 0.00468313 -0.0102161 0.00511709 -0.00987255 0.00564146 -0.00965557 0.00602117 -0.00929394 0.00652745 -0.00889614 0.00699758 -0.008643 0.00735921 -0.0083537 0.00779317 -0.007757 0.00808247 -0.0074677 0.00837178 -0.00696141 0.00891422 -0.00663594 0.00914929 -0.0060935 0.00938435 -0.00573186 0.00985447 -0.00517134 0.00994488 -0.00477354 0.0103788 -0.00417685 0.0105416 -0.00372481 0.010849 -0.00327277 0.011084 -0.00260375 0.0111925 -0.00198898 0.0115903 -0.00159118 0.0116445 -0.00090408 0.0118434 -0.000361632 0.0120423 0.000144653 0zm-0.000144653 0l7.23264e-005 0 7.23264e-005 0 -0.000144653 0z"/>
  </g>
  <path class="fil0" d="M0.145738 0.780691c0,0.175355 0.143929,0.317187 0.32131,0.317187 0.177543,0 0.321473,-0.141832 0.321473,-0.317187 0,-0.175156 -0.143929,-0.317169 -0.321473,-0.317169 -0.17738,0 -0.32131,0.142013 -0.32131,0.317169z"/>
  <path class="fil1" d="M0.884768 1.6319c0,0.0286955 -0.0247537,0.0519484 -0.0553116,0.0519484l-0.738308 0c-0.030576,0 -0.0552212,-0.0232529 -0.0552212,-0.0519484l0.00929394 -0.246c0,-0.181413 0.0752194,-0.267192 0.172806,-0.267192l0.145358 0c0.0328362,0.00983639 0.0676071,0.0150981 0.103662,0.0150981 0.0360728,0 0.0709341,-0.00526174 0.103788,-0.0150981l0.137077 0c0.0853994,0 0.164633,0.0777147 0.164633,0.24025l0.0122232 0.272942z"/>
  <path class="fil2" d="M0.920697 1.6319c0,0.0246271 -0.0105416,0.0468494 -0.0275744,0.0628335 -0.0164542,0.0154598 -0.0389839,0.025043 -0.0636653,0.025043l0 -0.000144653 -0.738308 0 0 0.000144653c-0.0246814,0 -0.047193,-0.00958324 -0.063611,-0.0250249 -0.0170148,-0.0160022 -0.0275383,-0.0382426 -0.0275383,-0.0628516l0.000144653 -0.00126571 0.00923969 -0.244734 -9.0408e-005 0c0,-0.0937711 0.0193654,-0.165193 0.0515325,-0.214936 0.0383872,-0.0593619 0.0939158,-0.0881839 0.157201,-0.0881839l0.0640269 0c0.0539735,0.0324022 0.117313,0.0510262 0.184993,0.0510262 0.0677336,0 0.131146,-0.0186421 0.185155,-0.0510262l0.0557094 0c0.0570474,0 0.111581,0.0272128 0.14977,0.0829222 0.0307387,0.0448604 0.0503934,0.108652 0.0506465,0.191719l0.0122232 0.272924 0.000144653 0.00155502zm-0.076684 0.010632c0.00296538,-0.00280265 0.00482778,-0.0065817 0.00482778,-0.010632l7.23264e-005 0 -0.0121508 -0.271387 0 -0.00155502c0,-0.0681134 -0.0149173,-0.118724 -0.0382968,-0.152844 -0.023705,-0.0345901 -0.0566315,-0.0514783 -0.0905526,-0.0514783l-0.489885 0c-0.0387488,0 -0.0730496,0.0180816 -0.0971343,0.0553297 -0.0248079,0.0383872 -0.0397433,0.0965738 -0.0397433,0.175934l-0.000144653 0.00126571 -0.00925777 0.244734 0.00010849 0c0,0.00408644 0.00182624,0.00786549 0.00479162,0.0106501 0.00352591,0.00332701 0.00866108,0.00538831 0.0145014,0.00538831l0 0.000126571 0.738308 0 0 -0.000126571c0.00587652,0 0.0110298,-0.00207938 0.0145557,-0.0054064z"/>
  <g>
   <path class="fil4" d="M0.19416 0.780691c0,0.148938 0.122232,0.269416 0.272905,0.269416 0.1508,0 0.27305,-0.120478 0.27305,-0.269416 0,-0.148775 -0.12225,-0.269398 -0.27305,-0.269398 -0.150674,0 -0.272905,0.120622 -0.272905,0.269398z"/>
   <path id="1" class="fil2" d="M0.467066 1.01407l0 0.0720732 0 -0.000144653 -0.015731 -0.00034355 -0.0156948 -0.00119339 -0.0154959 -0.00184432 -0.0151162 -0.00278457 -0.0150439 -0.00329085 -0.0146461 -0.00419493 -0.0143568 -0.00479162 -0.013959 -0.00538831 -0.0137782 -0.0060935 -0.0133261 -0.0067806 -0.0128379 -0.00732304 -0.012621 -0.00801014 -0.0121147 -0.00848027 -0.0115722 -0.00898655 -0.0113191 -0.00958324 -0.0105958 -0.0100353 -0.0103246 -0.0106139 -0.00970981 -0.0111925 -0.00923969 -0.0114456 -0.00858876 -0.01197 -0.00808247 -0.0124763 -0.00743153 -0.0126933 -0.006871 -0.0133081 -0.0061839 -0.0134889 -0.00558721 -0.0139228 -0.00484587 -0.014194 -0.00410452 -0.0145014 -0.00347167 -0.0148631 -0.00282073 -0.0149535 -0.00188049 -0.0153332 -0.00119339 -0.0155321 -0.000506285 -0.0156948 0.0722902 0 0.000216979 0.0120423 0.00090408 0.0118796 0.00159118 0.0116445 0.00198898 0.0115903 0.00260375 0.0112106 0.00327277 0.0111021 0.00372481 0.0108309 0.00417685 0.0105596 0.00477354 0.0103788 0.00517134 0.00994488 0.00573186 0.00987255 0.0060935 0.00936626 0.00663594 0.00914929 0.00696141 0.00891422 0.0074677 0.00837178 0.007757 0.00808247 0.0083537 0.00779317 0.00849835 0.00734113 0.0090408 0.00699758 0.00929394 0.00652745 0.00951092 0.00602117 0.0100172 0.00562337 0.0102161 0.00511709 0.0103788 0.00468313 0.010849 0.00426726 0.0109936 0.00367056 0.0112467 0.00303771 0.0113552 0.0027484 0.011753 0.00195281 0.0118073 0.00155502 0.0120423 0.00090408 0.0123316 0.00034355 0 -0.000144653zm0 0.000144653l0 -7.23264e-005 0 -7.23264e-005 0 0.000144653zm0.23705 -0.233524l0.0720009 0 0.000144653 0 -0.000506285 0.0156948 -0.00119339 0.0155321 -0.00188049 0.0153332 -0.00282073 0.0149535 -0.00347167 0.0148631 -0.00410452 0.0145014 -0.00484587 0.014194 -0.00560529 0.0139228 -0.00616582 0.0134889 -0.00688909 0.0133081 -0.00741345 0.0126933 -0.00810055 0.0124763 -0.00858876 0.01197 -0.00923969 0.0114456 -0.00970981 0.0111925 -0.0103246 0.0106139 -0.0105958 0.0100353 -0.0113191 0.00958324 -0.0115903 0.00898655 -0.0121147 0.00848027 -0.012639 0.00801014 -0.0128379 0.00732304 -0.0133261 0.0067806 -0.0137963 0.0060935 -0.013959 0.00538831 -0.0143568 0.00479162 -0.0146642 0.00419493 -0.015062 0.00329085 -0.0151162 0.00278457 -0.015514 0.00184432 -0.0156948 0.00119339 -0.0157491 0.000488203 0 -0.0720732 0.0123497 -0.000198898 0.0120423 -0.00090408 0.0118254 -0.00155502 0.011753 -0.00195281 0.0113733 -0.0027484 0.0112648 -0.00303771 0.0109936 -0.00367056 0.010849 -0.00426726 0.0103969 -0.00468313 0.0102161 -0.00511709 0.0100172 -0.00562337 0.009529 -0.00602117 0.00929394 -0.00652745 0.00905888 -0.00699758 0.00849835 -0.00734113 0.0083537 -0.00779317 0.007757 -0.00808247 0.0074677 -0.00837178 0.00696141 -0.00891422 0.00663594 -0.00914929 0.00611158 -0.00936626 0.00571378 -0.00987255 0.00518942 -0.00994488 0.00475546 -0.0103788 0.00419493 -0.0105596 0.00372481 -0.0108309 0.00327277 -0.0111021 0.00260375 -0.0112106 0.00198898 -0.0115903 0.00159118 -0.0116445 0.00090408 -0.0118796 0.000216979 -0.0120423 0.000144653 0zm-0.000144653 0l7.23264e-005 0 7.23264e-005 0 -0.000144653 0zm-0.236905 -0.233506l0 -0.0717839 0 -0.000144653 0.0157491 0.000488203 0.0156948 0.00119339 0.015514 0.0018624 0.0151162 0.00278457 0.015062 0.00327277 0.0146642 0.00421301 0.0143568 0.00479162 0.013959 0.00538831 0.0137963 0.0060935 0.0133261 0.0067806 0.0129826 0.00734113 0.0124944 0.00801014 0.0121147 0.00848027 0.0115903 0.00898655 0.0113191 0.00960132 0.0105958 0.0100353 0.0103246 0.0106139 0.00970981 0.0111925 0.00923969 0.0114456 0.00858876 0.01197 0.00810055 0.0124944 0.00741345 0.0126752 0.00688909 0.0133081 0.00616582 0.0134889 0.00560529 0.0139047 0.00484587 0.0142121 0.00410452 0.0144834 0.00347167 0.014845 0.00282073 0.0149535 0.00188049 0.0153332 0.00119339 0.0154959 0.000361632 0.0156948 -0.0720009 0 -0.000361632 -0.0120423 -0.00090408 -0.0118434 -0.00159118 -0.0116445 -0.00198898 -0.0115903 -0.00260375 -0.0111925 -0.00327277 -0.011084 -0.00372481 -0.010849 -0.00419493 -0.0105416 -0.00475546 -0.0103788 -0.00518942 -0.00994488 -0.00571378 -0.00985447 -0.00611158 -0.00938435 -0.00663594 -0.00914929 -0.00696141 -0.00891422 -0.0074677 -0.00837178 -0.007757 -0.00808247 -0.0083537 -0.00779317 -0.00849835 -0.00735921 -0.00905888 -0.00699758 -0.00929394 -0.00652745 -0.00967365 -0.00602117 -0.00987255 -0.00564146 -0.0102161 -0.00511709 -0.0103969 -0.00468313 -0.010849 -0.00426726 -0.0109936 -0.00367056 -0.0112648 -0.00305579 -0.0113733 -0.00273032 -0.011753 -0.00195281 -0.0118254 -0.0015731 -0.0120423 -0.00090408 -0.0123497 -0.000198898 0 -0.000144653zm0 0.000144653l0 -7.23264e-005 0 -7.23264e-005 0 0.000144653zm-0.23676 0.233361l-0.0722902 0 0.000144653 0 0.000361632 -0.0156948 0.00119339 -0.0154959 0.00188049 -0.0153332 0.00282073 -0.0149535 0.00347167 -0.014845 0.00410452 -0.0144834 0.00484587 -0.0142121 0.00558721 -0.0139047 0.0061839 -0.0134889 0.006871 -0.0133081 0.00743153 -0.0126752 0.00808247 -0.0124944 0.00858876 -0.01197 0.00923969 -0.0114456 0.00970981 -0.0111925 0.0103246 -0.0106139 0.0105958 -0.0100353 0.0111744 -0.00960132 0.0117169 -0.00898655 0.0121147 -0.00848027 0.0124763 -0.00801014 0.0129826 -0.00734113 0.0133261 -0.0067806 0.0137782 -0.0060935 0.013959 -0.00538831 0.0143568 -0.00479162 0.0146461 -0.00421301 0.0150439 -0.00327277 0.0151162 -0.00278457 0.0154959 -0.0018624 0.0156948 -0.00119339 0.015731 -0.00034355 0 0.0717839 -0.0123316 0.00034355 -0.0120423 0.00090408 -0.0118073 0.0015731 -0.011753 0.00195281 -0.0113552 0.00273032 -0.0112467 0.00305579 -0.0109936 0.00367056 -0.010849 0.00426726 -0.0103788 0.00468313 -0.0102161 0.00511709 -0.00987255 0.00564146 -0.00965557 0.00602117 -0.00929394 0.00652745 -0.00889614 0.00699758 -0.008643 0.00735921 -0.0083537 0.00779317 -0.007757 0.00808247 -0.0074677 0.00837178 -0.00696141 0.00891422 -0.00663594 0.00914929 -0.0060935 0.00938435 -0.00573186 0.00985447 -0.00517134 0.00994488 -0.00477354 0.0103788 -0.00417685 0.0105416 -0.00372481 0.010849 -0.00327277 0.011084 -0.00260375 0.0111925 -0.00198898 0.0115903 -0.00159118 0.0116445 -0.00090408 0.0118434 -0.000361632 0.0120423 0.000144653 0zm-0.000144653 0l7.23264e-005 0 7.23264e-005 0 -0.000144653 0z"/>
  </g>
  <g>
   <path class="fil0" d="M0.352591 0.49285c0,0.272453 0.223633,0.49285 0.499251,0.49285 0.275871,0 0.499504,-0.220397 0.499504,-0.49285 0,-0.272164 -0.223633,-0.49285 -0.499504,-0.49285 -0.275618,0 -0.499251,0.220686 -0.499251,0.49285z"/>
   <path class="fil5" d="M1.5009 1.81545c0,0.0446073 -0.0384776,0.0807343 -0.0859418,0.0807343l-1.14719 0c-0.0475184,0 -0.0858152,-0.036127 -0.0858152,-0.0807343l0.0144472 -0.382227c0,-0.281874 0.116861,-0.415171 0.268512,-0.415171l0.225857 0c0.0510082,0.0152789 0.105054,0.0234699 0.161071,0.0234699 0.0560529,0 0.110225,-0.00819096 0.16127,-0.0234699l0.212983 0c0.132701,0 0.2558,0.120767 0.2558,0.373313l0.0190038 0.424086z"/>
   <path class="fil6" d="M1.55672 1.81545c0,0.0382606 -0.0163819,0.0728146 -0.0428353,0.0976406 -0.0255674,0.0240304 -0.0605733,0.0389116 -0.0989244,0.0389116l0 -0.000216979 -1.14719 0 0 0.000216979c-0.0383691,0 -0.0733389,-0.0148811 -0.0988521,-0.0388754 -0.0264353,-0.0248622 -0.042781,-0.0594342 -0.042781,-0.0976768l0.000216979 -0.00197089 0.0143749 -0.380256 -0.000144653 0c0,-0.145701 0.0300697,-0.256668 0.0800653,-0.333985 0.0596331,-0.0922161 0.145937,-0.137004 0.244264,-0.137004l0.0994668 0c0.0838805,0.0503391 0.182299,0.0792878 0.287461,0.0792878 0.105235,0 0.20378,-0.0289667 0.287696,-0.0792878l0.0865566 0c0.088636,0 0.173384,0.0422748 0.23271,0.128849 0.0477535,0.0696865 0.0783114,0.16881 0.0786911,0.297876l0.0190038 0.424086 0.000216979 0.00240485zm-0.11914 0.0165266c0.00461081,-0.00433958 0.00750386,-0.0102161 0.00750386,-0.0165266l0.00010849 0 -0.0188953 -0.421681 0 -0.00240485c0,-0.105832 -0.0231625,-0.184486 -0.0594884,-0.237502 -0.0368322,-0.0537385 -0.0880031,-0.079993 -0.140711,-0.079993l-0.761181 0c-0.0602117,0 -0.113516,0.0280988 -0.150927,0.085978 -0.038568,0.0596512 -0.0617667,0.150077 -0.0617667,0.273376l-0.000216979 0.00197089 -0.0143749 0.380256 0.000144653 0c0,0.00636472 0.00285689,0.0122412 0.00744962,0.0165627 0.00547872,0.00515325 0.0134708,0.0083537 0.0225477,0.0083537l0 0.000216979 1.14719 0 0 -0.000216979c0.0091312,0 0.0171233,-0.00321852 0.0226201,-0.00838986z"/>
   <path class="fil7 str0" d="M0.42781 0.49285c0,0.231408 0.189947,0.418607 0.424049,0.418607 0.234319,0 0.424266,-0.187199 0.424266,-0.418607 0,-0.231173 -0.189947,-0.418607 -0.424266,-0.418607 -0.234102,0 -0.424049,0.187434 -0.424049,0.418607z"/>
   <path class="fil6" d="M1.5009 1.81545c0,0.0446073 -0.0384776,0.0807343 -0.0859418,0.0807343l-0.300209 0 0 -0.878132 0.111346 0c0.132701,0 0.2558,0.120767 0.2558,0.373313l0.0190038 0.424086zm-0.911782 0.0807343l-0.321346 0c-0.0475184,0 -0.0858152,-0.036127 -0.0858152,-0.0807343l0.0144472 -0.382227c0,-0.281874 0.116861,-0.415171 0.268512,-0.415171l0.124202 0 0 0.878132z"/>
   <g>
    <polygon class="fil8" points="0.933643,1.07387 0.845513,1.22651 0.757384,1.07387 "/>
    <path class="fil8" d="M0.923572 1.23098c0,0.0430884 -0.0349336,0.0780763 -0.0780582,0.0780763 -0.0431246,0 -0.0780763,-0.0349879 -0.0780763,-0.0780763 0,-0.0431427 0.0349517,-0.0780944 0.0780763,-0.0780944 0.0431246,0 0.0780582,0.0349517 0.0780582,0.0780944z"/>
    <polygon class="fil9" points="0.845513,1.83136 0.730261,1.71609 0.845513,1.1193 0.960765,1.71609 "/>
   </g>
  </g>
 </g>
</svg>
