<?xml version="1.0" encoding="UTF-8"?>
<!DOCTYPE svg PUBLIC "-//W3C//DTD SVG 1.1//EN" "http://www.w3.org/Graphics/SVG/1.1/DTD/svg11.dtd">
<!-- Creator: CorelDRAW -->
<svg xmlns="http://www.w3.org/2000/svg" xml:space="preserve" width="0.421469in" height="0.42502in" style="shape-rendering:geometricPrecision; text-rendering:geometricPrecision; image-rendering:optimizeQuality; fill-rule:evenodd; clip-rule:evenodd"
viewBox="0 0 6.45362 6.508"
 xmlns:xlink="http://www.w3.org/1999/xlink">
 <defs>
  <style type="text/css">
   <![CDATA[
    .fil0 {fill:none;fill-rule:nonzero}
    .fil6 {fill:#4C4C4C;fill-rule:nonzero}
    .fil2 {fill:#999999;fill-rule:nonzero}
    .fil7 {fill:#FFF9DB;fill-rule:nonzero}
    .fil8 {fill:#4C4C4C;fill-rule:nonzero;fill-opacity:0.219608}
    .fil4 {fill:url(#id0);fill-rule:nonzero}
    .fil3 {fill:url(#id1);fill-rule:nonzero}
    .fil1 {fill:url(#id2);fill-rule:nonzero}
    .fil5 {fill:url(#id3);fill-rule:nonzero}
   ]]>
  </style>
  <linearGradient id="id0" gradientUnits="userSpaceOnUse" x1="0.665359" y1="2.60284" x2="2.44941" y2="2.60284">
   <stop offset="0" style="stop-color:#ECECEC"/>
   <stop offset="0.811765" style="stop-color:#ECECEC"/>
   <stop offset="1" style="stop-color:#ECECEC"/>
  </linearGradient>
  <linearGradient id="id1" gradientUnits="userSpaceOnUse" x1="4.04936" y1="2.14239" x2="5.83342" y2="2.14239">
   <stop offset="0" style="stop-color:#ECECEC"/>
   <stop offset="0.811765" style="stop-color:#ECECEC"/>
   <stop offset="1" style="stop-color:#ECECEC"/>
  </linearGradient>
  <linearGradient id="id2" gradientUnits="userSpaceOnUse" x1="3.53206" y1="4.21147" x2="6.30556" y2="4.21147">
   <stop offset="0" style="stop-color:#ECECEC"/>
   <stop offset="0.811765" style="stop-color:#ECECEC"/>
   <stop offset="1" style="stop-color:#ECECEC"/>
  </linearGradient>
  <linearGradient id="id3" gradientUnits="userSpaceOnUse" x1="0.650589" y1="4.85808" x2="4.96008" y2="4.85808">
   <stop offset="0" style="stop-color:white"/>
   <stop offset="0.811765" style="stop-color:#E3E3E3"/>
   <stop offset="1" style="stop-color:#C6C6C6"/>
  </linearGradient>
 </defs>
 <g id="Layer_x0020_1">
  <metadata id="CorelCorpID_0Corel-Layer"/>
  <path class="fil0" d="M3.86989 2.14239c0,0.584638 0.479864,1.05751 1.07125,1.05751 0.591932,0 1.0718,-0.472871 1.0718,-1.05751 0,-0.583975 -0.479864,-1.05745 -1.0718,-1.05745 -0.59139,0 -1.07125,0.473473 -1.07125,1.05745z"/>
  <path class="fil1" d="M6.33384 4.98033c0,0.0956713 -0.0825293,0.173197 -0.18441,0.173197l-2.46153 0c-0.101941,0 -0.184108,-0.0775257 -0.184108,-0.173197l0.0309862 -0.820169c0,-0.604833 0.250783,-0.890822 0.576138,-0.890822l0.484626 0c0.109476,0.0327947 0.225403,0.0503374 0.34561,0.0503374 0.120267,0 0.236496,-0.0175428 0.346032,-0.0503374l0.457016 0c0.284723,0 0.548889,0.259102 0.548889,0.800998l0.0407522 0.909993z"/>
  <path class="fil2" d="M6.45362 4.98033c0,0.0821073 -0.0351458,0.156197 -0.0919337,0.209488 -0.0548588,0.0515431 -0.129973,0.0834938 -0.212261,0.0834938l0 -0.000482275 -2.46153 0 0 0.000482275c-0.0822882,0 -0.157342,-0.0319507 -0.21208,-0.0834336 -0.0567276,-0.0533517 -0.0918131,-0.127501 -0.0918131,-0.209548l0.000482275 -0.00421991 0.0308053 -0.815949 -0.000301422 0c0,-0.312635 0.0645646,-0.550758 0.17181,-0.7166 0.127984,-0.197914 0.313117,-0.294007 0.524112,-0.294007l0.213467 0c0.179949,0.10803 0.391125,0.170122 0.616769,0.170122 0.225825,0 0.437243,-0.0621532 0.617312,-0.170122l0.185736 0c0.190197,0 0.372015,0.090728 0.499335,0.276464 0.102483,0.149566 0.168013,0.362249 0.168857,0.639195l0.0407522 0.909932 0.000482275 0.00518446zm-0.255666 0.0354472c0.00988664,-0.00934408 0.0160959,-0.0219435 0.0160959,-0.0354472l0.000241137 0 -0.0405111 -0.904808 0 -0.00518446c0,-0.227091 -0.0497346,-0.395827 -0.127682,-0.509584 -0.0790328,-0.115324 -0.188811,-0.17163 -0.301904,-0.17163l-1.63328 0c-0.129189,0 -0.243549,0.0602844 -0.323848,0.18447 -0.0827102,0.127984 -0.132505,0.321979 -0.132505,0.586567l-0.000482275 0.00421991 -0.0308656 0.815949 0.000361706 0c0,0.0136243 0.00608872,0.0262237 0.0159754,0.0355075 0.0117555,0.0110923 0.0288762,0.0179647 0.0483481,0.0179647l0 0.000421991 2.46153 0 0 -0.000421991c0.0195924,0 0.0367735,-0.0069327 0.0485289,-0.018025z"/>
  <g>
   <path class="fil3" d="M4.03134 2.14239c0,0.496562 0.407522,0.898237 0.909872,0.898237 0.502772,0 0.910354,-0.401675 0.910354,-0.898237 0,-0.49602 -0.407583,-0.898177 -0.910354,-0.898177 -0.50235,0 -0.909872,0.402157 -0.909872,0.898177z"/>
   <path id="1" class="fil2" d="M4.94121 2.92048l0 0.240293 0 -0.000482275 -0.0524474 -0.0011454 -0.0523268 -0.00397877 -0.0516637 -0.00614901 -0.0503977 -0.00928379 -0.0501566 -0.0109718 -0.0488303 -0.013986 -0.0478658 -0.0159754 -0.0465395 -0.0179647 -0.0459367 -0.0203158 -0.0444296 -0.0226066 -0.0428019 -0.0244152 -0.0420785 -0.026706 -0.0403905 -0.0282734 -0.038582 -0.0299613 -0.037738 -0.0319507 -0.0353266 -0.0334578 -0.0344224 -0.0353869 -0.0323727 -0.037316 -0.0308053 -0.03816 -0.0286351 -0.0399083 -0.0269471 -0.0415962 -0.0247769 -0.0423196 -0.0229081 -0.0443693 -0.0206173 -0.0449721 -0.0186279 -0.046419 -0.0161562 -0.0473232 -0.0136846 -0.0483481 -0.0115746 -0.0495537 -0.00940436 -0.0498552 -0.00626957 -0.0511211 -0.00397877 -0.0517843 -0.00168796 -0.0523268 0.241017 0 0.000723412 0.0401494 0.00301422 0.0396068 0.00530502 0.0388231 0.00663128 0.0386423 0.00868095 0.0373763 0.0109115 0.0370146 0.0124186 0.0361103 0.0139257 0.0352061 0.0159151 0.0346032 0.0172413 0.0331564 0.0191101 0.0329153 0.0203158 0.0312273 0.0221244 0.0305039 0.0232095 0.0297202 0.0248974 0.0279117 0.025862 0.0269471 0.0278514 0.0259826 0.0283337 0.0244755 0.0301422 0.02333 0.0309862 0.0217627 0.0317096 0.0200747 0.0333975 0.0187484 0.0340607 0.0170605 0.0346032 0.0156137 0.0361706 0.0142271 0.0366529 0.0122377 0.0374969 0.0101278 0.0378586 0.00916322 0.0391848 0.00651071 0.0393657 0.00518446 0.0401494 0.00301422 0.0411139 0.0011454 0 -0.000482275zm0 0.000482275l0 -0.000241137 0 -0.000241137 0 0.000482275zm0.790328 -0.778573l0.240052 0 0.000482275 0 -0.00168796 0.0523268 -0.00397877 0.0517843 -0.00626957 0.0511211 -0.00940436 0.0498552 -0.0115746 0.0495537 -0.0136846 0.0483481 -0.0161562 0.0473232 -0.0186882 0.046419 -0.020557 0.0449721 -0.0229683 0.0443693 -0.0247166 0.0423196 -0.0270074 0.0415962 -0.0286351 0.0399083 -0.0308053 0.03816 -0.0323727 0.037316 -0.0344224 0.0353869 -0.0353266 0.0334578 -0.037738 0.0319507 -0.0386423 0.0299613 -0.0403905 0.0282734 -0.0421388 0.026706 -0.0428019 0.0244152 -0.0444296 0.0226066 -0.045997 0.0203158 -0.0465395 0.0179647 -0.0478658 0.0159754 -0.0488906 0.013986 -0.0502169 0.0109718 -0.0503977 0.00928379 -0.051724 0.00614901 -0.0523268 0.00397877 -0.0525077 0.00162768 0 -0.240293 0.0411742 -0.000663128 0.0401494 -0.00301422 0.039426 -0.00518446 0.0391848 -0.00651071 0.0379189 -0.00916322 0.0375572 -0.0101278 0.0366529 -0.0122377 0.0361706 -0.0142271 0.0346635 -0.0156137 0.0340607 -0.0170605 0.0333975 -0.0187484 0.0317699 -0.0200747 0.0309862 -0.0217627 0.0302025 -0.02333 0.0283337 -0.0244755 0.0278514 -0.0259826 0.025862 -0.0269471 0.0248974 -0.0279117 0.0232095 -0.0297202 0.0221244 -0.0305039 0.0203761 -0.0312273 0.0190499 -0.0329153 0.0173016 -0.0331564 0.0158548 -0.0346032 0.013986 -0.0352061 0.0124186 -0.0361103 0.0109115 -0.0370146 0.00868095 -0.0373763 0.00663128 -0.0386423 0.00530502 -0.0388231 0.00301422 -0.0396068 0.000723412 -0.0401494 0.000482275 0zm-0.000482275 0l0.000241137 0 0.000241137 0 -0.000482275 0zm-0.789846 -0.778512l0 -0.239329 0 -0.000482275 0.0525077 0.00162768 0.0523268 0.00397877 0.051724 0.00620929 0.0503977 0.00928379 0.0502169 0.0109115 0.0488906 0.0140463 0.0478658 0.0159754 0.0465395 0.0179647 0.045997 0.0203158 0.0444296 0.0226066 0.0432842 0.0244755 0.0416565 0.026706 0.0403905 0.0282734 0.0386423 0.0299613 0.037738 0.032011 0.0353266 0.0334578 0.0344224 0.0353869 0.0323727 0.037316 0.0308053 0.03816 0.0286351 0.0399083 0.0270074 0.0416565 0.0247166 0.0422593 0.0229683 0.0443693 0.020557 0.0449721 0.0186882 0.0463587 0.0161562 0.0473835 0.0136846 0.0482878 0.0115746 0.0494935 0.00940436 0.0498552 0.00626957 0.0511211 0.00397877 0.0516637 0.00120569 0.0523268 -0.240052 0 -0.00120569 -0.0401494 -0.00301422 -0.0394863 -0.00530502 -0.0388231 -0.00663128 -0.0386423 -0.00868095 -0.037316 -0.0109115 -0.0369543 -0.0124186 -0.0361706 -0.013986 -0.0351458 -0.0158548 -0.0346032 -0.0173016 -0.0331564 -0.0190499 -0.032855 -0.0203761 -0.0312876 -0.0221244 -0.0305039 -0.0232095 -0.0297202 -0.0248974 -0.0279117 -0.025862 -0.0269471 -0.0278514 -0.0259826 -0.0283337 -0.0245357 -0.0302025 -0.02333 -0.0309862 -0.0217627 -0.0322521 -0.0200747 -0.0329153 -0.0188087 -0.0340607 -0.0170605 -0.0346635 -0.0156137 -0.0361706 -0.0142271 -0.0366529 -0.0122377 -0.0375572 -0.0101881 -0.0379189 -0.00910294 -0.0391848 -0.00651071 -0.039426 -0.00524474 -0.0401494 -0.00301422 -0.0411742 -0.000663128 0 -0.000482275zm0 0.000482275l0 -0.000241137 0 -0.000241137 0 0.000482275zm-0.789363 0.77803l-0.241017 0 0.000482275 0 0.00120569 -0.0523268 0.00397877 -0.0516637 0.00626957 -0.0511211 0.00940436 -0.0498552 0.0115746 -0.0494935 0.0136846 -0.0482878 0.0161562 -0.0473835 0.0186279 -0.0463587 0.0206173 -0.0449721 0.0229081 -0.0443693 0.0247769 -0.0422593 0.0269471 -0.0416565 0.0286351 -0.0399083 0.0308053 -0.03816 0.0323727 -0.037316 0.0344224 -0.0353869 0.0353266 -0.0334578 0.0372557 -0.032011 0.0390643 -0.0299613 0.0403905 -0.0282734 0.0415962 -0.026706 0.0432842 -0.0244755 0.0444296 -0.0226066 0.0459367 -0.0203158 0.0465395 -0.0179647 0.0478658 -0.0159754 0.0488303 -0.0140463 0.0501566 -0.0109115 0.0503977 -0.00928379 0.0516637 -0.00620929 0.0523268 -0.00397877 0.0524474 -0.0011454 0 0.239329 -0.0411139 0.0011454 -0.0401494 0.00301422 -0.0393657 0.00524474 -0.0391848 0.00651071 -0.0378586 0.00910294 -0.0374969 0.0101881 -0.0366529 0.0122377 -0.0361706 0.0142271 -0.0346032 0.0156137 -0.0340607 0.0170605 -0.0329153 0.0188087 -0.0321919 0.0200747 -0.0309862 0.0217627 -0.0296599 0.02333 -0.0288159 0.0245357 -0.0278514 0.0259826 -0.025862 0.0269471 -0.0248974 0.0279117 -0.0232095 0.0297202 -0.0221244 0.0305039 -0.0203158 0.0312876 -0.0191101 0.032855 -0.0172413 0.0331564 -0.0159151 0.0346032 -0.0139257 0.0351458 -0.0124186 0.0361706 -0.0109115 0.0369543 -0.00868095 0.037316 -0.00663128 0.0386423 -0.00530502 0.0388231 -0.00301422 0.0394863 -0.00120569 0.0401494 0.000482275 0zm-0.000482275 0l0.000241137 0 0.000241137 0 -0.000482275 0z"/>
  </g>
  <path class="fil0" d="M0.485892 2.60284c0,0.584638 0.479864,1.05751 1.07125,1.05751 0.591932,0 1.0718,-0.472871 1.0718,-1.05751 0,-0.583975 -0.479864,-1.05745 -1.0718,-1.05745 -0.59139,0 -1.07125,0.473473 -1.07125,1.05745z"/>
  <path class="fil1" d="M2.94983 5.44078c0,0.0956713 -0.0825293,0.173197 -0.18441,0.173197l-2.46153 0c-0.101941,0 -0.184108,-0.0775257 -0.184108,-0.173197l0.0309862 -0.820169c0,-0.604833 0.250783,-0.890822 0.576138,-0.890822l0.484626 0c0.109476,0.0327947 0.225403,0.0503374 0.34561,0.0503374 0.120267,0 0.236496,-0.0175428 0.346032,-0.0503374l0.457016 0c0.284723,0 0.548889,0.259102 0.548889,0.800998l0.0407522 0.909993z"/>
  <path class="fil2" d="M3.06962 5.44078c0,0.0821073 -0.0351458,0.156197 -0.0919337,0.209488 -0.0548588,0.0515431 -0.129973,0.0834938 -0.212261,0.0834938l0 -0.000482275 -2.46153 0 0 0.000482275c-0.0822882,0 -0.157342,-0.0319507 -0.21208,-0.0834336 -0.0567276,-0.0533517 -0.0918131,-0.127501 -0.0918131,-0.209548l0.000482275 -0.00421991 0.0308053 -0.815949 -0.000301422 0c0,-0.312635 0.0645646,-0.550758 0.17181,-0.7166 0.127984,-0.197914 0.313117,-0.294007 0.524112,-0.294007l0.213467 0c0.179949,0.10803 0.391125,0.170122 0.616769,0.170122 0.225825,0 0.437243,-0.0621532 0.617312,-0.170122l0.185736 0c0.190197,0 0.372015,0.090728 0.499335,0.276464 0.102483,0.149566 0.168013,0.362249 0.168857,0.639195l0.0407522 0.909932 0.000482275 0.00518446zm-0.255666 0.0354472c0.00988664,-0.00934408 0.0160959,-0.0219435 0.0160959,-0.0354472l0.000241137 0 -0.0405111 -0.904808 0 -0.00518446c0,-0.227091 -0.0497346,-0.395827 -0.127682,-0.509584 -0.0790328,-0.115324 -0.188811,-0.17163 -0.301904,-0.17163l-1.63328 0c-0.129189,0 -0.243549,0.0602844 -0.323848,0.18447 -0.0827102,0.127984 -0.132505,0.321979 -0.132505,0.586567l-0.000482275 0.00421991 -0.0308656 0.815949 0.000361706 0c0,0.0136243 0.00608872,0.0262237 0.0159754,0.0355075 0.0117555,0.0110923 0.0288762,0.0179647 0.0483481,0.0179647l0 0.000421991 2.46153 0 0 -0.000421991c0.0195924,0 0.0367735,-0.0069327 0.0485289,-0.018025z"/>
  <g>
   <path class="fil4" d="M0.647334 2.60284c0,0.496562 0.407522,0.898237 0.909872,0.898237 0.502772,0 0.910354,-0.401675 0.910354,-0.898237 0,-0.49602 -0.407583,-0.898177 -0.910354,-0.898177 -0.50235,0 -0.909872,0.402157 -0.909872,0.898177z"/>
   <path id="1" class="fil2" d="M1.55721 3.38093l0 0.240293 0 -0.000482275 -0.0524474 -0.0011454 -0.0523268 -0.00397877 -0.0516637 -0.00614901 -0.0503977 -0.00928379 -0.0501566 -0.0109718 -0.0488303 -0.013986 -0.0478658 -0.0159754 -0.0465395 -0.0179647 -0.0459367 -0.0203158 -0.0444296 -0.0226066 -0.0428019 -0.0244152 -0.0420785 -0.026706 -0.0403905 -0.0282734 -0.038582 -0.0299613 -0.037738 -0.0319507 -0.0353266 -0.0334578 -0.0344224 -0.0353869 -0.0323727 -0.037316 -0.0308053 -0.03816 -0.0286351 -0.0399083 -0.0269471 -0.0415962 -0.0247769 -0.0423196 -0.0229081 -0.0443693 -0.0206173 -0.0449721 -0.0186279 -0.046419 -0.0161562 -0.0473232 -0.0136846 -0.0483481 -0.0115746 -0.0495537 -0.00940436 -0.0498552 -0.00626957 -0.0511211 -0.00397877 -0.0517843 -0.00168796 -0.0523268 0.241017 0 0.000723412 0.0401494 0.00301422 0.0396068 0.00530502 0.0388231 0.00663128 0.0386423 0.00868095 0.0373763 0.0109115 0.0370146 0.0124186 0.0361103 0.0139257 0.0352061 0.0159151 0.0346032 0.0172413 0.0331564 0.0191101 0.0329153 0.0203158 0.0312273 0.0221244 0.0305039 0.0232095 0.0297202 0.0248974 0.0279117 0.025862 0.0269471 0.0278514 0.0259826 0.0283337 0.0244755 0.0301422 0.02333 0.0309862 0.0217627 0.0317096 0.0200747 0.0333975 0.0187484 0.0340607 0.0170605 0.0346032 0.0156137 0.0361706 0.0142271 0.0366529 0.0122377 0.0374969 0.0101278 0.0378586 0.00916322 0.0391848 0.00651071 0.0393657 0.00518446 0.0401494 0.00301422 0.0411139 0.0011454 0 -0.000482275zm0 0.000482275l0 -0.000241137 0 -0.000241137 0 0.000482275zm0.790328 -0.778573l0.240052 0 0.000482275 0 -0.00168796 0.0523268 -0.00397877 0.0517843 -0.00626957 0.0511211 -0.00940436 0.0498552 -0.0115746 0.0495537 -0.0136846 0.0483481 -0.0161562 0.0473232 -0.0186882 0.046419 -0.020557 0.0449721 -0.0229683 0.0443693 -0.0247166 0.0423196 -0.0270074 0.0415962 -0.0286351 0.0399083 -0.0308053 0.03816 -0.0323727 0.037316 -0.0344224 0.0353869 -0.0353266 0.0334578 -0.037738 0.0319507 -0.0386423 0.0299613 -0.0403905 0.0282734 -0.0421388 0.026706 -0.0428019 0.0244152 -0.0444296 0.0226066 -0.045997 0.0203158 -0.0465395 0.0179647 -0.0478658 0.0159754 -0.0488906 0.013986 -0.0502169 0.0109718 -0.0503977 0.00928379 -0.051724 0.00614901 -0.0523268 0.00397877 -0.0525077 0.00162768 0 -0.240293 0.0411742 -0.000663128 0.0401494 -0.00301422 0.039426 -0.00518446 0.0391848 -0.00651071 0.0379189 -0.00916322 0.0375572 -0.0101278 0.0366529 -0.0122377 0.0361706 -0.0142271 0.0346635 -0.0156137 0.0340607 -0.0170605 0.0333975 -0.0187484 0.0317699 -0.0200747 0.0309862 -0.0217627 0.0302025 -0.02333 0.0283337 -0.0244755 0.0278514 -0.0259826 0.025862 -0.0269471 0.0248974 -0.0279117 0.0232095 -0.0297202 0.0221244 -0.0305039 0.0203761 -0.0312273 0.0190499 -0.0329153 0.0173016 -0.0331564 0.0158548 -0.0346032 0.013986 -0.0352061 0.0124186 -0.0361103 0.0109115 -0.0370146 0.00868095 -0.0373763 0.00663128 -0.0386423 0.00530502 -0.0388231 0.00301422 -0.0396068 0.000723412 -0.0401494 0.000482275 0zm-0.000482275 0l0.000241137 0 0.000241137 0 -0.000482275 0zm-0.789846 -0.778512l0 -0.239329 0 -0.000482275 0.0525077 0.00162768 0.0523268 0.00397877 0.051724 0.00620929 0.0503977 0.00928379 0.0502169 0.0109115 0.0488906 0.0140463 0.0478658 0.0159754 0.0465395 0.0179647 0.045997 0.0203158 0.0444296 0.0226066 0.0432842 0.0244755 0.0416565 0.026706 0.0403905 0.0282734 0.0386423 0.0299613 0.037738 0.032011 0.0353266 0.0334578 0.0344224 0.0353869 0.0323727 0.037316 0.0308053 0.03816 0.0286351 0.0399083 0.0270074 0.0416565 0.0247166 0.0422593 0.0229683 0.0443693 0.020557 0.0449721 0.0186882 0.0463587 0.0161562 0.0473835 0.0136846 0.0482878 0.0115746 0.0494935 0.00940436 0.0498552 0.00626957 0.0511211 0.00397877 0.0516637 0.00120569 0.0523268 -0.240052 0 -0.00120569 -0.0401494 -0.00301422 -0.0394863 -0.00530502 -0.0388231 -0.00663128 -0.0386423 -0.00868095 -0.037316 -0.0109115 -0.0369543 -0.0124186 -0.0361706 -0.013986 -0.0351458 -0.0158548 -0.0346032 -0.0173016 -0.0331564 -0.0190499 -0.032855 -0.0203761 -0.0312876 -0.0221244 -0.0305039 -0.0232095 -0.0297202 -0.0248974 -0.0279117 -0.025862 -0.0269471 -0.0278514 -0.0259826 -0.0283337 -0.0245357 -0.0302025 -0.02333 -0.0309862 -0.0217627 -0.0322521 -0.0200747 -0.0329153 -0.0188087 -0.0340607 -0.0170605 -0.0346635 -0.0156137 -0.0361706 -0.0142271 -0.0366529 -0.0122377 -0.0375572 -0.0101881 -0.0379189 -0.00910294 -0.0391848 -0.00651071 -0.039426 -0.00524474 -0.0401494 -0.00301422 -0.0411742 -0.000663128 0 -0.000482275zm0 0.000482275l0 -0.000241137 0 -0.000241137 0 0.000482275zm-0.789363 0.77803l-0.241017 0 0.000482275 0 0.00120569 -0.0523268 0.00397877 -0.0516637 0.00626957 -0.0511211 0.00940436 -0.0498552 0.0115746 -0.0494935 0.0136846 -0.0482878 0.0161562 -0.0473835 0.0186279 -0.0463587 0.0206173 -0.0449721 0.0229081 -0.0443693 0.0247769 -0.0422593 0.0269471 -0.0416565 0.0286351 -0.0399083 0.0308053 -0.03816 0.0323727 -0.037316 0.0344224 -0.0353869 0.0353266 -0.0334578 0.0372557 -0.032011 0.0390643 -0.0299613 0.0403905 -0.0282734 0.0415962 -0.026706 0.0432842 -0.0244755 0.0444296 -0.0226066 0.0459367 -0.0203158 0.0465395 -0.0179647 0.0478658 -0.0159754 0.0488303 -0.0140463 0.0501566 -0.0109115 0.0503977 -0.00928379 0.0516637 -0.00620929 0.0523268 -0.00397877 0.0524474 -0.0011454 0 0.239329 -0.0411139 0.0011454 -0.0401494 0.00301422 -0.0393657 0.00524474 -0.0391848 0.00651071 -0.0378586 0.00910294 -0.0374969 0.0101881 -0.0366529 0.0122377 -0.0361706 0.0142271 -0.0346032 0.0156137 -0.0340607 0.0170605 -0.0329153 0.0188087 -0.0321919 0.0200747 -0.0309862 0.0217627 -0.0296599 0.02333 -0.0288159 0.0245357 -0.0278514 0.0259826 -0.025862 0.0269471 -0.0248974 0.0279117 -0.0232095 0.0297202 -0.0221244 0.0305039 -0.0203158 0.0312876 -0.0191101 0.032855 -0.0172413 0.0331564 -0.0159151 0.0346032 -0.0139257 0.0351458 -0.0124186 0.0361706 -0.0109115 0.0369543 -0.00868095 0.037316 -0.00663128 0.0386423 -0.00530502 0.0388231 -0.00301422 0.0394863 -0.00120569 0.0401494 0.000482275 0zm-0.000482275 0l0.000241137 0 0.000241137 0 -0.000482275 0z"/>
  </g>
  <g>
   <path class="fil0" d="M1.17555 1.64317c0,0.908365 0.745597,1.64317 1.66451,1.64317 0.919759,0 1.66536,-0.734806 1.66536,-1.64317 0,-0.9074 -0.745597,-1.64317 -1.66536,-1.64317 -0.918915,0 -1.66451,0.735771 -1.66451,1.64317z"/>
   <path class="fil5" d="M5.00402 6.05273c0,0.148722 -0.128285,0.26917 -0.286532,0.26917l-3.82474 0c-0.158427,0 -0.28611,-0.120448 -0.28611,-0.26917l0.0481672 -1.27435c0,-0.939773 0.389618,-1.38419 0.895223,-1.38419l0.753012 0c0.170062,0.0509403 0.350252,0.0782491 0.537013,0.0782491 0.186882,0 0.367493,-0.0273088 0.537676,-0.0782491l0.71009 0c0.442427,0 0.852843,0.402639 0.852843,1.24463l0.0633589 1.41391z"/>
   <path class="fil6" d="M5.19012 6.05273c0,0.127562 -0.0546176,0.242765 -0.142814,0.325536 -0.0852421,0.0801179 -0.201953,0.129732 -0.329816,0.129732l0 -0.000723412 -3.82474 0 0 0.000723412c-0.127923,0 -0.244513,-0.049614 -0.329575,-0.129611 -0.0881357,-0.082891 -0.142633,-0.198155 -0.142633,-0.325656l0.000723412 -0.006571 0.0479261 -1.26778 -0.000482275 0c0,-0.485771 0.100253,-0.855737 0.266939,-1.11351 0.198818,-0.30745 0.486555,-0.456775 0.814382,-0.456775l0.331624 0c0.279659,0.167832 0.607787,0.264347 0.958401,0.264347 0.350855,0 0.679405,-0.0965756 0.959185,-0.264347l0.288581 0c0.295514,0 0.578067,0.140945 0.77586,0.429586 0.159211,0.232336 0.261092,0.562815 0.262358,0.993125l0.0633589 1.41391 0.000723412 0.00801782zm-0.397214 0.0550999c0.0153725,-0.0144682 0.025018,-0.0340607 0.025018,-0.0550999l0.000361706 0 -0.0629972 -1.40589 0 -0.00801782c0,-0.352844 -0.0772243,-0.615081 -0.198336,-0.791835 -0.122799,-0.179165 -0.293404,-0.266698 -0.469133,-0.266698l-2.53779 0c-0.200747,0 -0.378465,0.0936819 -0.503194,0.286652 -0.128587,0.198878 -0.205931,0.50036 -0.205931,0.911439l-0.000723412 0.006571 -0.0479261 1.26778 0.000482275 0c0,0.0212201 0.00952493,0.0408125 0.0248372,0.0552205 0.0182662,0.017181 0.0449119,0.0278514 0.0751746,0.0278514l0 0.000723412 3.82474 0 0 -0.000723412c0.0304436,0 0.0570893,-0.0107306 0.0754157,-0.0279719z"/>
   <path class="fil6" d="M1.71021 2.76241c-0.29033,-0.286592 -0.469977,-0.682238 -0.469977,-1.11924 0,-0.4367 0.179768,-0.832407 0.470158,-1.11912 0.289486,-0.285748 0.68905,-0.462622 1.12973,-0.462622 0.44092,0 0.840665,0.176754 1.13027,0.462562 0.290571,0.286592 0.470339,0.682419 0.470339,1.11918l-0.000723412 0c0,0.437544 -0.179406,0.83319 -0.469374,1.1193 -0.289184,0.285326 -0.68899,0.461718 -1.13051,0.461718l0 0.000723412c-0.440739,0 -0.840364,-0.176693 -1.12991,-0.462502z"/>
   <g>
    <path class="fil7" d="M1.93495 1.20738l0.834094 0.338316c0,0 -0.468711,0.407522 -0.682238,0.339642 -0.213527,-0.0677596 -0.151856,-0.677958 -0.151856,-0.677958z"/>
    <path class="fil7" d="M3.74583 1.20738l-0.834094 0.338316c0,0 0.468711,0.407522 0.682419,0.339642 0.213527,-0.0677596 0.151675,-0.677958 0.151675,-0.677958z"/>
   </g>
   <path class="fil8" d="M2.30268 3.39419l0.000361706 0 0.00795754 0.00241137 -0.00831924 -0.00241137zm2.46382 1.50223l-3.93054 0 0.00421991 -0.111466 0.000723412 -0.006571c0,-0.411079 0.0773448,-0.712561 0.205931,-0.911439 0.124728,-0.19297 0.302447,-0.286652 0.503194,-0.286652l2.53779 0c0.175729,0 0.346334,0.0875329 0.469133,0.266698 0.121111,0.176754 0.198336,0.438991 0.198336,0.791835l0 0.00801782 0.0112129 0.249577z"/>
  </g>
 </g>
</svg>
