<?xml version="1.0" encoding="UTF-8"?>
<!DOCTYPE svg PUBLIC "-//W3C//DTD SVG 1.1//EN" "http://www.w3.org/Graphics/SVG/1.1/DTD/svg11.dtd">
<!-- Creator: CorelDRAW X5 -->
<svg xmlns="http://www.w3.org/2000/svg" xml:space="preserve" width="126px" height="128px" style="shape-rendering:geometricPrecision; text-rendering:geometricPrecision; image-rendering:optimizeQuality; fill-rule:evenodd; clip-rule:evenodd"
viewBox="0 0 5727190 5775392"
 xmlns:xlink="http://www.w3.org/1999/xlink">
 <defs>
  <style type="text/css">
   <![CDATA[
    .str0 {stroke:#4C4C4C;stroke-width:330301}
    .fil5 {fill:none}
    .fil0 {fill:none;fill-rule:nonzero}
    .fil12 {fill:#333333}
    .fil11 {fill:#333333;fill-rule:nonzero}
    .fil7 {fill:#4C4C4C;fill-rule:nonzero}
    .fil9 {fill:gray;fill-rule:nonzero}
    .fil2 {fill:#999999;fill-rule:nonzero}
    .fil8 {fill:white;fill-rule:nonzero}
    .fil6 {fill:url(#id0);fill-rule:nonzero}
    .fil10 {fill:url(#id1);fill-rule:nonzero}
    .fil1 {fill:url(#id2);fill-rule:nonzero}
    .fil4 {fill:url(#id3);fill-rule:nonzero}
    .fil3 {fill:url(#id4);fill-rule:nonzero}
   ]]>
  </style>
  <linearGradient id="id0" gradientUnits="userSpaceOnUse" x1="514657" y1="4.31113e+006" x2="4.41706e+006" y2="4.31113e+006">
   <stop offset="0" style="stop-color:#D9D9D9"/>
   <stop offset="0.811765" style="stop-color:#BDBDBD"/>
   <stop offset="1" style="stop-color:#A0A0A0"/>
  </linearGradient>
  <linearGradient id="id1" gradientUnits="userSpaceOnUse" x1="1.24208e+006" y1="1.45821e+006" x2="3.75202e+006" y2="1.45821e+006">
   <stop offset="0" style="stop-color:white"/>
   <stop offset="0.811765" style="stop-color:#E3E3E3"/>
   <stop offset="1" style="stop-color:#C6C6C6"/>
  </linearGradient>
  <linearGradient id="id2" gradientUnits="userSpaceOnUse" x1="3.13449e+006" y1="3.73736e+006" x2="5.5958e+006" y2="3.73736e+006">
   <stop offset="0" style="stop-color:#ECECED"/>
   <stop offset="0.811765" style="stop-color:#ECECED"/>
   <stop offset="1" style="stop-color:#ECECED"/>
  </linearGradient>
  <linearGradient id="id3" gradientUnits="userSpaceOnUse" xlink:href="#id2" x1="590411" y1="2.3098e+006" x2="2.17365e+006" y2="2.3098e+006">
  </linearGradient>
  <linearGradient id="id4" gradientUnits="userSpaceOnUse" xlink:href="#id2" x1="3.5935e+006" y1="1.90118e+006" x2="5.17674e+006" y2="1.90118e+006">
  </linearGradient>
 </defs>
 <g id="Layer_x0020_1">
  <metadata id="CorelCorpID_0Corel-Layer"/>
  <path class="fil0" d="M3434292 1901181c0,518830 425849,938473 950671,938473 525303,0 951152,-419643 951152,-938473 0,-518241 -425849,-938420 -951152,-938420 -524822,0 -950671,420178 -950671,938420z"/>
  <path class="fil1" d="M5620888 4419683c0,84902 -73240,153702 -163652,153702l-2184457 0c-90466,0 -163385,-68799 -163385,-153702l27498 -727849c0,-536752 222554,-790549 511287,-790549l430076 0c97154,29103 200031,44671 306708,44671 106730,0 209875,-15568 307082,-44671l405573 0c252674,0 487105,229937 487105,710836l36165 807562z"/>
  <path class="fil2" d="M5727190 4419683c0,72865 -31190,138615 -81585,185908 -48684,45741 -115343,74096 -188369,74096l0 -428 -2184457 0 0 428c-73026,0 -139631,-28354 -188208,-74042 -50342,-47346 -81478,-113150 -81478,-185961l428 -3745 27338 -724104 -267 0c0,-277444 57297,-488764 152471,-635938 113578,-175636 277872,-260913 465117,-260913l189439 0c159693,95870 347099,150973 547345,150973 200406,0 388026,-55157 547826,-150973l164829 0c168788,0 330140,80515 443129,245345 90948,132730 149101,321473 149850,567246l36165 807508 428 4601zm-226888 31457c8774,-8292 14284,-19474 14284,-31457l214 0 -35951 -802961 0 -4601c0,-201529 -44136,-351272 -113310,-452224 -70137,-102343 -167558,-152311 -267921,-152311l-1449439 0c-114648,0 -216135,53499 -287395,163706 -73400,113578 -117590,285736 -117590,520542l-428 3745 -27391 724104 321 0c0,12091 5403,23272 14177,31511 10432,9844 25626,15943 42906,15943l0 374 2184457 0 0 -374c17387,0 32634,-6152 43066,-15996z"/>
  <g>
   <path class="fil3" d="M3577561 1901181c0,440668 361651,797130 807455,797130 446179,0 807883,-356461 807883,-797130 0,-440187 -361704,-797076 -807883,-797076 -445804,0 -807455,356889 -807455,797076z"/>
   <path id="1" class="fil2" d="M4385016 2591688l0 213246 0 0 -46865 -1177 -46330 -3477 -45688 -5671 -45046 -7971 -44190 -10111 -43334 -12091 -42531 -14177 -41568 -16210 -40445 -18029 -39428 -19901 -38305 -21720 -37075 -23539 -35844 -25091 -34507 -26749 -33169 -28354 -31778 -29852 -30280 -31350 -28782 -32795 -27177 -34132 -25519 -35416 -23753 -36593 -22095 -37931 -20222 -39001 -18404 -40070 -16424 -41194 -14391 -41996 -12412 -43013 -10165 -43815 -8078 -44564 -5831 -45367 -3531 -45902 -1230 -46490 213888 0 909 35577 2675 35202 4440 34453 6152 33972 7811 33330 9416 32741 10967 32046 12465 31243 14017 30548 15408 29799 16852 28836 18190 28033 19527 27070 20757 26107 22041 25091 23218 23967 24288 22897 25465 21720 26482 20543 27498 19313 28408 17976 29317 16585 30227 15301 31029 13856 31832 12358 32474 10860 33276 9309 33918 7757 34453 6045 35095 4387 35737 2728 36165 856 0 0zm700939 -690507l213888 0 0 0 -1230 46490 -3531 45902 -5831 45367 -8078 44564 -10165 43815 -12412 43013 -14445 42103 -16424 41087 -18350 40070 -20276 39001 -22041 37931 -23860 36647 -25465 35363 -27177 34132 -28782 32795 -30280 31350 -31778 29852 -33223 28354 -34560 26803 -35791 25091 -37182 23486 -38252 21720 -39428 19901 -40552 18083 -41515 16157 -42585 14177 -43387 12091 -44190 10111 -45046 7971 -45741 5671 -46330 3477 -46918 1177 0 -213246 36219 -856 35737 -2728 35149 -4387 34453 -6045 34025 -7757 33330 -9309 32420 -10860 31885 -12412 31029 -13803 30227 -15301 29371 -16585 28408 -18029 27552 -19313 26535 -20490 25412 -21720 24288 -22897 23218 -23967 22041 -25091 20757 -26107 19581 -27124 18190 -27980 16799 -28836 15461 -29799 13963 -30548 12572 -31350 10914 -31939 9416 -32741 7811 -33330 6152 -33972 4440 -34453 2675 -35202 909 -35577 0 0zm-700939 -690453l0 -213246 0 0 46918 1177 46383 3477 45741 5778 44939 7918 44243 10058 43494 12144 42478 14177 41515 16157 40552 18083 39482 19955 38252 21720 37128 23486 35791 25091 34614 26803 33223 28461 31725 29799 30280 31350 28782 32795 27177 34132 25519 35363 23807 36700 22041 37824 20276 39054 18350 40017 16424 41087 14445 42157 12358 42959 10218 43762 8078 44564 5831 45313 3531 45848 1230 46490 -213888 0 -909 -35577 -2675 -35042 -4440 -34507 -6152 -33972 -7757 -33276 -9469 -32688 -10914 -31992 -12572 -31243 -13963 -30601 -15461 -29745 -16799 -28836 -18243 -28033 -19527 -27124 -20757 -26107 -22041 -25091 -23218 -23967 -24342 -22951 -25412 -21720 -26482 -20490 -27552 -19313 -28461 -18029 -29371 -16692 -30173 -15247 -31029 -13803 -31885 -12412 -32527 -10860 -33223 -9362 -33972 -7704 -34560 -6099 -35149 -4387 -35684 -2728 -36219 -856 0 0zm-700511 690453l-213888 0 0 0 1230 -46490 3531 -45848 5831 -45313 8078 -44564 10218 -43762 12358 -42959 14391 -42050 16424 -41194 18404 -40017 20222 -39054 22095 -37824 23753 -36647 25519 -35416 27177 -34132 28782 -32795 30280 -31350 31725 -29799 33169 -28408 34560 -26803 35844 -25091 37021 -23486 38305 -21774 39482 -19955 40445 -18029 41568 -16210 42478 -14177 43387 -12144 44243 -10058 44939 -7918 45688 -5778 46383 -3477 46865 -1177 0 213246 -36165 856 -35684 2728 -35095 4387 -34560 6099 -33865 7704 -33223 9362 -32527 10860 -31832 12358 -31029 13856 -30173 15247 -29317 16638 -28461 18029 -27498 19313 -26428 20490 -25465 21774 -24342 22951 -23218 23967 -22041 25091 -20757 26107 -19527 27070 -18190 28087 -16852 28836 -15408 29745 -14017 30601 -12465 31136 -10967 32099 -9469 32688 -7757 33276 -6152 33972 -4440 34507 -2675 35042 -909 35577 0 0z"/>
  </g>
  <path class="fil0" d="M431199 2309804c0,518830 425849,938473 950671,938473 525303,0 951152,-419643 951152,-938473 0,-518241 -425849,-938420 -951152,-938420 -524822,0 -950671,420178 -950671,938420z"/>
  <path class="fil1" d="M2617796 4828306c0,84902 -73240,153702 -163652,153702l-2184457 0c-90466,0 -163385,-68799 -163385,-153702l27498 -727849c0,-536752 222554,-790549 511287,-790549l430076 0c97154,29103 200031,44671 306708,44671 106730,0 209875,-15568 307082,-44671l405573 0c252674,0 487105,229937 487105,710836l36165 807562z"/>
  <path class="fil2" d="M2724097 4828306c0,72865 -31190,138615 -81585,185908 -48684,45741 -115343,74096 -188369,74096l0 -428 -2184457 0 0 428c-73026,0 -139631,-28354 -188208,-74042 -50342,-47346 -81478,-113150 -81478,-185961l428 -3745 27338 -724104 -267 0c0,-277444 57297,-488764 152471,-635938 113578,-175636 277872,-260913 465117,-260913l189439 0c159693,95870 347099,150973 547345,150973 200406,0 388026,-55157 547826,-150973l164829 0c168788,0 330140,80515 443129,245345 90948,132730 149101,321473 149850,567246l36165 807508 428 4601zm-226888 31457c8774,-8292 14284,-19474 14284,-31457l214 0 -35951 -802961 0 -4601c0,-201529 -44136,-351272 -113310,-452224 -70137,-102343 -167558,-152311 -267921,-152311l-1449439 0c-114648,0 -216135,53499 -287395,163706 -73400,113578 -117590,285736 -117590,520542l-428 3745 -27391 724104 321 0c0,12091 5403,23272 14177,31511 10432,9844 25626,15943 42906,15943l0 374 2184457 0 0 -374c17387,0 32634,-6152 43066,-15996z"/>
  <g>
   <path class="fil4" d="M574468 2309804c0,440668 361651,797130 807455,797130 446179,0 807883,-356461 807883,-797130 0,-440187 -361704,-797076 -807883,-797076 -445804,0 -807455,356889 -807455,797076z"/>
   <path id="1" class="fil2" d="M1381923 3000311l0 213246 0 0 -46865 -1177 -46330 -3477 -45688 -5671 -45046 -7971 -44190 -10111 -43334 -12091 -42531 -14177 -41568 -16210 -40445 -18029 -39428 -19901 -38305 -21720 -37075 -23539 -35844 -25091 -34507 -26749 -33169 -28354 -31778 -29852 -30280 -31350 -28782 -32795 -27177 -34132 -25519 -35416 -23753 -36593 -22095 -37931 -20222 -39001 -18404 -40070 -16424 -41194 -14391 -41996 -12412 -43013 -10165 -43815 -8078 -44564 -5831 -45367 -3531 -45902 -1230 -46490 213888 0 909 35577 2675 35202 4440 34453 6152 33972 7811 33330 9416 32741 10967 32046 12465 31243 14017 30548 15408 29799 16852 28836 18190 28033 19527 27070 20757 26107 22041 25091 23218 23967 24288 22897 25465 21720 26482 20543 27498 19313 28408 17976 29317 16585 30227 15301 31029 13856 31832 12358 32474 10860 33276 9309 33918 7757 34453 6045 35095 4387 35737 2728 36165 856 0 0zm700939 -690507l213888 0 0 0 -1230 46490 -3531 45902 -5831 45367 -8078 44564 -10165 43815 -12412 43013 -14445 42103 -16424 41087 -18350 40070 -20276 39001 -22041 37931 -23860 36647 -25465 35363 -27177 34132 -28782 32795 -30280 31350 -31778 29852 -33223 28354 -34560 26803 -35791 25091 -37182 23486 -38252 21720 -39428 19901 -40552 18083 -41515 16157 -42585 14177 -43387 12091 -44190 10111 -45046 7971 -45741 5671 -46330 3477 -46918 1177 0 -213246 36219 -856 35737 -2728 35149 -4387 34453 -6045 34025 -7757 33330 -9309 32420 -10860 31885 -12412 31029 -13803 30227 -15301 29371 -16585 28408 -18029 27552 -19313 26535 -20490 25412 -21720 24288 -22897 23218 -23967 22041 -25091 20757 -26107 19581 -27124 18190 -27980 16799 -28836 15461 -29799 13963 -30548 12572 -31350 10914 -31939 9416 -32741 7811 -33330 6152 -33972 4440 -34453 2675 -35202 909 -35577 0 0zm-700939 -690453l0 -213246 0 0 46918 1177 46383 3477 45741 5778 44939 7918 44243 10058 43494 12144 42478 14177 41515 16157 40552 18083 39482 19955 38252 21720 37128 23486 35791 25091 34614 26803 33223 28461 31725 29799 30280 31350 28782 32795 27177 34132 25519 35363 23807 36700 22041 37824 20276 39054 18350 40017 16424 41087 14445 42157 12358 42959 10218 43762 8078 44564 5831 45313 3531 45848 1230 46490 -213888 0 -909 -35577 -2675 -35042 -4440 -34507 -6152 -33972 -7757 -33276 -9469 -32688 -10914 -31992 -12572 -31243 -13963 -30601 -15461 -29745 -16799 -28836 -18243 -28033 -19527 -27124 -20757 -26107 -22041 -25091 -23218 -23967 -24342 -22951 -25412 -21720 -26482 -20490 -27552 -19313 -28461 -18029 -29371 -16692 -30173 -15247 -31029 -13803 -31885 -12412 -32527 -10860 -33223 -9362 -33972 -7704 -34560 -6099 -35149 -4387 -35684 -2728 -36219 -856 0 0zm-700511 690453l-213888 0 0 0 1230 -46490 3531 -45848 5831 -45313 8078 -44564 10218 -43762 12358 -42959 14391 -42050 16424 -41194 18404 -40017 20222 -39054 22095 -37824 23753 -36647 25519 -35416 27177 -34132 28782 -32795 30280 -31350 31725 -29799 33169 -28408 34560 -26803 35844 -25091 37021 -23486 38305 -21774 39482 -19955 40445 -18029 41568 -16210 42478 -14177 43387 -12144 44243 -10058 44939 -7918 45688 -5778 46383 -3477 46865 -1177 0 213246 -36165 856 -35684 2728 -35095 4387 -34560 6099 -33865 7704 -33223 9362 -32527 10860 -31832 12358 -31029 13856 -30173 15247 -29317 16638 -28461 18029 -27498 19313 -26428 20490 -25465 21774 -24342 22951 -23218 23967 -22041 25091 -20757 26107 -19527 27070 -18190 28087 -16852 28836 -15408 29745 -14017 30601 -12465 31136 -10967 32099 -9469 32688 -7757 33276 -6152 33972 -4440 34507 -2675 35042 -909 35577 0 0z"/>
  </g>
  <g>
   <path id="_124883184" class="fil5" d="M1019524 1458212c0,806118 661671,1458212 1477151,1458212 816229,0 1477900,-652095 1477900,-1458212 0,-805262 -661671,-1458212 -1477900,-1458212 -815480,0 -1477151,652951 -1477151,1458212z"/>
   <path id="_124883112" class="fil6" d="M4417062 5371371c0,131981 -113845,238871 -254279,238871l-3394221 0c-140594,0 -253905,-106890 -253905,-238871l42745 -1130908c0,-833990 345762,-1228382 794455,-1228382l668252 0c150920,45206 310827,69441 476566,69441 165846,0 326128,-24235 477154,-69441l630160 0c392627,0 756845,357317 756845,1104533l56227 1254757z"/>
   <path id="_124883040" class="fil7" d="M4582212 5371371c0,113203 -48470,215439 -126738,288893 -75647,71100 -179220,115129 -292691,115129l0 -642 -3394221 0 0 642c-113524,0 -216990,-44029 -292477,-115022 -78215,-73561 -126578,-175850 -126578,-289000l642 -5831 42531 -1125076 -428 0c0,-431092 88968,-759413 236892,-988173 176439,-272843 431788,-405359 722713,-405359l294296 0c248180,148940 539373,234592 850521,234592 311362,0 602930,-85705 851217,-234592l256098 0c262250,0 512998,125080 688528,381231 141290,206184 231703,499463 232826,881337l56227 1254757 642 7115zm-352503 48898c13642,-12840 22202,-30227 22202,-48898l321 0 -55906 -1247642 0 -7115c0,-313128 -68532,-545847 -176011,-702705 -108977,-158998 -260378,-236678 -416326,-236678l-2252132 0c-178150,0 -335864,83137 -446553,254386 -114113,176492 -182751,444039 -182751,808846l-642 5831 -42531 1125076 428 0c0,18832 8453,36219 22041,49005 16210,15247 39856,24716 66713,24716l0 642 3394221 0 0 -642c27017,0 50663,-9523 66927,-24823z"/>
   <path id="_124882896" class="fil8" d="M3274545 5445734l0 -918358 0 -1350145 329445 0c155949,0 307350,77680 416326,236678 107479,156858 176011,389577 176011,702705l0 7115 55906 1247642 -321 0c0,18671 -8560,36058 -22202,48898 -16264,15301 -39910,24823 -66927,24823l0 642 -888238 0zm-1555206 -2268503l0 2268503 -950778 0 0 -642c-26856,0 -50503,-9469 -66713,-24716 -13589,-12786 -22041,-30173 -22041,-49005l-428 0 42531 -1125076 642 -5831c0,-364807 68639,-632354 182751,-808846 110689,-171249 268403,-254386 446553,-254386l367482 0z"/>
   <g>
    <polygon id="_124882824" class="fil9" points="2738702,3177284 2477950,3628920 2217198,3177284 "/>
    <path id="_124882752" class="fil9" d="M2708904 3642134c0,127487 -103359,231007 -230954,231007 -127594,0 -231007,-103520 -231007,-231007 0,-127648 103413,-231061 231007,-231061 127594,0 230954,103413 230954,231061z"/>
    <polygon id="_124882680" class="fil9" points="2477950,5418503 2136950,5077449 2477950,3311726 2818950,5077449 "/>
   </g>
   <path id="_124882968" class="fil10 str0" d="M1242078 1458212c0,684676 562003,1238547 1254650,1238547 693289,0 1255292,-553871 1255292,-1238547 0,-683980 -562003,-1238547 -1255292,-1238547 -692647,0 -1254650,554567 -1254650,1238547z"/>
   <path id="_124882968_0" class="fil10" d="M1242078 1458212c0,684676 562003,1238547 1254650,1238547 693289,0 1255292,-553871 1255292,-1238547 0,-683980 -562003,-1238547 -1255292,-1238547 -692647,0 -1254650,554567 -1254650,1238547z"/>
   <path class="fil7" d="M1407228 1458212c0,296596 121442,564678 317675,758397 197196,194628 470146,315000 771825,315000 302000,0 575057,-120318 772360,-314947 196287,-193665 317782,-461800 317782,-758450 0,-296436 -121549,-564571 -317996,-758343 -197249,-194628 -470253,-315053 -772146,-315053 -301625,0 -574522,120479 -771664,315107 -196287,193826 -317835,461961 -317835,758290zm86775 993256c-257649,-254333 -417075,-605444 -417075,-993256 0,-387544 159533,-738709 417236,-993149 256900,-253584 611489,-410549 1002565,-410549 391289,0 746092,156912 1003046,410495 257863,254333 417396,605605 417396,993202 0,387865 -159479,739030 -417182,993309 -257061,253584 -611864,410388 -1003260,410388 -391129,0 -745771,-156805 -1002725,-410442z"/>
   <path id="_124882752_1" class="fil11" d="M2007055 4280373c0,229991 -186496,416754 -416701,416754 -230205,0 -416808,-186764 -416808,-416754 0,-230312 186603,-416915 416808,-416915 230205,0 416701,186603 416701,416915z"/>
   <line class="fil5" x1="3340295" y1="2846930" x2="3340295" y2= "4007423" />
   <path id="_124883040_2" class="fil7" d="M4582212 5371371c0,113203 -48470,215439 -126738,288893 -75647,71100 -179220,115129 -292691,115129l0 -642 -3394221 0 0 642c-113524,0 -216990,-44029 -292477,-115022 -78215,-73561 -126578,-175850 -126578,-289000l642 -5831 42531 -1125076 -428 0c0,-431092 88968,-759413 236892,-988173 176439,-272843 431788,-405359 722713,-405359l294296 0c248180,148940 539373,234592 850521,234592 311362,0 602930,-85705 851217,-234592l256098 0c262250,0 512998,125080 688528,381231 141290,206184 231703,499463 232826,881337l56227 1254757 642 7115zm-352503 48898c13642,-12840 22202,-30227 22202,-48898l321 0 -55906 -1247642 0 -7115c0,-313128 -68532,-545847 -176011,-702705 -108977,-158998 -260378,-236678 -416326,-236678l-2252132 0c-178150,0 -335864,83137 -446553,254386 -114113,176492 -182751,444039 -182751,808846l-642 5831 -42531 1125076 428 0c0,18832 8453,36219 22041,49005 16210,15247 39856,24716 66713,24716l0 642 3394221 0 0 -642c27017,0 50663,-9523 66927,-24823z"/>
   <path class="fil12" d="M1736619 4387263l-291942 0 0 -1540333 199122 0c30280,18190 61309,35256 92820,51519l0 1488814z"/>
   <path class="fil11" d="M3540915 2846930l0 1160493c0,81211 -65910,147121 -147121,147121 -81211,0 -147121,-65910 -147121,-147121l0 -1103463c35202,-17815 69709,-36807 103359,-57030l190883 0z"/>
  </g>
 </g>
</svg>
