<?xml version="1.0" encoding="UTF-8"?>
<!DOCTYPE svg PUBLIC "-//W3C//DTD SVG 1.1//EN" "http://www.w3.org/Graphics/SVG/1.1/DTD/svg11.dtd">
<!-- Creator: CorelDRAW -->
<svg xmlns="http://www.w3.org/2000/svg" xml:space="preserve" width="0.429028in" height="0.42502in" style="shape-rendering:geometricPrecision; text-rendering:geometricPrecision; image-rendering:optimizeQuality; fill-rule:evenodd; clip-rule:evenodd"
viewBox="0 0 3.73649 3.70159"
 xmlns:xlink="http://www.w3.org/1999/xlink">
 <defs>
  <style type="text/css">
   <![CDATA[
    .str1 {stroke:#FFF9DB;stroke-width:0.181453;stroke-linejoin:round}
    .str0 {stroke:#4C4C4C;stroke-width:0.211696}
    .fil0 {fill:none;fill-rule:nonzero}
    .fil12 {fill:#4C4C4C}
    .fil10 {fill:#4C4C4C;fill-rule:nonzero}
    .fil7 {fill:#656565;fill-rule:nonzero}
    .fil8 {fill:#666666;fill-rule:nonzero}
    .fil2 {fill:#999999;fill-rule:nonzero}
    .fil9 {fill:#DAD3BA;fill-rule:nonzero}
    .fil11 {fill:#454545;fill-rule:nonzero}
    .fil6 {fill:url(#id0);fill-rule:nonzero}
    .fil4 {fill:url(#id1);fill-rule:nonzero}
    .fil3 {fill:url(#id2);fill-rule:nonzero}
    .fil1 {fill:url(#id3);fill-rule:nonzero}
    .fil5 {fill:url(#id4);fill-rule:nonzero}
   ]]>
  </style>
  <linearGradient id="id0" gradientUnits="userSpaceOnUse" x1="0.815649" y1="0.934595" x2="2.42432" y2="0.934595">
   <stop offset="0" style="stop-color:white"/>
   <stop offset="0.811765" style="stop-color:#E3E3E3"/>
   <stop offset="1" style="stop-color:#C6C6C6"/>
  </linearGradient>
  <linearGradient id="id1" gradientUnits="userSpaceOnUse" x1="0.378439" y1="1.45502" x2="1.39317" y2="1.45502">
   <stop offset="0" style="stop-color:#ECECEC"/>
   <stop offset="0.811765" style="stop-color:#ECECEC"/>
   <stop offset="1" style="stop-color:#ECECEC"/>
  </linearGradient>
  <linearGradient id="id2" gradientUnits="userSpaceOnUse" x1="2.30318" y1="1.19313" x2="3.3179" y2="1.19313">
   <stop offset="0" style="stop-color:#ECECEC"/>
   <stop offset="0.811765" style="stop-color:#ECECEC"/>
   <stop offset="1" style="stop-color:#ECECEC"/>
  </linearGradient>
  <linearGradient id="id3" gradientUnits="userSpaceOnUse" x1="2.00895" y1="2.36997" x2="3.58645" y2="2.36997">
   <stop offset="0" style="stop-color:#ECECEC"/>
   <stop offset="0.811765" style="stop-color:#ECECEC"/>
   <stop offset="1" style="stop-color:#ECECEC"/>
  </linearGradient>
  <linearGradient id="id4" gradientUnits="userSpaceOnUse" x1="0.374428" y1="2.76315" x2="2.82556" y2="2.76315">
   <stop offset="0" style="stop-color:white"/>
   <stop offset="0.811765" style="stop-color:#E3E3E3"/>
   <stop offset="1" style="stop-color:#C6C6C6"/>
  </linearGradient>
 </defs>
 <g id="Layer_x0020_1">
  <metadata id="CorelCorpID_0Corel-Layer"/>
  <path class="fil0" d="M2.2011 1.19313c0,0.332527 0.272934,0.601484 0.609302,0.601484 0.336676,0 0.609611,-0.268957 0.609611,-0.601484 0,-0.33215 -0.272934,-0.60145 -0.609611,-0.60145 -0.336368,0 -0.609302,0.2693 -0.609302,0.60145z"/>
  <path class="fil1" d="M3.60253 2.80728c0,0.0544154 -0.0469406,0.0985101 -0.104888,0.0985101l-1.40006 0c-0.0579814,0 -0.104716,-0.0440947 -0.104716,-0.0985101l0.0176242 -0.466492c0,-0.344014 0.142639,-0.506677 0.327693,-0.506677l0.275643 0c0.0622675,0.0186528 0.128204,0.0286307 0.196575,0.0286307 0.0684051,0 0.134513,-0.00997788 0.196815,-0.0286307l0.259939 0c0.161943,0 0.312194,0.147371 0.312194,0.455588l0.0231789 0.517581z"/>
  <path class="fil2" d="M3.67066 2.80728c0,0.0467006 -0.01999,0.0888408 -0.0522896,0.119152 -0.0312023,0.0293165 -0.0739255,0.0474892 -0.120729,0.0474892l0 -0.000274306 -1.40006 0 0 0.000274306c-0.0468035,0 -0.0894923,-0.0181728 -0.120626,-0.0474549 -0.0322652,-0.0303451 -0.052221,-0.0725196 -0.052221,-0.119186l0.000274306 -0.00240018 0.0175213 -0.464091 -0.000171441 0c0,-0.177819 0.0367227,-0.313257 0.0977215,-0.407584 0.0727939,-0.112568 0.178093,-0.167224 0.298102,-0.167224l0.121415 0c0.10235,0.0614445 0.222462,0.0967614 0.350803,0.0967614 0.128444,0 0.248693,-0.0353512 0.351112,-0.0967614l0.105642 0c0.108179,0 0.211593,0.0516038 0.28401,0.157246 0.05829,0.0850691 0.0955613,0.206038 0.0960414,0.363558l0.0231789 0.517547 0.000274306 0.00294879zm-0.145416 0.0201615c0.00562327,-0.00531468 0.00915496,-0.0124809 0.00915496,-0.0201615l0.000137153 0 -0.0230417 -0.514632 0 -0.00294879c0,-0.129164 -0.0282878,-0.225137 -0.0726225,-0.289839 -0.0449519,-0.0655934 -0.107391,-0.0976186 -0.171716,-0.0976186l-0.928971 0c-0.0734797,0 -0.138525,0.0342882 -0.184196,0.104922 -0.0470435,0.0727939 -0.0753656,0.183134 -0.0753656,0.333625l-0.000274306 0.00240018 -0.0175556 0.464091 0.000205729 0c0,0.00774914 0.00346311,0.0149154 0.00908639,0.0201958 0.00668621,0.00630904 0.0164241,0.0102179 0.0274992,0.0102179l0 0.000240018 1.40006 0 0 -0.000240018c0.0111437,0 0.0209158,-0.00394315 0.027602,-0.0102522z"/>
  <g>
   <path class="fil3" d="M2.29292 1.19313c0,0.282432 0.231789,0.510895 0.517512,0.510895 0.285964,0 0.517787,-0.228463 0.517787,-0.510895 0,-0.282124 -0.231823,-0.510861 -0.517787,-0.510861 -0.285724,0 -0.517512,0.228737 -0.517512,0.510861z"/>
   <path id="1" class="fil2" d="M2.81044 1.63569l0 0.136673 0 -0.000274306 -0.0298308 -0.000651477 -0.0297622 -0.00226302 -0.029385 -0.0034974 -0.028665 -0.00528039 -0.0285278 -0.00624046 -0.0277735 -0.00795487 -0.0272249 -0.00908639 -0.0264705 -0.0102179 -0.0261276 -0.0115551 -0.0252704 -0.0128581 -0.0243447 -0.0138867 -0.0239332 -0.0151897 -0.0229731 -0.0160812 -0.0219445 -0.0170413 -0.0214644 -0.0181728 -0.0200929 -0.01903 -0.0195786 -0.0201272 -0.0184128 -0.0212244 -0.0175213 -0.0217045 -0.0162869 -0.0226988 -0.0153268 -0.0236589 -0.0140925 -0.0240703 -0.0130295 -0.0252361 -0.0117266 -0.025579 -0.0105951 -0.0264019 -0.00918925 -0.0269163 -0.00778343 -0.0274992 -0.00658334 -0.0281849 -0.00534897 -0.0283564 -0.00356598 -0.0290764 -0.00226302 -0.0294536 -0.000960071 -0.0297622 0.137084 0 0.000411459 0.022836 0.00171441 0.0225274 0.00301737 0.0220816 0.00377171 0.0219788 0.00493751 0.0212587 0.00620617 0.021053 0.00706338 0.0205387 0.00792058 0.0200243 0.0090521 0.0196815 0.00980644 0.0188585 0.0108694 0.0187214 0.0115551 0.0177613 0.0125838 0.0173499 0.013201 0.0169041 0.014161 0.0158755 0.0147097 0.0153268 0.0158412 0.0147782 0.0161155 0.013921 0.0171441 0.0132696 0.0176242 0.0123781 0.0180356 0.011418 0.0189957 0.0106636 0.0193729 0.00970357 0.0196815 0.00888066 0.0205729 0.00809203 0.0208473 0.00696051 0.0213273 0.00576043 0.021533 0.00521181 0.0222874 0.00370313 0.0223902 0.00294879 0.022836 0.00171441 0.0233846 0.000651477 0 -0.000274306zm0 0.000274306l0 -0.000137153 0 -0.000137153 0 0.000274306zm0.449519 -0.442833l0.136536 0 0.000274306 0 -0.000960071 0.0297622 -0.00226302 0.0294536 -0.00356598 0.0290764 -0.00534897 0.0283564 -0.00658334 0.0281849 -0.00778343 0.0274992 -0.00918925 0.0269163 -0.0106294 0.0264019 -0.0116923 0.025579 -0.0130638 0.0252361 -0.0140582 0.0240703 -0.0153611 0.0236589 -0.0162869 0.0226988 -0.0175213 0.0217045 -0.0184128 0.0212244 -0.0195786 0.0201272 -0.0200929 0.01903 -0.0214644 0.0181728 -0.0219788 0.0170413 -0.0229731 0.0160812 -0.0239675 0.0151897 -0.0243447 0.0138867 -0.0252704 0.0128581 -0.0261619 0.0115551 -0.0264705 0.0102179 -0.0272249 0.00908639 -0.0278078 0.00795487 -0.0285621 0.00624046 -0.028665 0.00528039 -0.0294193 0.0034974 -0.0297622 0.00226302 -0.0298651 0.000925783 0 -0.136673 0.0234189 -0.000377171 0.022836 -0.00171441 0.0224245 -0.00294879 0.0222874 -0.00370313 0.0215673 -0.00521181 0.0213616 -0.00576043 0.0208473 -0.00696051 0.0205729 -0.00809203 0.0197157 -0.00888066 0.0193729 -0.00970357 0.0189957 -0.0106636 0.0180699 -0.011418 0.0176242 -0.0123781 0.0171784 -0.0132696 0.0161155 -0.013921 0.0158412 -0.0147782 0.0147097 -0.0153268 0.014161 -0.0158755 0.013201 -0.0169041 0.0125838 -0.0173499 0.0115894 -0.0177613 0.0108351 -0.0187214 0.00984073 -0.0188585 0.00901781 -0.0196815 0.00795487 -0.0200243 0.00706338 -0.0205387 0.00620617 -0.021053 0.00493751 -0.0212587 0.00377171 -0.0219788 0.00301737 -0.0220816 0.00171441 -0.0225274 0.000411459 -0.022836 0.000274306 0zm-0.000274306 0l0.000137153 0 0.000137153 0 -0.000274306 0zm-0.449245 -0.442798l0 -0.136124 0 -0.000274306 0.0298651 0.000925783 0.0297622 0.00226302 0.0294193 0.00353169 0.028665 0.00528039 0.0285621 0.00620617 0.0278078 0.00798916 0.0272249 0.00908639 0.0264705 0.0102179 0.0261619 0.0115551 0.0252704 0.0128581 0.024619 0.013921 0.0236932 0.0151897 0.0229731 0.0160812 0.0219788 0.0170413 0.0214644 0.0182071 0.0200929 0.01903 0.0195786 0.0201272 0.0184128 0.0212244 0.0175213 0.0217045 0.0162869 0.0226988 0.0153611 0.0236932 0.0140582 0.0240361 0.0130638 0.0252361 0.0116923 0.025579 0.0106294 0.0263677 0.00918925 0.0269506 0.00778343 0.0274649 0.00658334 0.0281506 0.00534897 0.0283564 0.00356598 0.0290764 0.00226302 0.029385 0.000685765 0.0297622 -0.136536 0 -0.000685765 -0.022836 -0.00171441 -0.0224588 -0.00301737 -0.0220816 -0.00377171 -0.0219788 -0.00493751 -0.0212244 -0.00620617 -0.0210187 -0.00706338 -0.0205729 -0.00795487 -0.01999 -0.00901781 -0.0196815 -0.00984073 -0.0188585 -0.0108351 -0.0186871 -0.0115894 -0.0177956 -0.0125838 -0.0173499 -0.013201 -0.0169041 -0.014161 -0.0158755 -0.0147097 -0.0153268 -0.0158412 -0.0147782 -0.0161155 -0.0139553 -0.0171784 -0.0132696 -0.0176242 -0.0123781 -0.0183442 -0.011418 -0.0187214 -0.0106979 -0.0193729 -0.00970357 -0.0197157 -0.00888066 -0.0205729 -0.00809203 -0.0208473 -0.00696051 -0.0213616 -0.00579471 -0.0215673 -0.00517753 -0.0222874 -0.00370313 -0.0224245 -0.00298308 -0.022836 -0.00171441 -0.0234189 -0.000377171 0 -0.000274306zm0 0.000274306l0 -0.000137153 0 -0.000137153 0 0.000274306zm-0.44897 0.442524l-0.137084 0 0.000274306 0 0.000685765 -0.0297622 0.00226302 -0.029385 0.00356598 -0.0290764 0.00534897 -0.0283564 0.00658334 -0.0281506 0.00778343 -0.0274649 0.00918925 -0.0269506 0.0105951 -0.0263677 0.0117266 -0.025579 0.0130295 -0.0252361 0.0140925 -0.0240361 0.0153268 -0.0236932 0.0162869 -0.0226988 0.0175213 -0.0217045 0.0184128 -0.0212244 0.0195786 -0.0201272 0.0200929 -0.01903 0.0211901 -0.0182071 0.0222188 -0.0170413 0.0229731 -0.0160812 0.0236589 -0.0151897 0.024619 -0.013921 0.0252704 -0.0128581 0.0261276 -0.0115551 0.0264705 -0.0102179 0.0272249 -0.00908639 0.0277735 -0.00798916 0.0285278 -0.00620617 0.028665 -0.00528039 0.029385 -0.00353169 0.0297622 -0.00226302 0.0298308 -0.000651477 0 0.136124 -0.0233846 0.000651477 -0.022836 0.00171441 -0.0223902 0.00298308 -0.0222874 0.00370313 -0.021533 0.00517753 -0.0213273 0.00579471 -0.0208473 0.00696051 -0.0205729 0.00809203 -0.0196815 0.00888066 -0.0193729 0.00970357 -0.0187214 0.0106979 -0.0183099 0.011418 -0.0176242 0.0123781 -0.0168698 0.0132696 -0.0163898 0.0139553 -0.0158412 0.0147782 -0.0147097 0.0153268 -0.014161 0.0158755 -0.013201 0.0169041 -0.0125838 0.0173499 -0.0115551 0.0177956 -0.0108694 0.0186871 -0.00980644 0.0188585 -0.0090521 0.0196815 -0.00792058 0.01999 -0.00706338 0.0205729 -0.00620617 0.0210187 -0.00493751 0.0212244 -0.00377171 0.0219788 -0.00301737 0.0220816 -0.00171441 0.0224588 -0.000685765 0.022836 0.000274306 0zm-0.000274306 0l0.000137153 0 0.000137153 0 -0.000274306 0z"/>
  </g>
  <path class="fil0" d="M0.276363 1.45502c0,0.332527 0.272934,0.601484 0.609302,0.601484 0.336676,0 0.609611,-0.268957 0.609611,-0.601484 0,-0.33215 -0.272934,-0.60145 -0.609611,-0.60145 -0.336368,0 -0.609302,0.2693 -0.609302,0.60145z"/>
  <path class="fil1" d="M1.67779 3.06918c0,0.0544154 -0.0469406,0.0985101 -0.104888,0.0985101l-1.40006 0c-0.0579814,0 -0.104716,-0.0440947 -0.104716,-0.0985101l0.0176242 -0.466492c0,-0.344014 0.142639,-0.506677 0.327693,-0.506677l0.275643 0c0.0622675,0.0186528 0.128204,0.0286307 0.196575,0.0286307 0.0684051,0 0.134513,-0.00997788 0.196815,-0.0286307l0.259939 0c0.161943,0 0.312194,0.147371 0.312194,0.455588l0.0231789 0.517581z"/>
  <path class="fil2" d="M1.74592 3.06918c0,0.0467006 -0.01999,0.0888408 -0.0522896,0.119152 -0.0312023,0.0293165 -0.0739255,0.0474892 -0.120729,0.0474892l0 -0.000274306 -1.40006 0 0 0.000274306c-0.0468035,0 -0.0894923,-0.0181728 -0.120626,-0.0474549 -0.0322652,-0.0303451 -0.052221,-0.0725196 -0.052221,-0.119186l0.000274306 -0.00240018 0.0175213 -0.464091 -0.000171441 0c0,-0.177819 0.0367227,-0.313257 0.0977215,-0.407584 0.0727939,-0.112568 0.178093,-0.167224 0.298102,-0.167224l0.121415 0c0.10235,0.0614445 0.222462,0.0967614 0.350803,0.0967614 0.128444,0 0.248693,-0.0353512 0.351112,-0.0967614l0.105642 0c0.108179,0 0.211593,0.0516038 0.28401,0.157246 0.05829,0.0850691 0.0955613,0.206038 0.0960414,0.363558l0.0231789 0.517547 0.000274306 0.00294879zm-0.145416 0.0201615c0.00562327,-0.00531468 0.00915496,-0.0124809 0.00915496,-0.0201615l0.000137153 0 -0.0230417 -0.514632 0 -0.00294879c0,-0.129164 -0.0282878,-0.225137 -0.0726225,-0.289839 -0.0449519,-0.0655934 -0.107391,-0.0976186 -0.171716,-0.0976186l-0.928971 0c-0.0734797,0 -0.138525,0.0342882 -0.184196,0.104922 -0.0470435,0.0727939 -0.0753656,0.183134 -0.0753656,0.333625l-0.000274306 0.00240018 -0.0175556 0.464091 0.000205729 0c0,0.00774914 0.00346311,0.0149154 0.00908639,0.0201958 0.00668621,0.00630904 0.0164241,0.0102179 0.0274992,0.0102179l0 0.000240018 1.40006 0 0 -0.000240018c0.0111437,0 0.0209158,-0.00394315 0.027602,-0.0102522z"/>
  <g>
   <path class="fil4" d="M0.368187 1.45502c0,0.282432 0.231789,0.510895 0.517512,0.510895 0.285964,0 0.517787,-0.228463 0.517787,-0.510895 0,-0.282124 -0.231823,-0.510861 -0.517787,-0.510861 -0.285724,0 -0.517512,0.228737 -0.517512,0.510861z"/>
   <path id="1" class="fil2" d="M0.8857 1.89758l0 0.136673 0 -0.000274306 -0.0298308 -0.000651477 -0.0297622 -0.00226302 -0.029385 -0.0034974 -0.028665 -0.00528039 -0.0285278 -0.00624046 -0.0277735 -0.00795487 -0.0272249 -0.00908639 -0.0264705 -0.0102179 -0.0261276 -0.0115551 -0.0252704 -0.0128581 -0.0243447 -0.0138867 -0.0239332 -0.0151897 -0.0229731 -0.0160812 -0.0219445 -0.0170413 -0.0214644 -0.0181728 -0.0200929 -0.01903 -0.0195786 -0.0201272 -0.0184128 -0.0212244 -0.0175213 -0.0217045 -0.0162869 -0.0226988 -0.0153268 -0.0236589 -0.0140925 -0.0240703 -0.0130295 -0.0252361 -0.0117266 -0.025579 -0.0105951 -0.0264019 -0.00918925 -0.0269163 -0.00778343 -0.0274992 -0.00658334 -0.0281849 -0.00534897 -0.0283564 -0.00356598 -0.0290764 -0.00226302 -0.0294536 -0.000960071 -0.0297622 0.137084 0 0.000411459 0.022836 0.00171441 0.0225274 0.00301737 0.0220816 0.00377171 0.0219788 0.00493751 0.0212587 0.00620617 0.021053 0.00706338 0.0205387 0.00792058 0.0200243 0.0090521 0.0196815 0.00980644 0.0188585 0.0108694 0.0187214 0.0115551 0.0177613 0.0125838 0.0173499 0.013201 0.0169041 0.014161 0.0158755 0.0147097 0.0153268 0.0158412 0.0147782 0.0161155 0.013921 0.0171441 0.0132696 0.0176242 0.0123781 0.0180356 0.011418 0.0189957 0.0106636 0.0193729 0.00970357 0.0196815 0.00888066 0.0205729 0.00809203 0.0208473 0.00696051 0.0213273 0.00576043 0.021533 0.00521181 0.0222874 0.00370313 0.0223902 0.00294879 0.022836 0.00171441 0.0233846 0.000651477 0 -0.000274306zm0 0.000274306l0 -0.000137153 0 -0.000137153 0 0.000274306zm0.449519 -0.442833l0.136536 0 0.000274306 0 -0.000960071 0.0297622 -0.00226302 0.0294536 -0.00356598 0.0290764 -0.00534897 0.0283564 -0.00658334 0.0281849 -0.00778343 0.0274992 -0.00918925 0.0269163 -0.0106294 0.0264019 -0.0116923 0.025579 -0.0130638 0.0252361 -0.0140582 0.0240703 -0.0153611 0.0236589 -0.0162869 0.0226988 -0.0175213 0.0217045 -0.0184128 0.0212244 -0.0195786 0.0201272 -0.0200929 0.01903 -0.0214644 0.0181728 -0.0219788 0.0170413 -0.0229731 0.0160812 -0.0239675 0.0151897 -0.0243447 0.0138867 -0.0252704 0.0128581 -0.0261619 0.0115551 -0.0264705 0.0102179 -0.0272249 0.00908639 -0.0278078 0.00795487 -0.0285621 0.00624046 -0.028665 0.00528039 -0.0294193 0.0034974 -0.0297622 0.00226302 -0.0298651 0.000925783 0 -0.136673 0.0234189 -0.000377171 0.022836 -0.00171441 0.0224245 -0.00294879 0.0222874 -0.00370313 0.0215673 -0.00521181 0.0213616 -0.00576043 0.0208473 -0.00696051 0.0205729 -0.00809203 0.0197157 -0.00888066 0.0193729 -0.00970357 0.0189957 -0.0106636 0.0180699 -0.011418 0.0176242 -0.0123781 0.0171784 -0.0132696 0.0161155 -0.013921 0.0158412 -0.0147782 0.0147097 -0.0153268 0.014161 -0.0158755 0.013201 -0.0169041 0.0125838 -0.0173499 0.0115894 -0.0177613 0.0108351 -0.0187214 0.00984073 -0.0188585 0.00901781 -0.0196815 0.00795487 -0.0200243 0.00706338 -0.0205387 0.00620617 -0.021053 0.00493751 -0.0212587 0.00377171 -0.0219788 0.00301737 -0.0220816 0.00171441 -0.0225274 0.000411459 -0.022836 0.000274306 0zm-0.000274306 0l0.000137153 0 0.000137153 0 -0.000274306 0zm-0.449245 -0.442798l0 -0.136124 0 -0.000274306 0.0298651 0.000925783 0.0297622 0.00226302 0.0294193 0.00353169 0.028665 0.00528039 0.0285621 0.00620617 0.0278078 0.00798916 0.0272249 0.00908639 0.0264705 0.0102179 0.0261619 0.0115551 0.0252704 0.0128581 0.024619 0.013921 0.0236932 0.0151897 0.0229731 0.0160812 0.0219788 0.0170413 0.0214644 0.0182071 0.0200929 0.01903 0.0195786 0.0201272 0.0184128 0.0212244 0.0175213 0.0217045 0.0162869 0.0226988 0.0153611 0.0236932 0.0140582 0.0240361 0.0130638 0.0252361 0.0116923 0.025579 0.0106294 0.0263677 0.00918925 0.0269506 0.00778343 0.0274649 0.00658334 0.0281506 0.00534897 0.0283564 0.00356598 0.0290764 0.00226302 0.029385 0.000685765 0.0297622 -0.136536 0 -0.000685765 -0.022836 -0.00171441 -0.0224588 -0.00301737 -0.0220816 -0.00377171 -0.0219788 -0.00493751 -0.0212244 -0.00620617 -0.0210187 -0.00706338 -0.0205729 -0.00795487 -0.01999 -0.00901781 -0.0196815 -0.00984073 -0.0188585 -0.0108351 -0.0186871 -0.0115894 -0.0177956 -0.0125838 -0.0173499 -0.013201 -0.0169041 -0.014161 -0.0158755 -0.0147097 -0.0153268 -0.0158412 -0.0147782 -0.0161155 -0.0139553 -0.0171784 -0.0132696 -0.0176242 -0.0123781 -0.0183442 -0.011418 -0.0187214 -0.0106979 -0.0193729 -0.00970357 -0.0197157 -0.00888066 -0.0205729 -0.00809203 -0.0208473 -0.00696051 -0.0213616 -0.00579471 -0.0215673 -0.00517753 -0.0222874 -0.00370313 -0.0224245 -0.00298308 -0.022836 -0.00171441 -0.0234189 -0.000377171 0 -0.000274306zm0 0.000274306l0 -0.000137153 0 -0.000137153 0 0.000274306zm-0.44897 0.442524l-0.137084 0 0.000274306 0 0.000685765 -0.0297622 0.00226302 -0.029385 0.00356598 -0.0290764 0.00534897 -0.0283564 0.00658334 -0.0281506 0.00778343 -0.0274649 0.00918925 -0.0269506 0.0105951 -0.0263677 0.0117266 -0.025579 0.0130295 -0.0252361 0.0140925 -0.0240361 0.0153268 -0.0236932 0.0162869 -0.0226988 0.0175213 -0.0217045 0.0184128 -0.0212244 0.0195786 -0.0201272 0.0200929 -0.01903 0.0211901 -0.0182071 0.0222188 -0.0170413 0.0229731 -0.0160812 0.0236589 -0.0151897 0.024619 -0.013921 0.0252704 -0.0128581 0.0261276 -0.0115551 0.0264705 -0.0102179 0.0272249 -0.00908639 0.0277735 -0.00798916 0.0285278 -0.00620617 0.028665 -0.00528039 0.029385 -0.00353169 0.0297622 -0.00226302 0.0298308 -0.000651477 0 0.136124 -0.0233846 0.000651477 -0.022836 0.00171441 -0.0223902 0.00298308 -0.0222874 0.00370313 -0.021533 0.00517753 -0.0213273 0.00579471 -0.0208473 0.00696051 -0.0205729 0.00809203 -0.0196815 0.00888066 -0.0193729 0.00970357 -0.0187214 0.0106979 -0.0183099 0.011418 -0.0176242 0.0123781 -0.0168698 0.0132696 -0.0163898 0.0139553 -0.0158412 0.0147782 -0.0147097 0.0153268 -0.014161 0.0158755 -0.013201 0.0169041 -0.0125838 0.0173499 -0.0115551 0.0177956 -0.0108694 0.0186871 -0.00980644 0.0188585 -0.0090521 0.0196815 -0.00792058 0.01999 -0.00706338 0.0205729 -0.00620617 0.0210187 -0.00493751 0.0212244 -0.00377171 0.0219788 -0.00301737 0.0220816 -0.00171441 0.0224588 -0.000685765 0.022836 0.000274306 0zm-0.000274306 0l0.000137153 0 0.000137153 0 -0.000274306 0z"/>
  </g>
  <g>
   <path class="fil0" d="M0.67301 0.934595c0,0.516655 0.424077,0.934595 0.946733,0.934595 0.523136,0 0.947213,-0.417939 0.947213,-0.934595 0,-0.516107 -0.424077,-0.934595 -0.947213,-0.934595 -0.522656,0 -0.946733,0.418488 -0.946733,0.934595z"/>
   <path class="fil5" d="M2.85055 3.44264c0,0.0845891 -0.0729654,0.153097 -0.162972,0.153097l-2.17542 0c-0.0901095,0 -0.162732,-0.0685079 -0.162732,-0.153097l0.0273963 -0.724819c0,-0.534519 0.221605,-0.787292 0.50918,-0.787292l0.428294 0c0.0967271,0.0289736 0.199215,0.0445061 0.30544,0.0445061 0.106294,0 0.209021,-0.0155326 0.305817,-0.0445061l0.403881 0c0.251641,0 0.485076,0.229011 0.485076,0.707915l0.0360369 0.804197z"/>
   <path class="fil6 str0" d="M0.815649 0.934595c0,0.438821 0.360198,0.793807 0.804128,0.793807 0.444341,0 0.804539,-0.354986 0.804539,-0.793807 0,-0.438375 -0.360198,-0.793807 -0.804539,-0.793807 -0.44393,0 -0.804128,0.355432 -0.804128,0.793807z"/>
   <path class="fil7" d="M0.75369 2.53442c0,0 -0.195374,0.376245 -0.0455691,0.464023 0.149702,0.0877779 0.325601,0.0877779 0.436284,0.043889 0.110648,-0.043889 0.110648,-0.451405 0.0260248,-0.463989 -0.0846577,-0.0125495 -0.312606,-0.137942 -0.312606,-0.137942 0,0 -0.0911724,-0.0188242 -0.104133,0.0940184z"/>
   <path class="fil8" d="M1.94531 3.24291c-0.0715253,0.0896295 -0.195306,0.0627475 -0.286478,0.031408 -0.0911724,-0.031408 -0.221433,-0.031408 -0.136776,0.0500951 0.0846577,0.0815032 0.0846577,0.0376142 0.15632,0.0815032 0.0716281,0.043889 0.110682,0.0689537 0.19534,0.0250647 0.0846234,-0.0438204 0.0911724,0.0690222 0.234429,-0.01879 0.143222,-0.0877779 0.201855,-0.0752284 0.117197,-0.125392 -0.0846577,-0.0501637 -0.201821,-0.150423 -0.20837,-0.188105 -0.00651477,-0.0376142 -0.0781086,-0.043889 -0.104202,0.043889 -0.0259905,0.0878465 0.0976872,0.0188242 0.0325395,0.100327z"/>
   <path class="fil9" d="M0.75465 3.00674c-0.0929897,-0.0688851 -0.0651477,-0.188071 -0.0325395,-0.275849 0.0325395,-0.0877779 0.0325395,-0.21317 -0.0521181,-0.131667 -0.0846577,0.0815032 -0.0390543,0.0815032 -0.0846577,0.150491 -0.0456034,0.0689537 -0.0715939,0.106568 -0.0260248,0.188071 0.0456034,0.0815032 -0.0716624,0.0877779 0.01951,0.225754 0.0911724,0.137873 0.0781772,0.194311 0.130227,0.112808 0.0521181,-0.0815032 0.15632,-0.194311 0.195409,-0.200621 0.03902,-0.00627475 0.0456377,-0.0751941 -0.0456034,-0.100327 -0.0911724,-0.0250647 -0.0195786,0.0940527 -0.104202,0.0313395z"/>
   <path class="fil8" d="M2.32958 2.49684c-0.0493751,0.0118637 -0.267003,0.0188585 -0.273517,0.169315 -0.00654905,0.150423 0.169281,0.169281 0.240978,0.244509 0.0715939,0.0751941 0.156252,0.263334 0.20837,0.231926 0.0520838,-0.0313395 0.0455691,-0.106534 0.0651477,-0.175487 0.0194757,-0.0690222 0.0845548,-0.100327 0,-0.200689 -0.0847263,-0.100259 -0.0195786,-0.131667 -0.0782115,-0.206895 -0.0586329,-0.0752284 -0.110682,-0.0752284 -0.162766,-0.0626789z"/>
   <path class="fil9" d="M2.14391 3.22138c0.0492722,-0.0118637 0.2669,-0.0188585 0.273517,-0.169281 0.00644619,-0.150457 -0.169384,-0.16935 -0.240978,-0.244544 -0.0716967,-0.0751941 -0.15632,-0.263299 -0.20837,-0.231994 -0.0521181,0.031408 -0.0456034,0.106636 -0.0651477,0.175556 -0.01951,0.0690222 -0.0846577,0.100362 0,0.200621 0.0846577,0.100362 0.0195443,0.131667 0.0781086,0.206964 0.0586329,0.0752284 0.110751,0.0751598 0.162869,0.0626789z"/>
   <path class="fil7" d="M2.16469 2.53322c0,0 -0.136844,-0.281129 -0.258225,-0.237823 -0.121312,0.0433403 -0.201821,0.141473 -0.226097,0.223216 -0.0242418,0.0818118 0.220816,0.26834 0.26714,0.226851 0.0462891,-0.0414202 0.226028,-0.111128 0.226028,-0.111128 0,0 0.0530782,-0.0422431 -0.00884637,-0.101116z"/>
   <path class="fil9" d="M1.88092 2.30897c0.0962471,-0.0232817 0.163864,0.0570899 0.207204,0.123952 0.0433746,0.0667935 0.129952,0.132593 0.118054,0.0358312 -0.0117266,-0.0969329 -0.0356255,-0.0678221 -0.0592158,-0.133141 -0.0236589,-0.0652505 -0.0358998,-0.101665 -0.116031,-0.115277 -0.0800631,-0.0135781 -0.0229388,-0.0917896 -0.165887,-0.105916 -0.142776,-0.0140925 -0.174904,-0.0520153 -0.146034,0.0239675 0.0288364,0.0761542 0.0519467,0.201923 0.0357284,0.230143 -0.0161155,0.0282535 0.0279106,0.0686451 0.0931269,0.0235217 0.0651134,-0.0451919 -0.0545869,-0.0618903 0.0330539,-0.0830804z"/>
   <path class="fil7" d="M1.46596 3.4291c0.0153954,-0.0330196 0.11082,-0.157486 0.0233503,-0.229971 -0.0875379,-0.0725196 -0.179328,0.0168012 -0.257368,0.0223902 -0.07804,0.00552041 -0.229903,-0.033431 -0.234909,0.00994359 -0.0049718,0.0434089 0.0432375,0.0742683 0.075777,0.116614 0.0326081,0.042586 0.0216702,0.0932297 0.120729,0.0919954 0.0989902,-0.00133724 0.0880522,0.0493751 0.16016,0.0510552 0.0721082,0.0017487 0.0959728,-0.0272934 0.11226,-0.0620274z"/>
   <path class="fil9" d="M1.11519 2.99388c-0.0154297,0.032951 -0.110888,0.157486 -0.023316,0.230006 0.0874693,0.0724854 0.179293,-0.0169041 0.257265,-0.0223902 0.07804,-0.00552041 0.229971,0.0333625 0.234874,-0.0100465 0.00500608,-0.0434089 -0.0432375,-0.0742683 -0.0757427,-0.116683 -0.0325395,-0.0424146 -0.0215673,-0.0930926 -0.12066,-0.0918239 -0.0991273,0.00123438 -0.0881208,-0.0493408 -0.160229,-0.0511581 -0.0721082,-0.0017487 -0.0959385,0.027362 -0.112191,0.062096z"/>
   <path class="fil7" d="M1.8719 2.71992c0,0 0.00312023,-0.327658 -0.132936,-0.339797 -0.13609,-0.012138 -0.259082,0.0458434 -0.320972,0.113048 -0.0618903,0.0671021 0.0828404,0.35238 0.146617,0.333316 0.0637076,-0.0190986 0.267791,-0.0064119 0.267791,-0.0064119 0,0 0.0705309,-0.0168012 0.0395001,-0.100156z"/>
   <path class="fil8" d="M0.786024 2.61643c0.0182756,-0.0862349 0.11442,-0.108214 0.189443,-0.116237 0.0749198,-0.00809203 0.166092,-0.0510209 0.0779029,-0.0801659 -0.0882922,-0.0291793 -0.0726911,0.00161155 -0.138353,-0.00558898 -0.0657306,-0.00716624 -0.102042,-0.0118637 -0.145656,0.0467692 -0.0437175,0.0586672 -0.0883608,-0.0182071 -0.157452,0.0903495 -0.0691251,0.108625 -0.114557,0.119186 -0.0375113,0.126352 0.0771143,0.00720053 0.194792,0.0388829 0.21269,0.0630904 0.0178985,0.0242075 0.0703938,0.00510895 0.0573299,-0.0650105 -0.0128924,-0.0700852 -0.0750227,0.01903 -0.0583929,-0.0595587z"/>
   <path class="fil8" d="M0.782183 3.26527c0.0303451,-0.0245847 0.18015,-0.101116 0.13129,-0.208575 -0.048895,-0.107459 -0.178642,-0.0627475 -0.255516,-0.0918239 -0.07684,-0.0290421 -0.203021,-0.132798 -0.228291,-0.0937098 -0.0253733,0.0391229 0.00593187,0.0895609 0.0168012,0.144354 0.0108008,0.0546212 -0.0236932,0.0980987 0.071251,0.14041 0.0949442,0.042346 0.0604502,0.0856863 0.128204,0.119117 0.0678564,0.0332939 0.104271,0.0161498 0.136261,-0.00977215z"/>
   <path class="fil9" d="M0.654768 2.69698c-0.0303108,0.0244818 -0.180185,0.101116 -0.131324,0.208575 0.0488608,0.107459 0.178642,0.0627475 0.25555,0.0917553 0.0768057,0.0291107 0.202986,0.132936 0.228291,0.0937784 0.0253047,-0.0390886 -0.00603473,-0.0895952 -0.0168355,-0.144319 -0.0107665,-0.0546555 0.0236246,-0.0981672 -0.0712167,-0.140445 -0.0949784,-0.042346 -0.0605188,-0.0857549 -0.128238,-0.119049 -0.0678221,-0.0333968 -0.104271,-0.0161841 -0.136227,0.00970357z"/>
   <path class="fil9" d="M1.16049 3.24281c-0.0516038,0.0418317 -0.117814,0.0121723 -0.165029,-0.0161498 -0.0472492,-0.0283221 -0.120455,-0.0437175 -0.0831833,0.0120009 0.037237,0.0558213 0.042826,0.0311337 0.0774914,0.0642905 0.0345968,0.0330539 0.0533868,0.051741 0.106499,0.0370313 0.0531468,-0.0146411 0.0425517,0.0494779 0.13417,0.0171098 0.0915839,-0.0324367 0.123026,-0.0185842 0.0818118,-0.0566785 -0.0412488,-0.0382314 -0.0943613,-0.108419 -0.0931955,-0.130261 0.00109722,-0.0218416 -0.0383343,-0.0338425 -0.0641533,0.0123438 -0.0257162,0.0463234 0.0524953,0.0221159 0.00558898,0.060313z"/>
   <path class="fil7" d="M1.05546 2.32834c0.000960071,0.0281164 -0.0215673,0.146719 0.0653877,0.16863 0.0870236,0.0219445 0.119529,-0.0708738 0.172196,-0.100396 0.0526325,-0.0295908 0.17271,-0.0523924 0.160812,-0.0843491 -0.0118637,-0.0320938 -0.0566785,-0.0377514 -0.0944298,-0.056747 -0.0379571,-0.0189614 -0.0482778,-0.0581186 -0.117197,-0.024619 -0.0687822,0.0335682 -0.0792058,-0.00552041 -0.130227,0.017007 -0.0510895,0.0225617 -0.0574671,0.0507466 -0.0565413,0.0804745z"/>
   <path class="fil9" d="M1.45567 2.51737c-0.000960071,-0.0281164 0.021533,-0.146685 -0.0654563,-0.168664 -0.0870236,-0.0219102 -0.119563,0.0709081 -0.172161,0.10043 -0.0526325,0.0294879 -0.172813,0.0523924 -0.160778,0.0844177 0.011898,0.0320252 0.0566099,0.0376828 0.0944298,0.0567128 0.0379228,0.0189957 0.0481407,0.0580843 0.117129,0.0245161 0.0689194,-0.0335682 0.0792058,0.00558898 0.130295,-0.0169727 0.0511238,-0.0225274 0.0573985,-0.0507123 0.0565413,-0.0804402z"/>
   <path class="fil8" d="M1.78073 3.00248c0,0 0.00305165,-0.327693 -0.13297,-0.339831 -0.136056,-0.0121723 -0.259116,0.0458434 -0.321007,0.113048 -0.0618903,0.0671021 0.082909,0.35238 0.146617,0.333316 0.0637076,-0.0191328 0.267791,-0.0064119 0.267791,-0.0064119 0,0 0.0704966,-0.0168355 0.0395686,-0.100122z"/>
   <path class="fil7" d="M0.694783 2.89897c0.0182413,-0.0862349 0.114488,-0.108214 0.189408,-0.116237 0.0750227,-0.00809203 0.166127,-0.0510209 0.0779372,-0.0801659 -0.0882579,-0.0291793 -0.0726225,0.00161155 -0.138422,-0.00558898 -0.065662,-0.00720053 -0.101973,-0.0118637 -0.145588,0.0467692 -0.0436489,0.0586672 -0.0883608,-0.0182413 -0.157417,0.0903495 -0.0690908,0.108625 -0.114523,0.119186 -0.0375799,0.126386 0.0771486,0.00716624 0.194826,0.0388486 0.212724,0.0630561 0.017967,0.0242075 0.0702909,0.00507466 0.0573985,-0.0650448 -0.012961,-0.0700509 -0.075057,0.0190643 -0.0584615,-0.0595244z"/>
   <path class="fil9" d="M1.61223 2.67222c0.0895609,0.017487 0.112397,0.110168 0.120729,0.182311 0.00840062,0.0721425 0.0529753,0.159955 0.0832519,0.0750227 0.0303794,-0.0850006 -0.00157726,-0.0699137 0.00572614,-0.13321 0.00747484,-0.0632961 0.0123438,-0.0982015 -0.0485522,-0.140205 -0.0607931,-0.042106 0.0189957,-0.0850348 -0.0938469,-0.151623 -0.11274,-0.0664849 -0.123781,-0.110237 -0.131255,-0.0360712 -0.00750913,0.0741655 -0.0403573,0.187488 -0.0655248,0.204735 -0.0250647,0.0173156 -0.00510895,0.067685 0.0676507,0.0552041 0.0727597,-0.0124123 -0.0198186,-0.0721425 0.0618217,-0.0561641z"/>
   <path class="fil7" d="M0.644002 3.56059c0.0303108,-0.0245847 0.180185,-0.101116 0.131358,-0.208575 -0.0488608,-0.107459 -0.178676,-0.0627475 -0.25555,-0.0918239 -0.07684,-0.0290421 -0.203021,-0.132798 -0.228325,-0.0937098 -0.0252704,0.0391229 0.00603473,0.0895952 0.0168355,0.144354 0.0108694,0.0546212 -0.0236246,0.098133 0.0713196,0.140376 0.0948413,0.0423803 0.0604502,0.0857206 0.128135,0.119117 0.0678221,0.0333625 0.104271,0.0162183 0.136227,-0.00973786z"/>
   <path class="fil9" d="M0.563527 2.97951c-0.0303108,0.0244818 -0.180185,0.101116 -0.131358,0.208507 0.0488608,0.107528 0.178676,0.0628161 0.255585,0.0918239 0.0768742,0.0290764 0.202986,0.132936 0.228291,0.0937784 0.0253733,-0.0390543 -0.00596615,-0.0895952 -0.0168355,-0.144285 -0.0108008,-0.054724 0.0236246,-0.0982015 -0.0712853,-0.140479 -0.0948756,-0.042346 -0.0604502,-0.0857549 -0.128135,-0.119049 -0.0678564,-0.033431 -0.104305,-0.0161841 -0.136261,0.00970357z"/>
   <path class="fil9" d="M1.06924 3.52535c-0.0515352,0.0418659 -0.117746,0.0122066 -0.165029,-0.0161498 -0.0471806,-0.0283221 -0.120386,-0.0437518 -0.0832176,0.0120009 0.0372713,0.0558213 0.0428603,0.0312023 0.0774914,0.0642562 0.0346654,0.0330882 0.0534211,0.0518095 0.106602,0.0370656 0.0531468,-0.0146411 0.0424831,0.0494779 0.13417,0.0171098 0.0915153,-0.0324367 0.122992,-0.0185842 0.0817432,-0.0566785 -0.0411802,-0.0382314 -0.0943613,-0.108454 -0.0931269,-0.130261 0.000994359,-0.0218416 -0.0383343,-0.0338425 -0.0642219,0.0123438 -0.0257162,0.0463577 0.0525296,0.0221159 0.00558898,0.060313z"/>
   <path class="fil7" d="M0.96422 2.61088c0.000960071,0.0281164 -0.0216016,0.146754 0.0653877,0.168664 0.0870236,0.0218759 0.119495,-0.0709081 0.172196,-0.100499 0.052701,-0.0295222 0.172778,-0.0523239 0.160812,-0.0842805 -0.011898,-0.0320938 -0.0566099,-0.0377514 -0.0943613,-0.056747 -0.0379571,-0.0189614 -0.0483464,-0.0581186 -0.117197,-0.024619 -0.0688165,0.0335682 -0.0792058,-0.00552041 -0.130295,0.017007 -0.0510895,0.0225617 -0.0574671,0.0507466 -0.0565413,0.0804745z"/>
   <path class="fil9" d="M1.36443 2.79991c-0.000925783,-0.0281164 0.0216016,-0.146685 -0.0654563,-0.168664 -0.086955,-0.0219102 -0.119495,0.0709081 -0.172093,0.100396 -0.052701,0.0295908 -0.172778,0.0524267 -0.160846,0.0844519 0.011898,0.0320252 0.0565756,0.0376828 0.0944298,0.0567128 0.0379228,0.0189957 0.0482093,0.0580843 0.11706,0.0245161 0.068988,-0.0335682 0.0792744,0.0055547 0.130398,-0.0169727 0.0510552,-0.0225274 0.0574328,-0.0507123 0.056507,-0.0804402z"/>
   <path class="fil8" d="M2.32001 3.0292c0,0 0.00305165,-0.327693 -0.132936,-0.339831 -0.136021,-0.012138 -0.259151,0.0458434 -0.321041,0.113048 -0.0618903,0.0671021 0.082909,0.35238 0.146617,0.33335 0.0637761,-0.0191328 0.26786,-0.0064119 0.26786,-0.0064119 0,0 0.0705309,-0.0168355 0.0395001,-0.100156z"/>
   <path class="fil7" d="M1.2341 2.92571c0.0182756,-0.0862349 0.114454,-0.108214 0.189374,-0.116271 0.0750227,-0.00805774 0.166127,-0.0509866 0.0780058,-0.0801659 -0.0882922,-0.029145 -0.0726225,0.00161155 -0.138422,-0.00558898 -0.0657306,-0.00716624 -0.101973,-0.0117609 -0.145656,0.0467692 -0.0436489,0.0587015 -0.0882922,-0.0182071 -0.157383,0.0903495 -0.0690565,0.108659 -0.114557,0.119186 -0.0375113,0.126386 0.07708,0.00723482 0.194792,0.0388486 0.21269,0.0630561 0.0178985,0.0242418 0.0703252,0.00510895 0.0573299,-0.0650105 -0.012961,-0.0700509 -0.0750913,0.01903 -0.0584272,-0.0595244z"/>
   <path class="fil9" d="M2.15152 2.69893c0.0896295,0.0175213 0.112397,0.110168 0.120797,0.182311 0.00840062,0.0721768 0.0529068,0.159955 0.0831833,0.0750227 0.0303794,-0.0849663 -0.00157726,-0.0699137 0.005829,-0.13321 0.00737197,-0.0632961 0.0122409,-0.0981672 -0.0485522,-0.14017 -0.0608959,-0.0421403 0.0189614,-0.0850691 -0.0938812,-0.151623 -0.112843,-0.0664849 -0.123781,-0.110237 -0.131255,-0.0360712 -0.00754341,0.0741655 -0.0404258,0.187488 -0.0654905,0.204735 -0.025099,0.0172813 -0.0052461,0.0677536 0.0675478,0.0552384 0.0727597,-0.0124809 -0.0197157,-0.072211 0.0618217,-0.0562327z"/>
   <path class="fil7" d="M1.2303 3.57452c0.0302765,-0.0244818 0.18015,-0.101116 0.13129,-0.208575 -0.048895,-0.107459 -0.17871,-0.0627132 -0.255516,-0.0918239 -0.0769085,-0.0290421 -0.203021,-0.132798 -0.228291,-0.0937098 -0.0253733,0.0391572 0.00593187,0.0895952 0.0167327,0.144354 0.0108694,0.0546555 -0.023556,0.098133 0.0713196,0.14041 0.0949442,0.042346 0.0604502,0.0856863 0.128204,0.119117 0.0677536,0.0333625 0.104202,0.0161841 0.136261,-0.00977215z"/>
   <path class="fil9" d="M1.53512 3.19714c-0.0303108,0.0245161 -0.180185,0.101116 -0.131358,0.208575 0.0488608,0.107459 0.178676,0.0627475 0.255585,0.0917553 0.0768742,0.0291107 0.202986,0.132936 0.228291,0.0937784 0.0253733,-0.0390543 -0.00596615,-0.0895609 -0.0168355,-0.144285 -0.0108008,-0.0546898 0.0236246,-0.0981672 -0.0712853,-0.140479 -0.0948756,-0.042346 -0.0604502,-0.0857549 -0.128135,-0.119049 -0.0678564,-0.0333968 -0.104305,-0.0161841 -0.136261,0.00970357z"/>
   <path class="fil9" d="M1.6086 3.55206c-0.0516038,0.0418659 -0.11778,0.0122066 -0.165098,-0.0161498 -0.0471806,-0.0283221 -0.120386,-0.0436489 -0.0831147,0.0120352 0.0371685,0.0558213 0.0427232,0.031168 0.0774571,0.0642562 0.0346311,0.0331567 0.0534211,0.0517753 0.106534,0.0370656 0.0532154,-0.0146754 0.0425517,0.0494779 0.13417,0.0170755 0.0915839,-0.0324367 0.122958,-0.0185499 0.0818118,-0.0566442 -0.0412488,-0.0382314 -0.0943613,-0.108454 -0.0931955,-0.130295 0.00109722,-0.0218416 -0.0383685,-0.0338425 -0.0641533,0.0123438 -0.0257162,0.0463577 0.052461,0.0221502 0.00558898,0.060313z"/>
   <path class="fil8" d="M2.76641 3.465c0,0 0.00305165,-0.327693 -0.133004,-0.339762 -0.136021,-0.0121723 -0.259082,0.0457748 -0.320972,0.112945 -0.0618903,0.067205 0.082909,0.352483 0.146617,0.33335 0.0637761,-0.0190643 0.267791,-0.00634333 0.267791,-0.00634333 0,0 0.0705995,-0.0169041 0.0395686,-0.10019z"/>
   <path class="fil7" d="M1.59896 2.94869c0.0182413,-0.0863378 0.11442,-0.108248 0.189443,-0.11634 0.0749541,-0.00809203 0.166127,-0.0509523 0.0779029,-0.0800973 -0.0882579,-0.0291793 -0.0726911,0.00154297 -0.138422,-0.00565756 -0.0657306,-0.00713196 -0.101973,-0.0117952 -0.145691,0.0468377 -0.0436146,0.0585986 -0.0882579,-0.0182413 -0.157314,0.0903495 -0.0691594,0.108591 -0.114591,0.119186 -0.0375456,0.126352 0.0771143,0.00720053 0.194826,0.0388829 0.212724,0.0630904 0.0178985,0.0241389 0.0702909,0.00504037 0.0573299,-0.0650791 -0.0129952,-0.0700166 -0.0750913,0.01903 -0.0584272,-0.0594558z"/>
   <path class="fil9" d="M2.51635 2.7218c0.0895609,0.0175899 0.112397,0.110202 0.120797,0.182413 0.00843491,0.0721082 0.0529068,0.159886 0.0832861,0.0750227 0.0302079,-0.0850006 -0.00168012,-0.0699823 0.00569185,-0.133278 0.00740626,-0.0632275 0.0122752,-0.0981672 -0.0485864,-0.14017 -0.0608273,-0.0420717 0.0189614,-0.0850691 -0.0938812,-0.151657 -0.112774,-0.0664849 -0.123712,-0.110237 -0.131153,-0.0360712 -0.00754341,0.0742341 -0.0403916,0.187557 -0.0655934,0.204735 -0.0250304,0.0173841 -0.00517753,0.0677536 0.0676164,0.0552727 0.0727597,-0.0124809 -0.0197157,-0.0722453 0.0618217,-0.056267z"/>
   <path class="fil9" d="M1.97336 3.57493c-0.0515352,0.0418659 -0.11778,0.0122066 -0.165029,-0.0161155 -0.0471806,-0.0283221 -0.120455,-0.0436832 -0.0831147,0.0120009 0.0371685,0.0558213 0.042826,0.0312023 0.0774571,0.0642905 0.0346654,0.0331224 0.0534211,0.0518438 0.106534,0.0370999 0.0532154,-0.0147097 0.0424831,0.0494094 0.13417,0.0170413 0.0916182,-0.032471 0.122992,-0.0185157 0.0817432,-0.0566099 -0.0411459,-0.0382314 -0.0942927,-0.108454 -0.0931269,-0.13033 0.00109722,-0.0218416 -0.0383343,-0.0338425 -0.064119,0.0124123 -0.0257505,0.0462548 0.052461,0.0220473 0.00548612,0.0602102z"/>
   <path class="fil7" d="M1.86844 2.66049c0.000857206,0.0281849 -0.0216702,0.146719 0.0653534,0.168664 0.0869893,0.0219102 0.119495,-0.0708395 0.172127,-0.10043 0.052701,-0.0295908 0.172778,-0.0523924 0.160915,-0.0843834 -0.0119323,-0.0319909 -0.0567128,-0.0377514 -0.0944641,-0.0566442 -0.0379914,-0.0190643 -0.0482778,-0.0581186 -0.117197,-0.024619 -0.0687479,0.0334653 -0.0792058,-0.00552041 -0.130295,0.017007 -0.0510209,0.0224931 -0.0573985,0.050678 -0.0564385,0.0804059z"/>
   <path class="fil9" d="M2.26861 2.84959c-0.00102865,-0.0281164 0.021533,-0.146685 -0.0655248,-0.168664 -0.0868864,-0.0219788 -0.119495,0.0708052 -0.172127,0.100396 -0.0525982,0.0295222 -0.172778,0.0523582 -0.160812,0.0844519 0.0119666,0.0320252 0.0566785,0.0376142 0.0944298,0.0566442 0.0379228,0.0190643 0.0482093,0.05805 0.117129,0.0245847 0.068988,-0.0335682 0.0792058,0.00552041 0.130398,-0.0169727 0.0510552,-0.022596 0.0573642,-0.0507123 0.056507,-0.0804402z"/>
   <path class="fil7" d="M2.33654 2.8952c0.0182413,-0.0863035 0.114488,-0.108214 0.189443,-0.116271 0.0749198,-0.00812631 0.166127,-0.0509523 0.0779029,-0.0801316 -0.0881894,-0.0292479 -0.0726225,0.00154297 -0.138422,-0.00565756 -0.0657306,-0.00709767 -0.101973,-0.0117952 -0.145622,0.0468377 -0.0436146,0.0585986 -0.0883265,-0.0182071 -0.157383,0.0903495 -0.0690565,0.108591 -0.114591,0.119186 -0.0375456,0.126386 0.0771143,0.00716624 0.194826,0.0388486 0.21269,0.0629875 0.0178985,0.0242075 0.0703252,0.00510895 0.0573985,-0.0650448 -0.0130295,-0.0699823 -0.075057,0.0190643 -0.0584615,-0.0594558z"/>
   <path class="fil7" d="M2.3327 3.54393c0.0302765,-0.0244818 0.18015,-0.101013 0.131324,-0.208473 -0.0489293,-0.107459 -0.178642,-0.0628161 -0.25555,-0.0918239 -0.0769085,-0.0290421 -0.202986,-0.132867 -0.228291,-0.0937098 -0.0253047,0.0390543 0.00593187,0.0895952 0.0168012,0.144285 0.0108008,0.0546555 -0.0236246,0.0980987 0.071251,0.14041 0.0949442,0.042346 0.0604502,0.0857549 0.128204,0.119152 0.0677536,0.0332939 0.104305,0.0161498 0.136261,-0.00984073z"/>
   <path class="fil9" d="M2.20521 2.97567c-0.0302079,0.0245504 -0.180116,0.101116 -0.131187,0.208575 0.0488608,0.107459 0.178573,0.0627132 0.255482,0.0918239 0.0768742,0.0290764 0.202986,0.132867 0.228291,0.0937098 0.025339,-0.0389857 -0.00596615,-0.0895952 -0.0168355,-0.144285 -0.0108008,-0.054724 0.0236589,-0.098133 -0.0712167,-0.14041 -0.0949442,-0.0424146 -0.0604502,-0.0857549 -0.128307,-0.119117 -0.067685,-0.0333282 -0.104133,-0.0161841 -0.136227,0.00970357z"/>
   <path class="fil9" d="M2.64722 3.31502c-0.0516038,0.0418659 -0.11778,0.0122066 -0.165029,-0.0161155 -0.0472492,-0.0283221 -0.120455,-0.0436489 -0.0831833,0.0120009 0.0371685,0.0558213 0.042826,0.0312023 0.0774571,0.0642905 0.0346654,0.0331224 0.0534211,0.0517753 0.106636,0.0370999 0.0531125,-0.0147097 0.0424488,0.0494094 0.134067,0.0170413 0.0916182,-0.032471 0.123061,-0.0185157 0.0818118,-0.0566099 -0.0412488,-0.0382314 -0.0943613,-0.108419 -0.0931955,-0.13033 0.00109722,-0.0218416 -0.0382657,-0.0338425 -0.0641533,0.0124123 -0.0257162,0.0462548 0.0525639,0.0220473 0.00558898,0.0602102z"/>
   <path class="fil7" d="M1.05179 2.38327c0.0303451,-0.0245161 0.180219,-0.101047 0.131358,-0.208507 -0.048895,-0.107459 -0.17871,-0.0628161 -0.255516,-0.0918239 -0.0769085,-0.0290421 -0.203021,-0.132867 -0.228291,-0.0937441 -0.0253733,0.0390886 0.00593187,0.0896295 0.0167327,0.144319 0.0108694,0.054724 -0.023556,0.0981672 0.0713196,0.140479 0.0948413,0.0422774 0.0604502,0.085652 0.128204,0.119117 0.0677536,0.0332596 0.104202,0.0160812 0.136193,-0.00984073z"/>
   <path class="fil9" d="M0.549161 2.14295c-0.0302765,0.0244818 -0.18015,0.101116 -0.131221,0.208541 0.0488608,0.107494 0.178642,0.0627475 0.25555,0.0917896 0.0768742,0.0291793 0.202918,0.132901 0.228291,0.0937784 0.0252704,-0.0390886 -0.00603473,-0.0895952 -0.0168355,-0.144319 -0.0108694,-0.0546898 0.023556,-0.0981672 -0.0712853,-0.140445 -0.0948756,-0.0423803 -0.0604502,-0.0857892 -0.128238,-0.119049 -0.0677536,-0.033431 -0.104202,-0.0161841 -0.136261,0.00970357z"/>
   <path class="fil9" d="M1.33093 2.39133c-0.0515009,0.0418659 -0.117746,0.0122409 -0.164995,-0.0160812 -0.0471806,-0.0283564 -0.120455,-0.0436832 -0.0832176,0.0119666 0.0372713,0.0558213 0.0428946,0.0312023 0.07756,0.0642905 0.0346311,0.0331224 0.0534211,0.0517753 0.106534,0.0371342 0.0531125,-0.0147439 0.0424488,0.0493751 0.134136,0.017007 0.0916182,-0.0324367 0.122992,-0.0184814 0.0817432,-0.0565756 -0.0412145,-0.0382314 -0.0942584,-0.108454 -0.0931269,-0.130364 0.00109722,-0.0218416 -0.0383343,-0.0338425 -0.064119,0.0124123 -0.0257505,0.0462548 0.052461,0.0220473 0.00548612,0.0602102z"/>
   <path class="fil8" d="M1.60586 2.19812c0.0182756,-0.0862692 0.11442,-0.108248 0.189443,-0.116271 0.0749198,-0.00809203 0.166092,-0.0509866 0.0779029,-0.0801659 -0.0881894,-0.029145 -0.0726225,0.00161155 -0.138353,-0.00558898 -0.0657306,-0.00716624 -0.101939,-0.0118637 -0.145656,0.0467692 -0.0437175,0.0587015 -0.0883608,-0.0182071 -0.157417,0.0903495 -0.0690908,0.108659 -0.114591,0.119186 -0.0374771,0.126386 0.0771143,0.00720053 0.194723,0.0388486 0.21269,0.0630561 0.0178642,0.0242418 0.0703252,0.00510895 0.0573642,-0.0650105 -0.0129952,-0.0700852 -0.0750913,0.01903 -0.0584957,-0.0595244z"/>
   <path class="fil7" d="M2.39822 2.4813c0.0303108,-0.0244818 0.180185,-0.101013 0.131324,-0.208473 -0.048895,-0.107459 -0.17871,-0.0627475 -0.255516,-0.0918582 -0.07684,-0.0290079 -0.203021,-0.132764 -0.228325,-0.0936755 -0.025339,0.0390543 0.00596615,0.0895609 0.0168355,0.144354 0.0108008,0.0546212 -0.0236246,0.0980987 0.071251,0.140376 0.0948413,0.0423117 0.0604502,0.0857206 0.128204,0.119117 0.0677536,0.0332939 0.104202,0.0161498 0.136227,-0.00984073z"/>
   <path class="fil9" d="M2.30835 1.96012c-0.0303108,0.0244818 -0.180116,0.101047 -0.131255,0.208507 0.0488265,0.107494 0.178642,0.0627818 0.255482,0.0918239 0.0768742,0.0290764 0.202986,0.132901 0.228325,0.0937784 0.025339,-0.0390886 -0.00600044,-0.0895952 -0.0168012,-0.144354 -0.0108694,-0.054724 0.023556,-0.098133 -0.0713196,-0.14041 -0.0948756,-0.042346 -0.0604159,-0.0857549 -0.128204,-0.119117 -0.0677536,-0.0333625 -0.104236,-0.0161841 -0.136227,0.00977215z"/>
   <path class="fil7" d="M1.50786 2.28394c0.0302765,-0.0244818 0.18015,-0.101013 0.131324,-0.208473 -0.0488608,-0.107459 -0.178642,-0.0627475 -0.25555,-0.0918239 -0.0768057,-0.0290421 -0.202986,-0.132798 -0.228291,-0.0937098 -0.0253733,0.0390543 0.00593187,0.0895609 0.0168012,0.144285 0.0108008,0.0546898 -0.0236246,0.0982015 0.071251,0.140445 0.0948756,0.0423117 0.0605188,0.0857206 0.128204,0.119117 0.0678221,0.0332939 0.104236,0.0161498 0.136261,-0.00984073z"/>
   <path class="fil9" d="M0.488127 2.34957c-0.0302765,0.0244818 -0.18015,0.101013 -0.13129,0.208473 0.048895,0.107528 0.17871,0.0628161 0.255516,0.0918239 0.0769085,0.0291107 0.203089,0.132936 0.228394,0.0938126 0.0252704,-0.0390886 -0.00603473,-0.0896295 -0.0168355,-0.144319 -0.0108694,-0.054724 0.023556,-0.0981672 -0.0713196,-0.140479 -0.0948756,-0.042346 -0.0604159,-0.0857549 -0.128135,-0.119015 -0.0678221,-0.033431 -0.104271,-0.0161841 -0.13633,0.00970357z"/>
   <path class="fil9" d="M1.73889 2.07146c-0.0516038,0.0419002 -0.117746,0.012138 -0.165029,-0.0161841 -0.0471463,-0.0283221 -0.12042,-0.0436832 -0.0831833,0.0120695 0.0371685,0.0558213 0.0427574,0.0311337 0.0774571,0.0642562 0.0346654,0.0330882 0.0534211,0.0517753 0.106534,0.0370656 0.0532154,-0.0147439 0.0425517,0.0494779 0.134238,0.0170413 0.0915496,-0.032471 0.122992,-0.0185157 0.0817432,-0.0566099 -0.0412145,-0.0382314 -0.0943613,-0.108419 -0.0931955,-0.130261 0.00109722,-0.0219102 -0.0383343,-0.0338425 -0.064119,0.0123438 -0.0257505,0.0463234 0.052461,0.0221159 0.0055547,0.0602787z"/>
   <path class="fil9" d="M1.01287 1.97943c-0.0625075,0.0473178 -0.142913,0.0137839 -0.200243,-0.0182071 -0.0572614,-0.0319909 -0.146205,-0.0493408 -0.100979,0.0135439 0.0451919,0.0630904 0.0520496,0.0352483 0.0940869,0.0726225 0.0420717,0.0374771 0.0648391,0.05853 0.129301,0.0419688 0.0644619,-0.0166298 0.0515352,0.0558213 0.162801,0.0192357 0.111197,-0.0366541 0.149257,-0.0208815 0.0991959,-0.0639476 -0.0500266,-0.0432032 -0.11442,-0.122512 -0.113014,-0.147302 0.00133724,-0.0246532 -0.0464949,-0.0382314 -0.0778343,0.0140582 -0.0312366,0.0522553 0.0636733,0.0248933 0.00668621,0.0680279z"/>
   <path class="fil7" d="M2.12028 2.21207c0.0303108,-0.0244818 0.180185,-0.101013 0.131324,-0.208473 -0.00281164,-0.00617188 -0.00600044,-0.0117609 -0.00929211,-0.0169727l-0.455245 0c0.000925783,0.0436489 -0.0116923,0.0803031 0.0687822,0.116169 0.0948413,0.0423117 0.0604502,0.0857206 0.128204,0.119117 0.0677536,0.0332939 0.104202,0.0161498 0.136227,-0.00984073z"/>
   <path class="fil10" d="M2.9564 3.44264c0,0.0725539 -0.0310652,0.138079 -0.0812289,0.185157 -0.0484836,0.0455691 -0.114866,0.0737883 -0.187591,0.0737883l0 -0.000411459 -2.17542 0 0 0.000411459c-0.0727597,0 -0.139073,-0.0282192 -0.187454,-0.0737197 -0.0501294,-0.0471463 -0.081126,-0.112705 -0.081126,-0.185225l0.000411459 -0.00373742 0.0272592 -0.721082 -0.000274306 0c0,-0.276295 0.0570214,-0.486722 0.151828,-0.633338 0.113083,-0.17487 0.27674,-0.259802 0.4632,-0.259802l0.18862 0c0.159063,0.0954585 0.345694,0.150354 0.545115,0.150354 0.199558,0 0.386429,-0.0549298 0.54556,-0.150354l0.164138 0c0.168081,0 0.32879,0.0801659 0.44129,0.244338 0.0905553,0.132147 0.148502,0.320115 0.149222,0.564865l0.0360369 0.804197 0.000411459 0.00456034zm-0.225925 0.0313395c0.0087435,-0.00822918 0.0142296,-0.0193729 0.0142296,-0.0313395l0.000205729 0 -0.0358312 -0.799636 0 -0.00456034c0,-0.200689 -0.0439232,-0.349843 -0.112808,-0.450376 -0.0698452,-0.101905 -0.166881,-0.151691 -0.266831,-0.151691l-1.44343 0c-0.11418,0 -0.215262,0.0532839 -0.286204,0.163041 -0.0731368,0.113117 -0.117129,0.284592 -0.117129,0.518404l-0.000411459 0.00373742 -0.0272592 0.721082 0.000274306 0c0,0.0120695 0.00541754,0.0232131 0.0141268,0.031408 0.0103893,0.00977215 0.0255447,0.0158412 0.0427574,0.0158412l0 0.000411459 2.17542 0 0 -0.000411459c0.0173156,0 0.032471,-0.00610331 0.0428946,-0.0159097z"/>
   <path class="fil8" d="M1.80445 0.278421c0,0 -0.200998,0.433026 -0.0469063,0.534074 0.153989,0.101047 0.334893,0.101047 0.44873,0.0505409 0.113803,-0.0505409 0.113803,-0.519638 0.0268134,-0.534108 -0.0871264,-0.0144696 -0.321555,-0.158789 -0.321555,-0.158789 0,0 -0.0937098,-0.0217045 -0.107082,0.108282z"/>
   <path class="fil8" d="M1.13827 0.24739c0,0 -0.200929,0.433129 -0.046872,0.534177 0.154057,0.101047 0.334893,0.101047 0.44873,0.0505409 0.113871,-0.0505409 0.113871,-0.519673 0.0268134,-0.534108 -0.0871264,-0.0144696 -0.321487,-0.158823 -0.321487,-0.158823 0,0 -0.0937441,-0.0216702 -0.107185,0.108214z"/>
   <path class="fil9" d="M0.986061 0.364827c-0.0312366,0.0282192 -0.185294,0.116306 -0.135061,0.240018 0.0502323,0.123781 0.183716,0.0723139 0.262819,0.105711 0.079103,0.0334996 0.208781,0.153028 0.234806,0.107974 0.0260248,-0.0449862 -0.00617188,-0.103139 -0.0173156,-0.166195 -0.0111437,-0.0629875 0.0242418,-0.112945 -0.0733426,-0.161635 -0.0975501,-0.0487579 -0.0621646,-0.0987159 -0.13177,-0.137119 -0.0697766,-0.0384028 -0.107254,-0.0186185 -0.140136,0.0112465z"/>
   <path class="fil9" d="M0.831627 0.526599c-0.0154983,0.0405973 -0.114214,0.195683 -0.0164926,0.280101 0.0977558,0.0845891 0.1939,-0.0277049 0.278421,-0.0375113 0.0843491,-0.00977215 0.25075,0.0313395 0.254419,-0.0216016 0.00377171,-0.0528382 -0.0498208,-0.0883608 -0.086715,-0.138662 -0.0369627,-0.050198 -0.027122,-0.112191 -0.134478,-0.106602 -0.107459,0.0055547 -0.0976186,-0.0564385 -0.17583,-0.0556498 -0.0782458,0.000720053 -0.103002,0.0370313 -0.119323,0.0799259z"/>
   <path class="fil9" d="M2.03096 0.449245c-0.031168,0.0282192 -0.185294,0.11634 -0.134993,0.240018 0.0502323,0.123781 0.183716,0.0723139 0.262751,0.105711 0.0790687,0.0334996 0.208781,0.153028 0.234772,0.107974 0.0260934,-0.0449862 -0.00610331,-0.103139 -0.0172127,-0.166195 -0.0111437,-0.0629875 0.0242418,-0.112945 -0.0733426,-0.161635 -0.0975501,-0.0487236 -0.0621646,-0.0987159 -0.131838,-0.137119 -0.069708,-0.0384028 -0.107185,-0.0186185 -0.140136,0.0112465z"/>
   <path class="fil0 str0" d="M2.42233 0.880488c-0.0282192,-0.413105 -0.376656,-0.7397 -0.802551,-0.7397 -0.425483,0 -0.774057,0.326596 -0.802276,0.7397l1.60483 0z"/>
   <path class="fil7" d="M1.95717 2.30225c-0.0137496,0.0163212 -0.0116923,0.040563 0.00456034,0.0543469l0.0982701 0.0828747c0.0162526,0.013681 0.040563,0.0116923 0.0541754,-0.00469749 0.0137839,-0.0162183 0.0117952,-0.0404944 -0.00452605,-0.054244l-0.0982358 -0.0828747c-0.0162183,-0.013681 -0.0405287,-0.0117266 -0.054244,0.00459462z"/>
   <path class="fil0" d="M2.05417 2.63567c-0.0609645,0.072211 -0.221296,0.037237 -0.293576,-0.023796"/>
   <path class="fil0" d="M1.7606 2.61187c-0.0723139,-0.0609302 -0.0606216,-0.130295 0.000342882,-0.202541"/>
   <line class="fil0" x1="1.76094" y1="2.40933" x2="1.96671" y2= "2.18495" />
   <path class="fil0" d="M1.96671 2.18495c0.0609645,-0.0722453 0.138113,-0.127518 0.210393,-0.0664506"/>
   <path class="fil0" d="M2.1771 2.1185c0.0722453,0.0609988 0.133724,0.21317 0.0726911,0.285347"/>
   <line class="fil0" x1="2.24979" y1="2.40385" x2="2.05417" y2= "2.63567" />
   <path class="fil10 str1" d="M2.2239 2.06316c0.0459462,0.0388143 0.0881208,0.105265 0.108728,0.172504 0.0233503,0.0762228 0.021053,0.15752 -0.0274992,0.215022l-0.195649 0.231789 -0.000102865 0.000137153c-0.0242418,0.028665 -0.0563013,0.0469749 -0.0921325,0.0568156l-0.583483 0.845308 -0.604056 -0.350083 0.812289 -0.751187c0.00829776,-0.0413516 0.0305165,-0.0817775 0.0636047,-0.120969l0.00198872 -0.00226302 0.205798 -0.224211 0.000102865 0.000102865c0.0363798,-0.0427574 0.0788287,-0.0809545 0.125769,-0.10091l-6.85765e-005 -0.000137153c0.00637761,-0.00270877 0.0129267,-0.00500608 0.0193386,-0.00706338l1.34184 -1.58977c-0.0164584,-0.000617188 -0.0329167,-0.00603473 -0.047112,-0.0167327l-0.00377171 -0.00288021 -0.0982015 -0.0829776c-0.0176927,-0.014984 -0.0276706,-0.0357284 -0.0294536,-0.0570214 -0.00178299,-0.0212587 0.00469749,-0.0433403 0.0196129,-0.0610331 0.0149497,-0.0176242 0.0356941,-0.0277049 0.0570214,-0.0294879 0.0212244,-0.00178299 0.0432718,0.00459462 0.0610331,0.0195786l0.0982015 0.0828747c0.0148125,0.0125838 0.0241732,0.029145 0.0279106,0.0467006l0.052461 -0.0621646 0.107905 0.0910353 -1.42821 1.69202 0.0061376 0.00500608zm-0.0999502 0.106156l-0.0809545 0.0959042 0.0957671 0.0807145 0.000171441 0.000171441c0.0141268,0.0120352 0.0234532,0.0275677 0.0274649,0.0441975l0.0280478 -0.0332253c0.0123781,-0.0146754 0.00984073,-0.0457748 -0.000274306,-0.0788287 -0.0128924,-0.0420374 -0.0376828,-0.0822918 -0.063879,-0.104408 -0.00212587,-0.00178299 -0.00421745,-0.00336025 -0.00634333,-0.00452605zm-0.188997 0.223902l-0.0774914 0.0917896 0.134307 0.109894c0.00267448,-0.00168012 0.00504037,-0.00370313 0.00692623,-0.00589758l0.0805431 -0.0954585c-0.016767,-0.0011658 -0.0336025,-0.00737197 -0.0476264,-0.0189271l-0.000754341 -0.000651477 -6.85765e-005 6.85765e-005 -0.0958356 -0.0808174zm0.149874 0.0164926l6.85765e-005 0m-0.00658334 0.000720053l-6.85765e-005 0"/>
   <path class="fil11" d="M2.2239 2.06316c0.0459462,0.0388143 0.0881208,0.105265 0.108728,0.172504 0.0233503,0.0762228 0.021053,0.15752 -0.0274992,0.215022l-0.195649 0.231789 -0.000102865 0.000137153c-0.0242418,0.028665 -0.0563013,0.0469749 -0.0921325,0.0568156l-0.583483 0.845308 -0.604056 -0.350083 0.812289 -0.751187c0.00829776,-0.0413516 0.0305165,-0.0817775 0.0636047,-0.120969l0.00198872 -0.00226302 0.205798 -0.224211 0.000102865 0.000102865c0.0363798,-0.0427574 0.0788287,-0.0809545 0.125769,-0.10091l-6.85765e-005 -0.000137153c0.00637761,-0.00270877 0.0129267,-0.00500608 0.0193386,-0.00706338l1.34184 -1.58977c-0.0164584,-0.000617188 -0.0329167,-0.00603473 -0.047112,-0.0167327l-0.00377171 -0.00288021 -0.0982015 -0.0829776c-0.0176927,-0.014984 -0.0276706,-0.0357284 -0.0294536,-0.0570214 -0.00178299,-0.0212587 0.00469749,-0.0433403 0.0196129,-0.0610331 0.0149497,-0.0176242 0.0356941,-0.0277049 0.0570214,-0.0294879 0.0212244,-0.00178299 0.0432718,0.00459462 0.0610331,0.0195786l0.0982015 0.0828747c0.0148125,0.0125838 0.0241732,0.029145 0.0279106,0.0467006l0.052461 -0.0621646 0.107905 0.0910353 -1.42821 1.69202 0.0061376 0.00500608zm-0.0999502 0.106156l-0.0809545 0.0959042 0.0957671 0.0807145 0.000171441 0.000171441c0.0141268,0.0120352 0.0234532,0.0275677 0.0274649,0.0441975l0.0280478 -0.0332253c0.0123781,-0.0146754 0.00984073,-0.0457748 -0.000274306,-0.0788287 -0.0128924,-0.0420374 -0.0376828,-0.0822918 -0.063879,-0.104408 -0.00212587,-0.00178299 -0.00421745,-0.00336025 -0.00634333,-0.00452605zm-0.188997 0.223902l-0.0774914 0.0917896 0.134307 0.109894c0.00267448,-0.00168012 0.00504037,-0.00370313 0.00692623,-0.00589758l0.0805431 -0.0954585c-0.016767,-0.0011658 -0.0336025,-0.00737197 -0.0476264,-0.0189271l-0.000754341 -0.000651477 -6.85765e-005 6.85765e-005 -0.0958356 -0.0808174zm0.149874 0.0164926l6.85765e-005 0m-0.00658334 0.000720053l-6.85765e-005 0"/>
   <rect class="fil12" x="0.904147" y="3.4903" width="1.03417" height="0.210873"/>
  </g>
 </g>
</svg>
