<?xml version="1.0" encoding="UTF-8"?>
<!DOCTYPE svg PUBLIC "-//W3C//DTD SVG 1.1//EN" "http://www.w3.org/Graphics/SVG/1.1/DTD/svg11.dtd">
<!-- Creator: CorelDRAW -->
<svg xmlns="http://www.w3.org/2000/svg" xml:space="preserve" width="0.421469in" height="0.42502in" style="shape-rendering:geometricPrecision; text-rendering:geometricPrecision; image-rendering:optimizeQuality; fill-rule:evenodd; clip-rule:evenodd"
viewBox="0 0 4.62676 4.66574"
 xmlns:xlink="http://www.w3.org/1999/xlink">
 <defs>
  <style type="text/css">
   <![CDATA[
    .str0 {stroke:#4C4C4C;stroke-width:0.266836}
    .fil0 {fill:none;fill-rule:nonzero}
    .fil5 {fill:#4C4C4C;fill-rule:nonzero}
    .fil2 {fill:#999999;fill-rule:nonzero}
    .fil7 {fill:white;fill-rule:nonzero}
    .fil6 {fill:url(#id0);fill-rule:nonzero}
    .fil4 {fill:url(#id1);fill-rule:nonzero}
    .fil3 {fill:url(#id2);fill-rule:nonzero}
    .fil1 {fill:url(#id3);fill-rule:nonzero}
   ]]>
  </style>
  <linearGradient id="id0" gradientUnits="userSpaceOnUse" x1="1.01725" y1="1.17803" x2="3.04493" y2="1.17803">
   <stop offset="0" style="stop-color:white"/>
   <stop offset="0.811765" style="stop-color:#E3E3E3"/>
   <stop offset="1" style="stop-color:#C6C6C6"/>
  </linearGradient>
  <linearGradient id="id1" gradientUnits="userSpaceOnUse" x1="0.477011" y1="1.85506" x2="1.75604" y2="1.85506">
   <stop offset="0" style="stop-color:#ECECEC"/>
   <stop offset="0.811765" style="stop-color:#ECECEC"/>
   <stop offset="1" style="stop-color:#ECECEC"/>
  </linearGradient>
  <linearGradient id="id2" gradientUnits="userSpaceOnUse" x1="2.90308" y1="1.52495" x2="4.18211" y2="1.52495">
   <stop offset="0" style="stop-color:#ECECEC"/>
   <stop offset="0.811765" style="stop-color:#ECECEC"/>
   <stop offset="1" style="stop-color:#ECECEC"/>
  </linearGradient>
  <linearGradient id="id3" gradientUnits="userSpaceOnUse" x1="2.53222" y1="3.00832" x2="4.52061" y2="3.00832">
   <stop offset="0" style="stop-color:#ECECEC"/>
   <stop offset="0.811765" style="stop-color:#ECECEC"/>
   <stop offset="1" style="stop-color:#ECECEC"/>
  </linearGradient>
 </defs>
 <g id="Layer_x0020_1">
  <metadata id="CorelCorpID_0Corel-Layer"/>
  <path class="fil0" d="M2.77442 1.52495c0,0.419141 0.344026,0.758153 0.768007,0.758153 0.42437,0 0.768396,-0.339012 0.768396,-0.758153 0,-0.418665 -0.344026,-0.75811 -0.768396,-0.75811 -0.423981,0 -0.768007,0.339444 -0.768007,0.75811z"/>
  <path class="fil1" d="M4.54088 3.55954c0,0.068589 -0.0591672,0.124169 -0.132208,0.124169l-1.76473 0c-0.0730838,0 -0.131992,-0.05558 -0.131992,-0.124169l0.0222147 -0.587998c0,-0.433619 0.179792,-0.638652 0.413047,-0.638652l0.34744 0c0.0784862,0.0235113 0.161597,0.0360881 0.247776,0.0360881 0.0862225,0 0.169549,-0.0125768 0.248079,-0.0360881l0.327645 0c0.204125,0 0.393512,0.185757 0.393512,0.574255l0.0292162 0.652395z"/>
  <path class="fil2" d="M4.62676 3.55954c0,0.0588647 -0.0251968,0.111981 -0.0659094,0.150187 -0.0393296,0.0369525 -0.0931808,0.0598587 -0.152175,0.0598587l0 -0.000345754 -1.76473 0 0 0.000345754c-0.0589943,0 -0.112802,-0.0229062 -0.152045,-0.0598155 -0.0406694,-0.0382491 -0.065823,-0.0914088 -0.065823,-0.15023l0.000345754 -0.00302535 0.0220851 -0.584973 -0.000216096 0c0,-0.224135 0.0462879,-0.394851 0.123175,-0.513748 0.0917546,-0.141889 0.224481,-0.21078 0.375749,-0.21078l0.15304 0c0.12901,0.077449 0.280407,0.121965 0.442177,0.121965 0.161899,0 0.31347,-0.0445591 0.442566,-0.121965l0.133159 0c0.136357,0 0.266706,0.065045 0.357985,0.198204 0.0734728,0.107227 0.120452,0.259705 0.121057,0.458254l0.0292162 0.652352 0.000345754 0.00371686zm-0.183293 0.0254129c0.00708796,-0.00669899 0.0115396,-0.0157318 0.0115396,-0.0254129l0.000172877 0 -0.0290434 -0.648678 0 -0.00371686c0,-0.162807 -0.0356559,-0.283778 -0.0915385,-0.365333 -0.0566605,-0.0826785 -0.135363,-0.123045 -0.216442,-0.123045l-1.17094 0c-0.0926189,0 -0.174606,0.0432193 -0.232174,0.132251 -0.0592969,0.0917546 -0.094996,0.230834 -0.094996,0.420524l-0.000345754 0.00302535 -0.0221283 0.584973 0.000259316 0c0,0.00976756 0.00436515,0.0188004 0.0114531,0.0254562 0.00842776,0.00795235 0.020702,0.0128793 0.0346619,0.0128793l0 0.000302535 1.76473 0 0 -0.000302535c0.0140463,0 0.0263638,-0.00497022 0.0347915,-0.0129226z"/>
  <g>
   <path class="fil3" d="M2.89016 1.52495c0,0.355997 0.292162,0.643967 0.652309,0.643967 0.360449,0 0.652655,-0.28797 0.652655,-0.643967 0,-0.355608 -0.292206,-0.643924 -0.652655,-0.643924 -0.360146,0 -0.652309,0.288316 -0.652309,0.643924z"/>
   <path id="1" class="fil2" d="M3.54247 2.08278l0 0.172272 0 -0.000345754 -0.0376008 -0.000821167 -0.0375143 -0.00285247 -0.0370389 -0.00440837 -0.0361313 -0.00665577 -0.0359585 -0.00786591 -0.0350076 -0.0100269 -0.0343161 -0.0114531 -0.0333653 -0.0128793 -0.0329331 -0.0145649 -0.0318526 -0.0162072 -0.0306857 -0.0175038 -0.0301671 -0.0191461 -0.0289569 -0.0202698 -0.0276603 -0.02148 -0.0270553 -0.0229062 -0.0253265 -0.0239867 -0.0246782 -0.0253697 -0.0232088 -0.0267527 -0.0220851 -0.0273578 -0.0205292 -0.0286112 -0.019319 -0.0298213 -0.0177631 -0.0303399 -0.0164233 -0.0318094 -0.014781 -0.0322416 -0.0133548 -0.0332789 -0.0115828 -0.0339271 -0.00981078 -0.0346619 -0.0082981 -0.0355263 -0.00674221 -0.0357424 -0.00449481 -0.03665 -0.00285247 -0.0371254 -0.00121014 -0.0375143 0.172791 0 0.000518632 0.028784 0.00216096 0.0283951 0.0038033 0.0278332 0.00475412 0.0277036 0.00622358 0.026796 0.00782269 0.0265366 0.00890317 0.0258884 0.00998366 0.0252401 0.0114099 0.0248079 0.0123607 0.0237706 0.0137005 0.0235977 0.0145649 0.0223876 0.0158615 0.021869 0.0166394 0.0213071 0.0178496 0.0200105 0.0185411 0.019319 0.0199673 0.0186275 0.0203131 0.017547 0.0216096 0.0167259 0.0222147 0.0156022 0.0227333 0.014392 0.0239435 0.0134412 0.0244189 0.0122311 0.0248079 0.0111938 0.0259316 0.0101998 0.0262773 0.00877352 0.0268824 0.00726084 0.0271417 0.00656933 0.0280925 0.00466768 0.0282222 0.00371686 0.028784 0.00216096 0.0294756 0.000821167 0 -0.000345754zm0 0.000345754l0 -0.000172877 0 -0.000172877 0 0.000345754zm0.566605 -0.558177l0.172099 0 0.000345754 0 -0.00121014 0.0375143 -0.00285247 0.0371254 -0.00449481 0.03665 -0.00674221 0.0357424 -0.0082981 0.0355263 -0.00981078 0.0346619 -0.0115828 0.0339271 -0.013398 0.0332789 -0.0147378 0.0322416 -0.0164666 0.0318094 -0.0177199 0.0303399 -0.0193622 0.0298213 -0.0205292 0.0286112 -0.0220851 0.0273578 -0.0232088 0.0267527 -0.0246782 0.0253697 -0.0253265 0.0239867 -0.0270553 0.0229062 -0.0277036 0.02148 -0.0289569 0.0202698 -0.0302103 0.0191461 -0.0306857 0.0175038 -0.0318526 0.0162072 -0.0329763 0.0145649 -0.0333653 0.0128793 -0.0343161 0.0114531 -0.0350508 0.0100269 -0.0360017 0.00786591 -0.0361313 0.00665577 -0.0370822 0.00440837 -0.0375143 0.00285247 -0.037644 0.00116692 0 -0.172272 0.0295188 -0.000475412 0.028784 -0.00216096 0.0282654 -0.00371686 0.0280925 -0.00466768 0.0271849 -0.00656933 0.0269256 -0.00726084 0.0262773 -0.00877352 0.0259316 -0.0101998 0.0248511 -0.0111938 0.0244189 -0.0122311 0.0239435 -0.0134412 0.0227766 -0.014392 0.0222147 -0.0156022 0.0216529 -0.0167259 0.0203131 -0.017547 0.0199673 -0.0186275 0.0185411 -0.019319 0.0178496 -0.0200105 0.0166394 -0.0213071 0.0158615 -0.021869 0.0146081 -0.0223876 0.0136573 -0.0235977 0.0124039 -0.0237706 0.0113667 -0.0248079 0.0100269 -0.0252401 0.00890317 -0.0258884 0.00782269 -0.0265366 0.00622358 -0.026796 0.00475412 -0.0277036 0.0038033 -0.0278332 0.00216096 -0.0283951 0.000518632 -0.028784 0.000345754 0zm-0.000345754 0l0.000172877 0 0.000172877 0 -0.000345754 0zm-0.566259 -0.558134l0 -0.171581 0 -0.000345754 0.037644 0.00116692 0.0375143 0.00285247 0.0370822 0.00445159 0.0361313 0.00665577 0.0360017 0.00782269 0.0350508 0.0100701 0.0343161 0.0114531 0.0333653 0.0128793 0.0329763 0.0145649 0.0318526 0.0162072 0.0310315 0.017547 0.0298645 0.0191461 0.0289569 0.0202698 0.0277036 0.02148 0.0270553 0.0229494 0.0253265 0.0239867 0.0246782 0.0253697 0.0232088 0.0267527 0.0220851 0.0273578 0.0205292 0.0286112 0.0193622 0.0298645 0.0177199 0.0302967 0.0164666 0.0318094 0.0147378 0.0322416 0.013398 0.0332356 0.0115828 0.0339704 0.00981078 0.0346187 0.0082981 0.035483 0.00674221 0.0357424 0.00449481 0.03665 0.00285247 0.0370389 0.000864386 0.0375143 -0.172099 0 -0.000864386 -0.028784 -0.00216096 -0.0283086 -0.0038033 -0.0278332 -0.00475412 -0.0277036 -0.00622358 -0.0267527 -0.00782269 -0.0264934 -0.00890317 -0.0259316 -0.0100269 -0.0251968 -0.0113667 -0.0248079 -0.0124039 -0.0237706 -0.0136573 -0.0235545 -0.0146081 -0.0224308 -0.0158615 -0.021869 -0.0166394 -0.0213071 -0.0178496 -0.0200105 -0.0185411 -0.019319 -0.0199673 -0.0186275 -0.0203131 -0.0175903 -0.0216529 -0.0167259 -0.0222147 -0.0156022 -0.0231223 -0.014392 -0.0235977 -0.0134844 -0.0244189 -0.0122311 -0.0248511 -0.0111938 -0.0259316 -0.0101998 -0.0262773 -0.00877352 -0.0269256 -0.00730406 -0.0271849 -0.00652611 -0.0280925 -0.00466768 -0.0282654 -0.00376008 -0.028784 -0.00216096 -0.0295188 -0.000475412 0 -0.000345754zm0 0.000345754l0 -0.000172877 0 -0.000172877 0 0.000345754zm-0.565913 0.557788l-0.172791 0 0.000345754 0 0.000864386 -0.0375143 0.00285247 -0.0370389 0.00449481 -0.03665 0.00674221 -0.0357424 0.0082981 -0.035483 0.00981078 -0.0346187 0.0115828 -0.0339704 0.0133548 -0.0332356 0.014781 -0.0322416 0.0164233 -0.0318094 0.0177631 -0.0302967 0.019319 -0.0298645 0.0205292 -0.0286112 0.0220851 -0.0273578 0.0232088 -0.0267527 0.0246782 -0.0253697 0.0253265 -0.0239867 0.0267095 -0.0229494 0.0280061 -0.02148 0.0289569 -0.0202698 0.0298213 -0.0191461 0.0310315 -0.017547 0.0318526 -0.0162072 0.0329331 -0.0145649 0.0333653 -0.0128793 0.0343161 -0.0114531 0.0350076 -0.0100701 0.0359585 -0.00782269 0.0361313 -0.00665577 0.0370389 -0.00445159 0.0375143 -0.00285247 0.0376008 -0.000821167 0 0.171581 -0.0294756 0.000821167 -0.028784 0.00216096 -0.0282222 0.00376008 -0.0280925 0.00466768 -0.0271417 0.00652611 -0.0268824 0.00730406 -0.0262773 0.00877352 -0.0259316 0.0101998 -0.0248079 0.0111938 -0.0244189 0.0122311 -0.0235977 0.0134844 -0.0230791 0.014392 -0.0222147 0.0156022 -0.0212639 0.0167259 -0.0206588 0.0175903 -0.0199673 0.0186275 -0.0185411 0.019319 -0.0178496 0.0200105 -0.0166394 0.0213071 -0.0158615 0.021869 -0.0145649 0.0224308 -0.0137005 0.0235545 -0.0123607 0.0237706 -0.0114099 0.0248079 -0.00998366 0.0251968 -0.00890317 0.0259316 -0.00782269 0.0264934 -0.00622358 0.0267527 -0.00475412 0.0277036 -0.0038033 0.0278332 -0.00216096 0.0283086 -0.000864386 0.028784 0.000345754 0zm-0.000345754 0l0.000172877 0 0.000172877 0 -0.000345754 0z"/>
  </g>
  <path class="fil0" d="M0.348348 1.85506c0,0.419141 0.344026,0.758153 0.768007,0.758153 0.42437,0 0.768396,-0.339012 0.768396,-0.758153 0,-0.418665 -0.344026,-0.75811 -0.768396,-0.75811 -0.423981,0 -0.768007,0.339444 -0.768007,0.75811z"/>
  <path class="fil1" d="M2.11481 3.88965c0,0.068589 -0.0591672,0.124169 -0.132208,0.124169l-1.76473 0c-0.0730838,0 -0.131992,-0.05558 -0.131992,-0.124169l0.0222147 -0.587998c0,-0.433619 0.179792,-0.638652 0.413047,-0.638652l0.34744 0c0.0784862,0.0235113 0.161597,0.0360881 0.247776,0.0360881 0.0862225,0 0.169549,-0.0125768 0.248079,-0.0360881l0.327645 0c0.204125,0 0.393512,0.185757 0.393512,0.574255l0.0292162 0.652395z"/>
  <path class="fil2" d="M2.20068 3.88965c0,0.0588647 -0.0251968,0.111981 -0.0659094,0.150187 -0.0393296,0.0369525 -0.0931808,0.0598587 -0.152175,0.0598587l0 -0.000345754 -1.76473 0 0 0.000345754c-0.0589943,0 -0.112802,-0.0229062 -0.152045,-0.0598155 -0.0406694,-0.0382491 -0.065823,-0.0914088 -0.065823,-0.15023l0.000345754 -0.00302535 0.0220851 -0.584973 -0.000216096 0c0,-0.224135 0.0462879,-0.394851 0.123175,-0.513748 0.0917546,-0.141889 0.224481,-0.21078 0.375749,-0.21078l0.15304 0c0.12901,0.077449 0.280407,0.121965 0.442177,0.121965 0.161899,0 0.31347,-0.0445591 0.442566,-0.121965l0.133159 0c0.136357,0 0.266706,0.065045 0.357985,0.198204 0.0734728,0.107227 0.120452,0.259705 0.121057,0.458254l0.0292162 0.652352 0.000345754 0.00371686zm-0.183293 0.0254129c0.00708796,-0.00669899 0.0115396,-0.0157318 0.0115396,-0.0254129l0.000172877 0 -0.0290434 -0.648678 0 -0.00371686c0,-0.162807 -0.0356559,-0.283778 -0.0915385,-0.365333 -0.0566605,-0.0826785 -0.135363,-0.123045 -0.216442,-0.123045l-1.17094 0c-0.0926189,0 -0.174606,0.0432193 -0.232174,0.132251 -0.0592969,0.0917546 -0.094996,0.230834 -0.094996,0.420524l-0.000345754 0.00302535 -0.0221283 0.584973 0.000259316 0c0,0.00976756 0.00436515,0.0188004 0.0114531,0.0254562 0.00842776,0.00795235 0.020702,0.0128793 0.0346619,0.0128793l0 0.000302535 1.76473 0 0 -0.000302535c0.0140463,0 0.0263638,-0.00497022 0.0347915,-0.0129226z"/>
  <g>
   <path class="fil4" d="M0.464089 1.85506c0,0.355997 0.292162,0.643967 0.652309,0.643967 0.360449,0 0.652655,-0.28797 0.652655,-0.643967 0,-0.355608 -0.292206,-0.643924 -0.652655,-0.643924 -0.360146,0 -0.652309,0.288316 -0.652309,0.643924z"/>
   <path id="1" class="fil2" d="M1.1164 2.41289l0 0.172272 0 -0.000345754 -0.0376008 -0.000821167 -0.0375143 -0.00285247 -0.0370389 -0.00440837 -0.0361313 -0.00665577 -0.0359585 -0.00786591 -0.0350076 -0.0100269 -0.0343161 -0.0114531 -0.0333653 -0.0128793 -0.0329331 -0.0145649 -0.0318526 -0.0162072 -0.0306857 -0.0175038 -0.0301671 -0.0191461 -0.0289569 -0.0202698 -0.0276603 -0.02148 -0.0270553 -0.0229062 -0.0253265 -0.0239867 -0.0246782 -0.0253697 -0.0232088 -0.0267527 -0.0220851 -0.0273578 -0.0205292 -0.0286112 -0.019319 -0.0298213 -0.0177631 -0.0303399 -0.0164233 -0.0318094 -0.014781 -0.0322416 -0.0133548 -0.0332789 -0.0115828 -0.0339271 -0.00981078 -0.0346619 -0.0082981 -0.0355263 -0.00674221 -0.0357424 -0.00449481 -0.03665 -0.00285247 -0.0371254 -0.00121014 -0.0375143 0.172791 0 0.000518632 0.028784 0.00216096 0.0283951 0.0038033 0.0278332 0.00475412 0.0277036 0.00622358 0.026796 0.00782269 0.0265366 0.00890317 0.0258884 0.00998366 0.0252401 0.0114099 0.0248079 0.0123607 0.0237706 0.0137005 0.0235977 0.0145649 0.0223876 0.0158615 0.021869 0.0166394 0.0213071 0.0178496 0.0200105 0.0185411 0.019319 0.0199673 0.0186275 0.0203131 0.017547 0.0216096 0.0167259 0.0222147 0.0156022 0.0227333 0.014392 0.0239435 0.0134412 0.0244189 0.0122311 0.0248079 0.0111938 0.0259316 0.0101998 0.0262773 0.00877352 0.0268824 0.00726084 0.0271417 0.00656933 0.0280925 0.00466768 0.0282222 0.00371686 0.028784 0.00216096 0.0294756 0.000821167 0 -0.000345754zm0 0.000345754l0 -0.000172877 0 -0.000172877 0 0.000345754zm0.566605 -0.558177l0.172099 0 0.000345754 0 -0.00121014 0.0375143 -0.00285247 0.0371254 -0.00449481 0.03665 -0.00674221 0.0357424 -0.0082981 0.0355263 -0.00981078 0.0346619 -0.0115828 0.0339271 -0.013398 0.0332789 -0.0147378 0.0322416 -0.0164666 0.0318094 -0.0177199 0.0303399 -0.0193622 0.0298213 -0.0205292 0.0286112 -0.0220851 0.0273578 -0.0232088 0.0267527 -0.0246782 0.0253697 -0.0253265 0.0239867 -0.0270553 0.0229062 -0.0277036 0.02148 -0.0289569 0.0202698 -0.0302103 0.0191461 -0.0306857 0.0175038 -0.0318526 0.0162072 -0.0329763 0.0145649 -0.0333653 0.0128793 -0.0343161 0.0114531 -0.0350508 0.0100269 -0.0360017 0.00786591 -0.0361313 0.00665577 -0.0370822 0.00440837 -0.0375143 0.00285247 -0.037644 0.00116692 0 -0.172272 0.0295188 -0.000475412 0.028784 -0.00216096 0.0282654 -0.00371686 0.0280925 -0.00466768 0.0271849 -0.00656933 0.0269256 -0.00726084 0.0262773 -0.00877352 0.0259316 -0.0101998 0.0248511 -0.0111938 0.0244189 -0.0122311 0.0239435 -0.0134412 0.0227766 -0.014392 0.0222147 -0.0156022 0.0216529 -0.0167259 0.0203131 -0.017547 0.0199673 -0.0186275 0.0185411 -0.019319 0.0178496 -0.0200105 0.0166394 -0.0213071 0.0158615 -0.021869 0.0146081 -0.0223876 0.0136573 -0.0235977 0.0124039 -0.0237706 0.0113667 -0.0248079 0.0100269 -0.0252401 0.00890317 -0.0258884 0.00782269 -0.0265366 0.00622358 -0.026796 0.00475412 -0.0277036 0.0038033 -0.0278332 0.00216096 -0.0283951 0.000518632 -0.028784 0.000345754 0zm-0.000345754 0l0.000172877 0 0.000172877 0 -0.000345754 0zm-0.566259 -0.558134l0 -0.171581 0 -0.000345754 0.037644 0.00116692 0.0375143 0.00285247 0.0370822 0.00445159 0.0361313 0.00665577 0.0360017 0.00782269 0.0350508 0.0100701 0.0343161 0.0114531 0.0333653 0.0128793 0.0329763 0.0145649 0.0318526 0.0162072 0.0310315 0.017547 0.0298645 0.0191461 0.0289569 0.0202698 0.0277036 0.02148 0.0270553 0.0229494 0.0253265 0.0239867 0.0246782 0.0253697 0.0232088 0.0267527 0.0220851 0.0273578 0.0205292 0.0286112 0.0193622 0.0298645 0.0177199 0.0302967 0.0164666 0.0318094 0.0147378 0.0322416 0.013398 0.0332356 0.0115828 0.0339704 0.00981078 0.0346187 0.0082981 0.035483 0.00674221 0.0357424 0.00449481 0.03665 0.00285247 0.0370389 0.000864386 0.0375143 -0.172099 0 -0.000864386 -0.028784 -0.00216096 -0.0283086 -0.0038033 -0.0278332 -0.00475412 -0.0277036 -0.00622358 -0.0267527 -0.00782269 -0.0264934 -0.00890317 -0.0259316 -0.0100269 -0.0251968 -0.0113667 -0.0248079 -0.0124039 -0.0237706 -0.0136573 -0.0235545 -0.0146081 -0.0224308 -0.0158615 -0.021869 -0.0166394 -0.0213071 -0.0178496 -0.0200105 -0.0185411 -0.019319 -0.0199673 -0.0186275 -0.0203131 -0.0175903 -0.0216529 -0.0167259 -0.0222147 -0.0156022 -0.0231223 -0.014392 -0.0235977 -0.0134844 -0.0244189 -0.0122311 -0.0248511 -0.0111938 -0.0259316 -0.0101998 -0.0262773 -0.00877352 -0.0269256 -0.00730406 -0.0271849 -0.00652611 -0.0280925 -0.00466768 -0.0282654 -0.00376008 -0.028784 -0.00216096 -0.0295188 -0.000475412 0 -0.000345754zm0 0.000345754l0 -0.000172877 0 -0.000172877 0 0.000345754zm-0.565913 0.557788l-0.172791 0 0.000345754 0 0.000864386 -0.0375143 0.00285247 -0.0370389 0.00449481 -0.03665 0.00674221 -0.0357424 0.0082981 -0.035483 0.00981078 -0.0346187 0.0115828 -0.0339704 0.0133548 -0.0332356 0.014781 -0.0322416 0.0164233 -0.0318094 0.0177631 -0.0302967 0.019319 -0.0298645 0.0205292 -0.0286112 0.0220851 -0.0273578 0.0232088 -0.0267527 0.0246782 -0.0253697 0.0253265 -0.0239867 0.0267095 -0.0229494 0.0280061 -0.02148 0.0289569 -0.0202698 0.0298213 -0.0191461 0.0310315 -0.017547 0.0318526 -0.0162072 0.0329331 -0.0145649 0.0333653 -0.0128793 0.0343161 -0.0114531 0.0350076 -0.0100701 0.0359585 -0.00782269 0.0361313 -0.00665577 0.0370389 -0.00445159 0.0375143 -0.00285247 0.0376008 -0.000821167 0 0.171581 -0.0294756 0.000821167 -0.028784 0.00216096 -0.0282222 0.00376008 -0.0280925 0.00466768 -0.0271417 0.00652611 -0.0268824 0.00730406 -0.0262773 0.00877352 -0.0259316 0.0101998 -0.0248079 0.0111938 -0.0244189 0.0122311 -0.0235977 0.0134844 -0.0230791 0.014392 -0.0222147 0.0156022 -0.0212639 0.0167259 -0.0206588 0.0175903 -0.0199673 0.0186275 -0.0185411 0.019319 -0.0178496 0.0200105 -0.0166394 0.0213071 -0.0158615 0.021869 -0.0145649 0.0224308 -0.0137005 0.0235545 -0.0123607 0.0237706 -0.0114099 0.0248079 -0.00998366 0.0251968 -0.00890317 0.0259316 -0.00782269 0.0264934 -0.00622358 0.0267527 -0.00475412 0.0277036 -0.0038033 0.0278332 -0.00216096 0.0283086 -0.000864386 0.028784 0.000345754 0zm-0.000345754 0l0.000172877 0 0.000172877 0 -0.000345754 0z"/>
  </g>
  <g>
   <path class="fil0" d="M0.83746 1.17803c0,0.651228 0.534536,1.17803 1.19333,1.17803 0.659397,0 1.19393,-0.5268 1.19393,-1.17803 0,-0.650537 -0.534536,-1.17803 -1.19393,-1.17803 -0.658792,0 -1.19333,0.527491 -1.19333,1.17803z"/>
   <path class="fil5" d="M3.71561 4.33935c0,0.091452 -0.0391567,0.174044 -0.102387,0.233384 -0.0611121,0.0574384 -0.144785,0.0930079 -0.236453,0.0930079l0 -0.000518632 -2.74205 0 0 0.000518632c-0.0917113,0 -0.175297,-0.0355695 -0.23628,-0.0929215 -0.0631866,-0.0594265 -0.102257,-0.142062 -0.102257,-0.233471l0.000518632 -0.0047109 0.0343593 -0.908902 -0.000345754 0c0,-0.348261 0.0718737,-0.613498 0.191375,-0.798304 0.142537,-0.220418 0.348823,-0.327473 0.583849,-0.327473l0.237749 0c0.0936994,0.0562283 0.195092,0.101392 0.30206,0.133418l4.32193e-005 0 0.000950824 0.000302535 0.00488378 0.00142624 0.00570495 0.00168555 0.000172877 4.32193e-005c0.0215664,0.00622358 0.0433057,0.0119717 0.0653044,0.0171581l0.00414905 0.000994044 0.0058346 0.0013398 0.000994044 0.000216096 0.00484056 0.00108048 0.00596426 0.0013398 0.000259316 4.32193e-005c0.0258019,0.00561851 0.0518632,0.0104158 0.0781837,0.0145217l0.00484056 0.000777947 0.00596426 0.000864386 0.000518632 8.64386e-005 0.000821167 0.000129658 0.021869 0.00302535 0.000994044 0.000129658 0.00609392 0.000777947 0.00427871 0.000518632 0.00181521 0.000216096 0.00609392 0.000734728 0.00354398 0.000388974 0.0024635 0.000259316 0.00618036 0.000691509 0.00276603 0.000259316 0.00942181 0.000994044 0.00211775 0.000172877 0.00397618 0.000345754 0.00622358 0.000561851 0.00129658 8.64386e-005 0.00479734 0.000432193 0.00674221 0.000518632 0.00548885 0.000388974 0.0176767 0.00121014 0.000950824 8.64386e-005 0.00609392 0.000345754 0.00453803 0.000216096 0.00790913 0.000388974 0.00376008 0.000172877 0.0024635 8.64386e-005 0.00613714 0.000216096 0.00302535 8.64386e-005 0.00946503 0.000345754 0.00229062 4.32193e-005 0.00393296 8.64386e-005 0.00622358 0.000129658 0.00151268 0 0.0110209 0.000172877 0.000777947 0 0.00544563 0 0.00622358 0 0.00635324 0 0.00544563 0 0.000777947 0 0.0110209 -0.000172877 0.00151268 0 0.00631002 -0.000129658 0.00393296 -8.64386e-005 0.00229062 -4.32193e-005 0.00937859 -0.000345754 0.00306857 -8.64386e-005 0.00622358 -0.000216096 0.00242028 -8.64386e-005 0.0038033 -0.000172877 0.00786591 -0.000388974 0.00453803 -0.000216096 0.00622358 -0.000345754 0.000864386 -8.64386e-005 0.0175903 -0.00121014 0.00557529 -0.000388974 0.00678543 -0.000518632 0.00475412 -0.000432193 0.00146946 -8.64386e-005 0.00609392 -0.000561851 0.00397618 -0.000345754 0.0204859 -0.00211775 0.0024635 -0.000259316 0.00363042 -0.000388974 0.00609392 -0.000734728 0.00168555 -0.000216096 0.00440837 -0.000518632 0.0060507 -0.000777947 0.000950824 -0.000129658 0.0218257 -0.00302535 0.000907605 -0.000129658 0.000475412 -8.64386e-005 0.00129658 -0.000172877c0.031723,-0.0047109 0.0631434,-0.0104591 0.0941316,-0.0173742l0.00479734 -0.00108048c0.0257155,-0.0058346 0.0511716,-0.0124472 0.0763253,-0.019708l0.000259316 -4.32193e-005 0.00570495 -0.00168555 0.00479734 -0.00142624 0.000907605 -0.000302535 8.64386e-005 0c0.106968,-0.0321119 0.208317,-0.0771897 0.302103,-0.133418l0.206891 0c0.211861,0 0.41443,0.101047 0.556232,0.307981 0.114142,0.166567 0.187183,0.403495 0.18809,0.711995l0.0454235 1.01367 0.000518632 0.00574817z"/>
   <path class="fil6 str0" d="M1.01725 1.17803c0,0.553121 0.454019,1.00057 1.01358,1.00057 0.560079,0 1.0141,-0.447449 1.0141,-1.00057 0,-0.552559 -0.454019,-1.00057 -1.0141,-1.00057 -0.55956,0 -1.01358,0.448011 -1.01358,1.00057z"/>
   <polygon class="fil7" points="1.23123,3.93188 2.86725,4.47436 3.26116,3.28579 1.62518,2.7436 "/>
   <polygon class="fil7" points="0.656588,4.35517 1.25517,2.54968 1.44309,2.61204 0.844548,4.41766 "/>
  </g>
 </g>
</svg>
