<?xml version="1.0" encoding="UTF-8"?>
<!DOCTYPE svg PUBLIC "-//W3C//DTD SVG 1.1//EN" "http://www.w3.org/Graphics/SVG/1.1/DTD/svg11.dtd">
<!-- Creator: CorelDRAW -->
<svg xmlns="http://www.w3.org/2000/svg" xml:space="preserve" width="0.421469in" height="0.42502in" style="shape-rendering:geometricPrecision; text-rendering:geometricPrecision; image-rendering:optimizeQuality; fill-rule:evenodd; clip-rule:evenodd"
viewBox="0 0 2.18541 2.20382"
 xmlns:xlink="http://www.w3.org/1999/xlink">
 <defs>
  <style type="text/css">
   <![CDATA[
    .str0 {stroke:#4C4C4C;stroke-width:0.126038}
    .fil0 {fill:none;fill-rule:nonzero}
    .fil5 {fill:white}
    .fil6 {fill:#4C4C4C;fill-rule:nonzero}
    .fil8 {fill:#878787;fill-rule:nonzero}
    .fil2 {fill:#999999;fill-rule:nonzero}
    .fil7 {fill:url(#id0);fill-rule:nonzero}
    .fil4 {fill:url(#id1);fill-rule:nonzero}
    .fil3 {fill:url(#id2);fill-rule:nonzero}
    .fil1 {fill:url(#id3);fill-rule:nonzero}
   ]]>
  </style>
  <linearGradient id="id0" gradientUnits="userSpaceOnUse" x1="0.564597" y1="0.637742" x2="1.35916" y2="0.637742">
   <stop offset="0" style="stop-color:white"/>
   <stop offset="0.811765" style="stop-color:#E3E3E3"/>
   <stop offset="1" style="stop-color:#C6C6C6"/>
  </linearGradient>
  <linearGradient id="id1" gradientUnits="userSpaceOnUse" x1="0.225312" y1="0.881406" x2="0.829452" y2="0.881406">
   <stop offset="0" style="stop-color:#ECECEC"/>
   <stop offset="0.811765" style="stop-color:#ECECEC"/>
   <stop offset="1" style="stop-color:#ECECEC"/>
  </linearGradient>
  <linearGradient id="id2" gradientUnits="userSpaceOnUse" x1="1.37125" y1="0.725482" x2="1.97539" y2="0.725482">
   <stop offset="0" style="stop-color:#ECECEC"/>
   <stop offset="0.811765" style="stop-color:#ECECEC"/>
   <stop offset="1" style="stop-color:#ECECEC"/>
  </linearGradient>
  <linearGradient id="id3" gradientUnits="userSpaceOnUse" x1="1.19607" y1="1.42614" x2="2.13527" y2="1.42614">
   <stop offset="0" style="stop-color:#ECECEC"/>
   <stop offset="0.811765" style="stop-color:#ECECEC"/>
   <stop offset="1" style="stop-color:#ECECEC"/>
  </linearGradient>
 </defs>
 <g id="Layer_x0020_1">
  <metadata id="CorelCorpID_0Corel-Layer"/>
  <path class="fil0" d="M1.31047 0.725482c0,0.197978 0.162498,0.358107 0.362762,0.358107 0.200448,0 0.362945,-0.16013 0.362945,-0.358107 0,-0.197753 -0.162498,-0.358087 -0.362945,-0.358087 -0.200264,0 -0.362762,0.160334 -0.362762,0.358087z"/>
  <path class="fil1" d="M2.14485 1.6865c0,0.0323974 -0.0279471,0.0586502 -0.0624472,0.0586502l-0.833555 0c-0.0345205,0 -0.0623452,-0.0262527 -0.0623452,-0.0586502l0.0104929 -0.277736c0,-0.204816 0.0849234,-0.301662 0.195099,-0.301662l0.16411 0c0.0370723,0.0111054 0.076329,0.0170459 0.117035,0.0170459 0.0407265,0 0.0800852,-0.00594055 0.117178,-0.0170459l0.154761 0c0.0964166,0 0.185872,0.0877405 0.185872,0.271244l0.0138 0.308153z"/>
  <path class="fil2" d="M2.18541 1.6865c0,0.0278042 -0.0119015,0.0528934 -0.0311318,0.0709396 -0.018577,0.0174542 -0.0440132,0.0282738 -0.0718786,0.0282738l0 -0.000163314 -0.833555 0 0 0.000163314c-0.0278655,0 -0.0532812,-0.0108196 -0.0718174,-0.0282533 -0.0192098,-0.0180666 -0.0310909,-0.0431762 -0.0310909,-0.07096l0.000163314 -0.001429 0.0104317 -0.276307 -0.000102071 0c0,-0.105868 0.0218637,-0.186505 0.0581807,-0.242664 0.0433395,-0.06702 0.106032,-0.0995604 0.177482,-0.0995604l0.0722869 0c0.0609366,0.0365824 0.132448,0.0576091 0.208858,0.0576091 0.0764719,0 0.148065,-0.0210471 0.209042,-0.0576091l0.0628964 0c0.064407,0 0.125976,0.0307235 0.169091,0.0936198 0.0347043,0.0506478 0.0568946,0.122669 0.0571804,0.216452l0.0138 0.308133 0.000163314 0.00175563zm-0.0865769 0.0120036c0.00334794,-0.00316421 0.00545061,-0.00743079 0.00545061,-0.0120036l8.16571e-005 0 -0.0137184 -0.306398 0 -0.00175563c0,-0.0769006 -0.0168418,-0.13404 -0.0432374,-0.172562 -0.0267631,-0.0390525 -0.0639375,-0.0581194 -0.102235,-0.0581194l-0.553084 0c-0.0437478,0 -0.0824736,0.0204143 -0.109665,0.0624677 -0.0280084,0.0433395 -0.0448706,0.109033 -0.0448706,0.198631l-0.000163314 0.001429 -0.0104521 0.276307 0.000122486 0c0,0.00461362 0.00206184,0.00888021 0.00540978,0.012024 0.00398078,0.00375623 0.00977843,0.00608345 0.0163722,0.00608345l0 0.0001429 0.833555 0 0 -0.0001429c0.00663464,0 0.0124527,-0.00234764 0.0164335,-0.00610387z"/>
  <g>
   <path class="fil3" d="M1.36514 0.725482c0,0.168152 0.138,0.304173 0.308113,0.304173 0.170255,0 0.308276,-0.13602 0.308276,-0.304173 0,-0.167969 -0.138021,-0.304152 -0.308276,-0.304152 -0.170112,0 -0.308113,0.136184 -0.308113,0.304152z"/>
   <path id="1" class="fil2" d="M1.67326 0.988969l0 0.0813713 0 -0.000163314 -0.0177604 -0.000387871 -0.0177196 -0.00134734 -0.017495 -0.00208226 -0.0170663 -0.0031438 -0.0169847 -0.0037154 -0.0165356 -0.00473611 -0.0162089 -0.00540978 -0.0157598 -0.00608345 -0.0155557 -0.00687961 -0.0150453 -0.00765535 -0.0144941 -0.00826778 -0.0142492 -0.00904352 -0.0136776 -0.00957429 -0.0130651 -0.0101459 -0.0127793 -0.0108196 -0.0119628 -0.0113299 -0.0116565 -0.0119832 -0.0109625 -0.0126364 -0.0104317 -0.0129222 -0.00969678 -0.0135142 -0.00912518 -0.0140858 -0.00839026 -0.0143308 -0.00775742 -0.0150249 -0.00698168 -0.015229 -0.00630801 -0.015719 -0.00547102 -0.0160252 -0.00463404 -0.0163722 -0.00391954 -0.0167805 -0.00318463 -0.0168826 -0.00212308 -0.0173113 -0.00134734 -0.0175359 -0.0005716 -0.0177196 0.0816162 0 0.000244971 0.0135959 0.00102071 0.0134122 0.00179646 0.0131468 0.00224557 0.0130855 0.00293965 0.0126568 0.00369498 0.0125344 0.00420534 0.0122281 0.0047157 0.0119219 0.00538937 0.0117178 0.00583848 0.0112278 0.00647132 0.0111462 0.00687961 0.0105746 0.00749204 0.0103296 0.00785949 0.0100642 0.00843109 0.00945181 0.00875772 0.00912518 0.00943139 0.00879855 0.00959471 0.00828819 0.0102071 0.00790032 0.0104929 0.00736955 0.0107379 0.00679795 0.0113095 0.00634884 0.0115341 0.00577724 0.0117178 0.0052873 0.0122486 0.00481777 0.0124119 0.0041441 0.0126977 0.0034296 0.0128202 0.00310297 0.0132693 0.00220474 0.0133305 0.00175563 0.0135959 0.00102071 0.0139225 0.000387871 0 -0.000163314zm0 0.000163314l0 -8.16571e-005 0 -8.16571e-005 0 0.000163314zm0.267631 -0.26365l0.0812896 0 0.000163314 0 -0.0005716 0.0177196 -0.00134734 0.0175359 -0.00212308 0.0173113 -0.00318463 0.0168826 -0.00391954 0.0167805 -0.00463404 0.0163722 -0.00547102 0.0160252 -0.00632842 0.015719 -0.00696127 0.015229 -0.00777784 0.0150249 -0.00836985 0.0143308 -0.00914559 0.0140858 -0.00969678 0.0135142 -0.0104317 0.0129222 -0.0109625 0.0126364 -0.0116565 0.0119832 -0.0119628 0.0113299 -0.0127793 0.0108196 -0.0130855 0.0101459 -0.0136776 0.00957429 -0.0142696 0.00904352 -0.0144941 0.00826778 -0.0150453 0.00765535 -0.0155761 0.00687961 -0.0157598 0.00608345 -0.0162089 0.00540978 -0.016556 0.00473611 -0.0170051 0.0037154 -0.0170663 0.0031438 -0.0175154 0.00208226 -0.0177196 0.00134734 -0.0177808 0.000551185 0 -0.0813713 0.0139429 -0.000224557 0.0135959 -0.00102071 0.0133509 -0.00175563 0.0132693 -0.00220474 0.0128406 -0.00310297 0.0127181 -0.0034296 0.0124119 -0.0041441 0.0122486 -0.00481777 0.0117382 -0.0052873 0.0115341 -0.00577724 0.0113095 -0.00634884 0.0107583 -0.00679795 0.0104929 -0.00736955 0.0102275 -0.00790032 0.00959471 -0.00828819 0.00943139 -0.00879855 0.00875772 -0.00912518 0.00843109 -0.00945181 0.00785949 -0.0100642 0.00749204 -0.0103296 0.00690002 -0.0105746 0.00645091 -0.0111462 0.0058589 -0.0112278 0.00536895 -0.0117178 0.00473611 -0.0119219 0.00420534 -0.0122281 0.00369498 -0.0125344 0.00293965 -0.0126568 0.00224557 -0.0130855 0.00179646 -0.0131468 0.00102071 -0.0134122 0.000244971 -0.0135959 0.000163314 0zm-0.000163314 0l8.16571e-005 0 8.16571e-005 0 -0.000163314 0zm-0.267468 -0.26363l0 -0.0810446 0 -0.000163314 0.0177808 0.000551185 0.0177196 0.00134734 0.0175154 0.00210267 0.0170663 0.0031438 0.0170051 0.00369498 0.016556 0.00475652 0.0162089 0.00540978 0.0157598 0.00608345 0.0155761 0.00687961 0.0150453 0.00765535 0.0146574 0.00828819 0.0141063 0.00904352 0.0136776 0.00957429 0.0130855 0.0101459 0.0127793 0.01084 0.0119628 0.0113299 0.0116565 0.0119832 0.0109625 0.0126364 0.0104317 0.0129222 0.00969678 0.0135142 0.00914559 0.0141063 0.00836985 0.0143104 0.00777784 0.0150249 0.00696127 0.015229 0.00632842 0.0156986 0.00547102 0.0160456 0.00463404 0.0163518 0.00391954 0.0167601 0.00318463 0.0168826 0.00212308 0.0173113 0.00134734 0.017495 0.000408285 0.0177196 -0.0812896 0 -0.000408285 -0.0135959 -0.00102071 -0.0133713 -0.00179646 -0.0131468 -0.00224557 -0.0130855 -0.00293965 -0.0126364 -0.00369498 -0.0125139 -0.00420534 -0.0122486 -0.00473611 -0.0119015 -0.00536895 -0.0117178 -0.0058589 -0.0112278 -0.00645091 -0.0111258 -0.00690002 -0.010595 -0.00749204 -0.0103296 -0.00785949 -0.0100642 -0.00843109 -0.00945181 -0.00875772 -0.00912518 -0.00943139 -0.00879855 -0.00959471 -0.00830861 -0.0102275 -0.00790032 -0.0104929 -0.00736955 -0.0109216 -0.00679795 -0.0111462 -0.00636925 -0.0115341 -0.00577724 -0.0117382 -0.0052873 -0.0122486 -0.00481777 -0.0124119 -0.0041441 -0.0127181 -0.00345001 -0.0128406 -0.00308255 -0.0132693 -0.00220474 -0.0133509 -0.00177604 -0.0135959 -0.00102071 -0.0139429 -0.000224557 0 -0.000163314zm0 0.000163314l0 -8.16571e-005 0 -8.16571e-005 0 0.000163314zm-0.267304 0.263467l-0.0816162 0 0.000163314 0 0.000408285 -0.0177196 0.00134734 -0.017495 0.00212308 -0.0173113 0.00318463 -0.0168826 0.00391954 -0.0167601 0.00463404 -0.0163518 0.00547102 -0.0160456 0.00630801 -0.0156986 0.00698168 -0.015229 0.00775742 -0.0150249 0.00839026 -0.0143104 0.00912518 -0.0141063 0.00969678 -0.0135142 0.0104317 -0.0129222 0.0109625 -0.0126364 0.0116565 -0.0119832 0.0119628 -0.0113299 0.012616 -0.01084 0.0132284 -0.0101459 0.0136776 -0.00957429 0.0140858 -0.00904352 0.0146574 -0.00828819 0.0150453 -0.00765535 0.0155557 -0.00687961 0.0157598 -0.00608345 0.0162089 -0.00540978 0.0165356 -0.00475652 0.0169847 -0.00369498 0.0170663 -0.0031438 0.017495 -0.00210267 0.0177196 -0.00134734 0.0177604 -0.000387871 0 0.0810446 -0.0139225 0.000387871 -0.0135959 0.00102071 -0.0133305 0.00177604 -0.0132693 0.00220474 -0.0128202 0.00308255 -0.0126977 0.00345001 -0.0124119 0.0041441 -0.0122486 0.00481777 -0.0117178 0.0052873 -0.0115341 0.00577724 -0.0111462 0.00636925 -0.0109012 0.00679795 -0.0104929 0.00736955 -0.0100438 0.00790032 -0.00975802 0.00830861 -0.00943139 0.00879855 -0.00875772 0.00912518 -0.00843109 0.00945181 -0.00785949 0.0100642 -0.00749204 0.0103296 -0.00687961 0.010595 -0.00647132 0.0111258 -0.00583848 0.0112278 -0.00538937 0.0117178 -0.0047157 0.0119015 -0.00420534 0.0122486 -0.00369498 0.0125139 -0.00293965 0.0126364 -0.00224557 0.0130855 -0.00179646 0.0131468 -0.00102071 0.0133713 -0.000408285 0.0135959 0.000163314 0zm-0.000163314 0l8.16571e-005 0 8.16571e-005 0 -0.000163314 0z"/>
  </g>
  <path class="fil0" d="M0.164539 0.881406c0,0.197978 0.162498,0.358107 0.362762,0.358107 0.200448,0 0.362945,-0.16013 0.362945,-0.358107 0,-0.197753 -0.162498,-0.358087 -0.362945,-0.358087 -0.200264,0 -0.362762,0.160334 -0.362762,0.358087z"/>
  <path class="fil1" d="M0.998911 1.84243c0,0.0323974 -0.0279471,0.0586502 -0.0624472,0.0586502l-0.833555 0c-0.0345205,0 -0.0623452,-0.0262527 -0.0623452,-0.0586502l0.0104929 -0.277736c0,-0.204816 0.0849234,-0.301662 0.195099,-0.301662l0.16411 0c0.0370723,0.0111054 0.076329,0.0170459 0.117035,0.0170459 0.0407265,0 0.0800852,-0.00594055 0.117178,-0.0170459l0.154761 0c0.0964166,0 0.185872,0.0877405 0.185872,0.271244l0.0138 0.308153z"/>
  <path class="fil2" d="M1.03947 1.84243c0,0.0278042 -0.0119015,0.0528934 -0.0311318,0.0709396 -0.018577,0.0174542 -0.0440132,0.0282738 -0.0718786,0.0282738l0 -0.000163314 -0.833555 0 0 0.000163314c-0.0278655,0 -0.0532812,-0.0108196 -0.0718174,-0.0282533 -0.0192098,-0.0180666 -0.0310909,-0.0431762 -0.0310909,-0.07096l0.000163314 -0.001429 0.0104317 -0.276307 -0.000102071 0c0,-0.105868 0.0218637,-0.186505 0.0581807,-0.242664 0.0433395,-0.06702 0.106032,-0.0995604 0.177482,-0.0995604l0.0722869 0c0.0609366,0.0365824 0.132448,0.0576091 0.208858,0.0576091 0.0764719,0 0.148065,-0.0210471 0.209042,-0.0576091l0.0628964 0c0.064407,0 0.125976,0.0307235 0.169091,0.0936198 0.0347043,0.0506478 0.0568946,0.122669 0.0571804,0.216452l0.0138 0.308133 0.000163314 0.00175563zm-0.0865769 0.0120036c0.00334794,-0.00316421 0.00545061,-0.00743079 0.00545061,-0.0120036l8.16571e-005 0 -0.0137184 -0.306398 0 -0.00175563c0,-0.0769006 -0.0168418,-0.13404 -0.0432374,-0.172562 -0.0267631,-0.0390525 -0.0639375,-0.0581194 -0.102235,-0.0581194l-0.553084 0c-0.0437478,0 -0.0824736,0.0204143 -0.109665,0.0624677 -0.0280084,0.0433395 -0.0448706,0.109033 -0.0448706,0.198631l-0.000163314 0.001429 -0.0104521 0.276307 0.000122486 0c0,0.00461362 0.00206184,0.00888021 0.00540978,0.012024 0.00398078,0.00375623 0.00977843,0.00608345 0.0163722,0.00608345l0 0.0001429 0.833555 0 0 -0.0001429c0.00663464,0 0.0124527,-0.00234764 0.0164335,-0.00610387z"/>
  <g>
   <path class="fil4" d="M0.219208 0.881406c0,0.168152 0.138,0.304173 0.308113,0.304173 0.170255,0 0.308276,-0.13602 0.308276,-0.304173 0,-0.167969 -0.138021,-0.304152 -0.308276,-0.304152 -0.170112,0 -0.308113,0.136184 -0.308113,0.304152z"/>
   <path id="1" class="fil2" d="M0.527321 1.14489l0 0.0813713 0 -0.000163314 -0.0177604 -0.000387871 -0.0177196 -0.00134734 -0.017495 -0.00208226 -0.0170663 -0.0031438 -0.0169847 -0.0037154 -0.0165356 -0.00473611 -0.0162089 -0.00540978 -0.0157598 -0.00608345 -0.0155557 -0.00687961 -0.0150453 -0.00765535 -0.0144941 -0.00826778 -0.0142492 -0.00904352 -0.0136776 -0.00957429 -0.0130651 -0.0101459 -0.0127793 -0.0108196 -0.0119628 -0.0113299 -0.0116565 -0.0119832 -0.0109625 -0.0126364 -0.0104317 -0.0129222 -0.00969678 -0.0135142 -0.00912518 -0.0140858 -0.00839026 -0.0143308 -0.00775742 -0.0150249 -0.00698168 -0.015229 -0.00630801 -0.015719 -0.00547102 -0.0160252 -0.00463404 -0.0163722 -0.00391954 -0.0167805 -0.00318463 -0.0168826 -0.00212308 -0.0173113 -0.00134734 -0.0175359 -0.0005716 -0.0177196 0.0816162 0 0.000244971 0.0135959 0.00102071 0.0134122 0.00179646 0.0131468 0.00224557 0.0130855 0.00293965 0.0126568 0.00369498 0.0125344 0.00420534 0.0122281 0.0047157 0.0119219 0.00538937 0.0117178 0.00583848 0.0112278 0.00647132 0.0111462 0.00687961 0.0105746 0.00749204 0.0103296 0.00785949 0.0100642 0.00843109 0.00945181 0.00875772 0.00912518 0.00943139 0.00879855 0.00959471 0.00828819 0.0102071 0.00790032 0.0104929 0.00736955 0.0107379 0.00679795 0.0113095 0.00634884 0.0115341 0.00577724 0.0117178 0.0052873 0.0122486 0.00481777 0.0124119 0.0041441 0.0126977 0.0034296 0.0128202 0.00310297 0.0132693 0.00220474 0.0133305 0.00175563 0.0135959 0.00102071 0.0139225 0.000387871 0 -0.000163314zm0 0.000163314l0 -8.16571e-005 0 -8.16571e-005 0 0.000163314zm0.267631 -0.26365l0.0812896 0 0.000163314 0 -0.0005716 0.0177196 -0.00134734 0.0175359 -0.00212308 0.0173113 -0.00318463 0.0168826 -0.00391954 0.0167805 -0.00463404 0.0163722 -0.00547102 0.0160252 -0.00632842 0.015719 -0.00696127 0.015229 -0.00777784 0.0150249 -0.00836985 0.0143308 -0.00914559 0.0140858 -0.00969678 0.0135142 -0.0104317 0.0129222 -0.0109625 0.0126364 -0.0116565 0.0119832 -0.0119628 0.0113299 -0.0127793 0.0108196 -0.0130855 0.0101459 -0.0136776 0.00957429 -0.0142696 0.00904352 -0.0144941 0.00826778 -0.0150453 0.00765535 -0.0155761 0.00687961 -0.0157598 0.00608345 -0.0162089 0.00540978 -0.016556 0.00473611 -0.0170051 0.0037154 -0.0170663 0.0031438 -0.0175154 0.00208226 -0.0177196 0.00134734 -0.0177808 0.000551185 0 -0.0813713 0.0139429 -0.000224557 0.0135959 -0.00102071 0.0133509 -0.00175563 0.0132693 -0.00220474 0.0128406 -0.00310297 0.0127181 -0.0034296 0.0124119 -0.0041441 0.0122486 -0.00481777 0.0117382 -0.0052873 0.0115341 -0.00577724 0.0113095 -0.00634884 0.0107583 -0.00679795 0.0104929 -0.00736955 0.0102275 -0.00790032 0.00959471 -0.00828819 0.00943139 -0.00879855 0.00875772 -0.00912518 0.00843109 -0.00945181 0.00785949 -0.0100642 0.00749204 -0.0103296 0.00690002 -0.0105746 0.00645091 -0.0111462 0.0058589 -0.0112278 0.00536895 -0.0117178 0.00473611 -0.0119219 0.00420534 -0.0122281 0.00369498 -0.0125344 0.00293965 -0.0126568 0.00224557 -0.0130855 0.00179646 -0.0131468 0.00102071 -0.0134122 0.000244971 -0.0135959 0.000163314 0zm-0.000163314 0l8.16571e-005 0 8.16571e-005 0 -0.000163314 0zm-0.267468 -0.26363l0 -0.0810446 0 -0.000163314 0.0177808 0.000551185 0.0177196 0.00134734 0.0175154 0.00210267 0.0170663 0.0031438 0.0170051 0.00369498 0.016556 0.00475652 0.0162089 0.00540978 0.0157598 0.00608345 0.0155761 0.00687961 0.0150453 0.00765535 0.0146574 0.00828819 0.0141063 0.00904352 0.0136776 0.00957429 0.0130855 0.0101459 0.0127793 0.01084 0.0119628 0.0113299 0.0116565 0.0119832 0.0109625 0.0126364 0.0104317 0.0129222 0.00969678 0.0135142 0.00914559 0.0141063 0.00836985 0.0143104 0.00777784 0.0150249 0.00696127 0.015229 0.00632842 0.0156986 0.00547102 0.0160456 0.00463404 0.0163518 0.00391954 0.0167601 0.00318463 0.0168826 0.00212308 0.0173113 0.00134734 0.017495 0.000408285 0.0177196 -0.0812896 0 -0.000408285 -0.0135959 -0.00102071 -0.0133713 -0.00179646 -0.0131468 -0.00224557 -0.0130855 -0.00293965 -0.0126364 -0.00369498 -0.0125139 -0.00420534 -0.0122486 -0.00473611 -0.0119015 -0.00536895 -0.0117178 -0.0058589 -0.0112278 -0.00645091 -0.0111258 -0.00690002 -0.010595 -0.00749204 -0.0103296 -0.00785949 -0.0100642 -0.00843109 -0.00945181 -0.00875772 -0.00912518 -0.00943139 -0.00879855 -0.00959471 -0.00830861 -0.0102275 -0.00790032 -0.0104929 -0.00736955 -0.0109216 -0.00679795 -0.0111462 -0.00636925 -0.0115341 -0.00577724 -0.0117382 -0.0052873 -0.0122486 -0.00481777 -0.0124119 -0.0041441 -0.0127181 -0.00345001 -0.0128406 -0.00308255 -0.0132693 -0.00220474 -0.0133509 -0.00177604 -0.0135959 -0.00102071 -0.0139429 -0.000224557 0 -0.000163314zm0 0.000163314l0 -8.16571e-005 0 -8.16571e-005 0 0.000163314zm-0.267304 0.263467l-0.0816162 0 0.000163314 0 0.000408285 -0.0177196 0.00134734 -0.017495 0.00212308 -0.0173113 0.00318463 -0.0168826 0.00391954 -0.0167601 0.00463404 -0.0163518 0.00547102 -0.0160456 0.00630801 -0.0156986 0.00698168 -0.015229 0.00775742 -0.0150249 0.00839026 -0.0143104 0.00912518 -0.0141063 0.00969678 -0.0135142 0.0104317 -0.0129222 0.0109625 -0.0126364 0.0116565 -0.0119832 0.0119628 -0.0113299 0.012616 -0.01084 0.0132284 -0.0101459 0.0136776 -0.00957429 0.0140858 -0.00904352 0.0146574 -0.00828819 0.0150453 -0.00765535 0.0155557 -0.00687961 0.0157598 -0.00608345 0.0162089 -0.00540978 0.0165356 -0.00475652 0.0169847 -0.00369498 0.0170663 -0.0031438 0.017495 -0.00210267 0.0177196 -0.00134734 0.0177604 -0.000387871 0 0.0810446 -0.0139225 0.000387871 -0.0135959 0.00102071 -0.0133305 0.00177604 -0.0132693 0.00220474 -0.0128202 0.00308255 -0.0126977 0.00345001 -0.0124119 0.0041441 -0.0122486 0.00481777 -0.0117178 0.0052873 -0.0115341 0.00577724 -0.0111462 0.00636925 -0.0109012 0.00679795 -0.0104929 0.00736955 -0.0100438 0.00790032 -0.00975802 0.00830861 -0.00943139 0.00879855 -0.00875772 0.00912518 -0.00843109 0.00945181 -0.00785949 0.0100642 -0.00749204 0.0103296 -0.00687961 0.010595 -0.00647132 0.0111258 -0.00583848 0.0112278 -0.00538937 0.0117178 -0.0047157 0.0119015 -0.00420534 0.0122486 -0.00369498 0.0125139 -0.00293965 0.0126364 -0.00224557 0.0130855 -0.00179646 0.0131468 -0.00102071 0.0133713 -0.000408285 0.0135959 0.000163314 0zm-0.000163314 0l8.16571e-005 0 8.16571e-005 0 -0.000163314 0z"/>
  </g>
  <rect class="fil5" x="0.609366" y="1.2124" width="0.697637" height="0.9284"/>
  <g>
   <path class="fil0" d="M0.398078 0.556432c0,0.307602 0.252484,0.556432 0.563658,0.556432 0.311461,0 0.563944,-0.24883 0.563944,-0.556432 0,-0.307276 -0.252484,-0.556432 -0.563944,-0.556432 -0.311175,0 -0.563658,0.249156 -0.563658,0.556432z"/>
   <path class="fil6" d="M1.75755 2.04965c0,0.0431966 -0.0184953,0.0822083 -0.0483614,0.110237 -0.0288658,0.0271306 -0.0683878,0.0439315 -0.111686,0.0439315l0 -0.000244971 -1.29518 0 0 0.000244971c-0.0433191,0 -0.0828003,-0.0168009 -0.111605,-0.0438907 -0.0298457,-0.0280696 -0.0483002,-0.0671017 -0.0483002,-0.110278l0.000244971 -0.00222516 0.0162293 -0.429312 -0.000163314 0c0,-0.164498 0.0339489,-0.289781 0.0903944,-0.377072 0.0673263,-0.104113 0.164764,-0.154679 0.275776,-0.154679l0.112299 0c0.0947018,0.0568333 0.205817,0.0895166 0.324546,0.0895166 0.118811,0 0.230069,-0.0327037 0.324811,-0.0895166l0.0977231 0c0.100071,0 0.195752,0.0477286 0.262732,0.145472 0.0539141,0.0786766 0.0884142,0.190588 0.0888429,0.336305l0.0214554 0.478796 0.000244971 0.0027151zm-0.13451 0.0186586c0.00520564,-0.00489942 0.00847192,-0.0115341 0.00847192,-0.0186586l0.000122486 0 -0.0213329 -0.476081 0 -0.0027151c0,-0.119485 -0.0261507,-0.208287 -0.0671629,-0.268141 -0.0415839,-0.0606712 -0.0993562,-0.0903127 -0.158864,-0.0903127l-0.859379 0c-0.0679795,0 -0.128161,0.0317238 -0.170398,0.0970698 -0.0435436,0.0673467 -0.0697351,0.169438 -0.0697351,0.308643l-0.000244971 0.00222516 -0.0162293 0.429312 0.000163314 0c0,0.00718582 0.00322545,0.0138205 0.00841068,0.0186995 0.00618552,0.00581807 0.0152086,0.00943139 0.0254566,0.00943139l0 0.000244971 1.29518 0 0 -0.000244971c0.0103092,0 0.0193323,-0.00363374 0.0255383,-0.00947222z"/>
   <path class="fil7 str0" d="M0.564597 0.637742c0,0.216738 0.17791,0.392076 0.39718,0.392076 0.219474,0 0.397384,-0.175338 0.397384,-0.392076 0,-0.216534 -0.17791,-0.392076 -0.397384,-0.392076 -0.21927,0 -0.39718,0.175542 -0.39718,0.392076z"/>
   <path class="fil6" d="M1.69453 2.04965c0,0.050362 -0.0434416,0.0911497 -0.097029,0.0911497l-0.392526 0 0 -0.991419 0.179299 0c0.14982,0 0.288801,0.136347 0.288801,0.421473l0.0214554 0.478796zm-0.990337 0.0911497l-0.401875 0c-0.0536487,0 -0.0968861,-0.0407877 -0.0968861,-0.0911497l0.016311 -0.431537c0,-0.318238 0.131937,-0.468732 0.303152,-0.468732l0.179299 0 0 0.991419z"/>
   <path class="fil0" d="M1.44566 0.620982c0,-0.218269 -0.216595,-0.395241 -0.483798,-0.395241 -0.266957,0 -0.483553,0.176971 -0.483553,0.395241"/>
   <path class="fil6" d="M0.313196 0.521666c0,0.223312 0.188199,0.412389 0.448501,0.477633 -0.128467,-0.0799627 -0.21682,-0.23458 -0.22127,-0.413654l0.0511786 0c0,-0.0917213 0.0399099,-0.175685 0.104337,-0.237193 0.0675508,-0.0644478 0.161559,-0.104358 0.265916,-0.104358 0.104603,0 0.198712,0.0398691 0.266284,0.104337 0.0644683,0.0615286 0.104378,0.145472 0.104378,0.237214l0.0507499 0c-0.0044299,0.179033 -0.0927624,0.33363 -0.22127,0.413614 0.260221,-0.0652848 0.44842,-0.254341 0.44842,-0.477592 0,-0.277267 -0.290413,-0.502028 -0.648663,-0.502028 -0.358189,0 -0.648561,0.224761 -0.648561,0.502028z"/>
   <path class="fil8" d="M1.28971 1.17594c0,0.221842 -0.14684,0.401712 -0.327976,0.401712 -0.181156,0 -0.327976,-0.17987 -0.327976,-0.401712 0,-0.221944 0.146819,-0.401814 0.327976,-0.401814 0.181136,0 0.327976,0.17987 0.327976,0.401814z"/>
  </g>
 </g>
</svg>
