<?xml version="1.0" encoding="UTF-8"?>
<!DOCTYPE svg PUBLIC "-//W3C//DTD SVG 1.1//EN" "http://www.w3.org/Graphics/SVG/1.1/DTD/svg11.dtd">
<!-- Creator: CorelDRAW -->
<svg xmlns="http://www.w3.org/2000/svg" xml:space="preserve" width="0.421469in" height="0.42502in" style="shape-rendering:geometricPrecision; text-rendering:geometricPrecision; image-rendering:optimizeQuality; fill-rule:evenodd; clip-rule:evenodd"
viewBox="0 0 10.9614 11.0537"
 xmlns:xlink="http://www.w3.org/1999/xlink">
 <defs>
  <style type="text/css">
   <![CDATA[
    .fil0 {fill:none;fill-rule:nonzero}
    .fil6 {fill:#4C4C4C;fill-rule:nonzero}
    .fil8 {fill:#656565;fill-rule:nonzero}
    .fil2 {fill:#999999;fill-rule:nonzero}
    .fil7 {fill:#FFF9DB;fill-rule:nonzero}
    .fil4 {fill:url(#id0);fill-rule:nonzero}
    .fil3 {fill:url(#id1);fill-rule:nonzero}
    .fil1 {fill:url(#id2);fill-rule:nonzero}
    .fil5 {fill:url(#id3);fill-rule:nonzero}
   ]]>
  </style>
  <linearGradient id="id0" gradientUnits="userSpaceOnUse" x1="1.1301" y1="4.42088" x2="4.16029" y2="4.42088">
   <stop offset="0" style="stop-color:#ECECEC"/>
   <stop offset="0.811765" style="stop-color:#ECECEC"/>
   <stop offset="1" style="stop-color:#ECECEC"/>
  </linearGradient>
  <linearGradient id="id1" gradientUnits="userSpaceOnUse" x1="6.87778" y1="3.63881" x2="9.90797" y2="3.63881">
   <stop offset="0" style="stop-color:#ECECEC"/>
   <stop offset="0.811765" style="stop-color:#ECECEC"/>
   <stop offset="1" style="stop-color:#ECECEC"/>
  </linearGradient>
  <linearGradient id="id2" gradientUnits="userSpaceOnUse" x1="5.99915" y1="7.15311" x2="10.7099" y2="7.15311">
   <stop offset="0" style="stop-color:#ECECEC"/>
   <stop offset="0.811765" style="stop-color:#ECECEC"/>
   <stop offset="1" style="stop-color:#ECECEC"/>
  </linearGradient>
  <linearGradient id="id3" gradientUnits="userSpaceOnUse" x1="1.10502" y1="8.25137" x2="8.42462" y2="8.25137">
   <stop offset="0" style="stop-color:white"/>
   <stop offset="0.811765" style="stop-color:#E3E3E3"/>
   <stop offset="1" style="stop-color:#C6C6C6"/>
  </linearGradient>
 </defs>
 <g id="Layer_x0020_1">
  <metadata id="CorelCorpID_0Corel-Layer"/>
  <path class="fil0" d="M6.57296 3.63881c0,0.992999 0.815041,1.79616 1.81951,1.79616 1.00539,0 1.82043,-0.803164 1.82043,-1.79616 0,-0.991872 -0.815041,-1.79606 -1.82043,-1.79606 -1.00447,0 -1.81951,0.804188 -1.81951,1.79606z"/>
  <path class="fil1" d="M10.7579 8.45902c0,0.162496 -0.140175,0.294173 -0.313218,0.294173l-4.18088 0c-0.173145,0 -0.312706,-0.131676 -0.312706,-0.294173l0.0526296 -1.39304c0,-1.0273 0.425951,-1.51305 0.978562,-1.51305l0.82313 0c0.185944,0.0557013 0.382844,0.0854974 0.587014,0.0854974 0.204272,0 0.401684,-0.0297961 0.587731,-0.0854974l0.776235 0c0.483598,0 0.93228,0.440081 0.93228,1.36048l0.0692171 1.54561z"/>
  <path class="fil2" d="M10.9614 8.45902c0,0.139458 -0.0596946,0.265298 -0.156148,0.355813 -0.0931768,0.0875453 -0.220757,0.141813 -0.360523,0.141813l0 -0.000819137 -4.18088 0 0 0.000819137c-0.139765,0 -0.267243,-0.0542678 -0.360215,-0.141711 -0.096351,-0.090617 -0.155943,-0.216559 -0.155943,-0.355915l0.000819137 -0.00716745 0.0523224 -1.38588 -0.000511961 0c0,-0.531006 0.109662,-0.935454 0.291818,-1.21714 0.217378,-0.336153 0.531825,-0.499366 0.890197,-0.499366l0.362571 0c0.30564,0.183487 0.66432,0.288951 1.04757,0.288951 0.383561,0 0.74265,-0.105566 1.0485,-0.288951l0.31547 0c0.323047,0 0.631862,0.1541 0.848114,0.46957 0.174067,0.254035 0.285367,0.615274 0.2868,1.08566l0.0692171 1.54551 0.000819137 0.00880572zm-0.434245 0.0602066c0.0167923,-0.0158708 0.0273387,-0.0372707 0.0273387,-0.0602066l0.000409568 0 -0.0688075 -1.5368 0 -0.00880572c0,-0.385711 -0.0844735,-0.672307 -0.216867,-0.865521 -0.134236,-0.195876 -0.320692,-0.29151 -0.51278,-0.29151l-2.77411 0c-0.219426,0 -0.413664,0.102392 -0.55005,0.31332 -0.140482,0.217378 -0.225058,0.546876 -0.225058,0.996275l-0.000819137 0.00716745 -0.0524248 1.38588 0.000614353 0c0,0.0231406 0.0103416,0.0445406 0.0271339,0.060309 0.0199665,0.0188402 0.0490458,0.0305129 0.0821185,0.0305129l0 0.000716745 4.18088 0 0 -0.000716745c0.0332774,0 0.0624592,-0.0117751 0.0824257,-0.0306152z"/>
  <g>
   <path class="fil3" d="M6.84717 3.63881c0,0.843404 0.692171,1.52564 1.5454,1.52564 0.85395,0 1.54622,-0.682239 1.54622,-1.52564 0,-0.842482 -0.692273,-1.52554 -1.54622,-1.52554 -0.853234,0 -1.5454,0.683058 -1.5454,1.52554z"/>
   <path id="1" class="fil2" d="M8.39257 4.96039l0 0.408135 0 -0.000819137 -0.0890811 -0.00194545 -0.0888764 -0.00675788 -0.08775 -0.010444 -0.0855998 -0.0157684 -0.0851902 -0.0186354 -0.0829376 -0.023755 -0.0812993 -0.0271339 -0.0790467 -0.0305129 -0.0780228 -0.0345061 -0.075463 -0.038397 -0.0726984 -0.0414688 -0.0714697 -0.0453597 -0.0686027 -0.0480219 -0.065531 -0.0508889 -0.0640975 -0.0542678 -0.0600018 -0.0568276 -0.0584659 -0.0601042 -0.0549846 -0.0633807 -0.0523224 -0.0648142 -0.0486363 -0.0677836 -0.0457693 -0.0706506 -0.0420832 -0.0718793 -0.038909 -0.0753606 -0.0350181 -0.0763845 -0.0316392 -0.0788419 -0.0274411 -0.0803778 -0.023243 -0.0821185 -0.0196593 -0.0841663 -0.0159732 -0.0846783 -0.0106488 -0.0868285 -0.00675788 -0.0879548 -0.00286698 -0.0888764 0.409364 0 0.00122871 0.0681932 0.00511961 0.0672716 0.00901051 0.0659405 0.0112631 0.0656334 0.0147445 0.0634831 0.018533 0.0628688 0.0210928 0.0613329 0.0236526 0.059797 0.0270315 0.0587731 0.0292841 0.0563157 0.0324583 0.0559061 0.0345061 0.0530391 0.0375779 0.0518104 0.039421 0.0504793 0.0422879 0.0474076 0.0439262 0.0457693 0.0473052 0.044131 0.0481243 0.0415712 0.0511961 0.0396258 0.0526296 0.0369636 0.0538583 0.0340966 0.0567252 0.031844 0.0578515 0.028977 0.0587731 0.0265196 0.0614353 0.0241645 0.0622544 0.0207856 0.0636879 0.0172019 0.0643023 0.0155636 0.0665549 0.0110583 0.0668621 0.00880572 0.0681932 0.00511961 0.0698314 0.00194545 0 -0.000819137zm0 0.000819137l0 -0.000409568 0 -0.000409568 0 0.000819137zm1.34236 -1.32239l0.407725 0 0.000819137 0 -0.00286698 0.0888764 -0.00675788 0.0879548 -0.0106488 0.0868285 -0.0159732 0.0846783 -0.0196593 0.0841663 -0.023243 0.0821185 -0.0274411 0.0803778 -0.0317416 0.0788419 -0.0349157 0.0763845 -0.0390114 0.0753606 -0.0419808 0.0718793 -0.0458717 0.0706506 -0.0486363 0.0677836 -0.0523224 0.0648142 -0.0549846 0.0633807 -0.0584659 0.0601042 -0.0600018 0.0568276 -0.0640975 0.0542678 -0.0656334 0.0508889 -0.0686027 0.0480219 -0.0715721 0.0453597 -0.0726984 0.0414688 -0.075463 0.038397 -0.0781252 0.0345061 -0.0790467 0.0305129 -0.0812993 0.0271339 -0.08304 0.023755 -0.0852926 0.0186354 -0.0855998 0.0157684 -0.0878524 0.010444 -0.0888764 0.00675788 -0.0891835 0.00276459 0 -0.408135 0.0699338 -0.00112631 0.0681932 -0.00511961 0.0669644 -0.00880572 0.0665549 -0.0110583 0.0644046 -0.0155636 0.0637903 -0.0172019 0.0622544 -0.0207856 0.0614353 -0.0241645 0.0588755 -0.0265196 0.0578515 -0.028977 0.0567252 -0.031844 0.0539606 -0.0340966 0.0526296 -0.0369636 0.0512985 -0.0396258 0.0481243 -0.0415712 0.0473052 -0.044131 0.0439262 -0.0457693 0.0422879 -0.0474076 0.039421 -0.0504793 0.0375779 -0.0518104 0.0346085 -0.0530391 0.0323559 -0.0559061 0.0293865 -0.0563157 0.0269291 -0.0587731 0.023755 -0.059797 0.0210928 -0.0613329 0.018533 -0.0628688 0.0147445 -0.0634831 0.0112631 -0.0656334 0.00901051 -0.0659405 0.00511961 -0.0672716 0.00122871 -0.0681932 0.000819137 0zm-0.000819137 0l0.000409568 0 0.000409568 0 -0.000819137 0zm-1.34154 -1.32229l0 -0.406497 0 -0.000819137 0.0891835 0.00276459 0.0888764 0.00675788 0.0878524 0.0105464 0.0855998 0.0157684 0.0852926 0.018533 0.08304 0.0238574 0.0812993 0.0271339 0.0790467 0.0305129 0.0781252 0.0345061 0.075463 0.038397 0.0735175 0.0415712 0.070753 0.0453597 0.0686027 0.0480219 0.0656334 0.0508889 0.0640975 0.0543702 0.0600018 0.0568276 0.0584659 0.0601042 0.0549846 0.0633807 0.0523224 0.0648142 0.0486363 0.0677836 0.0458717 0.070753 0.0419808 0.0717769 0.0390114 0.0753606 0.0349157 0.0763845 0.0317416 0.0787395 0.0274411 0.0804802 0.023243 0.0820161 0.0196593 0.0840639 0.0159732 0.0846783 0.0106488 0.0868285 0.00675788 0.08775 0.00204784 0.0888764 -0.407725 0 -0.00204784 -0.0681932 -0.00511961 -0.0670668 -0.00901051 -0.0659405 -0.0112631 -0.0656334 -0.0147445 -0.0633807 -0.018533 -0.0627664 -0.0210928 -0.0614353 -0.023755 -0.0596946 -0.0269291 -0.0587731 -0.0293865 -0.0563157 -0.0323559 -0.0558037 -0.0346085 -0.0531415 -0.0375779 -0.0518104 -0.039421 -0.0504793 -0.0422879 -0.0474076 -0.0439262 -0.0457693 -0.0473052 -0.044131 -0.0481243 -0.0416736 -0.0512985 -0.0396258 -0.0526296 -0.0369636 -0.0547798 -0.0340966 -0.0559061 -0.0319463 -0.0578515 -0.028977 -0.0588755 -0.0265196 -0.0614353 -0.0241645 -0.0622544 -0.0207856 -0.0637903 -0.0173043 -0.0644046 -0.0154612 -0.0665549 -0.0110583 -0.0669644 -0.00890811 -0.0681932 -0.00511961 -0.0699338 -0.00112631 0 -0.000819137zm0 0.000819137l0 -0.000409568 0 -0.000409568 0 0.000819137zm-1.34072 1.32147l-0.409364 0 0.000819137 0 0.00204784 -0.0888764 0.00675788 -0.08775 0.0106488 -0.0868285 0.0159732 -0.0846783 0.0196593 -0.0840639 0.023243 -0.0820161 0.0274411 -0.0804802 0.0316392 -0.0787395 0.0350181 -0.0763845 0.038909 -0.0753606 0.0420832 -0.0717769 0.0457693 -0.070753 0.0486363 -0.0677836 0.0523224 -0.0648142 0.0549846 -0.0633807 0.0584659 -0.0601042 0.0600018 -0.0568276 0.0632783 -0.0543702 0.0663501 -0.0508889 0.0686027 -0.0480219 0.0706506 -0.0453597 0.0735175 -0.0415712 0.075463 -0.038397 0.0780228 -0.0345061 0.0790467 -0.0305129 0.0812993 -0.0271339 0.0829376 -0.0238574 0.0851902 -0.018533 0.0855998 -0.0157684 0.08775 -0.0105464 0.0888764 -0.00675788 0.0890811 -0.00194545 0 0.406497 -0.0698314 0.00194545 -0.0681932 0.00511961 -0.0668621 0.00890811 -0.0665549 0.0110583 -0.0643023 0.0154612 -0.0636879 0.0173043 -0.0622544 0.0207856 -0.0614353 0.0241645 -0.0587731 0.0265196 -0.0578515 0.028977 -0.0559061 0.0319463 -0.0546774 0.0340966 -0.0526296 0.0369636 -0.0503769 0.0396258 -0.0489434 0.0416736 -0.0473052 0.044131 -0.0439262 0.0457693 -0.0422879 0.0474076 -0.039421 0.0504793 -0.0375779 0.0518104 -0.0345061 0.0531415 -0.0324583 0.0558037 -0.0292841 0.0563157 -0.0270315 0.0587731 -0.0236526 0.0596946 -0.0210928 0.0614353 -0.018533 0.0627664 -0.0147445 0.0633807 -0.0112631 0.0656334 -0.00901051 0.0659405 -0.00511961 0.0670668 -0.00204784 0.0681932 0.000819137 0zm-0.000819137 0l0.000409568 0 0.000409568 0 -0.000819137 0z"/>
  </g>
  <path class="fil0" d="M0.825281 4.42088c0,0.992999 0.815041,1.79616 1.81951,1.79616 1.00539,0 1.82043,-0.803164 1.82043,-1.79616 0,-0.991872 -0.815041,-1.79606 -1.82043,-1.79606 -1.00447,0 -1.81951,0.804188 -1.81951,1.79606z"/>
  <path class="fil1" d="M5.01025 9.24109c0,0.162496 -0.140175,0.294173 -0.313218,0.294173l-4.18088 0c-0.173145,0 -0.312706,-0.131676 -0.312706,-0.294173l0.0526296 -1.39304c0,-1.0273 0.425951,-1.51305 0.978562,-1.51305l0.82313 0c0.185944,0.0557013 0.382844,0.0854974 0.587014,0.0854974 0.204272,0 0.401684,-0.0297961 0.587731,-0.0854974l0.776235 0c0.483598,0 0.93228,0.440081 0.93228,1.36048l0.0692171 1.54561z"/>
  <path class="fil2" d="M5.2137 9.24109c0,0.139458 -0.0596946,0.265298 -0.156148,0.355813 -0.0931768,0.0875453 -0.220757,0.141813 -0.360523,0.141813l0 -0.000819137 -4.18088 0 0 0.000819137c-0.139765,0 -0.267243,-0.0542678 -0.360215,-0.141711 -0.096351,-0.090617 -0.155943,-0.216559 -0.155943,-0.355915l0.000819137 -0.00716745 0.0523224 -1.38588 -0.000511961 0c0,-0.531006 0.109662,-0.935454 0.291818,-1.21714 0.217378,-0.336153 0.531825,-0.499366 0.890197,-0.499366l0.362571 0c0.30564,0.183487 0.66432,0.288951 1.04757,0.288951 0.383561,0 0.74265,-0.105566 1.0485,-0.288951l0.31547 0c0.323047,0 0.631862,0.1541 0.848114,0.46957 0.174067,0.254035 0.285367,0.615274 0.2868,1.08566l0.0692171 1.54551 0.000819137 0.00880572zm-0.434245 0.0602066c0.0167923,-0.0158708 0.0273387,-0.0372707 0.0273387,-0.0602066l0.000409568 0 -0.0688075 -1.5368 0 -0.00880572c0,-0.385711 -0.0844735,-0.672307 -0.216867,-0.865521 -0.134236,-0.195876 -0.320692,-0.29151 -0.51278,-0.29151l-2.77411 0c-0.219426,0 -0.413664,0.102392 -0.55005,0.31332 -0.140482,0.217378 -0.225058,0.546876 -0.225058,0.996275l-0.000819137 0.00716745 -0.0524248 1.38588 0.000614353 0c0,0.0231406 0.0103416,0.0445406 0.0271339,0.060309 0.0199665,0.0188402 0.0490458,0.0305129 0.0821185,0.0305129l0 0.000716745 4.18088 0 0 -0.000716745c0.0332774,0 0.0624592,-0.0117751 0.0824257,-0.0306152z"/>
  <g>
   <path class="fil4" d="M1.09949 4.42088c0,0.843404 0.692171,1.52564 1.5454,1.52564 0.85395,0 1.54622,-0.682239 1.54622,-1.52564 0,-0.842482 -0.692273,-1.52554 -1.54622,-1.52554 -0.853234,0 -1.5454,0.683058 -1.5454,1.52554z"/>
   <path id="1" class="fil2" d="M2.64489 5.74246l0 0.408135 0 -0.000819137 -0.0890811 -0.00194545 -0.0888764 -0.00675788 -0.08775 -0.010444 -0.0855998 -0.0157684 -0.0851902 -0.0186354 -0.0829376 -0.023755 -0.0812993 -0.0271339 -0.0790467 -0.0305129 -0.0780228 -0.0345061 -0.075463 -0.038397 -0.0726984 -0.0414688 -0.0714697 -0.0453597 -0.0686027 -0.0480219 -0.065531 -0.0508889 -0.0640975 -0.0542678 -0.0600018 -0.0568276 -0.0584659 -0.0601042 -0.0549846 -0.0633807 -0.0523224 -0.0648142 -0.0486363 -0.0677836 -0.0457693 -0.0706506 -0.0420832 -0.0718793 -0.038909 -0.0753606 -0.0350181 -0.0763845 -0.0316392 -0.0788419 -0.0274411 -0.0803778 -0.023243 -0.0821185 -0.0196593 -0.0841663 -0.0159732 -0.0846783 -0.0106488 -0.0868285 -0.00675788 -0.0879548 -0.00286698 -0.0888764 0.409364 0 0.00122871 0.0681932 0.00511961 0.0672716 0.00901051 0.0659405 0.0112631 0.0656334 0.0147445 0.0634831 0.018533 0.0628688 0.0210928 0.0613329 0.0236526 0.059797 0.0270315 0.0587731 0.0292841 0.0563157 0.0324583 0.0559061 0.0345061 0.0530391 0.0375779 0.0518104 0.039421 0.0504793 0.0422879 0.0474076 0.0439262 0.0457693 0.0473052 0.044131 0.0481243 0.0415712 0.0511961 0.0396258 0.0526296 0.0369636 0.0538583 0.0340966 0.0567252 0.031844 0.0578515 0.028977 0.0587731 0.0265196 0.0614353 0.0241645 0.0622544 0.0207856 0.0636879 0.0172019 0.0643023 0.0155636 0.0665549 0.0110583 0.0668621 0.00880572 0.0681932 0.00511961 0.0698314 0.00194545 0 -0.000819137zm0 0.000819137l0 -0.000409568 0 -0.000409568 0 0.000819137zm1.34236 -1.32239l0.407725 0 0.000819137 0 -0.00286698 0.0888764 -0.00675788 0.0879548 -0.0106488 0.0868285 -0.0159732 0.0846783 -0.0196593 0.0841663 -0.023243 0.0821185 -0.0274411 0.0803778 -0.0317416 0.0788419 -0.0349157 0.0763845 -0.0390114 0.0753606 -0.0419808 0.0718793 -0.0458717 0.0706506 -0.0486363 0.0677836 -0.0523224 0.0648142 -0.0549846 0.0633807 -0.0584659 0.0601042 -0.0600018 0.0568276 -0.0640975 0.0542678 -0.0656334 0.0508889 -0.0686027 0.0480219 -0.0715721 0.0453597 -0.0726984 0.0414688 -0.075463 0.038397 -0.0781252 0.0345061 -0.0790467 0.0305129 -0.0812993 0.0271339 -0.08304 0.023755 -0.0852926 0.0186354 -0.0855998 0.0157684 -0.0878524 0.010444 -0.0888764 0.00675788 -0.0891835 0.00276459 0 -0.408135 0.0699338 -0.00112631 0.0681932 -0.00511961 0.0669644 -0.00880572 0.0665549 -0.0110583 0.0644046 -0.0155636 0.0637903 -0.0172019 0.0622544 -0.0207856 0.0614353 -0.0241645 0.0588755 -0.0265196 0.0578515 -0.028977 0.0567252 -0.031844 0.0539606 -0.0340966 0.0526296 -0.0369636 0.0512985 -0.0396258 0.0481243 -0.0415712 0.0473052 -0.044131 0.0439262 -0.0457693 0.0422879 -0.0474076 0.039421 -0.0504793 0.0375779 -0.0518104 0.0346085 -0.0530391 0.0323559 -0.0559061 0.0293865 -0.0563157 0.0269291 -0.0587731 0.023755 -0.059797 0.0210928 -0.0613329 0.018533 -0.0628688 0.0147445 -0.0634831 0.0112631 -0.0656334 0.00901051 -0.0659405 0.00511961 -0.0672716 0.00122871 -0.0681932 0.000819137 0zm-0.000819137 0l0.000409568 0 0.000409568 0 -0.000819137 0zm-1.34154 -1.32229l0 -0.406497 0 -0.000819137 0.0891835 0.00276459 0.0888764 0.00675788 0.0878524 0.0105464 0.0855998 0.0157684 0.0852926 0.018533 0.08304 0.0238574 0.0812993 0.0271339 0.0790467 0.0305129 0.0781252 0.0345061 0.075463 0.038397 0.0735175 0.0415712 0.070753 0.0453597 0.0686027 0.0480219 0.0656334 0.0508889 0.0640975 0.0543702 0.0600018 0.0568276 0.0584659 0.0601042 0.0549846 0.0633807 0.0523224 0.0648142 0.0486363 0.0677836 0.0458717 0.070753 0.0419808 0.0717769 0.0390114 0.0753606 0.0349157 0.0763845 0.0317416 0.0787395 0.0274411 0.0804802 0.023243 0.0820161 0.0196593 0.0840639 0.0159732 0.0846783 0.0106488 0.0868285 0.00675788 0.08775 0.00204784 0.0888764 -0.407725 0 -0.00204784 -0.0681932 -0.00511961 -0.0670668 -0.00901051 -0.0659405 -0.0112631 -0.0656334 -0.0147445 -0.0633807 -0.018533 -0.0627664 -0.0210928 -0.0614353 -0.023755 -0.0596946 -0.0269291 -0.0587731 -0.0293865 -0.0563157 -0.0323559 -0.0558037 -0.0346085 -0.0531415 -0.0375779 -0.0518104 -0.039421 -0.0504793 -0.0422879 -0.0474076 -0.0439262 -0.0457693 -0.0473052 -0.044131 -0.0481243 -0.0416736 -0.0512985 -0.0396258 -0.0526296 -0.0369636 -0.0547798 -0.0340966 -0.0559061 -0.0319463 -0.0578515 -0.028977 -0.0588755 -0.0265196 -0.0614353 -0.0241645 -0.0622544 -0.0207856 -0.0637903 -0.0173043 -0.0644046 -0.0154612 -0.0665549 -0.0110583 -0.0669644 -0.00890811 -0.0681932 -0.00511961 -0.0699338 -0.00112631 0 -0.000819137zm0 0.000819137l0 -0.000409568 0 -0.000409568 0 0.000819137zm-1.34072 1.32147l-0.409364 0 0.000819137 0 0.00204784 -0.0888764 0.00675788 -0.08775 0.0106488 -0.0868285 0.0159732 -0.0846783 0.0196593 -0.0840639 0.023243 -0.0820161 0.0274411 -0.0804802 0.0316392 -0.0787395 0.0350181 -0.0763845 0.038909 -0.0753606 0.0420832 -0.0717769 0.0457693 -0.070753 0.0486363 -0.0677836 0.0523224 -0.0648142 0.0549846 -0.0633807 0.0584659 -0.0601042 0.0600018 -0.0568276 0.0632783 -0.0543702 0.0663501 -0.0508889 0.0686027 -0.0480219 0.0706506 -0.0453597 0.0735175 -0.0415712 0.075463 -0.038397 0.0780228 -0.0345061 0.0790467 -0.0305129 0.0812993 -0.0271339 0.0829376 -0.0238574 0.0851902 -0.018533 0.0855998 -0.0157684 0.08775 -0.0105464 0.0888764 -0.00675788 0.0890811 -0.00194545 0 0.406497 -0.0698314 0.00194545 -0.0681932 0.00511961 -0.0668621 0.00890811 -0.0665549 0.0110583 -0.0643023 0.0154612 -0.0636879 0.0173043 -0.0622544 0.0207856 -0.0614353 0.0241645 -0.0587731 0.0265196 -0.0578515 0.028977 -0.0559061 0.0319463 -0.0546774 0.0340966 -0.0526296 0.0369636 -0.0503769 0.0396258 -0.0489434 0.0416736 -0.0473052 0.044131 -0.0439262 0.0457693 -0.0422879 0.0474076 -0.039421 0.0504793 -0.0375779 0.0518104 -0.0345061 0.0531415 -0.0324583 0.0558037 -0.0292841 0.0563157 -0.0270315 0.0587731 -0.0236526 0.0596946 -0.0210928 0.0614353 -0.018533 0.0627664 -0.0147445 0.0633807 -0.0112631 0.0656334 -0.00901051 0.0659405 -0.00511961 0.0670668 -0.00204784 0.0681932 0.000819137 0zm-0.000819137 0l0.000409568 0 0.000409568 0 -0.000819137 0z"/>
  </g>
  <g>
   <path class="fil0" d="M1.99665 2.7909c0,1.54284 1.26639,2.7909 2.82715,2.7909 1.5622,0 2.82858,-1.24806 2.82858,-2.7909 0,-1.54121 -1.26639,-2.7909 -2.82858,-2.7909 -1.56076,0 -2.82715,1.2497 -2.82715,2.7909z"/>
   <path class="fil5" d="M8.49926 10.2805c0,0.252601 -0.21789,0.457181 -0.48667,0.457181l-6.49627 0c-0.269086,0 -0.485953,-0.204579 -0.485953,-0.457181l0.0818113 -2.16447c0,-1.59619 0.66176,-2.35103 1.52052,-2.35103l1.27898 0c0.288848,0.0865213 0.594898,0.132905 0.912109,0.132905 0.317416,0 0.624182,-0.0463836 0.913235,-0.132905l1.20608 0c0.751456,0 1.44854,0.683877 1.44854,2.11399l0.107614 2.4015z"/>
   <path class="fil6" d="M8.81535 10.2805c0,0.216662 -0.0927673,0.412333 -0.242567,0.552917 -0.144782,0.136079 -0.343014,0.220348 -0.560187,0.220348l0 -0.00122871 -6.49627 0 0 0.00122871c-0.217276,0 -0.415302,-0.0842687 -0.559778,-0.220143 -0.149697,-0.140789 -0.24226,-0.336563 -0.24226,-0.553122l0.00122871 -0.0111607 0.0814017 -2.15331 -0.000819137 0c0,-0.825076 0.170278,-1.45346 0.453392,-1.89128 0.337689,-0.5222 0.826407,-0.775825 1.38322,-0.775825l0.563259 0c0.474997,0.28506 1.03232,0.448989 1.62783,0.448989 0.595922,0 1.15396,-0.164032 1.62916,-0.448989l0.490151 0c0.501926,0 0.981838,0.239393 1.31779,0.729646 0.270418,0.394619 0.44346,0.955933 0.445611,1.68681l0.107614 2.4015 0.00122871 0.0136182zm-0.674662 0.0935864c0.02611,-0.0245741 0.0424927,-0.0578515 0.0424927,-0.0935864l0.000614353 0 -0.107 -2.38789 0 -0.0136182c0,-0.599301 -0.131164,-1.04471 -0.33687,-1.34492 -0.208573,-0.304309 -0.498342,-0.452983 -0.796816,-0.452983l-4.3104 0c-0.340966,0 -0.642818,0.159117 -0.854667,0.486875 -0.218402,0.337792 -0.349771,0.849855 -0.349771,1.54807l-0.00122871 0.0111607 -0.0814017 2.15331 0.000819137 0c0,0.036042 0.016178,0.0693195 0.0421856,0.0937912 0.0310248,0.0291818 0.0762821,0.0473052 0.127683,0.0473052l0 0.00122871 6.49627 0 0 -0.00122871c0.051708,0 0.0969653,-0.0182258 0.128093,-0.0475099z"/>
   <path class="fil6" d="M2.90476 4.69191c-0.49312,-0.486772 -0.798249,-1.15877 -0.798249,-1.90101 0,-0.741729 0.305333,-1.41383 0.798556,-1.90081 0.491687,-0.485339 1.17034,-0.785757 1.91883,-0.785757 0.748896,0 1.42786,0.300214 1.91975,0.785655 0.49353,0.486772 0.798863,1.15908 0.798863,1.90091l-0.00122871 0c0,0.743162 -0.304719,1.41516 -0.797225,1.90111 -0.491175,0.484622 -1.17024,0.784221 -1.92016,0.784221l0 0.00122871c-0.748589,0 -1.42735,-0.300111 -1.91914,-0.785552z"/>
   <g>
    <path class="fil7" d="M3.28648 2.05071l1.4167 0.574625c0,0 -0.796099,0.692171 -1.15877,0.576877 -0.362673,-0.115089 -0.257926,-1.1515 -0.257926,-1.1515z"/>
    <path class="fil7" d="M6.36224 2.05071l-1.4167 0.574625c0,0 0.796099,0.692171 1.15908,0.576877 0.362673,-0.115089 0.257619,-1.1515 0.257619,-1.1515z"/>
   </g>
   <g>
    <path class="fil7" d="M2.34601 10.1527l-0.528548 -0.446225 -0.103109 -0.0870333 0.0872381 -0.103518 7.57292 -8.97221 0.0871357 -0.103109 0.103416 0.0872381 0.528958 0.446122 0.103314 0.0871357 -0.0874429 0.103416 -7.57333 8.97231 -0.0870333 0.103211 -0.103518 -0.0873405zm-0.250656 -0.565512l0.321921 0.271749 7.39885 -8.76558 -0.322228 -0.271851 -7.39855 8.76569z"/>
    <path class="fil8" d="M4.77301 6.87502c-0.0410592,0.0487387 -0.0349157,0.12113 0.0136182,0.162292l0.293456 0.247482c0.0485339,0.0408545 0.12113,0.0349157 0.16178,-0.0140277 0.0411616,-0.0484315 0.0352229,-0.120925 -0.0135158,-0.161984l-0.293353 -0.247482c-0.0484315,-0.0408545 -0.121027,-0.0350181 -0.161984,0.0137205z"/>
    <path class="fil0" d="M5.06268 7.87068c-0.182053,0.215638 -0.660839,0.111198 -0.876681,-0.0710601"/>
    <path class="fil0" d="M4.18599 7.79962c-0.215945,-0.181951 -0.181029,-0.38909 0.00102392,-0.60483"/>
    <line class="fil0" x1="4.18702" y1="7.19479" x2="4.80147" y2= "6.52473" />
    <path class="fil0" d="M4.80147 6.52473c0.182053,-0.21574 0.412435,-0.380796 0.628278,-0.198436"/>
    <path class="fil0" d="M5.42975 6.3263c0.21574,0.182156 0.399329,0.636572 0.217071,0.852107"/>
    <line class="fil0" x1="5.64682" y1="7.1784" x2="5.06268" y2= "7.87068" />
    <path class="fil8" d="M5.56952 6.16104c0.137205,0.115908 0.263148,0.314344 0.324685,0.515135 0.069729,0.227618 0.0628688,0.470389 -0.0821185,0.642101l-0.584249 0.692171 -0.000307176 0.000409568c-0.0723912,0.0855998 -0.168128,0.140277 -0.275128,0.169664l-1.74241 2.52427 -1.80384 -1.04542 2.42567 -2.24321c0.0247789,-0.123485 0.091129,-0.244205 0.189937,-0.361239l0.00593874 -0.00675788 0.614558 -0.669542 0.000307176 0.000307176c0.108638,-0.127683 0.235399,-0.241748 0.375574,-0.30134l-0.000204784 -0.000409568c0.0190449,-0.00808898 0.0386018,-0.0149492 0.0577492,-0.0210928l4.00701 -4.74741c-0.0491482,-0.00184306 -0.0982964,-0.018021 -0.140687,-0.0499674l-0.0112631 -0.00860094 -0.293251 -0.247789c-0.0528343,-0.0447454 -0.0826304,-0.106693 -0.0879548,-0.170278 -0.00532439,-0.0634831 0.0140277,-0.129424 0.0585683,-0.182258 0.044643,-0.0526296 0.10659,-0.0827328 0.170278,-0.0880572 0.0633807,-0.00532439 0.129219,0.0137205 0.182258,0.0584659l0.293251 0.247482c0.0442334,0.0375779 0.0721864,0.0870333 0.0833472,0.139458l0.15666 -0.185637 0.322228 0.271851 -4.26494 5.05274 0.0183282 0.0149492zm-0.298473 0.317006l-0.241748 0.286391 0.285981 0.241031 0.000511961 0.000511961c0.0421856,0.0359396 0.0700362,0.0823233 0.0820161,0.131983l0.0837568 -0.099218c0.0369636,-0.0438238 0.0293865,-0.136693 -0.000819137,-0.235399 -0.0384994,-0.125533 -0.112529,-0.245741 -0.190757,-0.311784 -0.00634831,-0.00532439 -0.0125942,-0.0100344 -0.0189425,-0.0135158zm-0.564385 0.668621l-0.231406 0.274104 0.40107 0.328167c0.00798659,-0.00501721 0.0150516,-0.0110583 0.0206832,-0.0176114l0.240519 -0.28506c-0.0500697,-0.00348133 -0.100344,-0.0220143 -0.142223,-0.0565205l-0.00225263 -0.00194545 -0.000204784 0.000204784 -0.286186 -0.241338zm0.447556 0.0492506l0.000204784 0m-0.0196593 0.00215023l-0.000204784 0"/>
   </g>
  </g>
 </g>
</svg>
