<?xml version="1.0" encoding="UTF-8"?>
<!DOCTYPE svg PUBLIC "-//W3C//DTD SVG 1.1//EN" "http://www.w3.org/Graphics/SVG/1.1/DTD/svg11.dtd">
<!-- Creator: CorelDRAW -->
<svg xmlns="http://www.w3.org/2000/svg" xml:space="preserve" width="0.421469in" height="0.42502in" style="shape-rendering:geometricPrecision; text-rendering:geometricPrecision; image-rendering:optimizeQuality; fill-rule:evenodd; clip-rule:evenodd"
viewBox="0 0 1.56849 1.5817"
 xmlns:xlink="http://www.w3.org/1999/xlink">
 <defs>
  <style type="text/css">
   <![CDATA[
    .str0 {stroke:#4C4C4C;stroke-width:0.0904584}
    .fil0 {fill:none;fill-rule:nonzero}
    .fil6 {fill:#4C4C4C;fill-rule:nonzero}
    .fil2 {fill:#999999;fill-rule:nonzero}
    .fil7 {fill:url(#id0);fill-rule:nonzero}
    .fil4 {fill:url(#id1);fill-rule:nonzero}
    .fil3 {fill:url(#id2);fill-rule:nonzero}
    .fil1 {fill:url(#id3);fill-rule:nonzero}
    .fil5 {fill:url(#id4);fill-rule:nonzero}
   ]]>
  </style>
  <linearGradient id="id0" gradientUnits="userSpaceOnUse" x1="0.346655" y1="0.399356" x2="1.03404" y2="0.399356">
   <stop offset="0" style="stop-color:white"/>
   <stop offset="0.811765" style="stop-color:#E3E3E3"/>
   <stop offset="1" style="stop-color:#C6C6C6"/>
  </linearGradient>
  <linearGradient id="id1" gradientUnits="userSpaceOnUse" x1="0.161709" y1="0.632594" x2="0.595305" y2="0.632594">
   <stop offset="0" style="stop-color:#ECECEC"/>
   <stop offset="0.811765" style="stop-color:#ECECEC"/>
   <stop offset="1" style="stop-color:#ECECEC"/>
  </linearGradient>
  <linearGradient id="id2" gradientUnits="userSpaceOnUse" x1="0.984156" y1="0.520685" x2="1.41775" y2="0.520685">
   <stop offset="0" style="stop-color:#ECECEC"/>
   <stop offset="0.811765" style="stop-color:#ECECEC"/>
   <stop offset="1" style="stop-color:#ECECEC"/>
  </linearGradient>
  <linearGradient id="id3" gradientUnits="userSpaceOnUse" x1="0.858432" y1="1.02355" x2="1.5325" y2="1.02355">
   <stop offset="0" style="stop-color:#ECECEC"/>
   <stop offset="0.811765" style="stop-color:#ECECEC"/>
   <stop offset="1" style="stop-color:#ECECEC"/>
  </linearGradient>
  <linearGradient id="id4" gradientUnits="userSpaceOnUse" x1="0.158119" y1="1.18071" x2="1.2055" y2="1.18071">
   <stop offset="0" style="stop-color:white"/>
   <stop offset="0.811765" style="stop-color:#E3E3E3"/>
   <stop offset="1" style="stop-color:#C6C6C6"/>
  </linearGradient>
 </defs>
 <g id="Layer_x0020_1">
  <metadata id="CorelCorpID_0Corel-Layer"/>
  <path class="fil0" d="M0.940539 0.520685c0,0.14209 0.116626,0.257017 0.260357,0.257017 0.143863,0 0.260489,-0.114926 0.260489,-0.257017 0,-0.141929 -0.116626,-0.257002 -0.260489,-0.257002 -0.143731,0 -0.260357,0.115073 -0.260357,0.257002z"/>
  <path class="fil1" d="M1.53938 1.21042c0,0.0232519 -0.0200579,0.0420938 -0.044819,0.0420938l-0.59825 0c-0.0247757,0 -0.0447457,-0.0188418 -0.0447457,-0.0420938l0.00753088 -0.199334c0,-0.146999 0.0609503,-0.216505 0.140024,-0.216505l0.117783 0c0.0266071,0.00797042 0.054782,0.012234 0.0839971,0.012234 0.0292298,0 0.0574779,-0.00426359 0.0840997,-0.012234l0.111073 0c0.0691991,0 0.133402,0.0629722 0.133402,0.194675l0.00990442 0.221165z"/>
  <path class="fil2" d="M1.56849 1.21042c0,0.0199554 -0.00854183,0.0379621 -0.0223435,0.050914 -0.0133329,0.012527 -0.0315887,0.0202923 -0.051588,0.0202923l0 -0.000117212 -0.59825 0 0 0.000117212c-0.0199993,0 -0.0382404,-0.0077653 -0.051544,-0.0202777 -0.0137871,-0.0129666 -0.0223142,-0.0309879 -0.0223142,-0.0509286l0.000117212 -0.00102561 0.00748692 -0.198308 -7.32575e-005 0c0,-0.0759827 0.0156918,-0.133856 0.0417568,-0.174162 0.0311052,-0.0481009 0.0760999,-0.0714554 0.12738,-0.0714554l0.051881 0c0.0437348,0.0262555 0.095059,0.0413466 0.1499,0.0413466 0.0548845,0 0.106267,-0.0151057 0.150031,-0.0413466l0.0451413 0c0.0462255,0 0.0904145,0.0220505 0.121358,0.0671918 0.0249076,0.0363504 0.0408338,0.0880409 0.0410389,0.15535l0.00990442 0.22115 0.000117212 0.00126003zm-0.062137 0.00861509c0.00240285,-0.00227098 0.00391195,-0.00533315 0.00391195,-0.00861509l5.8606e-005 0 -0.00984581 -0.219904 0 -0.00126003c0,-0.0551922 -0.0120875,-0.0962018 -0.0310319,-0.123849 -0.0192081,-0.0280283 -0.0458885,-0.0417128 -0.0733748,-0.0417128l-0.396953 0c-0.0313982,0 -0.0591921,0.0146515 -0.0787079,0.0448336 -0.0201019,0.0311052 -0.032204,0.0782537 -0.032204,0.142559l-0.000117212 0.00102561 -0.00750157 0.198308 8.7909e-005 0c0,0.00331124 0.0014798,0.00637341 0.00388265,0.00862974 0.00285704,0.00269588 0.00701807,0.00436615 0.0117505,0.00436615l0 0.000102561 0.59825 0 0 -0.000102561c0.00476174,0 0.00893742,-0.00168492 0.0117945,-0.0043808z"/>
  <g>
   <path class="fil3" d="M0.979776 0.520685c0,0.120684 0.0990442,0.218307 0.221135,0.218307 0.122194,0 0.221252,-0.097623 0.221252,-0.218307 0,-0.120553 -0.0990588,-0.218293 -0.221252,-0.218293 -0.122091,0 -0.221135,0.0977402 -0.221135,0.218293z"/>
   <path id="1" class="fil2" d="M1.20091 0.709792l0 0.0584009 0 -0.000117212 -0.0127468 -0.000278379 -0.0127175 -0.000967 -0.0125563 -0.00149445 -0.0122487 -0.00225633 -0.0121901 -0.00266657 -0.0118677 -0.00339915 -0.0116333 -0.00388265 -0.011311 -0.00436615 -0.0111644 -0.00493756 -0.0107982 -0.00549432 -0.0104026 -0.00593386 -0.0102268 -0.00649062 -0.00981651 -0.00687156 -0.00937697 -0.0072818 -0.00917184 -0.0077653 -0.00858578 -0.00813159 -0.00836601 -0.00860044 -0.00786786 -0.00906928 -0.00748692 -0.0092744 -0.00695947 -0.0096993 -0.00654922 -0.0101095 -0.00602177 -0.0102854 -0.00556757 -0.0107835 -0.00501082 -0.01093 -0.00452732 -0.0112817 -0.0039266 -0.0115014 -0.00332589 -0.0117505 -0.00281309 -0.0120435 -0.00228564 -0.0121168 -0.00152376 -0.0124245 -0.000967 -0.0125856 -0.000410242 -0.0127175 0.0585767 0 0.000175818 0.0097579 0.000732575 0.00962604 0.00128933 0.00943557 0.00161167 0.00939162 0.00210982 0.00908393 0.00265192 0.00899603 0.00301821 0.00877625 0.0033845 0.00855648 0.003868 0.00840997 0.00419033 0.00805833 0.00464453 0.00799972 0.00493756 0.00758948 0.0053771 0.00741366 0.00564083 0.00722319 0.00605107 0.00678365 0.0062855 0.00654922 0.006769 0.0063148 0.00688621 0.00594851 0.00732575 0.00567013 0.00753088 0.00528919 0.00770669 0.00487895 0.00811694 0.00455662 0.0082781 0.00414638 0.00840997 0.00379474 0.0087909 0.00345776 0.00890812 0.00297426 0.00911324 0.00246145 0.00920115 0.00222703 0.00952348 0.00158236 0.00956743 0.00126003 0.0097579 0.000732575 0.00999233 0.000278379 0 -0.000117212zm0 0.000117212l0 -5.8606e-005 0 -5.8606e-005 0 0.000117212zm0.192081 -0.189224l0.0583423 0 0.000117212 0 -0.000410242 0.0127175 -0.000967 0.0125856 -0.00152376 0.0124245 -0.00228564 0.0121168 -0.00281309 0.0120435 -0.00332589 0.0117505 -0.0039266 0.0115014 -0.00454197 0.0112817 -0.00499616 0.01093 -0.00558222 0.0107835 -0.00600712 0.0102854 -0.00656388 0.0101095 -0.00695947 0.0096993 -0.00748692 0.0092744 -0.00786786 0.00906928 -0.00836601 0.00860044 -0.00858578 0.00813159 -0.00917184 0.0077653 -0.00939162 0.0072818 -0.00981651 0.00687156 -0.0102414 0.00649062 -0.0104026 0.00593386 -0.0107982 0.00549432 -0.0111791 0.00493756 -0.011311 0.00436615 -0.0116333 0.00388265 -0.0118824 0.00339915 -0.0122047 0.00266657 -0.0122487 0.00225633 -0.012571 0.00149445 -0.0127175 0.000967 -0.0127615 0.000395591 0 -0.0584009 0.010007 -0.000161167 0.0097579 -0.000732575 0.00958209 -0.00126003 0.00952348 -0.00158236 0.0092158 -0.00222703 0.00912789 -0.00246145 0.00890812 -0.00297426 0.0087909 -0.00345776 0.00842462 -0.00379474 0.0082781 -0.00414638 0.00811694 -0.00455662 0.00772134 -0.00487895 0.00753088 -0.00528919 0.00734041 -0.00567013 0.00688621 -0.00594851 0.006769 -0.0063148 0.0062855 -0.00654922 0.00605107 -0.00678365 0.00564083 -0.00722319 0.0053771 -0.00741366 0.00495221 -0.00758948 0.00462988 -0.00799972 0.00420498 -0.00805833 0.00385335 -0.00840997 0.00339915 -0.00855648 0.00301821 -0.00877625 0.00265192 -0.00899603 0.00210982 -0.00908393 0.00161167 -0.00939162 0.00128933 -0.00943557 0.000732575 -0.00962604 0.000175818 -0.0097579 0.000117212 0zm-0.000117212 0l5.8606e-005 0 5.8606e-005 0 -0.000117212 0zm-0.191964 -0.18921l0 -0.0581665 0 -0.000117212 0.0127615 0.000395591 0.0127175 0.000967 0.012571 0.00150911 0.0122487 0.00225633 0.0122047 0.00265192 0.0118824 0.0034138 0.0116333 0.00388265 0.011311 0.00436615 0.0111791 0.00493756 0.0107982 0.00549432 0.0105198 0.00594851 0.0101242 0.00649062 0.00981651 0.00687156 0.00939162 0.0072818 0.00917184 0.00777995 0.00858578 0.00813159 0.00836601 0.00860044 0.00786786 0.00906928 0.00748692 0.0092744 0.00695947 0.0096993 0.00656388 0.0101242 0.00600712 0.0102707 0.00558222 0.0107835 0.00499616 0.01093 0.00454197 0.011267 0.0039266 0.0115161 0.00332589 0.0117359 0.00281309 0.0120289 0.00228564 0.0121168 0.00152376 0.0124245 0.000967 0.0125563 0.00029303 0.0127175 -0.0583423 0 -0.00029303 -0.0097579 -0.000732575 -0.00959674 -0.00128933 -0.00943557 -0.00161167 -0.00939162 -0.00210982 -0.00906928 -0.00265192 -0.00898137 -0.00301821 -0.0087909 -0.00339915 -0.00854183 -0.00385335 -0.00840997 -0.00420498 -0.00805833 -0.00462988 -0.00798507 -0.00495221 -0.00760413 -0.0053771 -0.00741366 -0.00564083 -0.00722319 -0.00605107 -0.00678365 -0.0062855 -0.00654922 -0.006769 -0.0063148 -0.00688621 -0.00596316 -0.00734041 -0.00567013 -0.00753088 -0.00528919 -0.00783856 -0.00487895 -0.00799972 -0.00457127 -0.0082781 -0.00414638 -0.00842462 -0.00379474 -0.0087909 -0.00345776 -0.00890812 -0.00297426 -0.00912789 -0.0024761 -0.0092158 -0.00221238 -0.00952348 -0.00158236 -0.00958209 -0.00127468 -0.0097579 -0.000732575 -0.010007 -0.000161167 0 -0.000117212zm0 0.000117212l0 -5.8606e-005 0 -5.8606e-005 0 0.000117212zm-0.191847 0.189092l-0.0585767 0 0.000117212 0 0.00029303 -0.0127175 0.000967 -0.0125563 0.00152376 -0.0124245 0.00228564 -0.0121168 0.00281309 -0.0120289 0.00332589 -0.0117359 0.0039266 -0.0115161 0.00452732 -0.011267 0.00501082 -0.01093 0.00556757 -0.0107835 0.00602177 -0.0102707 0.00654922 -0.0101242 0.00695947 -0.0096993 0.00748692 -0.0092744 0.00786786 -0.00906928 0.00836601 -0.00860044 0.00858578 -0.00813159 0.00905463 -0.00777995 0.00949418 -0.0072818 0.00981651 -0.00687156 0.0101095 -0.00649062 0.0105198 -0.00594851 0.0107982 -0.00549432 0.0111644 -0.00493756 0.011311 -0.00436615 0.0116333 -0.00388265 0.0118677 -0.0034138 0.0121901 -0.00265192 0.0122487 -0.00225633 0.0125563 -0.00150911 0.0127175 -0.000967 0.0127468 -0.000278379 0 0.0581665 -0.00999233 0.000278379 -0.0097579 0.000732575 -0.00956743 0.00127468 -0.00952348 0.00158236 -0.00920115 0.00221238 -0.00911324 0.0024761 -0.00890812 0.00297426 -0.0087909 0.00345776 -0.00840997 0.00379474 -0.0082781 0.00414638 -0.00799972 0.00457127 -0.00782391 0.00487895 -0.00753088 0.00528919 -0.00720854 0.00567013 -0.00700342 0.00596316 -0.006769 0.0063148 -0.0062855 0.00654922 -0.00605107 0.00678365 -0.00564083 0.00722319 -0.0053771 0.00741366 -0.00493756 0.00760413 -0.00464453 0.00798507 -0.00419033 0.00805833 -0.003868 0.00840997 -0.0033845 0.00854183 -0.00301821 0.0087909 -0.00265192 0.00898137 -0.00210982 0.00906928 -0.00161167 0.00939162 -0.00128933 0.00943557 -0.000732575 0.00959674 -0.00029303 0.0097579 0.000117212 0zm-0.000117212 0l5.8606e-005 0 5.8606e-005 0 -0.000117212 0z"/>
  </g>
  <path class="fil0" d="M0.118091 0.632594c0,0.14209 0.116626,0.257017 0.260357,0.257017 0.143863,0 0.260489,-0.114926 0.260489,-0.257017 0,-0.141929 -0.116626,-0.257002 -0.260489,-0.257002 -0.143731,0 -0.260357,0.115073 -0.260357,0.257002z"/>
  <path class="fil1" d="M0.716928 1.32233c0,0.0232519 -0.0200579,0.0420938 -0.044819,0.0420938l-0.59825 0c-0.0247757,0 -0.0447457,-0.0188418 -0.0447457,-0.0420938l0.00753088 -0.199334c0,-0.146999 0.0609503,-0.216505 0.140024,-0.216505l0.117783 0c0.0266071,0.00797042 0.054782,0.012234 0.0839971,0.012234 0.0292298,0 0.0574779,-0.00426359 0.0840997,-0.012234l0.111073 0c0.0691991,0 0.133402,0.0629722 0.133402,0.194675l0.00990442 0.221165z"/>
  <path class="fil2" d="M0.74604 1.32233c0,0.0199554 -0.00854183,0.0379621 -0.0223435,0.050914 -0.0133329,0.012527 -0.0315887,0.0202923 -0.051588,0.0202923l0 -0.000117212 -0.59825 0 0 0.000117212c-0.0199993,0 -0.0382404,-0.0077653 -0.051544,-0.0202777 -0.0137871,-0.0129666 -0.0223142,-0.0309879 -0.0223142,-0.0509286l0.000117212 -0.00102561 0.00748692 -0.198308 -7.32575e-005 0c0,-0.0759827 0.0156918,-0.133856 0.0417568,-0.174162 0.0311052,-0.0481009 0.0760999,-0.0714554 0.12738,-0.0714554l0.051881 0c0.0437348,0.0262555 0.095059,0.0413466 0.1499,0.0413466 0.0548845,0 0.106267,-0.0151057 0.150031,-0.0413466l0.0451413 0c0.0462255,0 0.0904145,0.0220505 0.121358,0.0671918 0.0249076,0.0363504 0.0408338,0.0880409 0.0410389,0.15535l0.00990442 0.22115 0.000117212 0.00126003zm-0.062137 0.00861509c0.00240285,-0.00227098 0.00391195,-0.00533315 0.00391195,-0.00861509l5.8606e-005 0 -0.00984581 -0.219904 0 -0.00126003c0,-0.0551922 -0.0120875,-0.0962018 -0.0310319,-0.123849 -0.0192081,-0.0280283 -0.0458885,-0.0417128 -0.0733748,-0.0417128l-0.396953 0c-0.0313982,0 -0.0591921,0.0146515 -0.0787079,0.0448336 -0.0201019,0.0311052 -0.032204,0.0782537 -0.032204,0.142559l-0.000117212 0.00102561 -0.00750157 0.198308 8.7909e-005 0c0,0.00331124 0.0014798,0.00637341 0.00388265,0.00862974 0.00285704,0.00269588 0.00701807,0.00436615 0.0117505,0.00436615l0 0.000102561 0.59825 0 0 -0.000102561c0.00476174,0 0.00893742,-0.00168492 0.0117945,-0.0043808z"/>
  <g>
   <path class="fil4" d="M0.157328 0.632594c0,0.120684 0.0990442,0.218307 0.221135,0.218307 0.122194,0 0.221252,-0.097623 0.221252,-0.218307 0,-0.120553 -0.0990588,-0.218293 -0.221252,-0.218293 -0.122091,0 -0.221135,0.0977402 -0.221135,0.218293z"/>
   <path id="1" class="fil2" d="M0.378463 0.821701l0 0.0584009 0 -0.000117212 -0.0127468 -0.000278379 -0.0127175 -0.000967 -0.0125563 -0.00149445 -0.0122487 -0.00225633 -0.0121901 -0.00266657 -0.0118677 -0.00339915 -0.0116333 -0.00388265 -0.011311 -0.00436615 -0.0111644 -0.00493756 -0.0107982 -0.00549432 -0.0104026 -0.00593386 -0.0102268 -0.00649062 -0.00981651 -0.00687156 -0.00937697 -0.0072818 -0.00917184 -0.0077653 -0.00858578 -0.00813159 -0.00836601 -0.00860044 -0.00786786 -0.00906928 -0.00748692 -0.0092744 -0.00695947 -0.0096993 -0.00654922 -0.0101095 -0.00602177 -0.0102854 -0.00556757 -0.0107835 -0.00501082 -0.01093 -0.00452732 -0.0112817 -0.0039266 -0.0115014 -0.00332589 -0.0117505 -0.00281309 -0.0120435 -0.00228564 -0.0121168 -0.00152376 -0.0124245 -0.000967 -0.0125856 -0.000410242 -0.0127175 0.0585767 0 0.000175818 0.0097579 0.000732575 0.00962604 0.00128933 0.00943557 0.00161167 0.00939162 0.00210982 0.00908393 0.00265192 0.00899603 0.00301821 0.00877625 0.0033845 0.00855648 0.003868 0.00840997 0.00419033 0.00805833 0.00464453 0.00799972 0.00493756 0.00758948 0.0053771 0.00741366 0.00564083 0.00722319 0.00605107 0.00678365 0.0062855 0.00654922 0.006769 0.0063148 0.00688621 0.00594851 0.00732575 0.00567013 0.00753088 0.00528919 0.00770669 0.00487895 0.00811694 0.00455662 0.0082781 0.00414638 0.00840997 0.00379474 0.0087909 0.00345776 0.00890812 0.00297426 0.00911324 0.00246145 0.00920115 0.00222703 0.00952348 0.00158236 0.00956743 0.00126003 0.0097579 0.000732575 0.00999233 0.000278379 0 -0.000117212zm0 0.000117212l0 -5.8606e-005 0 -5.8606e-005 0 0.000117212zm0.192081 -0.189224l0.0583423 0 0.000117212 0 -0.000410242 0.0127175 -0.000967 0.0125856 -0.00152376 0.0124245 -0.00228564 0.0121168 -0.00281309 0.0120435 -0.00332589 0.0117505 -0.0039266 0.0115014 -0.00454197 0.0112817 -0.00499616 0.01093 -0.00558222 0.0107835 -0.00600712 0.0102854 -0.00656388 0.0101095 -0.00695947 0.0096993 -0.00748692 0.0092744 -0.00786786 0.00906928 -0.00836601 0.00860044 -0.00858578 0.00813159 -0.00917184 0.0077653 -0.00939162 0.0072818 -0.00981651 0.00687156 -0.0102414 0.00649062 -0.0104026 0.00593386 -0.0107982 0.00549432 -0.0111791 0.00493756 -0.011311 0.00436615 -0.0116333 0.00388265 -0.0118824 0.00339915 -0.0122047 0.00266657 -0.0122487 0.00225633 -0.012571 0.00149445 -0.0127175 0.000967 -0.0127615 0.000395591 0 -0.0584009 0.010007 -0.000161167 0.0097579 -0.000732575 0.00958209 -0.00126003 0.00952348 -0.00158236 0.0092158 -0.00222703 0.00912789 -0.00246145 0.00890812 -0.00297426 0.0087909 -0.00345776 0.00842462 -0.00379474 0.0082781 -0.00414638 0.00811694 -0.00455662 0.00772134 -0.00487895 0.00753088 -0.00528919 0.00734041 -0.00567013 0.00688621 -0.00594851 0.006769 -0.0063148 0.0062855 -0.00654922 0.00605107 -0.00678365 0.00564083 -0.00722319 0.0053771 -0.00741366 0.00495221 -0.00758948 0.00462988 -0.00799972 0.00420498 -0.00805833 0.00385335 -0.00840997 0.00339915 -0.00855648 0.00301821 -0.00877625 0.00265192 -0.00899603 0.00210982 -0.00908393 0.00161167 -0.00939162 0.00128933 -0.00943557 0.000732575 -0.00962604 0.000175818 -0.0097579 0.000117212 0zm-0.000117212 0l5.8606e-005 0 5.8606e-005 0 -0.000117212 0zm-0.191964 -0.18921l0 -0.0581665 0 -0.000117212 0.0127615 0.000395591 0.0127175 0.000967 0.012571 0.00150911 0.0122487 0.00225633 0.0122047 0.00265192 0.0118824 0.0034138 0.0116333 0.00388265 0.011311 0.00436615 0.0111791 0.00493756 0.0107982 0.00549432 0.0105198 0.00594851 0.0101242 0.00649062 0.00981651 0.00687156 0.00939162 0.0072818 0.00917184 0.00777995 0.00858578 0.00813159 0.00836601 0.00860044 0.00786786 0.00906928 0.00748692 0.0092744 0.00695947 0.0096993 0.00656388 0.0101242 0.00600712 0.0102707 0.00558222 0.0107835 0.00499616 0.01093 0.00454197 0.011267 0.0039266 0.0115161 0.00332589 0.0117359 0.00281309 0.0120289 0.00228564 0.0121168 0.00152376 0.0124245 0.000967 0.0125563 0.00029303 0.0127175 -0.0583423 0 -0.00029303 -0.0097579 -0.000732575 -0.00959674 -0.00128933 -0.00943557 -0.00161167 -0.00939162 -0.00210982 -0.00906928 -0.00265192 -0.00898137 -0.00301821 -0.0087909 -0.00339915 -0.00854183 -0.00385335 -0.00840997 -0.00420498 -0.00805833 -0.00462988 -0.00798507 -0.00495221 -0.00760413 -0.0053771 -0.00741366 -0.00564083 -0.00722319 -0.00605107 -0.00678365 -0.0062855 -0.00654922 -0.006769 -0.0063148 -0.00688621 -0.00596316 -0.00734041 -0.00567013 -0.00753088 -0.00528919 -0.00783856 -0.00487895 -0.00799972 -0.00457127 -0.0082781 -0.00414638 -0.00842462 -0.00379474 -0.0087909 -0.00345776 -0.00890812 -0.00297426 -0.00912789 -0.0024761 -0.0092158 -0.00221238 -0.00952348 -0.00158236 -0.00958209 -0.00127468 -0.0097579 -0.000732575 -0.010007 -0.000161167 0 -0.000117212zm0 0.000117212l0 -5.8606e-005 0 -5.8606e-005 0 0.000117212zm-0.191847 0.189092l-0.0585767 0 0.000117212 0 0.00029303 -0.0127175 0.000967 -0.0125563 0.00152376 -0.0124245 0.00228564 -0.0121168 0.00281309 -0.0120289 0.00332589 -0.0117359 0.0039266 -0.0115161 0.00452732 -0.011267 0.00501082 -0.01093 0.00556757 -0.0107835 0.00602177 -0.0102707 0.00654922 -0.0101242 0.00695947 -0.0096993 0.00748692 -0.0092744 0.00786786 -0.00906928 0.00836601 -0.00860044 0.00858578 -0.00813159 0.00905463 -0.00777995 0.00949418 -0.0072818 0.00981651 -0.00687156 0.0101095 -0.00649062 0.0105198 -0.00594851 0.0107982 -0.00549432 0.0111644 -0.00493756 0.011311 -0.00436615 0.0116333 -0.00388265 0.0118677 -0.0034138 0.0121901 -0.00265192 0.0122487 -0.00225633 0.0125563 -0.00150911 0.0127175 -0.000967 0.0127468 -0.000278379 0 0.0581665 -0.00999233 0.000278379 -0.0097579 0.000732575 -0.00956743 0.00127468 -0.00952348 0.00158236 -0.00920115 0.00221238 -0.00911324 0.0024761 -0.00890812 0.00297426 -0.0087909 0.00345776 -0.00840997 0.00379474 -0.0082781 0.00414638 -0.00799972 0.00457127 -0.00782391 0.00487895 -0.00753088 0.00528919 -0.00720854 0.00567013 -0.00700342 0.00596316 -0.006769 0.0063148 -0.0062855 0.00654922 -0.00605107 0.00678365 -0.00564083 0.00722319 -0.0053771 0.00741366 -0.00493756 0.00760413 -0.00464453 0.00798507 -0.00419033 0.00805833 -0.003868 0.00840997 -0.0033845 0.00854183 -0.00301821 0.0087909 -0.00265192 0.00898137 -0.00210982 0.00906928 -0.00161167 0.00939162 -0.00128933 0.00943557 -0.000732575 0.00959674 -0.00029303 0.0097579 0.000117212 0zm-0.000117212 0l5.8606e-005 0 5.8606e-005 0 -0.000117212 0z"/>
  </g>
  <g>
   <path class="fil0" d="M0.285704 0.399356c0,0.220769 0.18121,0.399356 0.404543,0.399356 0.223538,0 0.404748,-0.178587 0.404748,-0.399356 0,-0.220534 -0.18121,-0.399356 -0.404748,-0.399356 -0.223333,0 -0.404543,0.178822 -0.404543,0.399356z"/>
   <path class="fil5" d="M1.21618 1.47106c0,0.0361453 -0.0311784,0.065419 -0.0696386,0.065419l-0.929565 0c-0.0385042,0 -0.0695361,-0.0292737 -0.0695361,-0.065419l0.0117066 -0.309718c0,-0.228402 0.0946927,-0.336413 0.217575,-0.336413l0.183012 0c0.0413319,0.0123805 0.0851253,0.0190177 0.130516,0.0190177 0.0454197,0 0.0893156,-0.00663713 0.130677,-0.0190177l0.17258 0c0.107527,0 0.207275,0.0978574 0.207275,0.302495l0.0153987 0.343636z"/>
   <path class="fil6" d="M1.26141 1.47106c0,0.0310026 -0.0132743,0.0590016 -0.0347094,0.0791181 -0.0207172,0.0194719 -0.0490826,0.03153 -0.0801584,0.03153l0 -0.000175818 -0.929565 0 0 0.000175818c-0.0310905,0 -0.0594265,-0.0120582 -0.0800998,-0.0315007 -0.0214205,-0.0201458 -0.0346655,-0.0481595 -0.0346655,-0.0791474l0.000175818 -0.00159701 0.0116479 -0.308121 -0.000117212 0c0,-0.118062 0.0243655,-0.207978 0.0648769,-0.270628 0.0483207,-0.0747227 0.118252,-0.111014 0.197927,-0.111014l0.0805979 0c0.0679683,0.0407898 0.147717,0.0642469 0.23293,0.0642469 0.0852718,0 0.165122,-0.0234717 0.23312,-0.0642469l0.0701368 0c0.0718217,0 0.140493,0.0342552 0.188565,0.104407 0.0386946,0.0564669 0.0634557,0.136786 0.0637634,0.241369l0.0153987 0.343636 0.000175818 0.00194865zm-0.0965388 0.0133915c0.00373613,-0.00351636 0.00608038,-0.0082781 0.00608038,-0.0133915l8.7909e-005 0 -0.0153108 -0.341688 0 -0.00194865c0,-0.0857553 -0.0187686,-0.149489 -0.0482035,-0.192448 -0.0298451,-0.0435443 -0.0713089,-0.0648183 -0.114018,-0.0648183l-0.616785 0c-0.0487895,0 -0.0919822,0.0227684 -0.122296,0.0696679 -0.0312517,0.0483353 -0.0500496,0.121608 -0.0500496,0.221516l-0.000175818 0.00159701 -0.0116479 0.308121 0.000117212 0c0,0.00515733 0.00231494,0.00991907 0.00603642,0.0134208 0.00443941,0.00417568 0.0109154,0.006769 0.0182704,0.006769l0 0.000175818 0.929565 0 0 -0.000175818c0.00739901,0 0.013875,-0.00260797 0.018329,-0.0067983z"/>
   <path class="fil7 str0" d="M0.346655 0.399356c0,0.18751 0.153914,0.339197 0.343607,0.339197 0.189869,0 0.343783,-0.151687 0.343783,-0.339197 0,-0.18732 -0.153914,-0.339197 -0.343783,-0.339197 -0.189693,0 -0.343607,0.151878 -0.343607,0.339197z"/>
  </g>
 </g>
</svg>
