<?xml version="1.0" encoding="UTF-8"?>
<!DOCTYPE svg PUBLIC "-//W3C//DTD SVG 1.1//EN" "http://www.w3.org/Graphics/SVG/1.1/DTD/svg11.dtd">
<!-- Creator: CorelDRAW -->
<svg xmlns="http://www.w3.org/2000/svg" xml:space="preserve" width="1.78889in" height="0.461921in" style="shape-rendering:geometricPrecision; text-rendering:geometricPrecision; image-rendering:optimizeQuality; fill-rule:evenodd; clip-rule:evenodd"
viewBox="0 0 77.653 20.0514"
 xmlns:xlink="http://www.w3.org/1999/xlink">
 <defs>
  <style type="text/css">
   <![CDATA[
    .str1 {stroke:#667899;stroke-width:0.452201}
    .str2 {stroke:#3B425C;stroke-width:0.452201}
    .str0 {stroke:#3B425C;stroke-width:0.602764;stroke-linecap:round;stroke-linejoin:round}
    .fil1 {fill:none}
    .fil3 {fill:none;fill-rule:nonzero}
    .fil0 {fill:#3B425C}
    .fil2 {fill:#667899;fill-rule:nonzero}
    .fil4 {fill:#3B425C;fill-rule:nonzero}
   ]]>
  </style>
 </defs>
 <g id="Layer_x0020_1">
  <metadata id="CorelCorpID_0Corel-Layer"/>
  <path class="fil0" d="M19.4272 0c4.04247,0 7.32067,3.2782 7.32067,7.32067 0,4.04247 -3.2782,7.32084 -7.32067,7.32084l-0.0524663 -0.0008545 0.0005127 0.0005127 -1.14708 3.10577 -0.0006836 -0.0001709c-0.356156,1.32704 -1.56647,2.30459 -3.00562,2.30459 -1.71925,0 -3.1126,-1.39335 -3.1126,-3.1126 0,-0.0560552 0.001709,-0.111769 0.0046143,-0.16714l-0.0044434 -0.0006836 0.0128175 -8.96815 0.0008545 0.0006836c-0.0104249,-0.159792 -0.0165773,-0.320438 -0.0165773,-0.482793 0,-4.04247 3.2782,-7.32067 7.32067,-7.32067zm-4.25028 15.0495c1.01874,0 1.84418,0.825447 1.84418,1.84435 0,1.01925 -0.825447,1.84452 -1.84418,1.84452 -1.01925,0 -1.84469,-0.825276 -1.84469,-1.84452 0,-1.01891 0.825447,-1.84435 1.84469,-1.84435zm4.25028 -12.7883c2.79387,0 5.0595,2.26596 5.0595,5.0595 0,2.79387 -2.26562,5.05967 -5.0595,5.05967 -2.79353,0 -5.0595,-2.26579 -5.0595,-5.05967 0,-2.79353 2.26596,-5.0595 5.0595,-5.0595z"/>
  <polyline class="fil1 str0" points="18.2268,4.45331 21.1186,6.55897 17.7034,9.9739 "/>
  <line class="fil1 str0" x1="21.1186" y1="6.55897" x2="21.8658" y2= "8.92081" />
  <circle class="fil0" cx="21.8657" cy="8.92075" r="1.00847"/>
  <circle class="fil0" cx="18.2267" cy="4.4533" r="1.00847"/>
  <circle class="fil0" cx="17.7033" cy="9.97375" r="1.00847"/>
  <path class="fil2" d="M29.3169 6.52172l7.09372 0 0 -1.07069c0,-0.654376 -0.510478,-0.981479 -1.53178,-0.981479l-3.53934 0c-1.3484,0 -2.0226,0.346927 -2.0226,1.04095l0 1.01122zm8.37273 0.53543c0,0.396659 -0.198244,0.594903 -0.594903,0.594903l-7.77783 0 0 0.907137c0,0.654376 0.674201,0.98165 2.0226,0.98165l1.44257 0c0.376664,0 0.564996,0.17842 0.564996,0.535259 0,0.376835 -0.188332,0.565166 -0.564996,0.565166l-1.1006 0c-2.45874,0 -3.68819,-0.748542 -3.68819,-2.24563l0 -2.79592c0,-1.47726 1.21459,-2.21589 3.64359,-2.21589l2.97434 0c2.05234,0 3.07842,0.644464 3.07842,1.93339l0 1.73993z"/>
  <path id="1" class="fil2" d="M42.3297 4.46955c-1.25919,0 -1.88879,0.371708 -1.88879,1.11529l0 4.53586c0,0.396659 -0.223025,0.594903 -0.669245,0.594903 -0.436308,0 -0.654376,-0.198244 -0.654376,-0.594903l0 -4.53586c0,-1.46735 1.11546,-2.20102 3.34622,-2.20102l0.609771 0c0.327103,0 0.490654,0.17842 0.490654,0.53543 0,0.366751 -0.138771,0.550298 -0.416312,0.550298l-0.817928 0z"/>
  <path id="12" class="fil2" d="M46.6277 4.46955l0 5.65115c0,0.396659 -0.213283,0.594903 -0.639508,0.594903 -0.44622,0 -0.669245,-0.198244 -0.669245,-0.594903l0 -5.65115 -0.654376 0c-0.366751,0 -0.550298,-0.188503 -0.550298,-0.565166 0,-0.347098 0.183547,-0.520561 0.550298,-0.520561l0.654376 0 0 -1.72506c0,-0.386747 0.227981,-0.580035 0.684113,-0.580035 0.416312,0 0.62464,0.193288 0.62464,0.580035l0 1.72506 2.6322 0c0.366922,0 0.550298,0.17842 0.550298,0.53543 0,0.366751 -0.183376,0.550298 -0.550298,0.550298l-2.6322 0z"/>
  <path id="123" class="fil2" d="M60.6516 8.52945c0,1.40787 -1.22928,2.11181 -3.68819,2.11181l-2.29023 0c-2.47856,0 -3.71793,-0.703937 -3.71793,-2.11181l0 -4.69941c0,-0.376835 0.213112,-0.565166 0.639508,-0.565166 0.436308,0 0.654376,0.188332 0.654376,0.565166l0 4.69941c0,0.674201 0.733674,1.01139 2.20102,1.01139l2.72158 0c1.42753,0 2.14138,-0.327274 2.14138,-0.98165l0 -4.72915c0,-0.366922 0.228152,-0.550298 0.684113,-0.550298 0.436308,0 0.654376,0.183376 0.654376,0.550298l0 4.69941z"/>
  <path id="1234" class="fil2" d="M65.6336 4.46955c-1.25919,0 -1.88879,0.371708 -1.88879,1.11529l0 4.53586c0,0.396659 -0.223025,0.594903 -0.669245,0.594903 -0.436308,0 -0.654376,-0.198244 -0.654376,-0.594903l0 -4.53586c0,-1.46735 1.11546,-2.20102 3.34622,-2.20102l0.609771 0c0.327103,0 0.490654,0.17842 0.490654,0.53543 0,0.366751 -0.138771,0.550298 -0.416312,0.550298l-0.817928 0z"/>
  <path id="12345" class="fil2" d="M69.0542 6.52172l7.09372 0 0 -1.07069c0,-0.654376 -0.510478,-0.981479 -1.53178,-0.981479l-3.53934 0c-1.3484,0 -2.0226,0.346927 -2.0226,1.04095l0 1.01122zm8.37273 0.53543c0,0.396659 -0.198244,0.594903 -0.594903,0.594903l-7.77783 0 0 0.907137c0,0.654376 0.674201,0.98165 2.0226,0.98165l1.44257 0c0.376664,0 0.564996,0.17842 0.564996,0.535259 0,0.376835 -0.188332,0.565166 -0.564996,0.565166l-1.1006 0c-2.45874,0 -3.68819,-0.748542 -3.68819,-2.24563l0 -2.79592c0,-1.47726 1.21459,-2.21589 3.64359,-2.21589l2.97434 0c2.05234,0 3.07842,0.644464 3.07842,1.93339l0 1.73993z"/>
  <path id="123456" class="fil3 str1" d="M29.3169 6.52172l7.09372 0 0 -1.07069c0,-0.654376 -0.510478,-0.981479 -1.53178,-0.981479l-3.53934 0c-1.3484,0 -2.0226,0.346927 -2.0226,1.04095l0 1.01122zm8.37273 0.53543c0,0.396659 -0.198244,0.594903 -0.594903,0.594903l-7.77783 0 0 0.907137c0,0.654376 0.674201,0.98165 2.0226,0.98165l1.44257 0c0.376664,0 0.564996,0.17842 0.564996,0.535259 0,0.376835 -0.188332,0.565166 -0.564996,0.565166l-1.1006 0c-2.45874,0 -3.68819,-0.748542 -3.68819,-2.24563l0 -2.79592c0,-1.47726 1.21459,-2.21589 3.64359,-2.21589l2.97434 0c2.05234,0 3.07842,0.644464 3.07842,1.93339l0 1.73993z"/>
  <path id="1234567" class="fil3 str1" d="M42.3297 4.46955c-1.25919,0 -1.88879,0.371708 -1.88879,1.11529l0 4.53586c0,0.396659 -0.223025,0.594903 -0.669245,0.594903 -0.436308,0 -0.654376,-0.198244 -0.654376,-0.594903l0 -4.53586c0,-1.46735 1.11546,-2.20102 3.34622,-2.20102l0.609771 0c0.327103,0 0.490654,0.17842 0.490654,0.53543 0,0.366751 -0.138771,0.550298 -0.416312,0.550298l-0.817928 0z"/>
  <path id="12345678" class="fil3 str1" d="M46.6277 4.46955l0 5.65115c0,0.396659 -0.213283,0.594903 -0.639508,0.594903 -0.44622,0 -0.669245,-0.198244 -0.669245,-0.594903l0 -5.65115 -0.654376 0c-0.366751,0 -0.550298,-0.188503 -0.550298,-0.565166 0,-0.347098 0.183547,-0.520561 0.550298,-0.520561l0.654376 0 0 -1.72506c0,-0.386747 0.227981,-0.580035 0.684113,-0.580035 0.416312,0 0.62464,0.193288 0.62464,0.580035l0 1.72506 2.6322 0c0.366922,0 0.550298,0.17842 0.550298,0.53543 0,0.366751 -0.183376,0.550298 -0.550298,0.550298l-2.6322 0z"/>
  <path id="123456789" class="fil3 str1" d="M60.6516 8.52945c0,1.40787 -1.22928,2.11181 -3.68819,2.11181l-2.29023 0c-2.47856,0 -3.71793,-0.703937 -3.71793,-2.11181l0 -4.69941c0,-0.376835 0.213112,-0.565166 0.639508,-0.565166 0.436308,0 0.654376,0.188332 0.654376,0.565166l0 4.69941c0,0.674201 0.733674,1.01139 2.20102,1.01139l2.72158 0c1.42753,0 2.14138,-0.327274 2.14138,-0.98165l0 -4.72915c0,-0.366922 0.228152,-0.550298 0.684113,-0.550298 0.436308,0 0.654376,0.183376 0.654376,0.550298l0 4.69941z"/>
  <path id="12345678910" class="fil3 str1" d="M65.6336 4.46955c-1.25919,0 -1.88879,0.371708 -1.88879,1.11529l0 4.53586c0,0.396659 -0.223025,0.594903 -0.669245,0.594903 -0.436308,0 -0.654376,-0.198244 -0.654376,-0.594903l0 -4.53586c0,-1.46735 1.11546,-2.20102 3.34622,-2.20102l0.609771 0c0.327103,0 0.490654,0.17842 0.490654,0.53543 0,0.366751 -0.138771,0.550298 -0.416312,0.550298l-0.817928 0z"/>
  <path id="1234567891011" class="fil3 str1" d="M69.0542 6.52172l7.09372 0 0 -1.07069c0,-0.654376 -0.510478,-0.981479 -1.53178,-0.981479l-3.53934 0c-1.3484,0 -2.0226,0.346927 -2.0226,1.04095l0 1.01122zm8.37273 0.53543c0,0.396659 -0.198244,0.594903 -0.594903,0.594903l-7.77783 0 0 0.907137c0,0.654376 0.674201,0.98165 2.0226,0.98165l1.44257 0c0.376664,0 0.564996,0.17842 0.564996,0.535259 0,0.376835 -0.188332,0.565166 -0.564996,0.565166l-1.1006 0c-2.45874,0 -3.68819,-0.748542 -3.68819,-2.24563l0 -2.79592c0,-1.47726 1.21459,-2.21589 3.64359,-2.21589l2.97434 0c2.05234,0 3.07842,0.644464 3.07842,1.93339l0 1.73993z"/>
  <path class="fil4" d="M9.68149 6.66476l-6.06763 0c-1.03121,0 -1.54665,0.327103 -1.54665,0.981479l0 0.996347c0,0.614727 0.550298,0.922177 1.65072,0.922177l4.37231 0c1.06078,0 1.59125,-0.466044 1.59125,-1.39796l0 -1.50204zm1.26415 1.87375c0,1.41779 -1.03121,2.12668 -3.09329,2.12668l-3.86678 0c-2.17128,0 -3.25684,-0.679157 -3.25684,-2.03747l0 -0.951742c0,-1.40787 1.06078,-2.11181 3.1825,-2.11181l5.7554 0c-0.0892098,-0.713849 -0.62464,-1.07069 -1.60612,-1.07069l-1.60612 0c-0.317361,0 -0.475957,-0.188503 -0.475957,-0.565166 0,-0.347098 0.158595,-0.520561 0.475957,-0.520561l1.39796 0c2.06208,0 3.09329,0.723762 3.09329,2.17128l0 2.95948z"/>
  <path id="1" class="fil3 str2" d="M9.68149 6.66476l-6.06763 0c-1.03121,0 -1.54665,0.327103 -1.54665,0.981479l0 0.996347c0,0.614727 0.550298,0.922177 1.65072,0.922177l4.37231 0c1.06078,0 1.59125,-0.466044 1.59125,-1.39796l0 -1.50204zm1.26415 1.87375c0,1.41779 -1.03121,2.12668 -3.09329,2.12668l-3.86678 0c-2.17128,0 -3.25684,-0.679157 -3.25684,-2.03747l0 -0.951742c0,-1.40787 1.06078,-2.11181 3.1825,-2.11181l5.7554 0c-0.0892098,-0.713849 -0.62464,-1.07069 -1.60612,-1.07069l-1.60612 0c-0.317361,0 -0.475957,-0.188503 -0.475957,-0.565166 0,-0.347098 0.158595,-0.520561 0.475957,-0.520561l1.39796 0c2.06208,0 3.09329,0.723762 3.09329,2.17128l0 2.95948z"/>
 </g>
</svg>
