<?xml version="1.0" encoding="UTF-8"?>
<!DOCTYPE svg PUBLIC "-//W3C//DTD SVG 1.1//EN" "http://www.w3.org/Graphics/SVG/1.1/DTD/svg11.dtd">
<!-- Creator: CorelDRAW -->
<svg xmlns="http://www.w3.org/2000/svg" xml:space="preserve" width="0.398563in" height="0.38552in" style="shape-rendering:geometricPrecision; text-rendering:geometricPrecision; image-rendering:optimizeQuality; fill-rule:evenodd; clip-rule:evenodd"
viewBox="0 0 3.08634 2.98533"
 xmlns:xlink="http://www.w3.org/1999/xlink">
 <defs>
  <style type="text/css">
   <![CDATA[
    .str2 {stroke:#4C4C4C;stroke-width:0.105728}
    .str1 {stroke:#4C4C4C;stroke-width:0.135514}
    .str0 {stroke:#4C4C4C;stroke-width:0.188226}
    .fil3 {fill:#4C4C4C;fill-rule:nonzero}
    .fil2 {fill:url(#id0);fill-rule:nonzero}
    .fil1 {fill:url(#id1);fill-rule:nonzero}
    .fil0 {fill:url(#id2);fill-rule:nonzero}
   ]]>
  </style>
  <linearGradient id="id0" gradientUnits="userSpaceOnUse" x1="0.147983" y1="2.57111" x2="0.342855" y2="2.90866">
   <stop offset="0" style="stop-color:white"/>
   <stop offset="0.709804" style="stop-color:#E3E3E3"/>
   <stop offset="1" style="stop-color:#C6C6C6"/>
  </linearGradient>
  <linearGradient id="id1" gradientUnits="userSpaceOnUse" x1="0.755616" y1="2.22447" x2="1.03792" y2="2.71342">
   <stop offset="0" style="stop-color:white"/>
   <stop offset="0.709804" style="stop-color:#E3E3E3"/>
   <stop offset="1" style="stop-color:#C6C6C6"/>
  </linearGradient>
  <linearGradient id="id2" gradientUnits="userSpaceOnUse" x1="1.11268" y1="0.167129" x2="2.19283" y2="2.03798">
   <stop offset="0" style="stop-color:white"/>
   <stop offset="0.709804" style="stop-color:#E3E3E3"/>
   <stop offset="1" style="stop-color:#C6C6C6"/>
  </linearGradient>
 </defs>
 <g id="Layer_x0020_1">
  <metadata id="CorelCorpID_0Corel-Layer"/>
  <path class="fil0 str0" d="M2.99222 1.10274c0,0.556873 -0.599615,1.00829 -1.33944,1.00829 -0.739733,0 -1.33947,-0.451419 -1.33947,-1.00829 0,-0.557086 0.599737,-1.00863 1.33947,-1.00863 0.739824,0 1.33944,0.451541 1.33944,1.00863z"/>
  <path class="fil1 str1" d="M1.17164 2.46898c0,0.155635 -0.123106,0.28179 -0.275083,0.28179 -0.151672,0 -0.274656,-0.126155 -0.274656,-0.28179 0,-0.155788 0.122984,-0.28182 0.274656,-0.28182 0.151977,0 0.275083,0.126033 0.275083,0.28182z"/>
  <path class="fil2 str2" d="M0.438218 2.73994c0,0.106399 -0.0864302,0.192738 -0.192951,0.192738 -0.106399,0 -0.192616,-0.0863387 -0.192616,-0.192738 0,-0.106491 0.0862168,-0.19286 0.192616,-0.19286 0.106521,0 0.192951,0.0863692 0.192951,0.19286z"/>
  <path class="fil3" d="M1.76988 1.2728l0 0 -0.256669 0 -0.0610347 -0.889271 0.378921 0 -0.0612176 0.889271zm-0.128136 0.532026l-0.00234749 0c-0.113076,0 -0.192037,-0.0766744 -0.192037,-0.186488 0,-0.11274 0.0781378,-0.18847 0.194384,-0.18847 0.114661,0 0.189963,0.0742659 0.191823,0.189079 0,0.110911 -0.0770402,0.185878 -0.191823,0.185878z"/>
 </g>
</svg>
